<svg width="284" height="63" viewBox="10 0 284 63" fill="none" xmlns="http://www.w3.org/2000/svg">
<g clip-path="url(#clip0_265_394)">
<path d="M96.4501 36.2588C99.3256 41.2927 100.171 47.4172 98.8414 53.0546C98.6515 53.8575 98.4197 54.65 98.147 55.4288C98.3714 54.6364 98.573 53.8384 98.7292 53.0304C99.8615 47.3429 99.0619 41.4401 96.4572 36.2588H96.4501Z" fill="#224E4E"/>
<path d="M94.2733 39.6348C96.7952 42.7488 97.4967 47.1849 96.1193 50.9394C95.9248 51.4727 95.6903 51.9906 95.4178 52.4886C95.878 51.4584 96.209 50.3753 96.4033 49.2638C96.9982 45.9325 96.1903 42.4194 94.2733 39.6348Z" fill="#224E4E"/>
<path d="M91.9828 41.7231C92.7832 42.6538 93.3542 43.7592 93.6502 44.9506C93.9461 46.1419 93.9586 47.386 93.6868 48.5831C93.5091 49.3763 93.2062 50.136 92.7894 50.8338C93.118 50.1024 93.3564 49.3338 93.4994 48.5448C93.9467 46.1791 93.3574 43.6898 91.9757 41.7217L91.9828 41.7231Z" fill="#224E4E"/>
<path d="M14.4252 32.7432C13.0822 37.1122 12.6843 41.717 13.258 46.2516C13.7214 49.7716 14.751 53.1934 16.3067 56.3847C15.8148 55.4948 15.3702 54.5795 14.9748 53.6427C12.2058 47.0667 11.9672 39.4498 14.4267 32.7432H14.4252Z" fill="#5EBA93"/>
<path d="M17.7637 36.3965C16.0185 40.1779 15.7544 44.6055 17.1673 48.5318C17.6306 49.8442 18.2544 51.0943 19.0246 52.2536C18.1547 51.1497 17.4553 49.9214 16.95 48.6099C15.4065 44.6879 15.6919 40.0743 17.758 36.3979L17.7637 36.3965Z" fill="#5EBA93"/>
<path d="M20.9757 38.4632C19.7076 41.1384 19.4975 44.2852 20.5284 47.0669C20.8673 47.9952 21.3179 48.8788 21.8703 49.6982C21.2195 48.9348 20.6955 48.0718 20.3182 47.1422C19.1538 44.3618 19.3896 41.022 20.9757 38.4561V38.4632Z" fill="#5EBA93"/>
<path d="M57.5719 7.59536C49.7435 8.11792 43.6843 11.0744 39.812 17.6504C33.4859 28.3827 38.4161 42.1624 50.1681 46.3883C51.9956 47.0458 52.7709 47.9319 52.9072 49.7736C53.0734 52.0044 53.4014 54.2267 53.7294 56.4476C53.914 57.693 53.4738 58.1516 52.22 58.1616C49.8926 58.1871 47.5595 58.2681 45.2407 58.4598C43.8547 58.5734 43.5367 57.9628 43.3194 56.7345C42.3652 51.4805 40.4269 50.0406 35.1004 50.5859C33.1309 50.7875 31.1912 51.2845 29.2216 51.4876C26.0863 51.8099 24.7557 50.6001 25.159 47.5116C25.47 45.1331 23.722 43.3254 23.7958 41.0719C23.8058 40.7779 23.2974 40.3363 23.3897 40.1943C25.0937 37.5375 23.3173 36.2723 21.4642 34.8608C20.5753 34.1834 21.1802 33.0915 21.8348 32.6158C25.7881 29.7289 25.7725 25.5853 26.2056 21.2274C27.6639 6.50054 45.0532 -1.18734 57.5719 7.59536Z" fill="#224E4E"/>
<path d="M64.378 8.88119C76.7874 7.78353 86.8566 16.6287 86.7359 28.2514C86.7018 31.6793 87.6575 34.1174 90.0786 36.4107C92.4997 38.704 92.3506 39.1002 89.7491 41.1223C89.1811 41.5653 88.4839 42.0382 88.7651 42.7695C89.796 45.449 88.8446 47.7792 87.8321 50.2003C87.4999 50.9941 87.8321 52.0662 87.8563 53.012C87.896 55.2059 86.9446 56.3745 84.6187 56.4086C82.51 56.4384 80.5348 55.7639 78.4871 55.4998C75.1743 55.0738 72.0133 55.0937 70.2511 58.6735C69.845 59.4999 69.1833 59.4076 68.4875 59.2997C64.5644 58.6815 60.6039 58.3304 56.6333 58.2489C55.2616 58.2233 54.918 57.7491 55.6393 56.5208C56.1146 55.6987 56.5271 54.8419 56.8733 53.9577C58.4168 50.0442 60.4815 47.3121 65.0241 45.7032C72.3115 43.1216 76.2861 37.0057 76.8413 29.1971C77.4093 21.1826 74.0013 14.9971 67.2592 10.6477C66.4867 10.1478 65.6929 9.68349 64.378 8.88119Z" fill="#5EBA93"/>
<path d="M65.5665 23.0023C65.2825 23.9522 64.4774 23.3715 63.9378 23.5703C63.8654 23.5972 63.7958 23.6129 63.6382 23.6583C63.6069 23.8358 63.5643 24.0431 63.5388 24.2547C63.4294 25.1323 62.9836 25.7031 62.0705 25.6747C61.1319 25.6435 60.7641 25.0101 60.7542 24.134C60.7428 23.2266 60.7797 22.3079 60.7272 21.4005C60.7116 21.1307 60.4432 20.8765 60.3012 20.6167C60.172 20.8865 59.932 21.1619 59.9277 21.436C59.8965 23.14 59.9178 24.8554 59.9064 26.5665C59.9064 27.7593 59.3981 28.3926 58.5063 28.3869C57.6145 28.3812 57.1474 27.7436 57.1417 26.5409C57.1317 23.9948 57.1417 21.4474 57.1317 18.9013C57.1014 18.5227 57.0459 18.1465 56.9656 17.7752L56.7327 17.7596V16.7656C57.6614 16.7656 58.1073 17.4089 58.1115 18.7891C58.1115 21.2585 58.1016 23.7265 58.1229 26.1958C58.1229 26.6005 58.2465 26.9996 58.3203 27.3986C58.4495 27.3986 58.5787 27.3986 58.7079 27.3986C58.7917 27.0351 58.9323 26.6772 58.9422 26.3194C58.9678 24.8781 58.9522 23.4311 58.9522 21.9884C58.9522 20.2361 59.3313 19.5559 60.3054 19.546C61.2796 19.536 61.7254 20.256 61.7254 21.9415C61.7254 22.5535 61.7098 23.1613 61.7354 23.7676C61.7728 24.0732 61.835 24.3753 61.9214 24.6708C62.0364 24.6708 62.1557 24.6807 62.2693 24.6906C62.3531 24.4066 62.5292 24.1155 62.5036 23.8386C62.4042 22.8219 62.8657 22.4186 63.8313 22.5734C64.4149 22.6671 64.9858 22.8489 65.5665 23.0023Z" fill="#224E4E"/>
<path d="M65.6347 29.6645C65.5623 31.7945 64.7827 33.7257 63.2207 35.1514C62.1585 36.1312 60.8252 36.8426 59.5287 37.5328C58.9735 37.8281 58.7278 38.0667 58.7491 38.6957C58.7903 39.9397 58.7662 41.1836 58.7662 42.4715C60.8763 42.72 61.3222 43.1446 61.271 44.5703C61.2497 45.1667 61.058 45.489 60.4105 45.4848C59.1808 45.4848 57.9553 45.4848 56.727 45.4848V44.5035C57.6713 44.5035 58.6199 44.5305 59.567 44.4893C59.7957 44.478 60.0072 44.2337 60.2316 44.0946C60.0186 43.9341 59.8056 43.626 59.5883 43.626C58.6327 43.6075 57.6827 43.5962 56.7299 43.5962V42.5013H57.6586V38.088H56.7299V37.013C60.7187 37.013 64.0287 34.1361 64.6137 30.1104C64.645 29.9244 64.6137 29.7171 64.6819 29.5509C64.8295 29.2493 64.995 28.9567 65.1775 28.6748C65.345 29.0071 65.656 29.3379 65.6347 29.6645Z" fill="#224E4E"/>
<path d="M63.5331 28.4508C63.5331 32.8755 60.4091 35.9512 56.7341 35.8831V34.872H56.7852C59.976 34.8465 62.4397 32.3302 62.5178 29.0117C62.532 28.3258 62.4965 27.6414 62.559 26.9626C62.5746 26.7553 62.833 26.5735 62.985 26.3818C63.1724 26.5792 63.4734 26.7553 63.5089 26.9782C63.5913 27.4554 63.5331 27.958 63.5331 28.4508Z" fill="#224E4E"/>
<path d="M63.5132 20.0077C63.5132 20.2349 63.2292 20.4635 63.0716 20.6921C62.8912 20.4536 62.5788 20.2306 62.5476 19.9821C62.4752 19.3076 62.5377 18.6175 62.5121 17.9331C62.4028 14.7068 59.888 12.2332 56.7341 12.2332V11.252C59.8411 11.252 62.6257 13.3536 63.2945 16.3924C63.5544 17.5539 63.4919 18.7978 63.5132 20.0077Z" fill="#224E4E"/>
<path d="M56.7341 16.7537V17.7477L56.5581 17.7321C56.48 18.1155 56.3294 18.4946 56.3238 18.878C56.3039 21.4255 56.3238 23.9716 56.3081 26.5134C56.3081 27.7374 55.8424 28.3594 54.9606 28.375C54.0262 28.402 53.5335 27.7587 53.5278 26.4722C53.5178 24.879 53.5391 23.2815 53.5178 21.684C53.5178 21.3162 53.4042 20.9484 53.3418 20.5792L52.7397 20.6104C52.7397 21.3318 52.7397 22.0532 52.7397 22.7688C52.7397 23.2658 52.7596 23.7628 52.7283 24.2513C52.6715 25.082 52.2413 25.6316 51.385 25.6713C50.5287 25.7111 50.0786 25.1828 49.9536 24.3592C49.9224 24.1349 49.8968 23.9119 49.8557 23.6166C49.3516 23.5853 48.8617 23.601 48.3874 23.503C48.1957 23.4661 48.0551 23.1764 47.889 23.0046C48.0508 22.8626 48.2056 22.6311 48.3774 22.6155C49.0207 22.5686 49.6782 22.5175 50.3058 22.6155C50.55 22.6567 50.8099 23.0827 50.9136 23.378C51.0556 23.7671 51.0428 24.2073 51.0953 24.6276C51.2146 24.6376 51.3339 24.6532 51.4475 24.6645C51.5412 24.3578 51.7017 24.0568 51.7173 23.7515C51.7542 22.8384 51.7173 21.9254 51.7428 21.018C51.7684 20.1106 52.2569 19.544 53.1543 19.5596C54.0518 19.5753 54.5175 20.156 54.5175 21.0592C54.5175 22.7703 54.5175 24.4828 54.5331 26.1896C54.5609 26.5781 54.615 26.9643 54.695 27.3455C54.837 27.3554 54.9591 27.3711 55.094 27.3867C55.1721 27.009 55.3227 26.6298 55.3227 26.2507C55.3425 23.7458 55.3326 21.2409 55.3383 18.7247C55.3383 17.397 55.7728 16.775 56.6915 16.748L56.7341 16.7537Z" fill="#5EBA93"/>
<path d="M56.7341 38.0878V37.0129H56.568C52.5224 36.9362 49.2081 33.8548 48.7821 29.7822C48.7665 29.6331 48.8148 29.4556 48.7466 29.3335C48.6041 29.1016 48.4462 28.8796 48.2738 28.6689C48.1133 28.9217 47.8648 29.1617 47.818 29.4315C47.7764 29.8117 47.8024 30.1963 47.8946 30.5675C48.5748 33.9755 50.5628 36.2787 53.7891 37.5439C54.11 37.6675 54.6283 37.9117 54.6411 38.1247C54.7149 39.5816 54.6794 41.04 54.6794 42.4713C54.0503 42.5651 53.5789 42.5651 53.1572 42.7085C52.1717 43.0677 52.0737 43.9283 52.2185 44.7831C52.2668 45.0529 52.7326 45.4477 53.018 45.4533C54.2577 45.4803 55.5016 45.4903 56.7427 45.4903V44.509H56.7313C55.8197 44.509 54.9052 44.5403 53.9935 44.4892C53.7337 44.4778 53.4894 44.2194 53.2367 44.0788C53.4596 43.9183 53.6769 43.6315 53.8998 43.6286C54.8484 43.613 55.7927 43.6017 56.7398 43.6017V42.5068H55.7799V38.0878H56.7341Z" fill="#5EBA93"/>
<path d="M56.7341 34.8715V35.8825C55.7075 35.8649 54.6976 35.619 53.7777 35.1626C51.3964 34.0152 50.1255 32.0386 49.9551 29.3889C49.8954 28.6711 49.8954 27.9496 49.9551 27.2319C49.9863 26.9308 50.2873 26.6639 50.4691 26.3799C50.6196 26.6497 50.8738 26.9039 50.905 27.1893C50.9775 27.7899 50.9207 28.402 50.9363 29.0097C51.03 32.3737 53.5022 34.8715 56.7341 34.8715Z" fill="#5EBA93"/>
<path d="M56.7341 11.2461V12.2273C53.5647 12.2273 51.0754 14.6754 50.9448 17.9173C50.9192 18.6372 50.9718 19.3642 50.8994 20.0799C50.8781 20.2972 50.5671 20.4846 50.391 20.6863C50.2405 20.4946 49.9906 20.3128 49.965 20.1055C49.9266 19.6137 49.9195 19.1199 49.9437 18.6273C49.9394 14.275 52.7241 11.256 56.7341 11.2461Z" fill="#5EBA93"/>
<path d="M117.469 24.5312C117.365 24.4896 117.24 24.4167 117.094 24.3125C116.948 24.2083 116.74 24.1146 116.469 24.0312C116.198 23.9271 115.854 23.8438 115.438 23.7812C115.021 23.7188 114.49 23.7083 113.844 23.75V20.5938C114.76 20.6146 115.688 20.7188 116.625 20.9062C117.583 21.0729 118.354 21.3438 118.938 21.7188C118.812 21.9896 118.667 22.2917 118.5 22.625C118.333 22.9375 118.177 23.2396 118.031 23.5312C117.885 23.8021 117.76 24.0312 117.656 24.2188C117.552 24.4062 117.49 24.5104 117.469 24.5312ZM106.688 27.0312C106.688 26.1146 106.844 25.2917 107.156 24.5625C107.469 23.8333 107.885 23.1979 108.406 22.6562C108.948 22.0938 109.573 21.6562 110.281 21.3438C111.01 21.0104 111.771 20.7917 112.562 20.6875V23.9688C111.896 24.1979 111.344 24.6042 110.906 25.1875C110.469 25.75 110.25 26.3229 110.25 26.9062C110.25 27.7188 110.469 28.375 110.906 28.875C111.344 29.375 111.896 29.8125 112.562 30.1875V33.75C111.875 33.4167 111.188 33.0625 110.5 32.6875C109.812 32.2917 109.188 31.8333 108.625 31.3125C108.062 30.7917 107.594 30.1875 107.219 29.5C106.865 28.8125 106.688 27.9896 106.688 27.0312ZM107.188 39.7812C107.479 39.9479 107.844 40.1146 108.281 40.2812C108.74 40.4271 109.208 40.5729 109.688 40.7188C110.167 40.8438 110.646 40.9479 111.125 41.0312C111.604 41.1146 112.052 41.1562 112.469 41.1562H112.562V44.125H112.5C112 44.125 111.479 44.0938 110.938 44.0312C110.417 43.9896 109.885 43.9062 109.344 43.7812C108.802 43.6562 108.281 43.4896 107.781 43.2812C107.302 43.0521 106.885 42.7812 106.531 42.4688L107.188 39.7812ZM113.844 30.8125C114.531 31.125 115.229 31.4583 115.938 31.8125C116.667 32.1667 117.323 32.6042 117.906 33.125C118.49 33.625 118.969 34.2396 119.344 34.9688C119.719 35.6979 119.906 36.6042 119.906 37.6875C119.906 38.4375 119.76 39.1667 119.469 39.875C119.198 40.5833 118.802 41.2292 118.281 41.8125C117.781 42.375 117.156 42.8542 116.406 43.25C115.656 43.6458 114.802 43.9062 113.844 44.0312V41.0312C115.552 40.6146 116.406 39.4792 116.406 37.625C116.406 36.8958 116.167 36.2917 115.688 35.8125C115.208 35.3333 114.594 34.8854 113.844 34.4688V30.8125ZM127.031 26.375L127.438 28.1562V50.9375H123.625V26.375H127.031ZM139.031 31.7188C139.281 32.6771 139.406 33.75 139.406 34.9375C139.406 36.125 139.26 37.2812 138.969 38.4062C138.698 39.5104 138.271 40.4896 137.688 41.3438C137.125 42.1979 136.406 42.8854 135.531 43.4062C134.677 43.9062 133.667 44.1562 132.5 44.1562C131.771 44.1562 131.073 44.0729 130.406 43.9062C129.76 43.7396 129.198 43.5208 128.719 43.25V40C129.406 40.8125 130.25 41.2188 131.25 41.2188C131.875 41.2188 132.438 41.0625 132.938 40.75C133.458 40.4375 133.896 40.0208 134.25 39.5C134.625 38.9583 134.917 38.3229 135.125 37.5938C135.333 36.8438 135.438 36.0521 135.438 35.2188C135.438 34.4062 135.344 33.6354 135.156 32.9062C134.969 32.1771 134.698 31.5312 134.344 30.9688C134.01 30.4062 133.594 29.9583 133.094 29.625C132.615 29.2917 132.052 29.125 131.406 29.125C130.865 29.125 130.365 29.2396 129.906 29.4688C129.469 29.6771 129.073 29.9792 128.719 30.375V27.0625C129.198 26.7917 129.729 26.5833 130.312 26.4375C130.896 26.2917 131.5 26.2188 132.125 26.2188C132.812 26.2188 133.51 26.3125 134.219 26.5C134.927 26.6875 135.583 27 136.188 27.4375C136.812 27.875 137.375 28.4479 137.875 29.1562C138.375 29.8646 138.76 30.7188 139.031 31.7188ZM151.812 26.2188C152.938 26.3229 153.948 26.625 154.844 27.125C155.76 27.625 156.542 28.2708 157.188 29.0625C157.833 29.8542 158.323 30.7604 158.656 31.7812C159.01 32.8021 159.188 33.8646 159.188 34.9688C159.188 35.4688 159.156 35.9688 159.094 36.4688H148.375V33.7188H155.594C155.594 33.1771 155.5 32.6562 155.312 32.1562C155.146 31.6562 154.885 31.1979 154.531 30.7812C154.198 30.3438 153.802 29.9792 153.344 29.6875C152.885 29.3958 152.375 29.2188 151.812 29.1562V26.2188ZM151.688 41.0625C151.917 41.0625 152.198 41.0417 152.531 41C152.885 40.9375 153.25 40.8438 153.625 40.7188C154.021 40.5729 154.406 40.3958 154.781 40.1875C155.177 39.9792 155.521 39.7292 155.812 39.4375L157.188 41.5312C156.5 42.3854 155.698 43.0312 154.781 43.4688C153.865 43.9062 152.698 44.125 151.281 44.125C150.135 44.125 149.062 43.8958 148.062 43.4375C147.062 42.9583 146.208 42.3125 145.5 41.5C144.792 40.6875 144.229 39.7396 143.812 38.6562C143.396 37.5729 143.188 36.4062 143.188 35.1562C143.188 33.9688 143.375 32.8438 143.75 31.7812C144.146 30.7188 144.677 29.7917 145.344 29C146.01 28.1875 146.781 27.5312 147.656 27.0312C148.552 26.5312 149.51 26.25 150.531 26.1875V29.1875C149.76 29.3333 149.125 29.6458 148.625 30.125C148.125 30.6042 147.729 31.1562 147.438 31.7812C147.167 32.3854 146.969 33.0104 146.844 33.6562C146.74 34.3021 146.688 34.8542 146.688 35.3125C146.688 36.125 146.781 36.8854 146.969 37.5938C147.177 38.2812 147.49 38.8854 147.906 39.4062C148.323 39.9062 148.833 40.3125 149.438 40.625C150.062 40.9167 150.812 41.0625 151.688 41.0625ZM167.438 38.6875C167.438 39.625 167.625 40.3229 168 40.7812C168.396 41.2396 168.958 41.5104 169.688 41.5938V44.125C169.604 44.1458 169.469 44.1562 169.281 44.1562C168.573 44.1562 167.885 44.0625 167.219 43.875C166.573 43.6875 166 43.3854 165.5 42.9688C165 42.5521 164.604 42 164.312 41.3125C164.042 40.625 163.906 39.7812 163.906 38.7812C163.906 37.8229 164.104 37 164.5 36.3125C164.917 35.6042 165.438 35.0312 166.062 34.5938C166.708 34.1354 167.438 33.8021 168.25 33.5938C169.062 33.3646 169.885 33.25 170.719 33.25H172.094V35.4688H171.406C170.99 35.4688 170.552 35.5104 170.094 35.5938C169.635 35.6771 169.208 35.8333 168.812 36.0625C168.417 36.2917 168.083 36.625 167.812 37.0625C167.562 37.4792 167.438 38.0208 167.438 38.6875ZM177.156 38.7812C177.156 38.9479 177.167 39.1979 177.188 39.5312C177.208 39.8438 177.25 40.1667 177.312 40.5C177.375 40.8333 177.469 41.1354 177.594 41.4062C177.74 41.6771 177.927 41.8542 178.156 41.9375L177.156 44.0312C176.885 44.0312 176.594 43.9688 176.281 43.8438C175.99 43.7188 175.698 43.5417 175.406 43.3125C175.135 43.0833 174.896 42.8333 174.688 42.5625C174.5 42.2708 174.354 41.9583 174.25 41.625C174.042 42.1458 173.625 42.6146 173 43.0312C172.396 43.4271 171.719 43.7188 170.969 43.9062V41.5312C171.469 41.4271 171.917 41.2292 172.312 40.9375C172.729 40.625 173.083 40.2604 173.375 39.8438V33.25C173.375 32.2292 173.323 31.4167 173.219 30.8125C173.115 30.2083 172.938 29.7708 172.688 29.5C172.438 29.2083 172.125 29.0312 171.75 28.9688C171.396 28.8854 170.969 28.8438 170.469 28.8438C170.01 28.8438 169.573 28.9062 169.156 29.0312C168.76 29.1354 168.385 29.2708 168.031 29.4375C167.698 29.5833 167.396 29.75 167.125 29.9375C166.875 30.125 166.688 30.2708 166.562 30.375L165.156 28.2188C165.365 27.9896 165.677 27.7604 166.094 27.5312C166.51 27.2812 166.99 27.0625 167.531 26.875C168.073 26.6875 168.656 26.5417 169.281 26.4375C169.927 26.3125 170.594 26.25 171.281 26.25C171.906 26.25 172.51 26.3125 173.094 26.4375C173.698 26.5625 174.24 26.7708 174.719 27.0625C175.219 27.3542 175.646 27.75 176 28.25C176.375 28.7292 176.635 29.3333 176.781 30.0625C176.927 30.7917 177.021 31.5312 177.062 32.2812C177.125 33.0104 177.156 33.7396 177.156 34.4688V38.5312V38.7812ZM190.656 35.1562L197.656 44H193.344L188.219 37.25V32.9062L192.594 26.375H196.844L190.656 35.1562ZM183.125 44V19.7188H186.938V44H183.125ZM210.344 20.9688H214.156V44H210.344V20.9688ZM223.781 33.625H215.438V31.0625H223.781V33.625ZM215.438 41.1562H224.75V44H215.438V41.1562ZM224.75 20.9688V23.8125H215.438V20.9688H224.75ZM232.75 38.6875C232.75 39.625 232.938 40.3229 233.312 40.7812C233.708 41.2396 234.271 41.5104 235 41.5938V44.125C234.917 44.1458 234.781 44.1562 234.594 44.1562C233.885 44.1562 233.198 44.0625 232.531 43.875C231.885 43.6875 231.312 43.3854 230.812 42.9688C230.312 42.5521 229.917 42 229.625 41.3125C229.354 40.625 229.219 39.7812 229.219 38.7812C229.219 37.8229 229.417 37 229.812 36.3125C230.229 35.6042 230.75 35.0312 231.375 34.5938C232.021 34.1354 232.75 33.8021 233.562 33.5938C234.375 33.3646 235.198 33.25 236.031 33.25H237.406V35.4688H236.719C236.302 35.4688 235.865 35.5104 235.406 35.5938C234.948 35.6771 234.521 35.8333 234.125 36.0625C233.729 36.2917 233.396 36.625 233.125 37.0625C232.875 37.4792 232.75 38.0208 232.75 38.6875ZM242.469 38.7812C242.469 38.9479 242.479 39.1979 242.5 39.5312C242.521 39.8438 242.562 40.1667 242.625 40.5C242.688 40.8333 242.781 41.1354 242.906 41.4062C243.052 41.6771 243.24 41.8542 243.469 41.9375L242.469 44.0312C242.198 44.0312 241.906 43.9688 241.594 43.8438C241.302 43.7188 241.01 43.5417 240.719 43.3125C240.448 43.0833 240.208 42.8333 240 42.5625C239.812 42.2708 239.667 41.9583 239.562 41.625C239.354 42.1458 238.938 42.6146 238.312 43.0312C237.708 43.4271 237.031 43.7188 236.281 43.9062V41.5312C236.781 41.4271 237.229 41.2292 237.625 40.9375C238.042 40.625 238.396 40.2604 238.688 39.8438V33.25C238.688 32.2292 238.635 31.4167 238.531 30.8125C238.427 30.2083 238.25 29.7708 238 29.5C237.75 29.2083 237.438 29.0312 237.062 28.9688C236.708 28.8854 236.281 28.8438 235.781 28.8438C235.323 28.8438 234.885 28.9062 234.469 29.0312C234.073 29.1354 233.698 29.2708 233.344 29.4375C233.01 29.5833 232.708 29.75 232.438 29.9375C232.188 30.125 232 30.2708 231.875 30.375L230.469 28.2188C230.677 27.9896 230.99 27.7604 231.406 27.5312C231.823 27.2812 232.302 27.0625 232.844 26.875C233.385 26.6875 233.969 26.5417 234.594 26.4375C235.24 26.3125 235.906 26.25 236.594 26.25C237.219 26.25 237.823 26.3125 238.406 26.4375C239.01 26.5625 239.552 26.7708 240.031 27.0625C240.531 27.3542 240.958 27.75 241.312 28.25C241.688 28.7292 241.948 29.3333 242.094 30.0625C242.24 30.7917 242.333 31.5312 242.375 32.2812C242.438 33.0104 242.469 33.7396 242.469 34.4688V38.5312V38.7812ZM248.031 31.4062C248.031 30.6146 248.177 29.9062 248.469 29.2812C248.76 28.6354 249.167 28.0938 249.688 27.6562C250.208 27.1979 250.792 26.8438 251.438 26.5938C252.104 26.3229 252.792 26.1562 253.5 26.0938V29.2188C252.958 29.3229 252.531 29.5417 252.219 29.875C251.927 30.2083 251.781 30.6771 251.781 31.2812C251.781 31.7812 251.938 32.1875 252.25 32.5C252.583 32.7917 253 33.0521 253.5 33.2812V36.625C253.146 36.5208 252.781 36.4062 252.406 36.2812C252.052 36.1354 251.698 35.9792 251.344 35.8125C250.24 35.2292 249.406 34.6146 248.844 33.9688C248.302 33.3229 248.031 32.4688 248.031 31.4062ZM258.469 30.0938C257.906 29.8021 257.302 29.5833 256.656 29.4375C256.031 29.2917 255.406 29.1979 254.781 29.1562V26.0625C255.719 26.1042 256.583 26.2396 257.375 26.4688C258.167 26.6771 258.938 27.0208 259.688 27.5L258.469 30.0938ZM249.688 40.0625C250.104 40.3542 250.594 40.625 251.156 40.875C251.74 41.125 252.469 41.25 253.344 41.25H253.5V44.1562C252.979 44.1562 252.5 44.1354 252.062 44.0938C251.625 44.0729 251.188 44.0104 250.75 43.9062C250.333 43.7812 249.906 43.6146 249.469 43.4062C249.031 43.1979 248.573 42.9271 248.094 42.5938L249.688 40.0625ZM254.781 33.7812C255.406 33.9896 256.042 34.2188 256.688 34.4688C257.333 34.7188 257.917 35.0312 258.438 35.4062C258.979 35.7812 259.417 36.25 259.75 36.8125C260.104 37.3542 260.281 38.0417 260.281 38.875C260.281 39.6875 260.135 40.3958 259.844 41C259.552 41.6042 259.156 42.125 258.656 42.5625C258.177 43 257.604 43.3438 256.938 43.5938C256.271 43.8438 255.552 44.0104 254.781 44.0938V41.125C255.49 41 256.031 40.7812 256.406 40.4688C256.802 40.1354 257 39.6979 257 39.1562C257 38.6146 256.781 38.1979 256.344 37.9062C255.927 37.5938 255.406 37.3229 254.781 37.0938V33.7812ZM282.188 26.375C281.042 29.4375 280.021 32.1562 279.125 34.5312C278.229 36.8854 277.448 38.9583 276.781 40.75C276.115 42.5208 275.521 44.0208 275 45.25C274.5 46.4792 274.031 47.5 273.594 48.3125C273.177 49.1458 272.781 49.7917 272.406 50.25C272.031 50.7292 271.646 51.0938 271.25 51.3438C270.854 51.5938 270.417 51.7396 269.938 51.7812C269.479 51.8438 268.948 51.875 268.344 51.875C268.156 51.875 267.938 51.8438 267.688 51.7812C267.438 51.7396 267.188 51.6771 266.938 51.5938C266.708 51.5312 266.5 51.4583 266.312 51.375C266.125 51.3125 266 51.2708 265.938 51.25C266.021 50.875 266.104 50.5208 266.188 50.1875C266.25 49.8958 266.312 49.6146 266.375 49.3438C266.458 49.0938 266.521 48.9167 266.562 48.8125C266.729 48.8125 266.979 48.8646 267.312 48.9688C267.667 49.0729 267.927 49.125 268.094 49.125C268.427 49.125 268.719 49.1042 268.969 49.0625C269.24 49.0417 269.479 48.9479 269.688 48.7812C269.896 48.6354 270.094 48.4062 270.281 48.0938C270.469 47.8021 270.677 47.375 270.906 46.8125L272.094 44L278.375 26.375H282.188ZM271.438 42.3438L264.875 26.375H268.656L273.156 38.2188L272.719 39.2812L271.438 42.3438Z" fill="white"/>
</g>
<defs>
<clipPath id="clip0_265_394">
<rect width="284" height="63" fill="white"/>
</clipPath>
</defs>
</svg>
