<svg id="Layer_1" data-name="Layer 1" xmlns="http://www.w3.org/2000/svg" viewBox="0 185 1000 650"><defs><style>.cls-1{fill:#224e4e;}.cls-2{fill:#5eba93;}</style></defs><path d="M89.43,763.17a39.22,39.22,0,0,1-14.58-11.42,43.15,43.15,0,0,1-8-16.78l12.3-5.09Q82,741.66,89.61,748t19.76,6.33q12.82,0,19.85-6.06t7-17.31a22.13,22.13,0,0,0-7.29-16.6q-7.29-6.95-23.1-12.56-18.63-6.85-27.14-15T70.2,665.4a29.46,29.46,0,0,1,4.48-15.72,31.3,31.3,0,0,1,12.64-11.51A39.87,39.87,0,0,1,105.86,634q13.53,0,23.1,5.1t16.25,16.51l-10.89,6.68a31.13,31.13,0,0,0-11.68-12.12,32.85,32.85,0,0,0-16.25-3.87q-10.38,0-17,5.18t-6.67,14.32q0,8.61,7.47,14.5t23.1,11.5q18.45,6.86,27.05,16.78a34.18,34.18,0,0,1,8.61,23.1,35.11,35.11,0,0,1-4.65,17.66,34.19,34.19,0,0,1-13.62,13.09q-9,4.92-21.26,4.92A46.76,46.76,0,0,1,89.43,763.17Z"/><path d="M229.19,685.87a38.43,38.43,0,0,1,14.75,15.37,46.8,46.8,0,0,1,5.28,22.49,44.71,44.71,0,0,1-5.45,21.87,42.09,42.09,0,0,1-14.93,15.81,39.88,39.88,0,0,1-21.44,5.89,41.79,41.79,0,0,1-18.62-4.22q-8.61-4.22-11.24-10.89l.35,11.24v40.23h-11.6V682.44h12.12v1.93l-.35,11.25q2.82-6.15,11.07-10.72a37.19,37.19,0,0,1,18.27-4.57A42.46,42.46,0,0,1,229.19,685.87ZM223,751.22a28.72,28.72,0,0,0,10.45-11.33,34.24,34.24,0,0,0,3.78-16.16,33.75,33.75,0,0,0-3.78-16.08A28.88,28.88,0,0,0,223,696.41a28.5,28.5,0,0,0-15.29-4.13,29.68,29.68,0,0,0-26.61,15.64,33.54,33.54,0,0,0,0,31.62A30.63,30.63,0,0,0,192,751.05a29.22,29.22,0,0,0,15.72,4.3A28.41,28.41,0,0,0,223,751.22Z"/><path d="M325.9,764.05a47.63,47.63,0,0,1-19.24,4,42.57,42.57,0,0,1-21.78-5.62,39.55,39.55,0,0,1-15.11-15.64,50,50,0,0,1,0-45.41,39.72,39.72,0,0,1,14.84-15.46,41,41,0,0,1,21.17-5.54A41.44,41.44,0,0,1,327,685.78,39.38,39.38,0,0,1,341.8,701a44.8,44.8,0,0,1,5.44,22.22c0,2.34-.06,4-.17,5.1h-71A31.23,31.23,0,0,0,281,743.4a27.19,27.19,0,0,0,10.9,9.58,33.14,33.14,0,0,0,14.75,3.25,34.77,34.77,0,0,0,14.41-3.16,29.65,29.65,0,0,0,11.24-8.44l8.26,8.44A37.86,37.86,0,0,1,325.9,764.05ZM330,704.23a28.12,28.12,0,0,0-10.37-9.05,29.85,29.85,0,0,0-13.88-3.25A29.37,29.37,0,0,0,292,695.18a29,29,0,0,0-10.36,9.05,28,28,0,0,0-5,13.17h58.5A30.1,30.1,0,0,0,330,704.23Z"/><path d="M422.52,684.81q8.18,4.49,11,11l-.35-11.24v-2.11h12.13V765h-11.6v-1.4l.35-11.25q-2.62,6.33-11.24,10.63a41.07,41.07,0,0,1-18.62,4.31,39.69,39.69,0,0,1-21.61-6,42,42,0,0,1-14.85-15.9,44.92,44.92,0,0,1-5.36-21.69,46.64,46.64,0,0,1,5.36-22.66,38.41,38.41,0,0,1,14.85-15.29,42.6,42.6,0,0,1,21.61-5.45A37.57,37.57,0,0,1,422.52,684.81Zm-3,66.32a29.83,29.83,0,0,0,10.89-11.5,32.77,32.77,0,0,0,3.95-15.9,32.26,32.26,0,0,0-3.95-15.81,30,30,0,0,0-10.89-11.42,29.71,29.71,0,0,0-15.73-4.22,28.46,28.46,0,0,0-15.28,4.13,28.8,28.8,0,0,0-10.45,11.24,33.75,33.75,0,0,0-3.78,16.08,34.24,34.24,0,0,0,3.78,16.16,28.17,28.17,0,0,0,25.73,15.46A29.62,29.62,0,0,0,419.54,751.13Z"/><path d="M477.6,636.24V765H466.53V636.24Zm39.53,46.2h14.41L497.8,721.8l36,43.21H519.41l-35-43.21Z"/><path d="M654.51,648.54H599v40.93h44.62v12.3H599v50.59h55.51V765H586.87V636.24h67.64Z"/><path d="M729.26,684.81q8.18,4.49,11,11l-.36-11.24v-2.11H752V765h-11.6v-1.4l.35-11.25q-2.62,6.33-11.24,10.63a41.07,41.07,0,0,1-18.62,4.31,39.72,39.72,0,0,1-21.61-6,42,42,0,0,1-14.85-15.9,44.92,44.92,0,0,1-5.36-21.69,46.64,46.64,0,0,1,5.36-22.66,38.41,38.41,0,0,1,14.85-15.29,42.62,42.62,0,0,1,21.61-5.45A37.57,37.57,0,0,1,729.26,684.81Zm-3,66.32a29.83,29.83,0,0,0,10.89-11.5,32.77,32.77,0,0,0,4-15.9,32.26,32.26,0,0,0-4-15.81,30,30,0,0,0-10.89-11.42,29.71,29.71,0,0,0-15.73-4.22,28.46,28.46,0,0,0-15.28,4.13,28.8,28.8,0,0,0-10.45,11.24A33.75,33.75,0,0,0,681,723.73a34.24,34.24,0,0,0,3.78,16.16,28.17,28.17,0,0,0,25.73,15.46A29.62,29.62,0,0,0,726.28,751.13Z"/><path d="M784.43,764.93a44.87,44.87,0,0,1-16.25-11.69l7.73-8.25a42.18,42.18,0,0,0,13,9,40,40,0,0,0,16.16,3.08q10,0,16.25-3.25a10.7,10.7,0,0,0,6.24-10.1q0-5.44-5.27-8.61t-14.76-5.1l-6.68-1.4q-14.05-3.17-21.08-8.79t-7-16.34a19.73,19.73,0,0,1,4.12-12.38,27,27,0,0,1,11.34-8.35,41.81,41.81,0,0,1,16.16-3,45.22,45.22,0,0,1,16.6,3q7.63,3,15.9,10.37L829,701.07a33.24,33.24,0,0,0-11.24-7.38,36.69,36.69,0,0,0-13.18-2.29,29.27,29.27,0,0,0-14.31,3.25q-5.9,3.26-5.89,8.52a10.65,10.65,0,0,0,4.57,9.23q4.56,3.26,13.53,4.83l6.5,1.23q14,2.81,22.13,8.69t8.08,16.43q0,13-9.22,19t-25,6A54.1,54.1,0,0,1,784.43,764.93Z"/><path d="M882.19,803.66H869.55l16.16-37.77-35-83.45h12.47l23.54,58,7.38,19.85h-4.39l7-19.85,23.89-58h12.47Z"/><path class="cls-1" d="M784.86,424.36c20.25,35.45,26.2,78.58,16.84,118.28a166.71,166.71,0,0,1-4.89,16.72c1.58-5.58,3-11.2,4.1-16.89a183.29,183.29,0,0,0-16-118.11Z"/><path class="cls-1" d="M769.53,448.13c17.76,21.93,22.7,53.17,13,79.61a79.36,79.36,0,0,1-4.94,10.91,96.34,96.34,0,0,0,6.94-22.71c4.19-23.46-1.5-48.2-15-67.81Z"/><path class="cls-1" d="M753.4,462.84a55.31,55.31,0,0,1,12,48.31A53.87,53.87,0,0,1,759.08,527a69.64,69.64,0,0,0,5-16.12c3.15-16.66-1-34.19-10.73-48.05Z"/><path class="cls-2" d="M207.22,399.6A226.86,226.86,0,0,0,199,494.73a231.93,231.93,0,0,0,21.47,71.36,203.45,203.45,0,0,1-9.38-19.31c-19.5-46.31-21.18-99.95-3.86-147.18Z"/><path class="cls-2" d="M230.73,425.33c-12.29,26.63-14.15,57.81-4.2,85.46A118.89,118.89,0,0,0,239.61,537,98.91,98.91,0,0,1,225,511.34c-10.87-27.62-8.86-60.11,5.69-86Z"/><path class="cls-2" d="M253.35,439.88c-8.93,18.84-10.41,41-3.15,60.59A85.8,85.8,0,0,0,259.65,519a66,66,0,0,1-10.93-18c-8.2-19.58-6.54-43.1,4.63-61.17Z"/><path class="cls-1" d="M511.07,222.5C455.94,226.18,413.27,247,386,293.31c-44.55,75.58-9.83,172.62,72.93,202.38,12.87,4.63,18.33,10.87,19.29,23.84,1.17,15.71,3.48,31.36,5.79,47,1.3,8.77-1.8,12-10.63,12.07-16.39.18-32.82.75-49.15,2.1-9.76.8-12-3.5-13.53-12.15-6.72-37-20.37-47.14-57.88-43.3-13.87,1.42-27.53,4.92-41.4,6.35-22.08,2.27-31.45-6.25-28.61-28,2.19-16.75-10.12-29.48-9.6-45.35.07-2.07-3.51-5.18-2.86-6.18,12-18.71-.51-27.62-13.56-37.56-6.26-4.77-2-12.46,2.61-15.81,27.84-20.33,27.73-49.51,30.78-80.2C300.45,214.79,422.91,160.65,511.07,222.5Z"/><path class="cls-2" d="M559,231.56c87.39-7.73,158.3,54.56,157.45,136.41-.24,24.14,6.49,41.31,23.54,57.46s16,18.94-2.32,33.18c-4,3.12-8.91,6.45-6.93,11.6,7.26,18.87.56,35.28-6.57,52.33-2.34,5.59,0,13.14.17,19.8.28,15.45-6.42,23.68-22.8,23.92-14.85.21-28.76-4.54-43.18-6.4-23.33-3-45.59-2.86-58,22.35-2.86,5.82-7.52,5.17-12.42,4.41a617.74,617.74,0,0,0-83.48-7.4c-9.66-.18-12.08-3.52-7-12.17A132.7,132.7,0,0,0,506.15,549c10.87-27.56,25.41-46.8,57.4-58.13,51.32-18.18,79.31-61.25,83.22-116.24,4-56.44-20-100-67.48-130.63C573.85,240.48,568.26,237.21,559,231.56Z"/><path class="cls-1" d="M567.37,331c-2,6.69-7.67,2.6-11.47,4-.51.19-1,.3-2.11.62-.22,1.25-.52,2.71-.7,4.2-.77,6.18-3.91,10.2-10.34,10-6.61-.22-9.2-4.68-9.27-10.85-.08-6.39.18-12.86-.19-19.25-.11-1.9-2-3.69-3-5.52-.91,1.9-2.6,3.84-2.63,5.77-.22,12-.07,24.08-.15,36.13,0,8.4-3.58,12.86-9.86,12.82s-9.57-4.53-9.61-13c-.07-17.93,0-35.87-.07-53.8a60.2,60.2,0,0,0-1.17-7.93l-1.64-.11v-7c6.54,0,9.68,4.53,9.71,14.25,0,17.39-.07,34.77.08,52.16,0,2.85.87,5.66,1.39,8.47.91,0,1.82,0,2.73,0,.59-2.56,1.58-5.08,1.65-7.6.18-10.15.07-20.34.07-30.5,0-12.34,2.67-17.13,9.53-17.2s10,5,10,16.87c0,4.31-.11,8.59.07,12.86a39.93,39.93,0,0,0,1.31,6.36c.81,0,1.65.07,2.45.14.59-2,1.83-4.05,1.65-6-.7-7.16,2.55-10,9.35-8.91C559.26,328.64,563.28,329.92,567.37,331Z"/><path class="cls-1" d="M567.85,377.92c-.51,15-6,28.6-17,38.64-7.48,6.9-16.87,11.91-26,16.77-3.91,2.08-5.64,3.76-5.49,8.19.29,8.76.12,17.52.12,26.59,14.86,1.75,18,4.74,17.64,14.78-.15,4.2-1.5,6.47-6.06,6.44-8.66,0-17.29,0-25.94,0v-6.91c6.65,0,13.33.19,20-.1,1.61-.08,3.1-1.8,4.68-2.78-1.5-1.13-3-3.3-4.53-3.3-6.73-.13-13.42-.21-20.13-.21v-7.71h6.54V437.24h-6.54v-7.57c28.09,0,51.4-20.26,55.52-48.61.22-1.31,0-2.77.48-3.94a59.53,59.53,0,0,1,3.49-6.17C565.81,373.29,568,375.62,567.85,377.92Z"/><path class="cls-1" d="M553.05,369.37c0,31.16-22,52.82-47.88,52.34v-7.12h.36c22.47-.18,39.82-17.9,40.37-41.27.1-4.83-.15-9.65.29-14.43.11-1.46,1.93-2.74,3-4.09,1.32,1.39,3.44,2.63,3.69,4.2C553.46,362.36,553.05,365.9,553.05,369.37Z"/><path class="cls-1" d="M552.91,309.91c0,1.6-2,3.21-3.11,4.82-1.27-1.68-3.47-3.25-3.69-5-.51-4.75-.07-9.61-.25-14.43-.77-22.72-18.48-40.14-40.69-40.14v-6.91c21.88,0,41.49,14.8,46.2,36.2C553.2,292.63,552.76,301.39,552.91,309.91Z"/><path class="cls-2" d="M505.17,287v7l-1.24-.11c-.55,2.7-1.61,5.37-1.65,8.07-.14,17.94,0,35.87-.11,53.77,0,8.62-3.28,13-9.49,13.11-6.58.19-10.05-4.34-10.09-13.4-.07-11.22.08-22.47-.07-33.72,0-2.59-.8-5.18-1.24-7.78l-4.24.22c0,5.08,0,10.16,0,15.2,0,3.5.14,7-.08,10.44-.4,5.85-3.43,9.72-9.46,10s-9.2-3.44-10.08-9.24c-.22-1.58-.4-3.15-.69-5.23-3.55-.22-7-.11-10.34-.8-1.35-.26-2.34-2.3-3.51-3.51,1.14-1,2.23-2.63,3.44-2.74,4.53-.33,9.16-.69,13.58,0,1.72.29,3.55,3.29,4.28,5.37,1,2.74.91,5.84,1.28,8.8.84.07,1.68.18,2.48.26.66-2.16,1.79-4.28,1.9-6.43.26-6.43,0-12.86.18-19.25s3.62-10.38,9.94-10.27,9.6,4.2,9.6,10.56c0,12.05,0,24.11.11,36.13a60.61,60.61,0,0,0,1.14,8.14c1,.07,1.86.18,2.81.29.55-2.66,1.61-5.33,1.61-8,.14-17.64.07-35.28.11-53,0-9.35,3.06-13.73,9.53-13.92Z"/><path class="cls-2" d="M505.17,437.24v-7.57H504c-28.49-.54-51.83-22.24-54.83-50.92-.11-1.05.23-2.3-.25-3.16a42.63,42.63,0,0,0-3.33-4.68c-1.13,1.78-2.88,3.47-3.21,5.37a22.86,22.86,0,0,0,.54,8c4.79,24,18.79,40.22,41.51,49.13,2.26.87,5.91,2.59,6,4.09.52,10.26.27,20.53.27,30.61-4.43.66-7.75.66-10.72,1.67-6.94,2.53-7.63,8.59-6.61,14.61.34,1.9,3.62,4.68,5.63,4.72,8.73.19,17.49.26,26.23.26v-6.91h-.08c-6.42,0-12.86.22-19.28-.14-1.83-.08-3.55-1.9-5.33-2.89,1.57-1.13,3.1-3.15,4.67-3.17,6.68-.11,13.33-.19,20-.19v-7.71h-6.76V437.24Z"/><path class="cls-2" d="M505.17,414.59v7.12a48.73,48.73,0,0,1-20.82-5.07c-16.77-8.08-25.72-22-26.92-40.66a91.71,91.71,0,0,1,0-15.19c.22-2.12,2.34-4,3.62-6,1.06,1.9,2.85,3.69,3.07,5.7.51,4.23.11,8.54.22,12.82C465,397,482.41,414.59,505.17,414.59Z"/><path class="cls-2" d="M505.17,248.21v6.91c-22.32,0-39.85,17.24-40.77,40.07-.18,5.07.19,10.19-.32,15.23-.15,1.53-2.34,2.85-3.58,4.27-1.06-1.35-2.82-2.63-3-4.09a82,82,0,0,1-.15-10.41C457.32,269.54,476.93,248.28,505.17,248.21Z"/></svg>