<svg width="1920" height="880" viewBox="0 0 1920 880" fill="none" xmlns="http://www.w3.org/2000/svg">
<g clip-path="url(#clip0_16_1172)">
<mask id="mask0_16_1172" style="mask-type:luminance" maskUnits="userSpaceOnUse" x="0" y="0" width="1920" height="900">
<path d="M1920 0H0V900H1920V0Z" fill="white"/>
</mask>
<g mask="url(#mask0_16_1172)">
<path d="M1899.61 263.868C1858.22 252.681 1833.9 236.367 1825.61 214.339C1805.61 161.254 1883.71 86.1035 1959.24 13.4097C2029.57 -54.2638 2095.99 -118.179 2069.61 -153.582C1994.06 -254.934 2004.6 -301.909 2026.75 -323.466C2044.24 -340.497 2075.3 -347.83 2116.55 -344.679C2156.14 -341.654 2201.88 -329.364 2248.86 -309.135C2323.35 -277.062 2366.68 -248.15 2389.36 -215.377C2402.1 -196.973 2408.09 -177.566 2407.66 -156.029C2407.22 -133.77 2399.95 -109.748 2385.46 -82.5742C2370.78 -55.0828 2403.43 -2.67276 2438 52.8112C2485.07 128.348 2538.4 213.954 2493.89 265.901C2468.77 295.214 2416 310.699 2332.54 313.252C2238.61 316.133 2103.38 301.824 1930.65 270.729C1919.41 268.696 1909.05 266.412 1899.6 263.858L1899.61 263.868ZM2179.78 -331.371C2111.22 -349.892 2054.19 -347.266 2028.4 -322.172C2013.89 -308.058 2009.47 -287.536 2015.24 -261.182C2021.64 -231.943 2040.56 -196.086 2071.47 -154.622C2098.78 -117.986 2031.79 -53.5315 1960.88 14.7105C1923.81 50.3829 1885.48 87.2694 1858.99 121.699C1829.19 160.426 1818.96 190.538 1827.71 213.751C1837.64 240.086 1871.46 258.115 1931.11 268.85C2256.12 327.359 2439.63 326.03 2492.11 264.764C2535.79 213.799 2482.8 128.762 2436.05 53.7458C2399.69 -4.59998 2368.29 -54.9962 2383.45 -83.3741C2411.59 -136.054 2412.86 -177.681 2387.47 -214.366C2365.03 -246.811 2321.97 -275.498 2247.87 -307.393C2224.43 -317.481 2201.52 -325.488 2179.77 -331.362L2179.78 -331.371Z" fill="#B1B1B1" fill-opacity="0.5"/>
<path d="M1906.09 273.089C1859.34 260.456 1831.91 242.148 1822.55 217.442C1801.49 161.832 1877.03 85.2167 1950.08 11.1161C2017.2 -56.9621 2080.6 -121.263 2057.09 -159.315C2001.59 -249.155 1990.22 -313.1 2024.23 -344.25C2042.48 -360.975 2072.68 -367.56 2114 -363.826C2153.32 -360.266 2202.08 -346.99 2255.03 -325.43C2328.7 -295.426 2372.7 -263.85 2393.47 -226.045C2413.53 -189.563 2413.86 -145.507 2394.52 -83.1912C2385.24 -53.2812 2414.74 -1.00604 2445.97 54.3237C2491.93 135.738 2544.01 228.012 2494.56 282.089C2437.36 344.617 2253.24 343.625 1931.67 279.073C1922.57 277.252 1914.04 275.257 1906.07 273.109L1906.09 273.089ZM1932.18 277.185C2252.84 341.562 2436.22 342.767 2492.82 280.875C2541.41 227.762 2489.64 136.056 2443.98 55.162C2412.56 -0.504974 2382.87 -53.0885 2392.36 -83.702C2411.55 -145.536 2411.29 -189.187 2391.48 -225.226C2370.92 -262.595 2327.26 -293.887 2254.09 -323.689C2201.36 -345.158 2152.84 -358.377 2113.76 -361.911C2073.18 -365.579 2043.59 -359.193 2025.83 -342.928C2002.63 -321.667 1989.56 -272.712 2059.05 -160.231C2083.27 -121.012 2019.39 -56.2297 1951.76 12.3688C1879.1 86.0551 1803.97 162.256 1824.65 216.844C1835.34 245.068 1870.52 264.802 1932.18 277.185Z" fill="#B1B1B1" fill-opacity="0.5"/>
<path d="M1913.35 282.638C1860.63 268.396 1829.77 247.92 1819.26 220.313C1797.16 162.295 1870.09 84.3879 1940.62 9.03458C2004.75 -59.4772 2065.33 -124.183 2044.59 -165.068C1993.17 -266.478 1985.38 -333.674 2021.45 -364.79C2040.11 -380.873 2070.45 -386.894 2111.63 -382.672C2151.65 -378.57 2201.97 -364.803 2261.19 -341.749C2420.81 -279.624 2419.53 -206.946 2403.52 -83.8369C2399.31 -51.489 2425.82 0.121368 2453.9 54.7574C2499 142.531 2550.1 242.003 2495.53 298.21C2434.38 361.191 2250.28 357.645 1932.71 287.37C1925.95 285.876 1919.5 284.296 1913.34 282.629L1913.35 282.638ZM2177.15 -367.825C2102.54 -387.984 2049.93 -386.633 2023.03 -363.425C2005.92 -348.661 1998.95 -324.971 2002.34 -293.014C2005.88 -259.602 2020.79 -216.823 2046.64 -165.849C2067.92 -123.884 2006.92 -58.7256 1942.36 10.2487C1872.2 85.1973 1799.66 162.69 1821.38 219.706C1832.87 249.866 1869.47 271.393 1933.27 285.51C2249.94 355.583 2433.32 359.341 2493.86 296.977C2547.53 241.695 2496.72 142.801 2451.89 55.5475C2423.7 0.670563 2397.06 -51.1806 2401.34 -84.0489C2417.23 -206.272 2418.52 -278.427 2260.32 -340C2230.17 -351.726 2202.4 -361.013 2177.15 -367.835L2177.15 -367.825Z" fill="#B1B1B1" fill-opacity="0.5"/>
<path d="M1921.54 292.593C1862.16 276.549 1827.49 253.711 1815.72 222.963C1792.61 162.642 1862.92 83.5497 1930.92 7.069C1992.2 -61.8571 2050.09 -126.967 2032.11 -170.801C1985.44 -284.542 1980.89 -354.594 2018.22 -384.968C2037.48 -400.643 2067.29 -405.964 2109.33 -401.235C2150.48 -396.607 2202.18 -382.477 2267.4 -358.047C2336.75 -332.064 2376.45 -302.751 2396.11 -262.995C2414.16 -226.536 2413.48 -183.878 2412.72 -134.483C2412.46 -118.507 2412.22 -101.972 2412.53 -84.415C2413.14 -50.3036 2436.67 -0.456726 2461.57 52.3195C2506.48 147.465 2557.36 255.301 2497.21 314.062C2432.16 377.592 2247.84 371.598 1933.74 295.724C1929.57 294.712 1925.5 293.681 1921.55 292.612L1921.54 292.593ZM2177.12 -385.593C2099.07 -406.682 2047.24 -405.931 2019.74 -383.559C1983.12 -353.771 1987.85 -284.394 2034.2 -171.447C2052.59 -126.621 1994.34 -61.1055 1932.67 8.25421C1865.03 84.3302 1795.08 163.008 1817.82 222.356C1830.12 254.502 1868.25 277.907 1934.33 293.865C2247.54 369.526 2431.12 375.722 2495.53 312.78C2554.79 254.916 2504.16 147.667 2459.51 53.0518C2434.51 0.0925293 2410.92 -49.9182 2410.3 -84.3957C2409.98 -101.972 2410.24 -118.507 2410.49 -134.512C2412.06 -234.98 2413.09 -301.357 2266.51 -356.269C2233.59 -368.603 2203.81 -378.373 2177.11 -385.587L2177.12 -385.593Z" fill="#B1B1B1" fill-opacity="0.5"/>
<path d="M1930.85 302.99C1863.96 284.922 1825.03 259.503 1811.87 225.314C1787.78 162.748 1855.51 82.5671 1921.01 5.0264C1979.54 -64.2659 2034.83 -129.723 2019.61 -176.554C1999.1 -239.675 1988.39 -287.82 1986.88 -323.752C1985.24 -362.786 1994.23 -389.301 2014.38 -404.805C2034.01 -419.908 2064.3 -424.752 2106.98 -419.62C2149.06 -414.561 2203.55 -399.757 2273.58 -374.359C2338.33 -350.884 2377.6 -322.926 2397.2 -286.387C2415.16 -252.873 2415.7 -215.098 2416.3 -171.35C2416.69 -144.167 2417.08 -116.059 2421.51 -85.0218C2426.41 -50.6021 2446.82 -4.26276 2468.43 44.794C2514.34 149.007 2566.37 267.115 2499.76 329.306C2430.76 393.732 2245.95 385.455 1934.77 304.031C1933.46 303.684 1932.14 303.337 1930.85 302.99ZM1935.4 302.181C2099.08 345.012 2230.06 367.811 2324.71 369.941C2367.99 370.914 2404.78 367.609 2434.07 360.093C2461.23 353.136 2482.78 342.334 2498.14 327.995C2563.8 266.701 2512.02 149.171 2466.35 45.4879C2444.69 -3.68451 2424.24 -50.1203 2419.3 -84.7809C2414.87 -115.915 2414.47 -144.081 2414.09 -171.322C2413.48 -214.847 2412.95 -252.431 2395.18 -285.569C2375.84 -321.646 2336.93 -349.293 2272.72 -372.574C2202.87 -397.905 2148.55 -412.668 2106.68 -417.705C2064.68 -422.753 2034.97 -418.066 2015.85 -403.359C1996.23 -388.266 1987.48 -362.25 1989.1 -323.818C1990.61 -288.048 2001.29 -240.043 2021.75 -177.074C2037.27 -129.338 1981.67 -63.5143 1922.81 6.17303C1857.64 83.3186 1790.27 163.085 1813.99 224.707C1827.15 258.905 1866.85 284.248 1935.41 302.19L1935.4 302.181Z" fill="#B1B1B1" fill-opacity="0.5"/>
<path d="M1971.69 322.262C1959.9 319.072 1947.93 315.767 1935.79 312.346C1863.94 292.12 1822.05 264.321 1807.75 227.376C1782.68 162.623 1847.89 81.3721 1910.95 2.80038C1966.79 -66.7714 2019.54 -132.479 2007.13 -182.287C1975.09 -310.91 1965.28 -391.752 2009.9 -424.322C2029.94 -438.941 2060.89 -443.376 2104.52 -437.864C2147.84 -432.4 2205.16 -416.953 2279.75 -390.657C2418.49 -341.74 2419.1 -277.241 2419.85 -195.585C2420.16 -162.688 2420.52 -125.397 2430.44 -85.5807C2438.51 -53.2713 2455.5 -12.9737 2473.48 29.6751C2496.85 85.1398 2523.37 147.995 2534.17 203.894C2546.58 268.146 2536.51 313.898 2503.33 343.789C2486.8 358.705 2464.09 369.815 2435.87 376.821C2405.68 384.318 2368.14 387.391 2324.3 385.956C2235.93 383.055 2117.44 361.634 1971.67 322.252L1971.69 322.262ZM2180.38 -420.066C2151.16 -427.96 2125.92 -433.215 2104.21 -435.952C2061.23 -441.377 2030.85 -437.079 2011.34 -422.835C1990.4 -407.56 1981.12 -380.834 1982.1 -338.727C1982.95 -302.492 1991.08 -255.829 2009.3 -182.673C2021.91 -132.065 1968.9 -66.0101 1912.77 3.91818C1850.02 82.0948 1785.13 162.941 1809.85 226.789C1823.91 263.116 1865.33 290.511 1936.48 310.535C2098.59 356.2 2229.11 380.916 2324.4 384.057C2368.01 385.483 2405.31 382.448 2435.28 375C2463.14 368.081 2485.5 357.134 2501.76 342.478C2534.41 313.059 2544.3 267.838 2532 204.24C2521.22 148.516 2494.77 85.7468 2471.4 30.3592C2453.39 -12.3667 2436.39 -52.7125 2428.3 -85.1568C2418.31 -125.156 2417.96 -162.553 2417.64 -195.556C2417.26 -236.896 2416.92 -272.592 2399.52 -304.65C2380.43 -339.82 2342.11 -366.582 2278.92 -388.862C2241.95 -401.899 2209.22 -412.263 2180.37 -420.057L2180.38 -420.066Z" fill="#B1B1B1" fill-opacity="0.5"/>
<path d="M2022.59 345.234C1995.04 337.795 1966.46 329.604 1936.83 320.682C1862.22 298.21 1818.54 268.252 1803.31 229.121C1777.25 162.17 1840.04 79.8496 1900.77 0.227539C1953.96 -69.4984 2004.19 -135.351 1994.65 -188.021C1969.9 -324.888 1957.14 -410.461 2004.82 -443.578C2045.38 -471.745 2129.45 -460.789 2285.94 -406.967C2349.98 -384.943 2388.68 -358.12 2407.7 -322.574C2424.94 -290.366 2424.61 -253.379 2424.27 -214.211C2423.92 -175.889 2423.54 -132.46 2439.43 -86.1397C2448.51 -59.7179 2461.28 -29.2103 2474.8 3.07986C2527.1 127.914 2592.16 283.275 2508.16 357.298C2490.74 372.658 2467.21 384.048 2438.25 391.13C2407.32 398.694 2369.2 401.604 2324.91 399.793C2246.24 396.565 2144.8 378.247 2022.58 345.224L2022.59 345.234ZM2183.42 -436.894C2091.26 -461.793 2036.31 -462.974 2006.21 -442.071C1959.49 -409.624 1972.21 -324.505 1996.85 -188.32C2006.51 -134.917 1956.04 -68.7563 1902.61 1.27795C1842.19 80.5146 1779.69 162.44 1805.4 228.494C1820.39 267.028 1863.63 296.582 1937.54 318.86C2098.46 367.349 2228.82 393.934 2325.01 397.885C2369.05 399.687 2406.93 396.796 2437.63 389.29C2466.21 382.294 2489.41 371.078 2506.56 355.959C2589.59 282.803 2524.79 128.078 2472.7 3.74469C2459.17 -28.5744 2446.38 -59.1107 2437.3 -85.5904C2421.31 -132.18 2421.7 -175.773 2422.04 -214.231C2422.75 -294.358 2423.32 -357.642 2285.12 -405.179C2247.04 -418.284 2213.27 -428.841 2183.41 -436.906L2183.42 -436.894Z" fill="#B1B1B1" fill-opacity="0.5"/>
<path d="M2061.39 365.682C2022.42 355.149 1981.22 342.921 1937.86 329.007C1860.31 304.117 1814.74 271.895 1798.54 230.479C1771.5 161.351 1831.98 77.9129 1890.5 -2.79803C1941.05 -72.5336 1988.79 -138.386 1982.19 -193.754C1980.48 -208.131 1978.75 -222.007 1977.08 -235.412C1962.39 -353.589 1952.69 -431.657 1999.08 -462.556C2020.1 -476.556 2052.83 -480.36 2099.13 -474.179C2145.67 -467.972 2208.81 -451.32 2292.15 -423.274C2357.21 -401.374 2396.25 -374.463 2414.95 -338.588C2431.86 -306.177 2430.65 -269.153 2429.38 -229.96C2427.97 -186.999 2426.39 -138.309 2448.4 -86.6793C2454.35 -72.7264 2460.82 -58.0122 2467.68 -42.4405C2528.36 95.4889 2611.48 284.402 2514.52 369.507C2496.22 385.561 2471.89 397.422 2442.17 404.746C2410.45 412.57 2371.65 415.49 2326.83 413.409C2255.59 410.123 2166.63 394.098 2061.38 365.662L2061.39 365.682ZM2188.35 -453.142C2089.8 -479.767 2031.63 -481.789 2000.44 -461.02C1955.02 -430.783 1964.68 -353.132 1979.29 -235.612C1980.96 -222.2 1982.69 -208.333 1984.4 -193.947C1991.08 -137.923 1943.13 -71.782 1892.37 -1.76706C1834.15 78.5584 1773.93 161.611 1800.65 229.863C1816.62 270.69 1861.76 302.518 1938.63 327.196C2098.92 378.632 2229.56 406.991 2326.96 411.501C2371.54 413.563 2410.11 410.672 2441.57 402.905C2470.92 395.659 2494.93 383.98 2512.95 368.158C2608.9 283.93 2526.07 95.7009 2465.61 -41.7467C2458.75 -57.3281 2452.28 -72.0423 2446.33 -86.0048C2424.17 -137.981 2425.77 -186.874 2427.17 -230.011C2428.44 -268.975 2429.64 -305.779 2412.95 -337.788C2394.49 -373.171 2355.85 -399.766 2291.36 -421.469C2252.95 -434.4 2218.73 -444.944 2188.36 -453.149L2188.35 -453.142Z" fill="#B1B1B1" fill-opacity="0.5"/>
<path d="M2091.34 384.211C2043.88 371.395 1993.03 355.756 1938.89 337.323C1858.22 309.87 1810.64 275.238 1793.42 231.462C1765.37 160.127 1823.72 75.4843 1880.13 -6.36368C1928.08 -75.9354 1973.36 -141.633 1969.72 -199.469C1967.9 -228.319 1965.61 -254.821 1963.37 -280.463C1959 -330.821 1955.21 -374.31 1958.05 -408.087C1961.12 -444.677 1972.08 -467.895 1992.52 -481.162C2014.37 -495.331 2047.18 -498.88 2095.78 -492.34C2144.24 -485.819 2210.5 -468.554 2298.33 -439.566C2364.86 -417.606 2404.44 -390.415 2422.86 -353.971C2439.49 -321.113 2437.3 -283.698 2435 -244.082C2432.26 -196.925 2429.16 -143.484 2457.37 -87.1999C2493.39 -15.3059 2537.39 78.298 2558.19 164.752C2569.4 211.342 2572.93 252.237 2568.68 286.29C2563.79 325.49 2548.45 356.941 2523.11 379.759C2483.79 415.181 2419.12 431.032 2330.88 426.87C2265.03 423.757 2184.82 409.457 2091.35 384.211H2091.34ZM2192.83 -469.563C2154.46 -479.929 2122.21 -486.825 2095.43 -490.435C2048.12 -496.8 2014.9 -493.262 1993.85 -479.621C1973.96 -466.72 1963.29 -443.951 1960.25 -407.955C1957.43 -374.325 1961.21 -330.899 1965.57 -280.614C1967.81 -254.963 1970.11 -228.444 1971.92 -199.575C1975.6 -141.152 1930.15 -75.203 1882.02 -5.38077C1825.87 76.101 1767.79 160.348 1795.51 230.836C1812.5 274.043 1859.65 308.289 1939.68 335.53C2100.28 390.195 2231.93 420.279 2330.97 424.943C2418.54 429.076 2482.65 413.427 2521.5 378.43C2546.5 355.92 2561.62 324.844 2566.46 286.088C2570.69 252.227 2567.17 211.535 2556.01 165.147C2535.24 78.8665 2491.28 -14.6217 2455.31 -86.4289C2426.91 -143.137 2430.03 -196.819 2432.77 -244.18C2435.06 -283.555 2437.22 -320.754 2420.82 -353.191C2402.65 -389.122 2363.47 -415.994 2297.52 -437.757C2258.45 -450.653 2223.65 -461.225 2192.82 -469.556L2192.83 -469.563Z" fill="#B1B1B1" fill-opacity="0.5"/>
<path d="M2115.1 401.422C2061.22 386.871 2002.84 368.283 1939.92 345.648C1855.93 315.44 1806.23 278.264 1787.96 232.011C1758.9 158.431 1815.23 72.4975 1869.71 -10.5935C1913.09 -76.7542 1957.94 -145.179 1957.26 -205.182C1956.81 -245.088 1954.49 -282.236 1952.44 -315.013C1946.74 -406.299 1942.62 -472.26 1985.34 -499.521C2029.49 -527.697 2121.97 -515.045 2304.52 -455.856C2372.79 -433.72 2413.04 -406.115 2431.21 -368.971C2447.58 -335.526 2444.39 -297.493 2441.02 -257.231C2436.74 -206.165 2431.89 -148.272 2466.32 -87.7198C2503.33 -22.6288 2551.84 75.1185 2572.83 171.122C2594.64 270.883 2581.18 344.213 2532.81 389.058C2463.25 453.562 2323.05 457.609 2115.1 401.431L2115.1 401.422ZM1940.77 343.866C2245.67 453.542 2444.31 468.295 2531.2 387.719C2579.06 343.345 2592.32 270.594 2570.67 171.459C2549.73 75.6774 2501.29 -21.8965 2464.35 -86.8815C2429.65 -147.906 2434.53 -206.069 2438.82 -257.39C2442.17 -297.418 2445.33 -335.223 2429.19 -368.238C2411.27 -404.855 2371.42 -432.133 2303.77 -454.064C2211.44 -484.001 2142.08 -501.852 2091.71 -508.627C2041.94 -515.333 2008.56 -511.951 1986.67 -497.98C1944.92 -471.337 1949 -405.817 1954.66 -315.128C1956.7 -282.333 1959.03 -245.164 1959.48 -205.211C1960.18 -144.678 1915.16 -76.0315 1871.65 -9.63959C1817.42 73.0853 1761.33 158.633 1790.07 231.395C1808.12 277.089 1857.41 313.879 1940.78 343.875L1940.77 343.866Z" fill="#B1B1B1" fill-opacity="0.5"/>
<path d="M2133.15 417.186C2074.25 401.277 2010.09 380.184 1940.94 353.974C1853.41 320.807 1801.46 280.943 1782.1 232.108C1768.6 198.035 1770.97 158.701 1789.35 111.87C1805.69 70.2233 1832.91 26.6108 1859.23 -15.5659C1900.19 -81.1965 1942.53 -149.053 1944.78 -210.906C1946.54 -259.71 1944.47 -304.238 1942.64 -343.525C1938.64 -429.285 1935.75 -491.253 1977.65 -517.747C2022.96 -546.406 2119.45 -533.194 2310.7 -472.17C2380.88 -449.771 2421.92 -421.679 2439.85 -383.742C2455.99 -349.611 2451.76 -310.83 2447.3 -269.773C2441.34 -214.973 2434.57 -152.85 2475.28 -88.2308C2531.5 1.02728 2571.49 95.2286 2587.87 177.009C2597.19 223.57 2598.71 265.381 2592.38 301.304C2585.4 340.927 2568.83 373.381 2543.12 397.789C2500.25 438.472 2431.92 457.059 2340 453.032C2280.91 450.439 2211.72 438.433 2133.14 417.205L2133.15 417.186ZM2203.5 -502.04C2082.01 -534.863 2014.36 -538.587 1978.96 -516.2C1938.02 -490.305 1940.89 -428.778 1944.87 -343.61C1946.7 -304.292 1948.78 -259.73 1947 -210.849C1944.74 -148.542 1902.26 -80.4738 1861.19 -14.6505C1834.92 27.4587 1807.75 71.0037 1791.46 112.496C1773.24 158.913 1770.87 197.832 1784.21 231.481C1803.34 279.777 1854.9 319.265 1941.83 352.21C2103.01 413.293 2237.02 446.556 2340.13 451.085C2431.34 455.094 2499.08 436.718 2541.49 396.478C2566.91 372.359 2583.29 340.233 2590.2 300.995C2596.49 265.284 2594.97 223.676 2585.69 177.327C2569.36 95.7585 2529.46 1.76917 2473.34 -87.3154C2432.32 -152.435 2439.11 -214.876 2445.1 -269.954C2449.54 -310.765 2453.74 -349.322 2437.81 -383.012C2420.13 -420.404 2379.5 -448.165 2309.95 -470.356C2270.55 -482.926 2235.2 -493.468 2203.51 -502.027L2203.5 -502.04Z" fill="#B1B1B1" fill-opacity="0.5"/>
<path d="M2147.81 432.16C2084.92 415.162 2016.2 391.862 1941.98 362.299C1850.69 325.952 1796.36 283.226 1775.89 231.703C1761.93 196.551 1763.64 156.292 1781.13 108.613C1796.71 66.1472 1823.18 21.6579 1848.76 -21.3763C1887.34 -86.265 1927.23 -153.341 1932.32 -216.63C1936.85 -272.883 1934.98 -323.562 1933.34 -368.26C1930.31 -450.406 1928.13 -509.76 1969.58 -535.871C2016.1 -565.173 2116.73 -551.44 2316.89 -488.48C2474.69 -438.847 2465.01 -366.117 2453.81 -281.9C2446.05 -223.491 2437.23 -157.282 2484.26 -88.7704C2545.02 -0.21582 2587.28 96.1055 2603.25 182.444C2621.33 280.095 2604.33 357.394 2554.06 405.989C2509.12 449.437 2438.63 469.509 2344.55 465.664C2287.44 463.323 2221.65 452.097 2147.81 432.15L2147.81 432.16ZM1942.9 360.536C2104.02 424.692 2239.2 459.42 2344.66 463.747C2438.03 467.563 2507.93 447.703 2552.4 404.707C2602.2 356.566 2619.02 279.815 2601.07 182.762C2585.13 96.6547 2542.97 0.584045 2482.34 -87.7682C2434.94 -156.858 2443.79 -223.404 2451.59 -282.114C2457.14 -323.82 2462.38 -363.203 2446.66 -397.627C2429.18 -435.852 2387.71 -464.15 2316.13 -486.669C2116.75 -549.385 2016.72 -563.188 1970.87 -534.312C1930.37 -508.802 1932.54 -449.875 1935.54 -368.32C1937.2 -323.571 1939.05 -272.843 1934.53 -216.495C1929.41 -152.801 1889.41 -85.5424 1850.72 -20.4899C1825.18 22.4769 1798.76 66.8988 1783.24 109.201C1765.89 156.465 1764.18 196.339 1777.98 231.076C1798.23 282.07 1852.17 324.42 1942.88 360.545L1942.9 360.536Z" fill="#B1B1B1" fill-opacity="0.5"/>
<path d="M2159.56 446.373C2093.41 428.498 2021.1 403.223 1943.02 370.625C1847.71 330.847 1790.88 285.096 1769.28 230.759C1754.86 194.508 1755.96 153.266 1772.65 104.691C1787.54 61.3486 1813.35 15.8765 1838.3 -28.1021C1874.57 -91.9886 1912.05 -158.063 1919.87 -222.325C1927.49 -285.018 1925.75 -341.055 1924.2 -390.487C1921.72 -470.277 1919.93 -527.931 1961.2 -553.907C2008.97 -583.973 2113.82 -569.734 2323.1 -504.769C2485.57 -454.336 2473.94 -379.902 2460.48 -293.711C2450.81 -231.788 2439.86 -161.599 2493.22 -89.2618C2558.78 -0.408447 2603.42 97.8882 2618.93 187.551C2626.99 234.131 2626.92 276.799 2618.7 314.36C2609.96 354.34 2592.09 387.777 2565.6 413.755C2518.41 460.047 2445.57 481.679 2349.11 478.076C2293.28 475.994 2229.92 465.366 2159.57 446.364L2159.56 446.373ZM1943.97 368.89C2104.82 436.034 2241.16 472.12 2349.19 476.158C2444.96 479.743 2517.2 458.312 2563.92 412.484C2590.15 386.775 2607.84 353.637 2616.51 314.013C2624.68 276.674 2624.76 234.208 2616.74 187.84C2601.27 98.4471 2556.74 0.420349 2491.35 -88.2114C2437.53 -161.146 2448.56 -231.709 2458.28 -293.965C2464.93 -336.619 2471.23 -376.911 2455.68 -412.103C2438.4 -451.203 2396.04 -480.077 2322.34 -502.954C2113.84 -567.679 2009.59 -581.987 1962.49 -552.348C1922.16 -526.973 1923.95 -469.746 1926.41 -390.537C1927.95 -341.044 1929.7 -284.946 1922.06 -222.132C1914.2 -157.523 1876.62 -91.2948 1840.27 -27.2542C1815.35 16.6473 1789.58 62.0521 1774.74 105.231C1757.96 154.076 1756.89 193.757 1771.34 230.132C1792.75 283.949 1849.21 329.335 1943.94 368.881L1943.97 368.89Z" fill="#B1B1B1" fill-opacity="0.5"/>
<path d="M2169.02 459.94C2100.16 441.333 2025 414.285 1944.04 378.94C1877.7 349.984 1829.95 319.13 1798.09 284.633C1769.52 253.702 1754.37 220.438 1751.78 182.925C1746.99 113.151 1786.28 40.7659 1827.87 -35.8787C1861.88 -98.5221 1897.04 -163.295 1907.4 -228.049C1918.35 -296.44 1916.63 -357.314 1915.1 -411.02C1912.88 -489.327 1911.28 -545.899 1952.56 -571.925C2001.61 -602.834 2110.75 -588.112 2329.29 -521.079C2496.58 -469.78 2483 -393.571 2467.28 -305.328C2455.62 -239.964 2442.43 -165.887 2502.2 -89.7726C2572.63 -0.0809326 2619.74 100.095 2634.84 192.301C2642.47 238.939 2641.75 281.993 2632.67 320.296C2623.16 360.43 2604.66 394.348 2577.69 421.088C2553.88 444.716 2523.49 462.59 2487.39 474.211C2449.15 486.516 2404.16 491.903 2353.65 490.226C2298.52 488.395 2236.82 478.268 2169.02 459.95L2169.02 459.94ZM2225.29 -549.224C2075.08 -589.806 1993.88 -595.586 1953.85 -570.353C1913.52 -544.93 1915.11 -488.774 1917.31 -411.058C1918.84 -357.283 1920.57 -296.324 1909.6 -227.779C1899.19 -162.736 1863.95 -97.8283 1829.88 -35.0499C1748.19 115.445 1671.03 257.595 1945.03 377.225C2105.41 447.24 2242.9 484.609 2353.72 488.299C2403.92 489.966 2448.62 484.618 2486.59 472.4C2522.33 460.885 2552.42 443.193 2576.01 419.816C2602.72 393.327 2621.04 359.707 2630.48 319.901C2639.5 281.829 2640.22 238.988 2632.62 192.571C2617.56 100.654 2570.59 0.757385 2500.34 -88.6933C2440.07 -165.434 2453.34 -239.916 2465.05 -305.628C2472.83 -349.283 2480.17 -390.51 2464.79 -426.514C2447.7 -466.523 2404.4 -495.993 2328.51 -519.259C2290.95 -530.781 2256.6 -540.768 2225.28 -549.23L2225.29 -549.224Z" fill="#B1B1B1" fill-opacity="0.5"/>
<path d="M2176.67 472.968C2105.47 453.745 2028.11 425.126 1945.07 387.276C1876.52 356.026 1826.98 323.273 1793.62 287.148C1763.65 254.694 1747.38 220.082 1743.91 181.326C1737.42 109.143 1776.33 34.387 1817.54 -44.7725C1849.36 -105.884 1882.25 -169.077 1894.94 -233.747C1909.36 -307.305 1907.48 -375.508 1905.97 -430.312C1903.82 -507.748 1902.28 -563.691 1943.71 -589.887C1994.05 -621.709 2107.55 -606.496 2335.47 -537.37C2507.7 -485.142 2492.15 -407.114 2474.16 -316.771C2460.46 -248.022 2444.95 -170.108 2511.16 -90.2542C2586.5 0.584106 2636.14 102.533 2650.93 196.792C2658.27 243.497 2656.98 286.936 2647.11 325.914C2636.92 366.202 2617.81 400.564 2590.31 428.055C2565.32 453.041 2533.59 472.034 2496.01 484.512C2456.31 497.694 2409.94 503.62 2358.18 502.136C2303.3 500.556 2242.64 490.795 2176.67 472.968ZM2233.41 -564.773C2072.77 -608.172 1986.66 -614.674 1945.01 -588.334C1904.52 -562.73 1906.06 -507.214 1908.18 -430.369C1909.7 -375.483 1911.6 -307.175 1897.13 -233.438C1884.4 -168.527 1851.44 -105.209 1819.57 -43.9919C1778.48 34.9363 1739.68 109.48 1746.13 181.162C1749.57 219.513 1765.68 253.779 1795.36 285.924C1828.53 321.838 1877.84 354.427 1946.1 385.551C2029.03 423.362 2106.29 451.933 2177.33 471.128C2243.1 488.897 2303.55 498.629 2358.26 500.2C2409.72 501.674 2455.8 495.786 2495.22 482.701C2532.47 470.338 2563.9 451.519 2588.64 426.783C2615.88 399.542 2634.84 365.46 2644.95 325.49C2654.75 286.734 2656.02 243.517 2648.72 197.042C2633.98 103.082 2584.48 1.44159 2509.35 -89.1365C2442.59 -169.645 2458.2 -247.988 2471.96 -317.111C2480.86 -361.794 2489.27 -404.006 2474.05 -440.838C2457.12 -481.771 2412.86 -511.864 2334.74 -535.562C2298.05 -546.684 2264.34 -556.416 2233.4 -564.776L2233.41 -564.773Z" fill="#B1B1B1" fill-opacity="0.5"/>
<path d="M2182.88 485.543C2109.68 465.77 2030.57 435.735 1946.11 395.591C1875.2 361.885 1823.77 327.109 1788.87 289.258C1757.45 255.176 1740.05 219.137 1735.7 179.09C1727.57 104.354 1766.34 26.9769 1807.39 -54.9577C1837.08 -114.219 1867.78 -175.513 1882.49 -239.462C1900.52 -317.787 1898.45 -390.392 1896.8 -448.734C1894.61 -525.749 1893.02 -581.399 1934.71 -607.858C1986.37 -640.648 2104.27 -624.952 2341.69 -553.687C2518.91 -500.489 2501.4 -420.609 2481.14 -328.115C2465.33 -256.031 2447.43 -174.328 2520.14 -90.765C2561.05 -43.7607 2594.55 5.71997 2619.72 56.2992C2644.05 105.173 2660.02 153.873 2667.21 201.041C2681.66 295.859 2659.02 378.834 2603.47 434.694C2549.54 488.925 2466.3 516.282 2362.75 513.806C2307.71 512.485 2247.61 503.013 2182.9 485.534L2182.88 485.543ZM2241.94 -580.221C2070.45 -626.549 1979.32 -633.783 1936.01 -606.296C1895.27 -580.429 1896.84 -525.207 1899.01 -448.772C1900.67 -390.336 1902.74 -317.612 1884.67 -239.076C1869.9 -174.916 1839.16 -113.535 1809.42 -54.1772C1768.5 27.5165 1729.84 104.681 1737.91 178.927C1742.22 218.588 1759.46 254.29 1790.61 288.064C1825.32 325.711 1876.53 360.333 1947.18 393.905C2031.5 433.991 2110.5 463.978 2183.54 483.712C2248.07 501.144 2307.95 510.568 2362.8 511.888C2465.66 514.355 2548.28 487.23 2601.76 433.451C2656.9 378.015 2679.35 295.57 2664.99 201.301C2657.83 154.307 2641.91 105.789 2617.67 57.07C2592.56 6.63531 2559.15 -42.7104 2518.35 -89.5991C2445.05 -173.837 2463.05 -255.982 2478.93 -328.458C2488.96 -374.209 2498.43 -417.418 2483.35 -455.096C2466.59 -496.973 2421.34 -527.717 2340.93 -551.851C2305.29 -562.552 2272.32 -572.001 2241.93 -580.216L2241.94 -580.221Z" fill="#B1B1B1" fill-opacity="0.5"/>
<path d="M2187.86 497.588C2184.55 496.692 2181.23 495.777 2177.91 494.832C2105.62 474.5 2027.98 443.906 1947.14 403.907C1873.68 367.57 1820.24 330.626 1783.77 290.954C1750.83 255.147 1732.3 217.605 1727.1 176.19C1717.4 98.736 1756.28 18.4394 1797.43 -66.5596C1825.05 -123.614 1853.62 -182.606 1870.02 -245.172C1891.73 -327.954 1889.4 -404.766 1887.52 -466.487C1885.2 -543.428 1883.52 -599.014 1925.54 -625.817C1978.51 -659.606 2100.85 -643.425 2347.85 -569.994C2530.17 -515.784 2510.7 -434.023 2488.15 -339.359C2470.21 -263.97 2449.85 -178.53 2529.08 -91.2758C2572.75 -43.202 2608.28 7.2713 2634.68 58.7371C2659.99 108.054 2676.45 157.313 2683.59 205.107C2697.74 299.675 2674.1 383.489 2617.02 441.092C2560.42 498.195 2474.07 527.306 2367.27 525.253C2312.29 524.193 2251.97 514.894 2187.85 497.569L2187.86 497.588ZM1948.24 402.24C2028.96 442.172 2106.45 472.708 2178.59 493.001C2246.22 512.013 2309.71 522.227 2367.31 523.335C2473.42 525.378 2559.19 496.499 2615.34 439.849C2672.01 382.67 2695.47 299.395 2681.39 205.377C2674.28 157.756 2657.88 108.69 2632.65 59.5368C2606.33 8.22522 2570.89 -42.1131 2527.34 -90.0617C2447.47 -178.019 2467.92 -263.93 2485.98 -339.726C2497.13 -386.555 2507.65 -430.788 2492.71 -469.329C2476.1 -512.165 2429.84 -543.564 2347.14 -568.15C2100.92 -641.357 1979.16 -657.602 1926.85 -624.243C1885.76 -598.035 1887.44 -542.874 1889.75 -466.523C1891.61 -404.692 1893.94 -327.748 1872.19 -244.729C1855.74 -181.999 1827.14 -122.93 1799.48 -65.7983C1716.81 104.961 1645.41 252.43 1948.23 402.25L1948.24 402.24Z" fill="#B1B1B1" fill-opacity="0.5"/>
<path d="M2192.04 509.383C2187.73 508.217 2183.42 507.022 2179.09 505.779C2106.01 484.926 2028.33 453.455 1948.19 412.233C1803.68 337.901 1730.58 261.757 1718.15 172.567C1706.95 92.2317 1746.24 8.69733 1787.84 -79.7416C1813.45 -134.166 1839.91 -190.449 1857.58 -250.865C1883.02 -337.865 1880.36 -418.74 1878.23 -483.721C1876.99 -521.791 1875.91 -554.679 1880.39 -581.755C1885.31 -611.507 1896.73 -631.2 1916.3 -643.753C1970.59 -678.556 2097.42 -661.902 2354.07 -586.277C2541.53 -531.042 2520.08 -447.371 2495.27 -350.495C2475.12 -271.834 2452.27 -182.692 2538.09 -91.748C2629.22 4.83331 2685.27 108.854 2700.16 209.068C2714.18 303.462 2689.64 388.066 2631.04 447.298C2571.73 507.253 2482.09 538.107 2371.84 536.517C2316.22 535.718 2255.78 526.592 2192.05 509.373L2192.04 509.383ZM1949.31 410.585C2029.32 451.731 2106.86 483.144 2179.78 503.948C2248.07 523.441 2312.7 533.742 2371.85 534.6C2481.44 536.18 2570.48 505.557 2629.34 446.045C2687.52 387.227 2711.89 303.154 2697.94 209.309C2683.1 109.451 2627.24 5.76801 2536.36 -90.5435C2449.89 -182.201 2472.85 -271.834 2493.1 -350.92C2505.38 -398.848 2516.97 -444.114 2502.15 -483.531C2485.69 -527.327 2438.4 -559.397 2353.34 -584.465C2097.47 -659.87 1971.23 -676.598 1917.61 -642.21C1876.12 -615.614 1877.94 -560.316 1880.45 -483.778C1882.58 -418.675 1885.24 -337.648 1859.72 -250.387C1842.02 -189.833 1815.51 -133.491 1789.88 -79.0093C1748.39 9.18878 1709.2 92.4918 1720.34 172.326C1732.68 260.871 1805.44 336.571 1949.31 410.566L1949.31 410.585Z" fill="#B1B1B1" fill-opacity="0.5"/>
<path d="M2195.46 520.868C2190.36 519.49 2185.25 518.064 2180.12 516.58C2106.24 495.256 2028.56 462.937 1949.21 420.558C1799.07 340.339 1722.67 260.148 1708.76 168.163C1703 130.043 1707.44 89.5623 1722.73 40.7657C1736.35 -2.70215 1756.91 -47.3938 1778.66 -94.7064C1802.26 -146.028 1826.67 -199.112 1845.12 -256.563C1874.35 -347.595 1871.3 -432.422 1868.86 -500.574C1867.48 -538.8 1866.31 -571.805 1870.77 -599.078C1875.68 -629.056 1887.17 -648.951 1906.94 -661.704C1962.55 -697.552 2093.89 -680.417 2360.27 -602.578C2552.9 -546.287 2529.5 -460.69 2502.41 -361.583C2480.03 -279.682 2454.65 -186.855 2547.06 -92.2396C2642.98 5.97021 2701.68 111.494 2716.8 212.932C2730.84 307.21 2705.5 392.604 2645.39 453.368C2615.36 483.741 2577.57 507.272 2533.07 523.297C2486.71 539.996 2433.98 548.167 2376.35 547.599C2319.88 547.04 2259.08 538.059 2195.48 520.878L2195.46 520.868ZM2269.79 -626.062C2063.72 -681.735 1956.62 -691.332 1908.26 -660.157C1888.99 -647.743 1877.77 -628.248 1872.96 -598.809C1868.52 -571.701 1869.7 -538.765 1871.08 -500.631C1873.52 -432.345 1876.57 -347.357 1847.25 -256.037C1828.78 -198.486 1804.34 -145.353 1780.73 -93.9837C1736.56 2.06769 1698.42 85.0045 1710.96 167.922C1724.78 259.29 1800.85 339.038 1950.38 418.92C2029.58 461.231 2107.11 493.483 2180.83 514.769C2249.81 534.687 2315.59 545.093 2376.36 545.681C2433.69 546.25 2486.12 538.117 2532.2 521.524C2576.38 505.615 2613.9 482.267 2643.71 452.125C2703.38 391.785 2728.55 306.921 2714.59 213.192C2699.52 112.13 2641 6.94348 2545.35 -90.9773C2452.23 -186.335 2477.73 -279.666 2500.25 -362.007C2513.64 -411.046 2526.31 -457.358 2511.61 -497.656C2495.29 -542.435 2446.97 -575.188 2359.56 -600.731C2327.74 -610.033 2297.84 -618.462 2269.79 -626.04V-626.062Z" fill="#B1B1B1" fill-opacity="0.5"/>
<path d="M2198.28 532.104C2192.55 530.563 2186.8 528.944 2181.03 527.257C2106.34 505.461 2028.69 472.361 1950.24 428.874C1867.93 383.248 1807.74 338.865 1766.24 293.219C1728.33 251.505 1706.32 208.895 1698.94 162.921C1685.03 76.2554 1724.45 -10.8442 1770.09 -111.694C1791.68 -159.373 1813.99 -208.69 1832.65 -262.273C1865.7 -357.206 1862.22 -445.884 1859.42 -517.141C1857.9 -555.596 1856.6 -588.806 1861.03 -616.32C1865.91 -646.581 1877.49 -666.712 1897.49 -679.667C1926.12 -698.232 1972.9 -702.719 2044.73 -693.829C2119.02 -684.637 2224.26 -660.121 2366.44 -618.893C2564.3 -561.523 2538.94 -473.987 2509.57 -372.637C2484.91 -287.514 2456.97 -191.037 2556.02 -92.75C2656.67 7.13647 2718.03 114.144 2733.5 216.709C2747.71 310.978 2721.63 397.133 2660.05 459.314C2628.7 490.978 2589.25 515.608 2542.79 532.519C2494.59 550.066 2440.1 558.796 2380.81 558.486C2323.29 558.17 2261.97 549.295 2198.28 532.085V532.104ZM2279.8 -641.176C2061.53 -700.147 1948.9 -710.584 1898.82 -678.117C1879.33 -665.488 1868.02 -645.758 1863.24 -616.038C1858.83 -588.69 1860.13 -555.559 1861.64 -517.186C1864.45 -445.786 1867.94 -356.934 1834.78 -261.698C1816.09 -208.044 1793.76 -158.689 1772.16 -110.972C1726.63 -10.372 1687.31 76.5059 1701.14 162.671C1708.45 208.288 1730.32 250.599 1767.97 292.034C1809.31 337.506 1869.32 381.745 1951.43 427.246C2029.72 470.646 2107.21 503.678 2181.73 525.427C2251.39 545.749 2318.37 556.223 2380.83 556.578C2439.81 556.888 2494.01 548.206 2541.93 530.755C2588.07 513.96 2627.24 489.504 2658.37 458.071C2719.52 396.314 2745.43 310.679 2731.3 216.969C2715.9 114.79 2654.71 8.12909 2554.34 -91.4684C2454.54 -190.517 2482.64 -287.514 2507.43 -373.095C2521.96 -423.25 2535.69 -470.627 2521.1 -511.816C2504.9 -557.579 2455.53 -591.018 2365.73 -617.055C2335.43 -625.837 2306.78 -633.887 2279.8 -641.179V-641.176Z" fill="#B1B1B1" fill-opacity="0.5"/>
<path d="M2200.88 543.108C2119.56 521.138 2035.42 485.553 1951.28 437.199C1865.52 387.911 1802.82 340.714 1759.57 292.901C1719.84 248.961 1696.65 204.462 1688.7 156.841C1673.62 66.7058 1714.73 -24.884 1762.34 -130.928C1781.83 -174.338 1801.97 -219.213 1820.2 -267.957C1857.12 -366.669 1853.15 -459.133 1849.95 -533.434C1846.69 -609.184 1844.12 -669.026 1887.98 -697.614C1917.25 -716.692 1965.41 -721.341 2039.54 -712.235C2116.32 -702.804 2225.28 -677.594 2372.64 -635.179C2575.76 -576.712 2548.45 -487.232 2516.81 -383.619C2489.85 -295.294 2459.29 -195.19 2565.01 -93.2321C2670.34 8.35999 2734.42 116.852 2750.33 220.496C2757.64 268.213 2754.63 313.801 2741.37 355.987C2728.42 397.181 2706.09 433.943 2675 465.25C2608.29 532.47 2505.4 569.395 2385.28 569.242C2326.47 569.164 2264.53 560.309 2200.88 543.108ZM2290.2 -656.2C2059.43 -718.547 1941.12 -729.851 1889.32 -696.083C1869.6 -683.224 1858.2 -663.246 1853.44 -633.206C1849.07 -605.575 1850.5 -572.178 1852.17 -533.522C1855.37 -459.069 1859.35 -366.409 1822.31 -267.378C1804.05 -218.586 1783.9 -173.673 1764.4 -130.244C1716.9 -24.4504 1675.89 66.9276 1690.88 156.552C1698.79 203.826 1721.82 248.036 1761.31 291.687C1804.39 339.337 1866.94 386.399 1952.49 435.571C2036.44 483.809 2120.42 519.337 2201.53 541.249C2264.98 558.391 2326.68 567.208 2385.28 567.286C2504.73 567.449 2607.03 530.745 2673.32 463.968C2704.17 432.873 2726.34 396.372 2739.21 355.448C2752.39 313.522 2755.39 268.194 2748.11 220.718C2732.26 117.459 2668.38 9.33331 2563.33 -91.9697C2456.81 -194.708 2487.53 -295.345 2514.65 -384.142C2530.31 -435.426 2545.1 -483.869 2530.63 -525.954C2514.54 -572.704 2464.12 -606.843 2371.93 -633.384C2343.24 -641.639 2316.01 -649.26 2290.19 -656.234L2290.2 -656.2Z" fill="#B1B1B1" fill-opacity="0.5"/>
<path d="M2202.68 553.939C2120.19 531.651 2035.77 495.218 1952.32 445.525C1862.84 392.248 1797.47 342.016 1752.46 291.985C1710.81 245.685 1686.46 199.191 1677.99 149.836C1670.62 106.811 1674.94 61.1077 1691.63 5.98993C1706.66 -43.6642 1730.44 -96.6525 1755.62 -152.744C1772.84 -191.114 1790.65 -230.788 1807.74 -273.655C1848.55 -376.059 1844.05 -472.257 1840.43 -549.559C1836.85 -626.062 1834.02 -686.477 1878.43 -715.585C1908.34 -735.194 1957.88 -739.987 2034.3 -730.665C2113.59 -720.99 2226.28 -695.097 2378.82 -651.482C2587.22 -591.903 2557.94 -500.46 2524.05 -394.579C2494.76 -303.071 2461.56 -199.353 2573.96 -93.7232C2683.95 9.61298 2750.76 119.579 2767.18 224.274C2774.72 272.261 2771.6 318.205 2757.94 360.835C2744.69 402.212 2721.89 439.329 2690.17 471.167C2620.68 540.941 2513.96 579.542 2389.7 579.833C2329.44 579.985 2266.62 571.198 2202.68 553.92V553.939ZM2300.97 -671.145C2057.39 -736.95 1933.31 -749.147 1879.77 -714.051C1836.3 -685.551 1839.11 -625.574 1842.66 -549.634C1846.28 -472.17 1850.79 -375.765 1809.84 -273.015C1792.75 -230.112 1774.92 -190.42 1757.7 -152.03C1655.45 75.735 1587.91 226.21 1953.59 443.935C2101.34 531.921 2252.16 578.251 2389.71 577.925C2513.32 577.625 2619.43 539.274 2688.51 469.914C2720.01 438.298 2742.65 401.421 2755.82 360.324C2769.39 317.954 2772.49 272.27 2764.99 224.534C2748.62 120.234 2681.99 10.6345 2572.33 -92.4127C2459.09 -198.832 2492.47 -303.096 2521.91 -395.088C2538.68 -447.513 2554.55 -497.026 2540.18 -540.014C2524.22 -587.76 2472.73 -622.603 2378.12 -649.653C2351.17 -657.361 2325.43 -664.526 2300.94 -671.142L2300.97 -671.145Z" fill="#B1B1B1" fill-opacity="0.5"/>
<path d="M2204.13 564.568C2120.52 541.981 2035.93 504.767 1953.35 453.841C1773.32 342.854 1684.97 246.648 1666.83 141.924C1649.91 44.206 1694.19 -53.5991 1750.25 -177.431C1764.94 -209.895 1780.14 -243.458 1795.28 -279.341C1840.02 -385.358 1834.95 -485.252 1830.88 -565.521C1826.95 -642.845 1823.86 -703.917 1868.83 -733.558C1899.4 -753.707 1950.3 -758.644 2029.04 -749.101C2110.82 -739.196 2227.28 -712.59 2385.04 -667.778C2598.74 -607.066 2567.5 -513.659 2531.35 -405.496C2499.69 -310.82 2463.82 -203.506 2582.95 -94.2148C2642.15 -39.8969 2689.46 16.0593 2723.6 72.1215C2755.54 124.609 2775.92 177.076 2784.14 228.07C2791.91 276.365 2788.75 322.676 2774.73 365.739C2761.19 407.299 2737.92 444.773 2705.57 477.112C2670.22 512.447 2625.56 540.237 2572.84 559.702C2518.83 579.629 2458.7 589.939 2394.11 590.317C2332.27 590.672 2268.48 581.942 2204.15 564.558L2204.13 564.568ZM1954.64 452.28C2100.4 542.145 2252.35 589.207 2394.08 588.399C2458.39 588.012 2518.23 577.769 2571.97 557.929C2624.36 538.58 2668.74 510.973 2703.88 475.849C2736.01 443.733 2759.13 406.509 2772.58 365.219C2786.52 322.416 2789.66 276.366 2781.92 228.34C2773.74 177.578 2753.46 125.312 2721.63 73.0175C2687.6 17.1193 2640.4 -38.702 2581.34 -92.8851C2461.33 -202.995 2497.4 -310.856 2529.22 -406.032C2547.12 -459.596 2564.03 -510.197 2549.77 -554.083C2533.93 -602.836 2481.36 -638.383 2384.35 -665.946C2079.38 -752.585 1930.42 -771.717 1870.18 -732.024C1826.14 -702.999 1829.21 -642.366 1833.11 -565.606C1837.18 -485.164 1842.27 -385.062 1797.38 -278.683C1782.23 -242.772 1767.03 -209.201 1752.33 -176.728C1696.39 -53.1655 1652.21 44.4179 1669.05 141.635C1687.08 245.791 1775.18 341.601 1954.66 452.27L1954.64 452.28Z" fill="#B1B1B1" fill-opacity="0.5"/>
<path d="M2205.35 574.926C2198.07 572.961 2190.79 570.879 2183.5 568.692C2105.53 545.276 2028.44 509.431 1954.38 462.166C1556.24 208.094 1623.85 61.2422 1746.58 -205.366C1758.33 -230.884 1770.47 -257.263 1782.82 -285.04C1831.5 -394.613 1825.84 -498.16 1821.28 -581.364C1817 -659.581 1813.63 -721.364 1859.18 -751.545C1890.4 -772.226 1942.68 -777.317 2023.73 -767.56C2108.03 -757.409 2228.23 -730.102 2391.21 -684.094C2610.23 -622.247 2577.05 -526.855 2538.64 -416.403C2504.61 -318.574 2466.03 -207.688 2591.92 -94.7063C2653.58 -39.3669 2702.83 17.5045 2738.28 74.299C2771.42 127.393 2792.57 180.43 2801.11 231.934C2809.17 280.538 2805.97 327.243 2791.61 370.721C2777.81 412.493 2754.08 450.314 2721.07 483.115C2684.38 519.597 2637.92 548.37 2583.02 568.634C2527 589.303 2464.89 600.076 2398.42 600.664C2335.52 601.223 2270.66 592.56 2205.33 574.917L2205.35 574.926ZM2323.52 -700.785C2053.5 -773.736 1917.55 -787.799 1860.54 -750.008C1815.92 -720.443 1819.28 -659.108 1823.51 -581.448C1828.07 -498.07 1833.75 -394.298 1784.89 -284.338C1772.55 -256.55 1760.4 -230.164 1748.65 -204.643C1687.93 -72.7459 1639.97 31.4382 1657.41 132.789C1666.48 185.431 1693.03 235.914 1738.59 287.129C1786.99 341.543 1858.01 398.289 1955.69 460.625C2029.59 507.773 2106.47 543.523 2184.23 566.88C2256.68 588.658 2328.74 599.373 2398.41 598.756C2464.59 598.178 2526.41 587.453 2582.15 566.88C2636.77 546.722 2682.94 518.132 2719.42 481.862C2752.21 449.264 2775.79 411.693 2789.49 370.201C2803.78 326.983 2806.95 280.557 2798.93 232.223C2790.41 180.95 2769.36 128.126 2736.35 75.2337C2700.98 18.5934 2651.86 -38.1336 2590.34 -93.3477C2463.55 -207.139 2502.32 -318.598 2536.53 -416.943C2555.56 -471.656 2573.53 -523.343 2559.37 -568.152C2543.64 -617.916 2489.99 -654.166 2390.53 -682.247C2367.34 -688.798 2345 -694.973 2323.52 -700.776V-700.785Z" fill="#B1B1B1" fill-opacity="0.5"/>
<path d="M2206.4 585.218C2198.89 583.185 2191.38 581.036 2183.86 578.771C2105.08 554.99 2028.22 518.556 1955.41 470.492C1852.87 402.78 1778.59 342.276 1728.35 285.52C1680.3 231.231 1652.43 178.185 1643.17 123.327C1625.25 17.0613 1675.51 -89.4739 1745.08 -236.915C1753.26 -254.272 1761.74 -272.215 1770.35 -290.729C1823 -403.821 1816.72 -510.987 1811.67 -597.102C1807.03 -676.272 1803.36 -738.804 1849.49 -769.531C1881.36 -790.754 1935.03 -795.993 2018.39 -786.015C2105.2 -775.622 2229.17 -747.618 2397.4 -700.385C2621.76 -637.397 2586.64 -540.017 2545.96 -427.262C2509.53 -326.288 2468.24 -211.831 2600.89 -95.188C2665.01 -38.7983 2716.19 18.9597 2752.98 76.5154C2787.33 130.226 2809.25 183.841 2818.15 235.856C2826.52 284.816 2823.31 331.907 2808.63 375.799C2794.58 417.802 2770.38 455.951 2736.73 489.224C2698.69 526.805 2650.42 556.531 2593.25 577.567C2535.2 598.93 2471.09 610.156 2402.71 610.936C2338.23 611.678 2272.29 603.025 2206.38 585.218H2206.4ZM1956.77 468.95C2029.39 516.899 2106.05 553.226 2184.6 576.94C2257.75 599.026 2331.14 609.809 2402.7 608.999C2470.79 608.219 2534.62 597.051 2592.41 575.775C2649.25 554.845 2697.27 525.301 2735.08 487.933C2768.53 454.881 2792.56 416.974 2806.52 375.25C2821.11 331.609 2824.3 284.807 2815.97 236.126C2807.12 184.352 2785.27 130.959 2751.06 77.4404C2714.36 20.0389 2663.3 -37.5842 2599.32 -93.8487C2465.74 -211.311 2507.24 -326.351 2543.85 -427.851C2564.01 -483.723 2583.05 -536.495 2568.98 -582.216C2553.37 -632.988 2498.63 -669.958 2396.74 -698.566C2071.86 -789.767 1913.72 -809.895 1850.86 -768.022C1805.65 -737.902 1809.3 -675.821 1813.9 -597.214C1818.96 -510.916 1825.26 -403.512 1772.42 -290.027C1763.8 -271.517 1755.33 -253.561 1747.15 -236.205C1677.7 -89.0403 1627.55 17.2927 1645.39 123.028C1654.58 177.539 1682.3 230.306 1730.11 284.325C1780.23 340.946 1854.38 401.334 1956.76 468.94L1956.77 468.95Z" fill="#B1B1B1" fill-opacity="0.5"/>
<path d="M2207.28 595.383C2199.56 593.292 2191.86 591.086 2184.15 588.754C2104.56 564.616 2027.96 527.623 1956.47 478.807C1848.84 405.304 1771.3 340.974 1719.44 282.137C1669 224.9 1639.98 169.493 1630.74 112.737C1612.69 1.81708 1668.72 -113.227 1746.26 -272.461C1750.1 -280.337 1753.98 -288.319 1757.92 -296.418C1814.56 -412.985 1807.63 -523.745 1802.06 -612.746C1797.04 -692.907 1793.08 -756.234 1839.81 -787.527C1872.31 -809.295 1927.37 -814.675 2013.07 -804.478C2102.4 -793.839 2230.14 -765.128 2403.62 -716.689C2492.17 -691.957 2546.8 -660.316 2570.59 -619.958C2601.57 -567.418 2578.14 -504.612 2553.32 -438.109C2514.48 -334.003 2470.44 -215.994 2609.89 -95.6796C2676.45 -38.2492 2729.54 20.4434 2767.69 78.7507C2803.26 133.117 2825.99 187.319 2835.26 239.855C2843.97 289.191 2840.78 336.667 2825.78 381.002C2811.5 423.227 2786.84 461.733 2752.51 495.42C2673.05 573.404 2547.11 619.213 2406.98 621.112C2340.91 622.017 2273.83 613.364 2207.27 595.374L2207.28 595.383ZM2347.46 -730.093C2049.85 -810.496 1901.67 -826.521 1841.16 -786.003C1795.35 -755.327 1799.29 -692.452 1804.27 -612.855C1809.86 -523.659 1816.8 -412.652 1759.95 -295.677C1756.02 -287.577 1752.13 -279.595 1748.3 -271.719C1670.89 -112.764 1614.97 2.07733 1632.94 112.457C1642.12 168.876 1671 224.003 1721.19 280.962C1772.94 339.683 1850.34 403.897 1957.83 477.295C2029.14 525.985 2105.52 562.872 2184.88 586.942C2258.76 609.336 2333.48 620.187 2406.95 619.194C2546.44 617.296 2671.79 571.718 2750.85 494.148C2784.96 460.673 2809.46 422.418 2823.66 380.463C2838.57 336.407 2841.73 289.21 2833.07 240.153C2823.85 187.849 2801.21 133.869 2765.76 79.7048C2727.72 21.5516 2674.74 -36.9869 2608.32 -94.3018C2467.91 -215.455 2512.17 -334.052 2551.21 -438.689C2575.88 -504.795 2599.18 -567.236 2568.63 -619.067C2545.11 -658.955 2490.9 -690.279 2402.94 -714.843C2383.91 -720.155 2365.41 -725.246 2347.47 -730.09L2347.46 -730.093Z" fill="#B1B1B1" fill-opacity="0.5"/>
<path d="M2207.99 605.444C2200.09 603.304 2192.22 601.05 2184.35 598.65C2103.96 574.175 2027.63 536.652 1957.49 487.133C1736.04 330.77 1637.81 219.976 1618.47 104.729C1609.53 51.51 1616.96 -6.13239 1641.87 -76.6388C1664.22 -139.947 1697.4 -207.014 1745.45 -302.108C1806.11 -422.12 1798.51 -536.453 1792.39 -628.325C1786.99 -709.528 1782.72 -773.664 1830.07 -805.528C1863.22 -827.837 1919.65 -833.368 2007.69 -822.935C2099.53 -812.051 2231.06 -782.62 2409.8 -732.981C2500.43 -707.799 2556.16 -675.566 2580.19 -634.419C2611.48 -580.858 2586.8 -516.772 2560.67 -448.92C2519.39 -341.687 2472.59 -220.138 2618.85 -96.1517C2687.83 -37.6613 2742.86 21.9468 2782.37 81.0347C2819.18 136.066 2842.74 190.885 2852.4 243.95C2861.44 293.681 2858.28 341.582 2842.99 386.331C2828.47 428.816 2803.35 467.649 2768.33 501.77C2686.15 581.816 2555.96 629.004 2411.17 631.229C2343.44 632.28 2275.21 623.617 2207.98 605.453L2207.99 605.444ZM1958.89 485.639C2028.83 535.024 2104.93 572.431 2185.08 596.829C2259.66 619.541 2335.73 630.468 2411.14 629.293C2555.31 627.067 2684.89 580.11 2766.67 500.479C2801.48 466.57 2826.45 427.987 2840.88 385.772C2856.06 341.322 2859.21 293.7 2850.22 244.249C2840.6 191.415 2817.14 136.827 2780.47 81.9982C2741.06 23.055 2686.16 -36.4183 2617.31 -94.793C2470.06 -219.627 2517.09 -341.775 2558.58 -449.545C2584.55 -517.007 2609.08 -580.719 2578.23 -633.559C2554.48 -674.217 2499.16 -706.144 2409.13 -731.153C2230.52 -780.77 2099.11 -810.175 2007.4 -821.035C1920 -831.387 1864.09 -825.978 1831.44 -804.007C1785.03 -772.769 1789.26 -709.077 1794.62 -628.44C1800.74 -536.364 1808.36 -421.764 1747.49 -301.335C1699.46 -206.31 1666.31 -139.282 1643.99 -76.08C1619.19 -5.84332 1611.78 51.5196 1620.67 104.45C1639.94 219.176 1737.93 329.604 1958.9 485.63L1958.89 485.639Z" fill="#B1B1B1" fill-opacity="0.5"/>
<path d="M2208.6 615.398C2200.55 613.22 2192.51 610.907 2184.49 608.46C2103.31 583.647 2027.28 545.633 1958.54 495.439C1842.75 410.913 1763.11 343.133 1707.91 282.099C1651.42 219.658 1619.52 163.316 1607.49 104.797C1596.33 50.4887 1602.32 -7.60657 1626.34 -78.0166C1647.85 -141.046 1681.74 -210.01 1732.99 -307.825C1797.67 -431.251 1789.39 -549.15 1782.73 -643.875C1776.94 -726.14 1772.37 -791.124 1820.33 -823.56C1854.11 -846.413 1911.95 -852.091 2002.32 -841.431C2096.68 -830.3 2231.99 -800.162 2416 -749.297C2508.71 -723.667 2565.56 -690.829 2589.82 -648.913C2621.42 -594.32 2595.51 -528.953 2568.07 -459.748C2524.34 -349.393 2474.77 -224.32 2627.85 -96.6526C2699.26 -37.0926 2756.22 23.4694 2797.11 83.3474C2835.16 139.082 2859.56 194.527 2869.61 248.132C2879.02 298.287 2875.89 346.622 2860.31 391.785C2845.55 434.54 2819.96 473.72 2784.24 508.236C2742.77 548.283 2687.44 581.537 2624.23 604.374C2559.94 627.607 2489.67 640.018 2415.36 641.27C2345.95 642.446 2276.52 633.745 2208.6 615.398ZM2374.13 -758.713C2211.06 -802.768 2089.07 -829.247 2002.02 -839.514C1912.28 -850.094 1854.98 -844.545 1821.69 -822.032C1774.65 -790.215 1779.19 -725.685 1784.94 -643.983C1791.62 -549.042 1799.93 -430.885 1735.02 -307.016C1683.8 -209.278 1649.95 -140.381 1628.48 -77.4578C1604.56 -7.34644 1598.58 50.4598 1609.68 104.46C1621.64 162.661 1653.41 218.723 1709.66 280.904C1764.76 341.823 1844.31 409.525 1959.97 493.965C2028.51 543.995 2104.29 581.893 2185.24 606.629C2260.53 629.64 2337.94 640.644 2415.31 639.333C2489.35 638.081 2559.35 625.718 2623.38 602.582C2686.29 579.851 2741.35 546.78 2782.59 506.935C2818.09 472.631 2843.53 433.702 2858.19 391.217C2873.66 346.332 2876.77 298.297 2867.42 248.431C2857.41 195.057 2833.11 139.843 2795.2 84.3206C2754.41 24.5872 2697.6 -35.8304 2626.31 -95.2747C2472.21 -223.79 2522.04 -349.48 2565.98 -460.382C2579.97 -495.659 2593.17 -528.976 2599.06 -560.438C2605.63 -595.638 2602.08 -623.482 2587.86 -648.052C2563.89 -689.486 2507.45 -722.009 2415.35 -747.466C2401.34 -751.343 2387.6 -755.096 2374.15 -758.729L2374.13 -758.713Z" fill="#B1B1B1" fill-opacity="0.5"/>
<path d="M2209.22 625.303C2118.88 600.895 2033.8 559.788 1959.57 503.765C1841.34 414.536 1760.2 344.733 1704.23 284.113C1644.94 219.879 1610.74 162.892 1596.62 104.787C1583.17 49.4478 1587.69 -9.0907 1610.85 -79.4044C1632.93 -146.471 1670.67 -221.487 1720.53 -313.492C1789.26 -440.315 1780.26 -561.758 1773.04 -659.328C1766.86 -742.7 1761.98 -808.543 1810.57 -841.557C1845 -864.952 1904.21 -870.782 1996.92 -859.894C2093.79 -848.518 2232.9 -817.678 2422.21 -765.577C2516.99 -739.496 2574.96 -706.061 2599.46 -663.356C2631.36 -607.73 2604.21 -541.083 2575.47 -470.513C2529.27 -357.053 2476.91 -228.454 2636.82 -97.1154C2710.67 -36.4666 2769.55 25.0494 2811.82 85.7368C2851.13 142.184 2876.37 198.285 2886.85 252.458C2896.62 303.067 2893.54 351.834 2877.67 397.422C2862.67 440.466 2836.6 479.983 2800.15 514.885C2757.36 555.866 2700.1 589.92 2634.55 613.393C2569.09 636.828 2494.72 649.923 2419.46 651.282C2347.99 652.573 2277.13 643.66 2209.22 625.313V625.303ZM2387.11 -773.13C2215.36 -819.53 2087.4 -847.328 1996.62 -857.987C1904.54 -868.798 1845.85 -863.095 1811.93 -840.038C1764.27 -807.654 1769.12 -742.251 1775.25 -659.446C1782.5 -561.647 1791.53 -439.946 1722.55 -312.665C1672.73 -220.735 1635.04 -145.796 1612.99 -78.8745C1589.94 -8.86914 1585.42 49.3707 1598.79 104.402C1612.84 162.208 1646.89 218.944 1705.96 282.927C1761.84 343.451 1842.88 413.177 1961.02 502.319C2090.63 600.125 2253.42 652.342 2419.41 649.355C2494.4 647.996 2568.49 634.939 2633.71 611.601C2698.95 588.243 2755.93 554.344 2798.5 513.584C2834.73 478.894 2860.64 439.628 2875.53 396.854C2891.3 351.555 2894.37 303.076 2884.64 252.776C2874.22 198.834 2849.07 142.974 2809.9 86.739C2767.74 26.1962 2708.99 -35.1946 2635.28 -95.7182C2563.48 -154.7 2527.94 -218.432 2526.66 -290.547C2525.53 -353.693 2549.85 -413.405 2573.38 -471.153C2588.01 -507.129 2601.85 -541.103 2608.16 -573.186C2615.2 -609.076 2611.81 -637.452 2597.45 -662.495C2573.23 -704.711 2515.69 -737.828 2421.52 -763.743C2409.88 -766.951 2398.39 -770.084 2387.11 -773.13Z" fill="#B1B1B1" fill-opacity="0.5"/>
<path d="M2209.5 635.141C2118.22 610.483 2033.38 568.865 1960.6 512.09C1837.77 416.251 1757.61 346.544 1700.69 286.021C1638.51 219.918 1602.03 162.285 1585.87 104.652C1553.46 -10.8928 1601.6 -128.731 1708.08 -319.188C1780.87 -449.394 1771.15 -574.363 1763.33 -674.767C1756.76 -759.265 1751.56 -826.003 1800.78 -859.591C1835.85 -883.53 1896.45 -889.501 1991.51 -878.392C2090.9 -866.77 2233.8 -835.206 2428.39 -781.9C2525.24 -755.369 2584.35 -721.326 2609.08 -677.843C2623.81 -651.943 2627.11 -622.651 2619.49 -585.646C2612.73 -552.789 2598.22 -518.075 2582.88 -481.322C2534.19 -364.767 2479.01 -232.649 2645.8 -97.6358C2722.08 -35.8884 2782.89 26.6105 2826.55 88.1362C2867.14 145.316 2893.23 202.082 2904.11 256.833C2914.27 307.904 2911.23 357.144 2895.07 403.146C2879.84 446.498 2853.27 486.362 2816.08 521.64C2771.96 563.498 2712.76 598.342 2644.87 622.393C2577.33 646.329 2500.79 659.752 2423.53 661.197C2350.15 662.575 2278.01 653.633 2209.49 635.122L2209.5 635.141ZM1962.09 510.654C2089.08 609.722 2252.94 662.517 2423.48 659.289C2500.48 657.844 2576.75 644.469 2644.04 620.62C2711.62 596.665 2770.55 561.995 2814.45 520.358C2851.41 485.292 2877.82 445.669 2892.95 402.606C2909.01 356.884 2912.03 307.952 2901.93 257.18C2891.1 202.679 2865.09 146.145 2824.66 89.1576C2781.1 27.7764 2720.42 -34.578 2644.27 -96.2193C2569.39 -156.83 2532.46 -222.335 2531.36 -296.463C2530.4 -361.348 2556.01 -422.671 2580.78 -481.968C2596.09 -518.641 2610.57 -553.281 2617.3 -585.976C2624.83 -622.553 2621.59 -651.475 2607.08 -676.978C2582.63 -719.974 2523.97 -753.686 2427.71 -780.053C2233.25 -833.328 2090.46 -864.869 1991.21 -876.475C1896.79 -887.513 1836.7 -881.675 1802.14 -858.073C1753.85 -825.11 1759.01 -758.816 1765.54 -674.887C1773.37 -574.255 1783.12 -449.01 1710.06 -318.339C1603.82 -128.307 1555.77 -10.7675 1588.02 104.209C1604.09 161.543 1640.44 218.935 1702.4 284.807C1759.25 345.243 1839.34 414.902 1962.08 510.654H1962.09Z" fill="#B1B1B1" fill-opacity="0.5"/>
<path d="M2210.01 644.816C2117.07 619.714 2032.22 577.335 1961.64 520.406C1833.33 416.925 1754.28 347.363 1697.3 287.832C1632.16 219.764 1593.37 161.485 1575.24 104.44C1557.03 47.1736 1558.55 -12.184 1579.99 -82.3821C1598.96 -144.496 1633.54 -217.016 1695.61 -324.868C1772.48 -458.442 1762.02 -586.919 1753.61 -690.159C1746.63 -775.795 1741.13 -843.443 1790.97 -877.622C1826.67 -902.105 1888.67 -908.224 1986.08 -896.872C2087.98 -885.006 2234.67 -852.721 2434.57 -798.191C2533.51 -771.2 2593.74 -736.561 2618.71 -692.292C2633.59 -665.92 2636.74 -636.077 2628.65 -598.381C2621.45 -564.903 2606.32 -529.523 2590.3 -492.07C2539.13 -372.414 2481.12 -236.8 2654.78 -98.1079C2765.22 -9.90985 2843.35 78.587 2886.99 164.935C2926.42 242.948 2937.25 317.8 2919.18 387.401C2903.43 448.088 2866.63 502.117 2809.79 547.965C2756.47 590.98 2686.73 624.889 2608.08 646.03C2557.02 659.761 2503.11 667.99 2447.89 670.477C2391.22 673.03 2334.34 669.494 2278.82 659.944C2255.47 655.936 2232.49 650.867 2210 644.787L2210.01 644.816ZM2413.98 -801.758C2224.35 -852.989 2084.15 -883.497 1985.79 -894.954C1889.02 -906.231 1827.55 -900.233 1792.35 -876.097C1743.43 -842.55 1748.9 -775.354 1755.83 -690.286C1764.25 -586.82 1774.75 -458.052 1697.6 -323.997C1635.59 -216.264 1601.06 -143.85 1582.13 -81.881C1560.8 -12.0394 1559.28 47.0002 1577.38 103.93C1595.43 160.705 1634.08 218.761 1699.01 286.608C1755.92 346.072 1834.91 415.576 1963.15 518.999C2033.48 575.726 2118.05 617.961 2210.66 642.975C2233.09 649.036 2255.98 654.086 2279.26 658.094C2334.61 667.605 2391.3 671.132 2447.79 668.578C2502.82 666.092 2556.55 657.902 2607.45 644.209C2685.78 623.154 2755.23 589.39 2808.29 546.577C2864.79 500.989 2901.37 447.288 2917.03 386.996C2935 317.8 2924.2 243.352 2884.97 165.725C2841.45 79.6179 2763.51 -8.65723 2653.29 -96.6722C2575.35 -158.93 2537.01 -226.189 2536.1 -302.317C2535.3 -368.946 2562.21 -431.874 2588.24 -492.719C2604.23 -530.099 2619.31 -565.4 2626.48 -598.714C2634.48 -635.979 2631.39 -665.446 2616.74 -691.426C2592.04 -735.194 2532.26 -769.511 2433.93 -796.338C2427.23 -798.166 2420.56 -799.979 2413.99 -801.755L2413.98 -801.758Z" fill="#B1B1B1" fill-opacity="0.5"/>
<path d="M2210.27 654.501C2116.27 629.1 2031.67 586.259 1962.68 528.732C1845.08 430.676 1759.12 356.46 1694.07 289.538C1624.95 218.453 1585.06 161.254 1564.76 104.113C1544.09 45.96 1544.05 -13.7927 1564.63 -83.933C1583.22 -147.299 1619.78 -223.356 1683.16 -330.551C1764.09 -467.4 1753.1 -599.885 1744.29 -706.342C1737.04 -793.878 1731.31 -863.029 1782.24 -897.862C1818.75 -922.826 1882.16 -928.906 1981.8 -916.993C2086.14 -904.515 2236.28 -870.978 2440.8 -814.474C2541.69 -786.6 2602.96 -751.065 2628.1 -705.842C2643.08 -678.917 2646.06 -648.506 2637.48 -610.134C2629.85 -576.064 2614.12 -540.091 2597.46 -502.014C2543.92 -379.636 2483.24 -240.93 2663.77 -98.5797C2777.62 -8.81091 2858.18 81.0253 2903.22 168.462C2943.87 247.371 2955.17 323.014 2936.81 393.298C2928.65 424.567 2914.51 454.602 2894.81 482.566C2875.87 509.45 2851.7 534.552 2822.95 557.187C2767.5 600.857 2695.01 635.181 2613.36 656.438C2560.95 670.082 2505.79 678.186 2449.45 680.527C2391.71 682.927 2334.01 679.198 2277.94 669.465C2254.93 665.466 2232.34 660.465 2210.27 654.501ZM2394.68 -825.065C2213.28 -874.073 2077.82 -903.575 1981.49 -915.088C1882.48 -926.93 1819.6 -920.965 1783.61 -896.353C1733.6 -862.15 1739.29 -793.451 1746.5 -706.481C1755.34 -599.786 1766.34 -467.003 1685.14 -329.674C1621.83 -222.624 1585.33 -146.682 1566.78 -83.4609C1546.3 -13.6868 1546.33 45.7383 1566.87 103.535C1587.08 160.426 1626.83 217.403 1695.76 288.295C1760.76 355.14 1846.67 429.327 1964.21 527.344C2032.94 584.649 2117.27 627.356 2210.93 652.66C2232.93 658.606 2255.42 663.578 2278.37 667.567C2334.24 677.28 2391.76 681 2449.33 678.6C2505.5 676.259 2560.46 668.184 2612.71 654.587C2694.06 633.408 2766.24 599.229 2821.46 555.751C2850.03 533.242 2874.08 508.265 2892.92 481.545C2912.49 453.764 2926.53 423.922 2934.65 392.865C2952.89 322.994 2941.64 247.756 2901.19 169.233C2856.27 82.0563 2775.9 -7.57751 2662.27 -97.1631C2581.23 -161.059 2541.47 -230.002 2540.68 -307.92C2540 -376.124 2568.16 -440.48 2595.38 -502.715C2612.02 -540.719 2627.71 -576.612 2635.3 -610.52C2643.78 -648.463 2640.86 -678.488 2626.1 -705.021C2601.23 -749.745 2540.4 -784.95 2440.12 -812.657C2424.68 -816.92 2409.52 -821.066 2394.69 -825.071L2394.68 -825.065Z" fill="#B1B1B1" fill-opacity="0.5"/>
<path d="M2210.54 664.146C2115.46 638.466 2031.08 595.153 1963.71 537.048C1726.16 332.206 1600.07 219.909 1554.4 103.67C1531.2 44.6591 1529.59 -15.4695 1549.3 -85.5519C1567.64 -150.739 1605.08 -228.058 1670.7 -336.24C1755.73 -476.449 1743.98 -612.391 1734.52 -721.626C1726.85 -810.275 1720.78 -880.286 1772.3 -915.704C1809.43 -941.226 1874.23 -947.465 1976.23 -935.349C2083.09 -922.657 2237.08 -888.453 2446.97 -830.79C2549.95 -802.492 2612.36 -766.386 2637.77 -720.399C2652.89 -692.998 2655.72 -662.051 2646.66 -622.982C2638.61 -588.28 2622.24 -551.64 2604.91 -512.839C2548.85 -387.347 2485.29 -245.108 2672.72 -99.0712C2790.01 -7.69324 2873.03 83.5402 2919.48 172.076C2961.35 251.919 2973.1 328.39 2954.42 399.379C2946.02 431.351 2931.34 462.022 2910.8 490.573C2891.09 517.968 2865.91 543.533 2835.95 566.563C2778.28 610.869 2703 645.578 2618.27 666.892C2564.53 680.421 2508.15 688.381 2450.73 690.549C2391.94 692.775 2333.45 688.843 2276.89 678.899C2254.27 674.91 2232.12 669.985 2210.52 664.156L2210.54 664.146ZM2410.83 -838.614C2219.05 -890.425 2076.58 -921.479 1975.94 -933.44C1874.58 -945.485 1810.31 -939.365 1773.69 -914.198C1723.09 -879.417 1729.11 -809.845 1736.74 -721.772C1746.22 -612.29 1758.01 -476.047 1672.67 -335.345C1607.13 -227.297 1569.75 -150.113 1551.46 -85.0894C1531.84 -15.3731 1533.45 44.4085 1556.5 103.063C1602.01 218.877 1727.98 331.059 1965.28 535.679C2047.64 606.706 2155.56 655.57 2277.35 677.001C2333.73 686.926 2392.04 690.828 2450.64 688.621C2507.9 686.463 2564.09 678.523 2617.67 665.052C2702.08 643.805 2777.06 609.25 2834.48 565.117C2864.29 542.213 2889.33 516.793 2908.93 489.562C2929.33 461.193 2943.92 430.715 2952.28 398.954C2970.85 328.39 2959.14 252.333 2917.47 172.875C2871.15 84.5712 2788.32 -6.44061 2671.25 -97.6451C2587.14 -163.179 2545.96 -233.893 2545.39 -313.826C2544.86 -383.779 2574.34 -449.747 2602.84 -513.538C2620.14 -552.259 2636.49 -588.825 2644.49 -623.356C2653.46 -661.996 2650.68 -692.569 2635.77 -719.565C2610.64 -765.054 2548.67 -800.829 2446.3 -828.962C2434.3 -832.254 2422.45 -835.485 2410.83 -838.626V-838.614Z" fill="#B1B1B1" fill-opacity="0.5"/>
<path d="M2210.83 673.772C2114.68 647.794 2030.52 604.017 1964.76 545.373C1947.29 529.782 1930.32 514.692 1913.88 500.055C1706.67 315.719 1581.6 204.452 1538.69 89.4373C1517.22 31.8815 1516.47 -26.8401 1536.32 -95.3423C1555.2 -160.53 1592.81 -236.584 1658.24 -341.927C1747.48 -485.583 1734.61 -624.337 1724.28 -735.827C1716.03 -824.712 1709.52 -894.923 1761.11 -930.848C1798.65 -956.985 1864.81 -963.613 1969.31 -951.699C2078.79 -939.217 2237.06 -904.996 2453.17 -847.097C2558.3 -818.563 2621.9 -781.985 2647.58 -735.296C2662.89 -707.464 2665.58 -675.968 2656.05 -636.19C2647.57 -600.859 2630.55 -563.504 2612.53 -523.959C2582.8 -458.715 2552.07 -391.24 2552.37 -319.842C2552.71 -238.4 2595.02 -166.35 2681.73 -99.5629C2802.5 -6.52753 2888 86.1321 2935.83 175.824C2978.93 256.65 2991.14 333.979 2972.11 405.68C2963.45 438.346 2948.21 469.682 2926.8 498.802C2906.31 526.708 2880.09 552.706 2848.86 576.121C2788.91 621.063 2710.77 656.1 2622.9 677.443C2567.85 690.818 2510.29 698.585 2451.82 700.551C2392.02 702.564 2332.79 698.421 2275.76 688.255C2253.6 684.304 2231.92 679.458 2210.84 673.763L2210.83 673.772ZM1966.35 544.024C2046.22 615.253 2153.36 664.483 2276.21 686.376C2333.06 696.513 2392.12 700.637 2451.73 698.633C2510.03 696.667 2567.4 688.92 2622.3 675.593C2709.85 654.327 2787.69 619.425 2847.4 574.666C2878.48 551.386 2904.55 525.513 2924.94 497.771C2946.2 468.825 2961.35 437.701 2969.96 405.247C2988.87 333.979 2976.71 257.065 2933.83 176.633C2886.11 87.1727 2800.8 -5.2652 2680.26 -98.1174C2593.05 -165.299 2550.5 -237.815 2550.15 -319.834C2549.85 -391.607 2580.67 -459.251 2610.47 -524.666C2628.45 -564.132 2645.44 -601.413 2653.87 -636.576C2663.3 -675.916 2660.66 -707.025 2645.58 -734.454C2620.18 -780.632 2557.03 -816.879 2452.52 -845.245C2236.53 -903.112 2078.39 -937.309 1969.03 -949.778C1865.17 -961.619 1799.54 -955.129 1762.51 -929.339C1711.84 -894.064 1718.31 -824.298 1726.49 -735.984C1731.61 -680.762 1737.42 -618.181 1730.76 -551.254C1723.07 -473.84 1699.99 -405.073 1660.21 -341.022C1594.87 -235.828 1557.32 -159.923 1538.48 -94.8894C1518.73 -26.7535 1519.47 31.631 1540.81 88.8301C1583.55 203.411 1708.49 314.562 1915.47 498.706C1931.91 513.333 1948.88 528.423 1966.35 544.014L1966.35 544.024Z" fill="#B1B1B1" fill-opacity="0.5"/>
<path d="M2211.14 683.389C2113.88 657.111 2029.94 612.863 1965.79 553.679C1928.19 518.99 1893.36 487.258 1859.68 456.577C1672.79 286.319 1559.99 183.552 1522.1 72.8439C1503.02 17.0998 1503.56 -39.9645 1523.8 -106.722C1543.15 -170.532 1581.91 -247.081 1645.77 -347.616C1687.25 -412.906 1711.27 -483.092 1719.23 -562.172C1726.11 -630.601 1719.96 -694.65 1714.53 -751.165C1705.89 -841.298 1699.06 -912.494 1751.32 -949.004C1789.51 -975.682 1857.06 -982.441 1963.91 -970.276C2075.89 -957.52 2237.96 -922.555 2459.36 -863.388C2566.58 -834.409 2631.31 -797.246 2657.25 -749.781C2672.72 -721.472 2675.25 -689.432 2665.24 -648.957C2656.34 -613.002 2638.68 -574.972 2619.99 -534.711C2588.98 -467.914 2556.92 -398.851 2557.05 -325.721C2557.19 -242.285 2600.91 -168.47 2690.7 -100.045C2815 -5.32312 2902.98 88.7914 2952.23 179.697C2996.56 261.535 3009.2 339.751 2989.8 412.184C2980.86 445.554 2965.02 477.535 2942.73 507.243C2921.42 535.65 2894.12 562.101 2861.59 585.882C2799.27 631.432 2718.2 666.776 2627.1 688.082C2513.19 714.735 2387.95 718.107 2274.47 697.583C2252.82 693.67 2231.68 688.92 2211.16 683.379L2211.14 683.389ZM2458.71 -861.546C2237.43 -920.681 2075.49 -955.621 1963.63 -968.364C1857.43 -980.455 1790.4 -973.827 1752.72 -947.505C1701.38 -911.633 1708.17 -840.883 1716.76 -751.319C1722.19 -694.732 1728.35 -630.592 1721.45 -561.994C1713.48 -482.637 1689.37 -412.212 1647.74 -346.681C1403.35 38.0484 1491.27 118.143 1861.3 455.257C1894.98 485.938 1929.81 517.669 1967.43 552.368C2044.8 623.761 2151.13 673.329 2274.92 695.723C2388.08 716.19 2512.95 712.817 2626.53 686.241C2717.31 665.003 2798.09 629.793 2860.15 584.418C2892.52 560.771 2919.67 534.455 2940.86 506.212C2963.02 476.678 2978.76 444.908 2987.64 411.76C3006.93 339.76 2994.34 261.969 2950.22 180.526C2901.11 89.8611 2813.3 -4.0415 2689.24 -98.58C2598.95 -167.381 2554.99 -241.679 2554.84 -325.701C2554.72 -399.212 2586.86 -468.457 2617.95 -535.413C2636.6 -575.595 2654.22 -613.545 2663.07 -649.337C2672.98 -689.377 2670.5 -721.031 2655.26 -748.936C2629.6 -795.89 2565.31 -832.717 2458.72 -861.533L2458.71 -861.546Z" fill="#B1B1B1" fill-opacity="0.5"/>
<path d="M2211.51 693.005C2113.12 666.429 2029.37 621.718 1966.83 562.004C1911.72 509.382 1860.29 461.732 1814.91 419.681C1478.66 108.121 1388.27 24.3846 1633.32 -353.302C1676.63 -420.063 1701.69 -491.907 1709.92 -572.911C1717.03 -642.993 1710.54 -708.596 1704.81 -766.477C1695.75 -857.872 1688.61 -930.05 1741.54 -967.168C1780.36 -994.391 1849.3 -1001.28 1958.49 -988.854C2072.99 -975.824 2238.85 -940.117 2465.54 -879.68C2465.86 -879.597 2466.16 -879.514 2466.47 -879.431C2575.24 -850.045 2640.81 -812.37 2666.92 -764.262C2682.55 -735.477 2684.95 -702.89 2674.45 -661.704C2665.12 -625.127 2646.85 -586.422 2627.48 -545.442C2595.19 -477.105 2561.81 -406.449 2561.76 -331.575C2561.68 -246.148 2606.79 -170.561 2699.67 -100.507C2827.53 -4.06079 2918.02 91.5569 2968.67 183.686C3014.24 266.575 3027.31 345.706 3007.48 418.901C2998.26 452.983 2981.8 485.62 2958.57 515.916C2936.41 544.823 2908 571.727 2874.12 595.865C2809.37 642.021 2725.24 677.636 2630.88 698.874C2514.42 725.064 2387.34 727.926 2272.99 706.92C2251.94 703.046 2231.42 698.411 2211.49 693.025L2211.51 693.005ZM2465.82 -877.597C2465.51 -877.68 2465.22 -877.76 2464.9 -877.846C2238.32 -938.251 2072.58 -973.936 1958.21 -986.942C1849.66 -999.294 1781.25 -992.535 1742.94 -965.66C1690.93 -929.19 1698.03 -857.457 1707.02 -766.635C1712.77 -708.681 1719.27 -642.984 1712.13 -572.737C1703.88 -491.448 1678.73 -419.356 1635.25 -352.345C1571.92 -254.733 1533.16 -179.85 1513.25 -116.667C1492.78 -51.7396 1491.22 3.60931 1508.33 57.5033C1524.25 107.659 1556.25 157.631 1612.08 219.513C1663.92 276.982 1731.27 339.375 1816.53 418.371C1861.91 460.422 1913.35 508.081 1968.47 560.713C2043.36 632.222 2148.82 682.117 2273.47 705.012C2387.47 725.951 2514.21 723.108 2630.33 696.985C2724.4 675.824 2808.21 640.335 2872.73 594.362C2906.43 570.339 2934.7 543.59 2956.74 514.836C2979.83 484.734 2996.17 452.308 3005.34 418.448C3025.04 345.706 3012.03 266.989 2966.69 184.505C2916.17 92.6072 2825.84 -2.78888 2698.23 -99.0619C2604.84 -169.51 2559.47 -245.564 2559.54 -331.589C2559.59 -406.836 2593.06 -477.671 2625.44 -546.177C2644.75 -587.077 2663.01 -625.7 2672.28 -662.118C2682.66 -702.859 2680.33 -735.057 2664.91 -763.431C2639.08 -811.02 2573.94 -848.368 2465.81 -877.578L2465.82 -877.597Z" fill="#B1B1B1" fill-opacity="0.5"/>
<path d="M2211.94 702.632C2112.4 675.738 2028.83 630.565 1967.87 570.32C1897.49 500.749 1833.54 440.852 1777.13 388.008C1623.32 243.95 1521.72 148.776 1490.73 44.6204C1460.16 -58.1377 1496.64 -171.293 1620.87 -358.985C1666.04 -427.223 1692.12 -500.709 1700.63 -583.654C1707.99 -655.396 1701.14 -722.541 1695.09 -781.788C1685.63 -874.442 1678.16 -947.635 1731.76 -985.339C1771.22 -1013.1 1841.55 -1020.12 1953.1 -1007.45C2070.11 -994.151 2239.77 -957.691 2471.76 -895.984C2472.39 -895.812 2473.06 -895.635 2473.69 -895.463C2583.95 -865.674 2650.34 -827.494 2676.63 -778.752C2692.43 -749.489 2694.67 -716.347 2683.69 -674.465C2673.95 -637.256 2655.03 -597.875 2634.99 -556.188C2601.42 -486.311 2566.71 -414.059 2566.46 -337.467C2566.2 -250.046 2612.71 -172.7 2708.67 -101.008C3024.85 135.208 3055.33 315.834 3025.23 425.752C3015.7 460.557 2998.61 493.859 2974.4 524.742C2951.36 554.161 2921.78 581.498 2886.51 605.993C2819.24 652.737 2731.99 688.592 2634.23 709.695C2515.33 735.365 2386.49 737.649 2271.41 716.151C2251.04 712.335 2231.18 707.826 2211.94 702.622V702.632ZM1969.54 569.049C2041.96 640.625 2146.5 690.838 2271.87 714.263C2386.63 735.703 2515.12 733.419 2633.68 707.826C2731.14 686.791 2818.08 651.051 2885.11 604.49C2920.21 580.111 2949.63 552.918 2972.55 523.663C2996.6 492.982 3013.59 459.883 3023.06 425.309C3053.02 315.902 3022.56 136.037 2707.21 -99.5531C2610.73 -171.64 2563.95 -249.471 2564.23 -337.486C2564.47 -414.47 2599.27 -486.902 2632.93 -556.948C2652.93 -598.563 2671.81 -637.865 2681.51 -674.915C2692.36 -716.356 2690.17 -749.1 2674.6 -777.95C2648.59 -826.172 2582.63 -864.023 2473.01 -893.638C2472.37 -893.813 2471.74 -893.981 2471.09 -894.156C2239.22 -955.822 2069.69 -992.258 1952.8 -1005.55C1841.9 -1018.15 1772.1 -1011.27 1733.15 -983.855C1680.46 -946.792 1687.88 -874.055 1697.28 -781.963C1703.34 -722.643 1710.2 -655.395 1702.83 -583.485C1694.3 -500.263 1668.11 -426.513 1622.79 -358.034C1498.88 -170.83 1462.46 -58.0799 1492.87 44.1289C1523.72 147.812 1625.18 242.842 1778.75 386.697C1835.17 439.551 1899.13 499.458 1969.54 569.049Z" fill="#B1B1B1" fill-opacity="0.5"/>
<path d="M2212.44 712.278C2111.71 685.066 2028.29 639.42 1968.91 578.636C1885.21 492.944 1810.52 422.591 1744.61 360.516C1599.86 224.167 1504.23 134.09 1475.61 32.4597C1460.99 -19.4589 1464.02 -72.9771 1485.17 -135.948C1506.17 -198.476 1545.33 -271.151 1608.41 -364.674C1655.42 -434.381 1682.54 -509.524 1691.33 -594.393C1698.92 -667.788 1691.7 -736.484 1685.34 -797.088C1675.47 -891.022 1667.68 -965.212 1721.96 -1003.53C1762.06 -1031.83 1833.78 -1038.99 1947.68 -1026.05C2067.19 -1012.48 2240.65 -975.264 2477.95 -912.294C2537.53 -896.372 2583.54 -878.601 2618.58 -857.933C2651.11 -838.751 2673.26 -817.589 2686.31 -793.253C2702.26 -763.513 2704.37 -729.823 2692.93 -687.241C2682.76 -649.399 2663.19 -609.352 2642.5 -566.937C2607.64 -495.52 2571.59 -421.681 2571.17 -343.352C2570.68 -253.949 2618.6 -174.829 2717.66 -101.5C3042.32 138.85 3073.77 321.722 3042.97 432.806C3033.11 468.353 3015.34 502.329 2990.13 533.8C2966.15 563.72 2935.39 591.5 2898.69 616.342C2828.77 663.683 2738.32 699.751 2637.09 720.661C2515.84 745.714 2385.35 747.391 2269.66 725.383C2250.04 721.644 2230.94 717.269 2212.44 712.278ZM2480.22 -909.664C2479.24 -909.927 2478.29 -910.188 2477.31 -910.451C2240.13 -973.387 2066.79 -1010.58 1947.4 -1024.13C1834.15 -1037 1762.96 -1029.97 1723.37 -1002.03C1670 -964.372 1677.75 -890.629 1687.56 -797.264C1693.94 -736.575 1701.16 -667.787 1693.55 -594.216C1684.75 -509.06 1657.52 -433.653 1610.33 -363.699C1547.35 -270.323 1508.26 -197.782 1487.31 -135.409C1466.28 -72.7651 1463.25 -19.5745 1477.78 31.9972C1506.26 133.146 1601.74 223.069 1746.26 359.206C1812.17 421.291 1886.87 491.662 1970.62 577.384C2029.72 637.869 2112.81 683.322 2213.11 710.427C2231.56 715.409 2250.57 719.775 2270.14 723.494C2385.52 745.435 2515.66 743.768 2636.59 718.782C2737.51 697.93 2827.67 661.978 2897.33 614.819C2933.86 590.094 2964.48 562.458 2988.33 532.692C3013.38 501.423 3031.03 467.668 3040.83 432.343C3071.48 321.789 3040.04 139.679 2716.23 -100.035C2616.64 -173.769 2568.46 -253.359 2568.95 -343.365C2569.38 -422.085 2605.52 -496.105 2640.46 -567.698C2661.14 -610.028 2680.65 -650.008 2690.78 -687.689C2702.1 -729.83 2700.05 -763.121 2684.34 -792.447C2658.13 -841.294 2591.35 -879.658 2480.25 -909.676L2480.22 -909.664Z" fill="#B1B1B1" fill-opacity="0.5"/>
<path d="M2213 721.943C2111.07 694.403 2027.76 648.276 1969.94 586.962C1874.6 485.842 1790.42 406.47 1716.15 336.427C1578.46 206.601 1487.51 120.822 1460.73 21.3398C1446.99 -29.6827 1450.58 -82.3625 1471.98 -144.438C1493.42 -206.638 1532.81 -278.417 1595.93 -370.355C1644.8 -441.528 1672.96 -518.317 1682.02 -605.111C1689.84 -680.159 1682.27 -750.394 1675.58 -812.367C1665.31 -907.584 1657.2 -982.798 1712.15 -1021.7C1752.88 -1050.54 1825.99 -1057.83 1942.24 -1044.63C2064.27 -1030.79 2241.52 -992.822 2484.13 -928.589C2544.81 -912.427 2591.64 -894.397 2627.27 -873.418C2660.33 -853.94 2682.82 -832.456 2696 -807.731C2712.11 -777.512 2714.07 -743.268 2702.15 -699.986C2691.56 -661.521 2671.37 -620.786 2650 -577.656C2613.85 -504.702 2576.47 -429.272 2575.85 -349.212C2575.14 -257.821 2624.46 -176.949 2726.63 -101.972C3059.87 142.58 3092.25 327.754 3060.71 440.033C3050.52 476.331 3032.04 511.002 3005.79 543.06C2980.86 573.52 2948.84 601.724 2910.65 626.913C2838 674.823 2744.22 711.073 2639.44 731.742C2515.93 756.112 2383.92 757.114 2267.73 734.585C2248.96 730.952 2230.71 726.722 2213.01 721.943H2213ZM2487.4 -925.698C2486.09 -926.05 2484.81 -926.397 2483.49 -926.751C2241.02 -990.96 2063.87 -1028.9 1941.96 -1042.73C1826.36 -1055.84 1753.78 -1048.69 1713.55 -1020.21C1659.52 -981.948 1667.58 -907.193 1677.79 -812.549C1684.48 -750.503 1692.08 -680.171 1684.22 -604.94C1675.14 -517.85 1646.88 -440.797 1597.84 -369.366C1534.81 -277.575 1495.49 -205.925 1474.09 -143.888C1452.8 -82.1409 1449.24 -29.779 1462.88 20.8966C1489.51 119.887 1580.32 205.503 1717.77 335.116C1792.06 405.179 1876.28 484.58 1971.65 585.728C2029.18 646.753 2112.14 692.678 2213.65 720.102C2231.28 724.862 2249.47 729.073 2268.2 732.696C2384.07 755.177 2515.73 754.156 2638.93 729.854C2743.41 709.242 2836.89 673.107 2909.3 625.371C2947.32 600.288 2979.17 572.219 3003.98 541.933C3030.06 510.067 3048.43 475.637 3058.56 439.57C3089.93 327.822 3057.57 143.418 2725.2 -100.497C2622.5 -175.87 2572.92 -257.23 2573.62 -349.228C2574.24 -429.673 2611.71 -505.298 2647.94 -578.422C2669.29 -621.472 2689.43 -662.136 2699.98 -700.439C2711.79 -743.289 2709.88 -777.126 2693.98 -806.933C2667.6 -856.417 2599.99 -895.289 2487.39 -925.711L2487.4 -925.698Z" fill="#B1B1B1" fill-opacity="0.5"/>
<path d="M2213.67 731.656C2110.48 703.769 2027.26 657.141 1970.98 595.268C1865.51 479.338 1768.67 388.268 1690.85 315.102C1626.44 254.54 1570.82 202.246 1529.11 153.806C1484.17 101.636 1457.77 56.2896 1446.06 11.0968C1420.49 -87.4888 1460.3 -199.652 1583.49 -376.038C1634.22 -448.686 1663.43 -527.121 1672.74 -615.843C1680.81 -692.54 1672.86 -764.32 1665.85 -827.652C1655.16 -924.151 1646.73 -1000.38 1702.36 -1039.89C1743.72 -1069.26 1818.22 -1076.68 1936.83 -1063.23C2061.36 -1049.1 2242.41 -1010.39 2490.34 -944.883C2552.13 -928.503 2599.77 -910.195 2635.98 -888.897C2669.59 -869.13 2692.39 -847.316 2705.71 -822.213C2721.99 -791.515 2723.8 -756.727 2711.4 -712.735C2700.4 -673.638 2679.56 -632.227 2657.52 -588.378C2620.08 -513.896 2581.36 -436.874 2580.56 -355.085C2579.63 -261.703 2630.37 -179.069 2735.62 -102.454C2878.03 1.19104 2978.81 103.13 3035.12 200.54C3085.65 287.958 3100.25 371.01 3078.51 447.404C3067.96 484.474 3048.74 519.838 3021.39 552.504C2995.45 583.483 2962.15 612.131 2922.39 637.667C2846.9 686.145 2749.69 722.55 2641.27 742.911C2515.61 766.528 2382.21 766.827 2265.64 743.749C2247.82 740.232 2230.47 736.175 2213.69 731.646L2213.67 731.656ZM2494.58 -941.742C2492.96 -942.181 2491.34 -942.618 2489.69 -943.05C2241.89 -1008.53 2060.96 -1047.22 1936.54 -1061.33C1818.58 -1074.71 1744.62 -1067.42 1703.77 -1038.41C1649.06 -999.55 1657.44 -923.767 1668.06 -827.831C1675.08 -764.417 1683.04 -692.542 1674.96 -615.667C1665.61 -526.653 1636.31 -447.942 1585.39 -375.041C1462.53 -199.131 1422.8 -87.3828 1448.22 10.6729C1473.42 107.823 1560.57 189.767 1692.48 313.801C1770.32 386.987 1867.2 478.085 1972.72 594.083C2037.84 665.669 2139.29 716.787 2266.12 741.889C2382.37 764.89 2515.43 764.601 2640.79 741.051C2748.92 720.729 2845.83 684.459 2921.06 636.125C2960.64 610.715 2993.78 582.202 3019.58 551.376C3046.76 518.913 3065.86 483.78 3076.34 446.942C3134.58 242.283 2922.43 36.0155 2734.19 -100.979C2628.38 -177.98 2577.39 -261.106 2578.33 -355.091C2579.14 -437.271 2617.96 -514.48 2655.49 -589.142C2677.5 -632.907 2698.28 -674.25 2709.24 -713.187C2721.52 -756.738 2719.75 -791.123 2703.69 -821.406C2677.11 -871.527 2608.68 -910.905 2494.57 -941.732L2494.58 -941.742Z" fill="#B1B1B1" fill-opacity="0.5"/>
<path d="M2214.11 741.205C2109.76 713.01 2026.7 665.929 1972.01 603.584C1857.75 473.306 1752.56 375.028 1668.05 296.061C1605.94 238.034 1552.3 187.917 1511.89 140.99C1468.25 90.3237 1442.71 46.0272 1431.52 1.5957C1419.02 -48.0007 1423.39 -99.3798 1445.27 -160.067C1467.2 -220.918 1508.33 -293.428 1571.01 -381.73C1623.62 -455.84 1653.85 -535.923 1663.44 -626.57C1671.74 -704.921 1663.42 -778.233 1656.08 -842.925C1645 -940.721 1636.24 -1017.98 1692.55 -1058.09C1734.55 -1088.01 1810.44 -1095.55 1931.4 -1081.84C2058.44 -1067.44 2243.3 -1027.97 2496.53 -961.194C2559.47 -944.565 2607.94 -925.99 2644.75 -904.381C2678.92 -884.319 2702.07 -862.172 2715.51 -836.693C2731.95 -805.539 2733.61 -770.231 2720.76 -725.568C2709.33 -685.875 2687.91 -643.808 2665.22 -599.278C2626.5 -523.291 2586.48 -444.714 2585.46 -361.178C2584.3 -265.792 2636.35 -181.324 2744.59 -102.945C2890.83 2.34729 2994.3 105.761 3052.14 204.433C3104.02 292.93 3119.07 376.946 3096.87 454.159C3085.97 492.057 3065.99 528.163 3037.51 561.494C3010.53 593.033 2975.84 622.172 2934.45 648.083C2855.93 697.236 2755.05 733.824 2642.75 753.905C2514.97 776.762 2380.25 776.357 2263.42 752.787C2246.5 749.376 2230.05 745.512 2214.11 741.205ZM2501.74 -957.779C2499.79 -958.306 2497.86 -958.828 2495.89 -959.341C2242.77 -1026.09 2058.02 -1065.54 1931.1 -1079.92C1810.81 -1093.56 1735.45 -1086.15 1693.96 -1056.6C1638.56 -1017.14 1647.27 -940.34 1658.3 -843.104C1665.64 -778.329 1673.97 -704.923 1665.66 -626.384C1656.04 -535.435 1625.69 -455.077 1572.91 -380.712C1510.33 -292.545 1469.27 -220.176 1447.39 -159.489C1425.63 -99.1196 1421.28 -48.0585 1433.7 1.20056C1444.83 45.3527 1470.24 89.4083 1513.67 139.853C1554.01 186.693 1607.62 236.781 1669.67 294.77C1754.22 373.766 1859.44 472.082 1973.78 602.437C2028.17 664.445 2110.87 711.304 2214.76 739.384C2230.67 743.681 2247.05 747.526 2263.92 750.937C2380.44 774.439 2514.82 774.834 2642.31 752.036C2754.3 732.003 2854.87 695.53 2933.14 646.541C2974.36 620.746 3008.87 591.751 3035.72 560.357C3064.04 527.248 3083.88 491.373 3094.72 453.716C3141.77 290 3020.22 98.0325 2743.18 -101.432C2634.39 -180.206 2582.08 -265.159 2583.25 -361.17C2584.26 -445.098 2624.39 -523.862 2663.2 -600.025C2685.85 -644.476 2707.23 -686.473 2718.61 -726.006C2731.34 -770.222 2729.71 -805.124 2713.49 -835.865C2686.72 -886.613 2617.41 -926.518 2501.75 -957.768L2501.74 -957.779Z" fill="#B1B1B1" fill-opacity="0.5"/>
<path d="M2215.31 751.198C2109.49 722.608 2026.32 674.919 1973.05 611.91C1851.18 467.726 1738.12 363.06 1647.28 278.958C1527.23 167.807 1440.48 87.5101 1417.11 -7.23083C1405.01 -56.2683 1409.67 -107.127 1431.78 -167.294C1454.07 -227.972 1495.54 -299.971 1558.56 -387.395C1613.03 -462.97 1644.31 -544.708 1654.18 -637.267C1662.71 -717.271 1654.01 -792.119 1646.34 -858.163C1634.84 -957.292 1625.75 -1035.58 1682.74 -1076.29C1725.37 -1106.74 1802.66 -1114.42 1925.96 -1100.45C2055.52 -1085.76 2244.19 -1045.55 2502.74 -977.492C2566.73 -960.638 2616 -941.806 2653.38 -919.88C2688.08 -899.526 2711.55 -877.059 2725.12 -851.191C2741.73 -819.537 2743.26 -783.643 2729.91 -738.232C2718.05 -697.881 2695.97 -655.104 2672.58 -609.814C2632.53 -532.259 2591.12 -452.067 2589.93 -366.821C2588.57 -269.473 2642.1 -183.319 2753.59 -103.427C2903.49 4.00476 3009.5 109.287 3068.66 209.521C3121.69 299.367 3136.97 384.52 3114.11 462.629C3102.77 501.308 3081.99 538.117 3052.31 572.016C3024.24 604.075 2988.2 633.619 2945.16 659.81C2863.64 709.435 2759.24 746.023 2643.24 765.613C2513.59 787.506 2377.84 786.244 2260.95 762.057C2245.31 758.82 2230.11 755.206 2215.33 751.217L2215.31 751.198ZM2509.13 -973.766C2506.8 -974.396 2504.46 -975.029 2502.09 -975.649C2243.66 -1043.67 2055.11 -1083.87 1925.69 -1098.53C1803.02 -1112.43 1726.28 -1104.88 1684.15 -1074.8C1628.08 -1034.75 1637.11 -956.911 1648.54 -858.375C1656.23 -792.247 1664.92 -717.288 1656.37 -637.108C1646.48 -544.234 1615.1 -462.229 1560.43 -386.385C1497.51 -299.097 1456.12 -227.239 1433.89 -166.716C1411.91 -106.876 1407.26 -56.326 1419.28 -7.6355C1442.52 86.5851 1529.08 166.727 1648.89 277.647C1739.77 361.779 1852.87 466.503 1974.83 610.772C2027.81 673.445 2110.61 720.902 2215.97 749.367C2230.69 753.346 2245.84 756.95 2261.44 760.178C2378.02 784.307 2513.46 785.569 2642.8 763.724C2758.48 744.183 2862.59 707.701 2943.85 658.23C2986.7 632.145 3022.58 602.746 3050.5 570.851C3080.01 537.144 3100.67 500.585 3111.93 462.157C3134.66 384.51 3119.43 299.819 3066.66 210.407C3007.64 110.405 2901.83 5.31531 2752.16 -101.933C2640.11 -182.22 2586.32 -268.878 2587.68 -366.842C2588.89 -452.488 2630.39 -532.868 2670.52 -610.601C2693.86 -655.814 2715.92 -698.508 2727.73 -738.709C2740.95 -783.67 2739.46 -819.159 2723.08 -850.39C2709.68 -875.928 2686.47 -898.135 2652.11 -918.285C2616.29 -939.294 2569.47 -957.465 2509.12 -973.769L2509.13 -973.766Z" fill="#B1B1B1" fill-opacity="0.5"/>
</g>
</g>
<defs>
<clipPath id="clip0_16_1172">
<rect width="1920" height="900" fill="white"/>
</clipPath>
</defs>
</svg>
