<svg width="1920" height="868" viewBox="0 0 1920 868" fill="none" xmlns="http://www.w3.org/2000/svg">
<mask id="mask0_4_502" style="mask-type:luminance" maskUnits="userSpaceOnUse" x="0" y="-104" width="1920" height="972">
<path d="M0 -104H1920V868H0V-104Z" fill="white"/>
</mask>
<g mask="url(#mask0_4_502)">
<path d="M20.3891 180.977C61.7812 168.895 86.0952 151.276 94.3934 127.486C114.388 70.1545 36.2895 -11.0085 -39.2408 -89.5179C-109.569 -162.605 -175.994 -231.634 -149.613 -269.869C-74.0639 -379.329 -84.5994 -430.062 -106.749 -453.344C-124.244 -471.738 -155.302 -479.656 -196.55 -476.253C-236.135 -472.986 -281.883 -459.714 -328.862 -437.866C-403.354 -403.227 -446.682 -372.003 -469.355 -336.608C-482.096 -316.731 -488.089 -295.771 -487.656 -272.512C-487.223 -248.472 -479.954 -222.528 -465.46 -193.181C-450.777 -163.49 -483.428 -106.887 -517.999 -46.9642C-565.067 34.6151 -618.405 127.07 -573.89 183.173C-548.774 214.831 -496.002 231.554 -412.543 234.312C-318.608 237.424 -183.384 221.97 -10.6506 188.387C0.59417 186.191 10.9467 183.724 20.399 180.967L20.3891 180.977ZM-259.777 -461.881C-191.224 -481.883 -134.19 -479.047 -108.401 -451.946C-93.8931 -436.703 -89.4683 -414.54 -95.2372 -386.077C-101.636 -354.499 -120.564 -315.773 -151.474 -270.993C-178.782 -231.426 -111.795 -161.814 -40.8789 -88.1129C-3.81406 -49.5868 34.5216 -9.74933 61.0065 27.4344C90.8076 69.2595 101.042 101.781 92.287 126.851C82.3618 155.293 48.5376 174.764 -11.1123 186.357C-336.121 249.548 -519.63 248.112 -572.114 181.945C-615.786 126.903 -562.803 35.0626 -516.046 -45.9548C-479.688 -108.968 -448.291 -163.396 -463.451 -194.044C-491.585 -250.939 -492.861 -295.896 -467.469 -335.515C-445.028 -370.556 -401.967 -401.538 -327.875 -435.985C-304.435 -446.88 -281.517 -455.527 -259.773 -461.871L-259.777 -461.881Z" fill="#00B687" fill-opacity="0.3"/>
<path d="M13.9098 190.936C60.6635 177.293 88.0885 157.52 97.4465 130.837C118.51 70.7788 42.9684 -11.9661 -30.0793 -91.9948C-97.2038 -165.519 -160.604 -234.964 -137.092 -276.061C-81.5941 -373.088 -70.2228 -442.148 -104.226 -475.79C-122.481 -493.853 -152.68 -500.965 -193.997 -496.932C-233.322 -493.087 -282.083 -478.749 -335.033 -455.465C-408.703 -423.061 -452.697 -388.958 -473.473 -348.128C-493.527 -308.728 -493.86 -261.148 -474.516 -193.847C-465.238 -161.544 -494.737 -105.087 -525.968 -45.3305C-571.926 42.597 -624.01 142.253 -574.556 200.656C-517.355 268.186 -333.235 267.114 -11.6683 197.399C-2.56887 195.432 5.95794 193.278 13.9265 190.957L13.9098 190.936ZM-12.1822 195.359C-332.836 264.887 -516.223 266.188 -572.824 199.345C-621.413 141.982 -569.639 42.9404 -523.981 -44.4251C-492.562 -104.546 -462.874 -161.336 -472.363 -194.398C-491.552 -261.179 -491.285 -308.322 -471.475 -347.244C-450.921 -387.603 -407.261 -421.398 -334.09 -453.584C-281.362 -476.77 -232.842 -491.048 -193.764 -494.864C-153.178 -498.826 -123.587 -491.928 -105.833 -474.362C-82.6262 -451.401 -69.5558 -398.529 -139.048 -277.049C-163.27 -234.694 -99.3935 -164.728 -31.7573 -90.6418C40.8997 -11.0606 116.026 71.2367 95.3478 130.192C84.658 160.673 49.4809 181.986 -12.1822 195.359Z" fill="#00B687" fill-opacity="0.3"/>
<path d="M6.64938 201.25C59.3706 185.868 90.226 163.754 100.743 133.938C122.838 71.2783 49.9137 -12.8611 -20.6202 -94.2427C-84.7504 -168.235 -145.334 -238.117 -124.593 -282.274C-73.1694 -391.796 -65.3795 -464.368 -101.451 -497.973C-120.105 -515.342 -150.449 -521.846 -191.628 -517.285C-231.653 -512.855 -281.972 -497.987 -341.192 -473.089C-500.808 -405.995 -499.531 -327.502 -483.517 -194.544C-479.31 -159.608 -505.824 -103.869 -533.903 -44.8621C-578.995 49.9339 -630.103 157.364 -575.532 218.067C-514.381 286.086 -330.283 282.256 -12.706 206.359C-5.95271 204.746 0.499817 203.04 6.65714 201.239L6.64938 201.25ZM-257.15 -501.252C-182.536 -523.023 -129.934 -521.564 -103.031 -496.499C-85.9191 -480.554 -78.9515 -454.969 -82.3421 -420.455C-85.8846 -384.37 -100.785 -338.169 -126.639 -283.117C-147.921 -237.795 -86.9234 -167.424 -22.3582 -92.9314C47.7951 -11.9869 120.34 71.705 98.6185 133.282C87.134 165.856 50.5286 189.105 -13.2676 204.351C-329.939 280.029 -513.315 284.088 -573.856 216.735C-627.528 157.031 -576.72 50.2253 -531.894 -44.0088C-503.704 -103.276 -477.057 -159.275 -481.341 -194.773C-497.234 -326.773 -498.521 -404.701 -340.316 -471.2C-310.173 -483.864 -282.405 -493.894 -257.153 -501.262L-257.15 -501.252Z" fill="#00B687" fill-opacity="0.3"/>
<path d="M-1.54443 212C57.8413 194.672 92.5111 170.008 104.283 136.8C127.39 71.653 57.0766 -13.7664 -10.9214 -96.3656C-72.2027 -170.806 -130.093 -241.125 -112.106 -288.466C-65.4383 -411.305 -60.8935 -486.962 -98.2214 -519.765C-117.485 -536.694 -147.287 -542.441 -189.33 -537.334C-230.479 -532.336 -282.183 -517.075 -347.396 -490.691C-416.749 -462.63 -456.448 -430.971 -476.114 -388.034C-494.16 -348.659 -493.483 -302.588 -492.717 -249.242C-492.462 -231.988 -492.218 -214.13 -492.528 -195.168C-493.139 -158.328 -516.667 -104.493 -541.572 -47.495C-586.475 55.2623 -637.361 171.725 -577.208 235.186C-512.161 303.799 -327.841 297.326 -13.7448 215.382C-9.57293 214.289 -5.50432 213.176 -1.55222 212.021L-1.54443 212ZM-257.124 -520.441C-179.067 -543.217 -127.237 -542.405 -99.7385 -518.244C-63.1209 -486.073 -67.8499 -411.146 -114.198 -289.163C-132.594 -240.75 -74.3402 -169.994 -12.6716 -95.0855C54.9735 -12.9235 124.917 72.0485 102.184 136.144C89.8775 170.862 51.7472 196.14 -14.3307 213.374C-327.542 295.088 -511.118 301.78 -575.532 233.802C-634.786 171.309 -584.156 55.4808 -539.507 -46.7041C-514.514 -103.9 -490.919 -157.912 -490.298 -195.147C-489.976 -214.13 -490.242 -231.988 -490.486 -249.273C-492.062 -357.778 -493.094 -429.466 -346.508 -488.771C-313.591 -502.091 -283.814 -512.643 -257.111 -520.434L-257.124 -520.441Z" fill="#00B687" fill-opacity="0.3"/>
<path d="M-10.8492 223.229C56.04 203.716 94.9672 176.263 108.125 139.339C132.217 71.7674 64.488 -14.8279 -1.00616 -98.5719C-59.5384 -173.408 -114.83 -244.101 -99.6142 -294.679C-79.1035 -362.85 -68.3926 -414.847 -66.8799 -453.653C-65.2362 -495.81 -74.2269 -524.445 -94.3825 -541.19C-114.01 -557.502 -144.304 -562.733 -186.982 -557.19C-229.057 -551.726 -283.548 -535.738 -353.578 -508.309C-418.325 -482.955 -457.602 -452.761 -477.202 -413.298C-495.159 -377.103 -495.702 -336.306 -496.302 -289.059C-496.69 -259.701 -497.079 -229.344 -501.507 -195.824C-506.412 -158.651 -526.822 -108.604 -548.43 -55.6229C-594.344 56.9272 -646.372 184.484 -579.761 251.65C-510.763 321.23 -325.954 312.291 -14.7658 224.353C-13.4595 223.978 -12.1422 223.603 -10.8492 223.229ZM-15.4051 222.355C-179.077 268.613 -310.062 293.236 -404.708 295.536C-447.991 296.587 -484.782 293.017 -514.07 284.9C-541.227 277.386 -562.78 265.72 -578.14 250.234C-643.798 184.036 -592.024 57.1042 -546.355 -54.8735C-524.691 -107.98 -504.237 -158.13 -499.298 -195.564C-494.87 -229.188 -494.47 -259.608 -494.093 -289.028C-493.483 -336.036 -492.95 -376.626 -475.182 -412.415C-455.837 -451.378 -416.927 -481.237 -352.723 -506.38C-282.871 -533.738 -228.553 -549.682 -186.678 -555.122C-144.68 -560.574 -114.965 -555.512 -95.852 -539.628C-76.2269 -523.328 -67.4848 -495.23 -69.1007 -453.723C-70.6134 -415.092 -81.2921 -363.247 -101.754 -295.241C-117.272 -243.685 -61.6726 -172.596 -2.8052 -97.3336C62.3605 -14.0163 129.735 72.1317 106.012 138.683C92.8463 175.617 53.1489 202.987 -15.415 222.365L-15.4051 222.355Z" fill="#00B687" fill-opacity="0.3"/>
<path d="M-51.6909 244.043C-39.8967 240.598 -27.9339 237.028 -15.7935 233.334C56.0633 211.49 97.9515 181.466 112.247 141.566C137.322 71.6322 72.1125 -16.1184 9.04995 -100.976C-46.7899 -176.113 -99.5355 -247.078 -87.1287 -300.871C-55.0947 -439.783 -45.2805 -527.093 -89.9044 -562.268C-109.94 -578.056 -140.889 -582.846 -184.523 -576.894C-227.837 -570.992 -285.157 -554.31 -359.749 -525.91C-498.488 -473.079 -499.099 -403.421 -499.853 -315.232C-500.164 -279.703 -500.519 -239.429 -510.441 -196.427C-518.509 -161.533 -535.501 -118.012 -553.48 -71.9511C-576.853 -12.0493 -603.367 55.8346 -614.165 116.205C-626.584 185.598 -616.507 235.009 -583.334 267.291C-566.798 283.401 -544.091 295.4 -515.868 302.966C-485.681 311.063 -448.135 314.382 -404.297 312.832C-315.933 309.699 -197.443 286.565 -51.6698 244.032L-51.6909 244.043ZM-260.378 -557.671C-231.162 -566.197 -205.917 -571.872 -184.21 -574.828C-141.231 -580.687 -110.853 -576.046 -91.3361 -560.662C-70.4025 -544.165 -61.1155 -515.301 -62.0999 -469.826C-62.9456 -430.692 -71.084 -380.296 -89.3029 -301.287C-101.907 -246.63 -48.8996 -175.291 7.22985 -99.7686C69.9794 -15.3378 134.867 71.9755 110.152 140.931C96.0881 180.165 54.6716 209.752 -16.4783 231.377C-178.587 280.695 -309.107 307.389 -404.397 310.782C-448.013 312.322 -485.315 309.044 -515.28 300.999C-543.137 293.527 -565.499 281.705 -581.758 265.876C-614.41 234.104 -624.298 185.265 -612.001 116.579C-601.225 56.3965 -574.767 -11.3937 -551.405 -71.2123C-533.392 -117.356 -516.39 -160.93 -508.299 -195.97C-498.311 -239.169 -497.955 -279.557 -497.645 -315.201C-497.256 -359.848 -496.923 -398.4 -479.521 -433.022C-460.432 -471.006 -422.11 -499.909 -358.916 -523.972C-321.948 -538.051 -289.219 -549.245 -260.375 -557.662L-260.378 -557.671Z" fill="#00B687" fill-opacity="0.3"/>
<path d="M-102.585 268.852C-75.0427 260.818 -46.4558 251.973 -16.829 242.336C57.7791 218.067 101.462 185.712 116.693 143.45C142.751 71.1431 79.9579 -17.7627 19.2293 -103.755C-33.9569 -179.059 -84.1855 -250.179 -74.6543 -307.063C-49.8996 -454.88 -37.1432 -547.298 -84.8225 -583.064C-125.381 -613.485 -209.453 -601.653 -365.942 -543.524C-429.979 -519.738 -468.678 -490.77 -487.701 -452.38C-504.936 -417.596 -504.614 -377.649 -504.27 -335.349C-503.915 -293.961 -503.538 -247.057 -519.431 -197.031C-528.509 -168.496 -541.283 -135.547 -554.801 -100.674C-607.096 34.1468 -672.165 201.936 -588.162 281.882C-570.738 298.47 -547.21 310.771 -518.254 318.42C-487.323 326.59 -449.201 329.733 -404.908 327.776C-326.243 324.29 -224.805 304.506 -102.578 268.842L-102.585 268.852ZM-263.422 -575.846C-171.259 -602.737 -116.309 -604.012 -86.212 -581.437C-39.4927 -546.394 -52.2147 -454.465 -76.8451 -307.385C-86.5083 -249.711 -36.0412 -178.257 17.3859 -102.62C77.8148 -17.0445 140.312 71.4344 114.598 142.773C99.6051 184.39 56.3696 216.308 -17.5415 240.369C-178.463 292.736 -308.819 321.449 -405.007 325.716C-449.045 327.662 -486.935 324.54 -517.633 316.433C-546.211 308.877 -569.406 296.764 -586.564 280.435C-669.59 201.427 -604.787 34.3236 -552.703 -99.956C-539.174 -134.861 -526.378 -167.84 -517.3 -196.438C-501.307 -246.755 -501.696 -293.836 -502.04 -335.369C-502.75 -421.907 -503.316 -490.254 -365.12 -541.594C-327.042 -555.747 -293.27 -567.149 -263.415 -575.858L-263.422 -575.846Z" fill="#00B687" fill-opacity="0.3"/>
<path d="M-141.39 290.936C-102.424 279.561 -61.222 266.355 -17.8577 251.327C59.6892 224.446 105.258 189.646 121.461 144.917C148.502 70.2585 88.0164 -19.8544 29.5008 -107.022C-21.0496 -182.337 -68.7922 -253.457 -62.1931 -313.255C-60.4773 -328.782 -58.7526 -343.768 -57.0835 -358.246C-42.3893 -485.876 -32.685 -570.19 -79.0824 -603.561C-100.104 -618.68 -132.827 -622.789 -179.127 -616.114C-225.673 -609.41 -288.809 -591.426 -372.145 -561.137C-437.215 -537.484 -476.247 -508.421 -494.948 -469.675C-511.862 -434.672 -510.652 -394.685 -509.376 -352.358C-507.966 -305.96 -506.39 -253.374 -528.398 -197.614C-534.347 -182.545 -540.817 -166.653 -547.676 -149.836C-608.361 -0.872314 -691.476 203.154 -594.521 295.067C-576.22 312.405 -551.893 325.216 -522.172 333.125C-490.453 341.576 -451.653 344.729 -406.828 342.481C-335.588 338.932 -246.633 321.626 -141.383 290.915L-141.39 290.936ZM-268.35 -593.394C-169.796 -622.149 -111.627 -624.332 -80.4375 -601.901C-35.0223 -569.246 -44.679 -485.383 -59.2943 -358.461C-60.9623 -343.976 -62.6881 -329 -64.4005 -313.463C-71.0784 -252.958 -23.1305 -181.525 27.6263 -105.909C85.8533 -19.1572 146.071 70.5396 119.355 144.251C103.382 188.345 58.2442 222.719 -18.6335 249.371C-178.917 304.923 -309.562 335.55 -406.961 340.42C-451.542 342.648 -490.109 339.525 -521.573 331.138C-550.916 323.312 -574.933 310.698 -592.945 293.61C-688.901 202.644 -606.075 -0.643372 -545.611 -149.087C-538.753 -165.915 -532.282 -181.806 -526.334 -196.885C-504.17 -253.02 -505.769 -305.824 -507.167 -352.412C-508.443 -394.493 -509.642 -434.242 -492.95 -468.811C-474.494 -507.025 -435.849 -535.747 -371.357 -559.186C-332.946 -573.152 -298.73 -584.54 -268.363 -593.401L-268.35 -593.394Z" fill="#00B687" fill-opacity="0.3"/>
<path d="M-171.338 310.948C-123.884 297.107 -73.0329 280.217 -18.8855 260.308C61.7844 230.659 109.36 193.257 126.576 145.979C154.628 68.9369 96.2834 -22.477 39.8676 -110.873C-8.07802 -186.01 -53.3601 -256.964 -49.7232 -319.426C-47.9042 -350.584 -45.6057 -379.207 -43.3694 -406.9C-38.9956 -461.287 -35.2055 -508.255 -38.0467 -544.734C-41.1176 -584.251 -52.0771 -609.327 -72.5223 -623.655C-94.3726 -638.957 -127.179 -642.791 -175.779 -635.728C-224.236 -628.684 -290.496 -610.039 -378.327 -578.732C-444.861 -555.014 -484.438 -525.648 -502.861 -486.289C-519.486 -450.802 -517.3 -410.393 -515.002 -367.609C-512.261 -316.679 -509.165 -258.962 -537.365 -198.176C-573.39 -120.53 -617.395 -19.4382 -638.193 73.9321C-649.402 124.249 -652.932 168.416 -648.681 205.194C-643.787 247.529 -628.449 281.497 -603.112 306.14C-563.79 344.396 -499.121 361.515 -410.878 357.019C-345.032 353.658 -264.818 338.214 -171.351 310.948H-171.338ZM-272.827 -611.128C-234.456 -622.324 -202.209 -629.771 -175.433 -633.67C-128.118 -640.544 -94.8986 -636.723 -73.8541 -621.991C-53.9571 -608.058 -43.2862 -583.467 -40.2541 -544.592C-37.4307 -508.271 -41.2086 -461.371 -45.5735 -407.063C-47.8065 -379.36 -50.1127 -350.72 -51.9251 -319.541C-55.6041 -256.444 -10.1512 -185.219 37.9776 -109.811C94.1315 -21.8109 152.208 69.1762 124.492 145.302C107.503 191.967 60.3461 228.953 -19.679 258.373C-180.283 317.411 -311.926 349.901 -410.967 354.938C-498.544 359.402 -562.647 342.502 -601.502 304.704C-626.496 280.394 -641.623 246.832 -646.461 204.975C-650.69 168.406 -647.172 124.457 -636.007 74.3588C-615.242 -18.8242 -571.282 -119.791 -535.312 -197.343C-506.912 -258.588 -510.03 -316.564 -512.772 -367.715C-515.058 -410.239 -517.222 -450.414 -500.819 -485.447C-482.651 -524.252 -443.474 -553.273 -377.517 -576.777C-338.451 -590.706 -303.647 -602.123 -272.816 -611.121L-272.827 -611.128Z" fill="#00B687" fill-opacity="0.3"/>
<path d="M-195.099 329.535C-141.224 313.82 -82.8425 293.746 -19.9231 269.3C64.0708 236.674 113.77 196.525 132.04 146.572C161.098 67.1051 104.767 -25.7032 50.29 -115.442C6.91357 -186.895 -37.9378 -260.794 -37.2553 -325.598C-36.8058 -368.695 -34.4852 -408.816 -32.4353 -444.215C-26.7353 -542.803 -22.6189 -614.041 -65.3406 -643.483C-109.494 -673.913 -201.967 -660.25 -384.52 -596.325C-452.785 -572.418 -493.039 -542.604 -511.207 -502.489C-527.577 -466.369 -524.392 -425.293 -521.018 -381.81C-516.745 -326.659 -511.895 -264.135 -546.322 -198.738C-583.334 -128.44 -631.845 -22.8725 -652.832 80.811C-674.64 188.553 -661.178 267.749 -612.811 316.183C-543.247 385.846 -403.054 390.217 -195.096 329.545L-195.099 329.535ZM-20.771 267.375C-325.666 385.825 -524.314 401.758 -611.202 314.736C-659.058 266.813 -672.32 188.241 -650.668 81.1752C-629.725 -22.2689 -581.292 -127.649 -544.346 -197.833C-509.653 -263.739 -514.525 -326.555 -518.82 -381.982C-522.172 -425.212 -525.335 -466.041 -509.187 -501.697C-491.274 -541.244 -451.42 -570.704 -383.765 -594.39C-291.439 -626.722 -222.077 -646 -171.713 -653.318C-121.939 -660.56 -88.5648 -656.907 -66.6712 -641.819C-24.9151 -613.044 -29.0037 -542.283 -34.6616 -444.339C-36.7048 -408.92 -39.0288 -368.778 -39.4827 -325.629C-40.1753 -260.253 4.83598 -186.114 48.3545 -114.411C102.584 -25.0684 158.672 67.3236 129.935 145.906C111.884 195.255 62.5947 234.988 -20.781 267.385L-20.771 267.375Z" fill="#00B687" fill-opacity="0.3"/>
<path d="M-213.15 346.56C-154.251 329.379 -90.0931 306.598 -20.9376 278.291C66.5867 242.471 118.541 199.418 137.896 146.676C151.396 109.877 149.028 67.3966 130.654 16.8193C114.308 -28.1591 87.0907 -75.2606 60.77 -120.811C19.8141 -191.692 -22.5324 -264.977 -24.7765 -331.779C-26.54 -384.487 -24.4713 -432.577 -22.639 -475.008C-18.6425 -567.628 -15.7458 -634.553 -57.6451 -663.167C-102.96 -694.119 -199.451 -679.85 -390.702 -613.944C-460.876 -589.752 -501.918 -559.413 -519.852 -518.442C-535.989 -481.581 -531.761 -439.697 -527.299 -395.355C-521.339 -336.171 -514.57 -269.078 -555.278 -199.289C-611.502 -102.891 -651.489 -1.15338 -667.87 87.1696C-677.192 137.456 -678.713 182.611 -672.376 221.408C-665.395 264.201 -648.825 299.251 -623.122 325.611C-580.249 369.549 -511.917 389.624 -420.001 385.274C-360.914 382.474 -291.716 369.507 -213.143 346.581L-213.15 346.56ZM-283.504 -646.203C-162.007 -681.652 -94.3582 -685.675 -58.9625 -661.496C-18.021 -633.53 -20.891 -567.08 -24.8653 -475.099C-26.6987 -432.635 -28.7796 -384.509 -27.0006 -331.717C-24.7421 -264.426 17.7377 -190.912 58.8079 -119.823C85.0808 -74.3448 112.25 -27.3163 128.539 17.4956C146.755 67.6254 149.126 109.659 135.791 145.999C116.659 198.159 65.0951 240.806 -21.8266 276.387C-183.011 342.356 -317.02 378.28 -420.134 383.172C-511.34 387.501 -579.084 367.655 -621.49 324.196C-646.905 298.148 -663.286 263.451 -670.201 221.074C-676.493 182.507 -674.973 137.57 -665.695 87.5129C-649.358 -0.581055 -609.46 -102.089 -553.336 -198.301C-512.317 -268.63 -519.109 -336.067 -525.102 -395.55C-529.541 -439.626 -533.736 -481.268 -517.81 -517.653C-500.131 -558.037 -459.5 -588.019 -389.947 -611.985C-350.548 -625.56 -315.2 -636.945 -283.515 -646.19L-283.504 -646.203Z" fill="#00B687" fill-opacity="0.3"/>
<path d="M-227.81 362.732C-164.916 344.375 -96.1971 319.211 -21.9764 287.283C69.3146 248.028 123.638 201.884 144.109 146.239C158.072 108.275 156.356 64.7949 138.865 13.3018C123.287 -32.5613 96.8228 -80.6097 71.2391 -127.087C32.656 -197.166 -7.22678 -269.609 -12.3231 -337.961C-16.849 -398.714 -14.9845 -453.448 -13.3364 -501.721C-10.3121 -590.438 -8.12794 -654.541 -49.5777 -682.741C-96.0983 -714.387 -196.726 -699.555 -396.895 -631.559C-554.69 -577.955 -545.012 -499.406 -533.814 -408.453C-526.045 -345.37 -517.233 -273.865 -564.256 -199.872C-625.019 -104.233 -667.282 -0.20636 -683.252 93.039C-701.331 198.502 -684.329 281.986 -634.065 334.468C-589.117 381.392 -518.632 403.07 -424.552 398.917C-367.44 396.388 -301.649 384.264 -227.814 362.722L-227.81 362.732ZM-22.8975 285.378C-184.016 354.667 -319.196 392.174 -424.662 396.846C-518.032 400.967 -587.929 379.519 -632.4 333.083C-682.198 281.091 -699.023 198.2 -681.066 93.3824C-665.129 0.38678 -622.966 -103.37 -562.336 -198.79C-514.936 -273.407 -523.792 -345.277 -531.594 -408.684C-537.143 -453.726 -542.382 -496.259 -526.656 -533.438C-509.176 -574.721 -467.713 -605.283 -396.129 -629.602C-196.746 -697.336 -96.7243 -712.243 -50.8663 -681.057C-10.3654 -653.507 -12.5395 -589.865 -15.5427 -501.785C-17.1964 -453.457 -19.0542 -398.67 -14.5272 -337.815C-9.40535 -269.026 30.5895 -196.386 69.2813 -126.129C94.824 -79.7252 121.24 -31.7496 136.763 13.9365C154.105 64.9821 155.819 108.046 142.024 145.562C121.769 200.635 67.8264 246.374 -22.8842 285.389L-22.8975 285.378Z" fill="#00B687" fill-opacity="0.3"/>
<path d="M-239.559 378.083C-173.411 358.778 -101.097 331.481 -23.0152 296.275C72.2901 253.315 129.12 203.903 150.723 145.219C165.136 106.068 164.037 61.5272 147.35 9.06622C132.457 -37.7438 106.653 -86.8537 81.697 -134.351C45.4334 -203.348 7.94899 -274.708 0.130249 -344.111C-7.49425 -411.819 -5.74849 -472.339 -4.20361 -525.726C-1.71872 -611.899 0.0747528 -674.166 -41.1986 -702.22C-88.9689 -734.691 -193.821 -719.313 -403.099 -649.151C-565.566 -594.683 -553.935 -514.294 -540.484 -421.208C-530.806 -354.332 -519.863 -278.527 -573.224 -200.403C-638.781 -104.441 -683.419 1.71893 -698.934 98.5547C-706.991 148.861 -706.925 194.943 -698.701 235.509C-689.955 278.687 -672.087 314.799 -645.596 342.856C-598.406 392.85 -525.568 416.214 -429.113 412.321C-373.278 410.073 -309.918 398.595 -239.572 378.072L-239.559 378.083ZM-23.9719 294.401C-184.822 366.916 -321.16 405.89 -429.191 410.25C-524.958 414.122 -597.196 390.977 -643.92 341.482C-670.145 313.716 -687.836 277.927 -696.515 235.134C-704.683 194.808 -704.76 148.945 -696.736 98.867C-681.266 2.32263 -636.739 -103.546 -571.348 -199.269C-517.533 -278.038 -528.564 -354.246 -538.275 -421.482C-544.934 -467.549 -551.227 -511.064 -535.678 -549.072C-518.398 -591.3 -476.036 -622.483 -402.344 -647.191C-193.841 -717.094 -89.5948 -732.546 -42.4882 -700.536C-2.16264 -673.131 -3.94617 -611.326 -6.40776 -525.781C-7.95264 -472.328 -9.69951 -411.742 -2.05502 -343.903C5.80478 -274.125 43.3813 -202.599 79.7337 -133.435C104.651 -86.0211 130.419 -36.9841 145.256 9.64905C162.038 62.4014 163.114 105.257 148.659 144.543C127.254 202.665 70.794 251.681 -23.9397 294.391L-23.9719 294.401Z" fill="#00B687" fill-opacity="0.3"/>
<path d="M-249.017 392.736C-180.157 372.64 -105 343.428 -24.0428 305.256C42.3015 273.983 90.0462 240.66 121.91 203.404C150.483 169.998 165.631 134.073 168.216 93.5595C173.014 18.2034 133.717 -59.9729 92.1271 -142.749C58.1232 -210.404 22.9606 -280.359 12.597 -350.293C1.65189 -424.155 3.3721 -489.899 4.89589 -547.901C7.12219 -632.474 8.7226 -693.571 -32.5574 -721.679C-81.6073 -755.061 -190.749 -739.162 -409.291 -666.765C-576.576 -611.362 -563.002 -529.057 -547.276 -433.755C-535.623 -363.161 -522.427 -283.158 -582.202 -200.954C-652.632 -104.087 -699.744 4.10217 -714.838 103.685C-722.473 154.055 -721.752 200.552 -712.673 241.919C-703.162 285.264 -684.662 321.896 -657.693 350.775C-633.876 376.293 -603.489 395.598 -567.386 408.148C-529.153 421.438 -484.16 427.255 -433.652 425.444C-378.516 423.467 -316.821 412.53 -249.024 392.746L-249.017 392.736ZM-305.29 -697.163C-155.08 -740.991 -73.884 -747.233 -33.8537 -719.982C6.47742 -692.524 4.89037 -631.876 2.68513 -547.943C1.16357 -489.865 -0.573318 -424.03 10.404 -350.001C20.813 -279.755 56.0467 -209.655 90.1217 -141.854C171.813 20.6802 248.966 174.202 -25.0317 303.403C-185.408 379.019 -322.902 419.377 -433.719 423.363C-483.916 425.163 -528.62 419.388 -566.587 406.192C-602.335 393.755 -632.422 374.649 -656.006 349.401C-682.719 320.793 -701.043 284.484 -710.476 241.493C-719.499 200.375 -720.22 154.107 -712.618 103.977C-697.558 4.70581 -650.59 -103.182 -580.338 -199.789C-520.074 -282.669 -533.337 -363.109 -545.045 -434.078C-552.825 -481.226 -560.172 -525.751 -544.79 -564.636C-527.699 -607.845 -484.404 -639.672 -408.514 -664.799C-370.947 -677.244 -336.598 -688.03 -305.278 -697.169L-305.29 -697.163Z" fill="#00B687" fill-opacity="0.3"/>
<path d="M-256.666 406.806C-185.474 386.044 -108.112 355.136 -25.0672 314.258C43.4812 280.508 93.0183 245.135 126.38 206.12C156.347 171.07 172.617 133.688 176.094 91.832C182.585 13.8742 143.669 -66.8621 102.456 -152.354C70.6387 -218.355 37.7523 -286.603 25.0603 -356.447C10.6359 -435.889 12.5193 -509.549 14.0331 -568.737C16.1761 -652.368 17.7232 -712.786 -23.7099 -741.079C-74.0517 -775.446 -187.551 -759.016 -415.473 -684.36C-587.696 -627.954 -572.147 -543.683 -554.157 -446.113C-540.462 -371.864 -524.946 -287.716 -591.159 -201.475C-666.505 -103.369 -716.136 6.73505 -730.93 108.535C-738.266 158.977 -736.979 205.891 -727.112 247.987C-716.924 291.498 -697.813 328.609 -670.312 358.299C-645.318 385.284 -613.588 405.796 -576.01 419.273C-536.311 433.51 -489.943 439.91 -438.18 438.307C-383.299 436.6 -322.636 426.058 -256.666 406.806ZM-313.414 -713.955C-152.771 -760.827 -66.6602 -767.848 -25.0128 -739.401C15.4759 -711.749 13.9387 -651.792 11.8156 -568.798C10.2974 -509.522 8.40402 -435.75 22.8695 -356.113C35.6025 -286.01 68.5555 -217.626 100.434 -151.511C141.518 -66.2689 180.319 14.2384 173.873 91.655C170.426 133.074 154.322 170.081 124.639 204.798C91.4712 243.585 42.1627 278.781 -26.1027 312.395C-109.027 353.231 -186.285 384.088 -257.328 404.818C-323.102 424.008 -383.555 434.519 -438.258 436.216C-489.721 437.808 -535.801 431.449 -575.222 417.317C-612.467 403.965 -643.898 383.64 -668.636 356.926C-695.882 327.505 -714.838 290.697 -724.948 247.529C-734.748 205.673 -736.024 158.998 -728.722 108.805C-713.983 7.32825 -664.485 -102.443 -589.35 -200.268C-522.594 -287.217 -538.198 -371.828 -551.96 -446.48C-560.86 -494.738 -569.273 -540.327 -554.046 -580.105C-537.121 -624.313 -492.861 -656.813 -414.741 -682.408C-378.05 -694.419 -344.344 -704.929 -313.402 -713.958L-313.414 -713.955Z" fill="#00B687" fill-opacity="0.3"/>
<path d="M-262.879 420.387C-189.683 399.032 -110.566 366.594 -26.1093 323.239C44.8019 286.836 96.2291 249.277 131.133 208.399C162.552 171.59 179.951 132.668 184.3 89.4175C192.432 8.70197 153.658 -74.865 112.612 -163.354C82.9244 -227.357 52.22 -293.555 37.507 -362.619C19.479 -447.21 21.5521 -525.623 23.2036 -588.633C25.3932 -671.809 26.9759 -731.911 -14.7148 -760.487C-66.3683 -795.9 -184.273 -778.948 -421.688 -701.982C-598.905 -644.528 -581.403 -558.258 -561.138 -458.365C-545.334 -380.513 -527.432 -292.275 -600.137 -202.026C-641.045 -151.262 -674.551 -97.8226 -699.722 -43.197C-724.049 9.58661 -740.02 62.1828 -747.211 113.124C-761.661 215.528 -739.021 305.141 -683.474 365.47C-629.537 424.039 -546.3 453.585 -442.753 450.91C-387.705 449.484 -327.608 439.254 -262.903 420.376L-262.879 420.387ZM-321.937 -730.639C-150.453 -780.674 -59.3165 -788.486 -16.0144 -758.8C24.7307 -730.863 23.1581 -671.224 20.9928 -588.674C19.3292 -525.563 17.2638 -447.021 35.3317 -362.202C50.0969 -292.909 80.8446 -226.618 110.58 -162.512C151.504 -74.2823 190.165 9.05585 182.09 89.2407C177.777 132.075 160.537 170.633 129.392 207.109C94.682 247.768 43.4657 285.16 -27.1759 321.418C-111.505 364.71 -190.499 397.096 -263.545 418.409C-328.074 437.235 -387.949 447.413 -442.797 448.839C-545.656 451.503 -628.282 422.208 -681.765 364.127C-736.901 304.257 -759.353 215.216 -744.992 113.405C-737.833 62.6511 -721.907 10.2526 -697.669 -42.3645C-672.565 -96.834 -639.148 -150.127 -598.35 -200.767C-525.046 -291.744 -543.048 -380.46 -558.929 -458.734C-568.962 -508.146 -578.429 -554.811 -563.346 -595.504C-546.588 -640.732 -501.34 -673.935 -420.934 -700C-385.286 -711.556 -352.324 -721.761 -321.926 -730.633L-321.937 -730.639Z" fill="#00B687" fill-opacity="0.3"/>
<path d="M-267.861 433.395C-264.555 432.427 -261.233 431.439 -257.908 430.419C-185.625 408.46 -107.985 375.419 -27.137 332.22C46.3168 292.975 99.7561 253.076 136.229 210.231C169.167 171.559 187.7 131.014 192.895 86.2852C202.599 2.63483 163.723 -84.0855 122.566 -175.884C94.9472 -237.503 66.3803 -301.214 49.9781 -368.786C28.2722 -458.19 30.6039 -541.147 32.4751 -607.806C34.7957 -690.902 36.4815 -750.935 -5.54092 -779.883C-58.5052 -816.374 -180.851 -798.899 -427.848 -719.594C-610.17 -661.047 -590.704 -572.745 -568.152 -470.508C-550.206 -389.088 -529.852 -296.812 -609.082 -202.578C-652.754 -150.658 -688.28 -96.147 -714.682 -40.564C-739.986 12.6982 -756.445 65.898 -763.592 117.516C-777.743 219.649 -754.103 310.168 -697.025 372.38C-640.424 434.051 -554.068 465.49 -447.27 463.273C-392.289 462.129 -331.97 452.086 -267.853 433.374L-267.861 433.395ZM-28.2358 330.419C-108.956 373.545 -186.453 406.525 -258.589 428.442C-326.221 448.974 -389.714 460.005 -447.314 461.202C-553.425 463.408 -639.192 432.219 -695.338 371.037C-752.006 309.283 -775.468 219.347 -761.395 117.807C-754.281 66.3767 -737.878 13.3851 -712.651 -39.7003C-686.326 -95.1168 -650.89 -149.482 -607.34 -201.267C-527.466 -296.26 -547.92 -389.045 -565.977 -470.904C-577.13 -521.479 -587.652 -569.251 -572.713 -610.875C-556.099 -657.138 -509.842 -691.05 -427.137 -717.602C-180.923 -796.666 -59.1589 -814.211 -6.84831 -778.182C34.2408 -749.877 32.5639 -690.304 30.2532 -607.845C28.3876 -541.067 26.0558 -457.968 47.8129 -368.307C64.2605 -300.559 92.8574 -236.764 120.517 -175.062C203.192 9.35767 274.592 168.624 -28.2324 330.43L-28.2358 330.419Z" fill="#00B687" fill-opacity="0.3"/>
<path d="M-272.039 446.133C-267.734 444.874 -263.421 443.583 -259.089 442.241C-186.013 419.721 -108.329 385.732 -28.1869 341.211C116.325 260.933 189.422 178.698 201.849 82.3721C213.052 -4.38983 173.759 -94.6069 132.162 -190.121C106.554 -248.899 80.0867 -309.685 62.4194 -374.934C36.9821 -468.895 39.6368 -556.239 41.7688 -626.419C43.014 -667.534 44.095 -703.053 39.6102 -732.295C34.6892 -764.427 23.2724 -785.696 3.69843 -799.254C-50.5932 -836.84 -177.42 -818.854 -434.074 -737.179C-621.535 -677.525 -600.082 -587.161 -575.266 -482.535C-555.123 -397.581 -532.271 -301.308 -618.094 -203.088C-709.222 -98.78 -765.268 13.562 -780.162 121.793C-794.179 223.739 -769.641 315.111 -711.042 379.082C-651.733 443.833 -562.092 477.156 -451.842 475.439C-396.218 474.575 -335.776 464.72 -272.05 446.123L-272.039 446.133ZM-29.3145 339.432C-109.317 383.869 -186.86 417.795 -259.78 440.264C-328.074 461.317 -392.699 472.442 -451.853 473.368C-561.437 475.075 -650.479 442.002 -709.344 377.729C-767.521 314.205 -791.893 223.406 -777.942 122.053C-763.104 14.2072 -707.235 -97.7706 -616.363 -201.787C-529.885 -300.777 -552.847 -397.581 -573.102 -482.994C-585.376 -534.755 -596.974 -583.644 -582.147 -626.214C-565.688 -673.513 -518.398 -708.149 -433.341 -735.223C-177.47 -816.659 -51.2291 -834.726 2.39215 -797.587C43.8752 -768.863 42.0629 -709.141 39.5514 -626.48C37.4161 -556.17 34.7591 -468.659 60.2785 -374.418C77.9802 -309.019 104.485 -248.17 130.123 -189.33C171.611 -94.0762 210.799 -4.10883 199.661 82.1119C187.316 177.74 114.558 259.497 -29.3067 339.411L-29.3145 339.432Z" fill="#00B687" fill-opacity="0.3"/>
<path d="M-275.457 458.538C-270.364 457.05 -265.253 455.51 -260.122 453.907C-186.242 430.877 -108.556 395.972 -29.2146 350.203C120.929 263.566 197.333 176.96 211.243 77.6161C217.004 36.4466 212.562 -7.27252 197.27 -59.9728C183.646 -106.918 163.095 -155.185 141.34 -206.283C117.739 -261.71 93.3347 -319.041 74.8838 -381.088C45.6532 -479.402 48.7041 -571.016 51.1413 -644.619C52.5175 -685.903 53.695 -721.549 49.2324 -751.005C44.3236 -783.38 32.8347 -804.867 13.062 -818.64C-42.547 -857.356 -173.885 -838.85 -440.267 -754.784C-632.899 -693.99 -609.504 -601.546 -582.413 -494.509C-560.028 -406.057 -534.646 -305.804 -627.062 -203.619C-722.984 -97.552 -781.683 16.4134 -796.798 125.966C-810.838 227.787 -785.5 320.012 -725.392 385.638C-695.36 418.44 -657.571 443.854 -613.067 461.161C-566.709 479.196 -513.981 488.021 -456.348 487.407C-399.88 486.803 -339.084 477.104 -275.48 458.549L-275.457 458.538ZM-349.794 -780.147C-143.719 -840.274 -36.6216 -850.639 11.7447 -816.969C31.0135 -803.562 42.2305 -782.508 47.0394 -750.713C51.4776 -721.437 50.2978 -685.866 48.9239 -644.681C46.4767 -570.933 43.4258 -479.145 72.7474 -380.52C91.2216 -318.365 115.656 -260.981 139.274 -205.502C183.437 -101.767 221.577 -12.195 209.04 77.356C195.222 176.034 119.149 262.161 -30.381 348.434C-109.576 394.13 -187.11 428.962 -260.831 451.951C-329.806 473.462 -395.585 484.701 -456.359 485.336C-513.693 485.95 -566.121 477.166 -612.201 459.246C-656.383 442.064 -693.895 416.848 -723.705 384.296C-783.381 319.128 -808.552 227.475 -794.59 126.247C-779.518 17.1003 -720.997 -96.5009 -625.352 -202.255C-532.227 -305.242 -557.731 -406.039 -580.249 -494.968C-593.645 -547.929 -606.308 -597.947 -591.614 -641.468C-575.288 -689.83 -526.966 -725.203 -439.556 -752.789C-407.738 -762.835 -377.839 -771.939 -349.794 -780.123V-780.147Z" fill="#00B687" fill-opacity="0.3"/>
<path d="M-278.276 470.673C-272.55 469.007 -266.803 467.259 -261.029 465.438C-186.337 441.898 -108.689 406.15 -30.2424 359.184C52.0723 309.907 112.265 261.974 153.764 212.676C191.667 167.625 213.683 121.606 221.059 71.9549C234.967 -21.6443 195.547 -115.712 149.909 -224.63C128.322 -276.123 106.011 -329.385 87.3537 -387.255C54.2964 -489.783 57.7802 -585.555 60.5803 -662.513C62.0952 -704.044 63.397 -739.911 58.9655 -769.626C54.0945 -802.307 42.509 -824.049 22.5121 -838.04C-6.11586 -858.091 -52.8951 -862.936 -124.725 -853.335C-199.016 -843.408 -304.257 -816.931 -446.437 -772.405C-644.297 -710.445 -618.938 -615.906 -589.572 -506.448C-564.911 -414.516 -536.966 -310.32 -636.018 -204.17C-736.668 -96.2928 -798.031 19.2753 -813.502 130.046C-827.707 231.856 -801.626 324.904 -740.053 392.059C-708.701 426.256 -669.246 452.856 -622.789 471.12C-574.589 490.071 -520.097 499.5 -460.81 499.165C-403.287 498.823 -341.969 489.238 -278.276 470.652V470.673ZM-359.804 -796.47C-141.53 -860.159 -28.8995 -871.431 21.1847 -836.367C40.67 -822.728 51.9836 -801.418 56.7647 -769.322C61.1729 -739.785 59.8655 -704.004 58.3562 -662.561C55.5494 -585.449 52.0579 -489.489 85.224 -386.634C103.907 -328.688 126.242 -275.384 147.843 -223.849C193.367 -115.202 232.687 -21.3738 218.864 71.6843C211.546 120.95 189.681 166.647 152.026 211.396C110.686 260.506 50.6751 308.284 -31.4299 357.425C-109.724 404.298 -187.21 439.972 -261.73 463.461C-331.393 485.409 -398.371 496.721 -460.832 497.105C-519.808 497.439 -574.012 488.062 -621.934 469.216C-668.07 451.076 -707.236 424.664 -738.366 390.717C-799.518 324.019 -825.432 231.534 -811.304 130.327C-795.9 19.9726 -734.715 -95.2208 -634.342 -202.786C-534.535 -309.758 -562.636 -414.516 -587.43 -506.943C-601.957 -561.111 -615.686 -612.277 -601.103 -656.761C-584.899 -706.185 -535.534 -742.299 -445.727 -770.42C-415.429 -779.904 -386.784 -788.598 -359.804 -796.473V-796.47Z" fill="#00B687" fill-opacity="0.3"/>
<path d="M-280.884 482.557C-199.559 458.829 -115.422 420.397 -31.2811 368.175C54.4785 314.944 117.179 263.972 160.427 212.333C200.159 164.878 223.345 116.819 231.303 65.3879C246.376 -31.9578 205.266 -130.875 157.659 -245.402C138.174 -292.285 118.035 -340.75 99.7994 -393.394C62.8777 -500.003 66.8531 -599.864 70.0494 -680.109C73.3078 -761.919 75.876 -826.548 32.0167 -857.423C2.74615 -878.027 -45.4125 -883.049 -119.536 -873.214C-196.32 -863.028 -305.278 -835.802 -452.641 -789.994C-655.762 -726.849 -628.449 -630.21 -596.808 -518.308C-569.85 -422.917 -539.285 -314.806 -645.007 -204.691C-750.341 -94.9713 -814.422 22.1996 -830.326 134.136C-837.64 185.67 -834.632 234.905 -821.37 280.466C-808.418 324.956 -786.089 364.658 -755.002 398.47C-688.291 471.068 -585.399 510.947 -465.282 510.781C-406.472 510.697 -344.533 501.133 -280.884 482.557ZM-370.203 -812.696C-139.429 -880.031 -21.124 -892.239 30.6816 -855.769C50.3999 -841.882 61.8022 -820.306 66.559 -787.863C70.9294 -758.021 69.4967 -721.953 67.833 -680.204C64.6323 -599.794 60.6458 -499.722 97.694 -392.768C115.95 -340.073 136.098 -291.567 155.604 -244.663C203.096 -130.407 244.107 -31.7183 229.119 65.0758C221.211 116.132 198.176 163.878 158.692 211.021C115.607 262.483 53.0635 313.31 -32.4931 366.417C-116.441 418.513 -200.415 456.883 -281.528 480.549C-344.977 499.062 -406.683 508.585 -465.282 508.668C-584.733 508.845 -687.025 469.205 -753.315 397.085C-784.169 363.503 -806.343 324.081 -819.206 279.884C-832.39 234.603 -835.387 185.65 -828.107 134.375C-812.258 22.8552 -748.377 -93.9201 -643.332 -203.327C-536.81 -314.285 -567.53 -422.972 -594.655 -518.874C-610.314 -574.26 -625.097 -626.578 -610.625 -672.03C-594.544 -722.52 -544.124 -759.39 -451.931 -788.055C-423.242 -796.971 -396.007 -805.2 -370.192 -812.733L-370.203 -812.696Z" fill="#00B687" fill-opacity="0.3"/>
<path d="M-282.682 494.255C-200.188 470.183 -115.771 430.835 -32.3199 377.167C57.1587 319.628 122.531 265.377 167.539 211.344C209.189 161.339 233.545 111.126 242.009 57.8224C249.383 11.3558 245.056 -38.0038 228.373 -97.5311C213.342 -151.158 189.564 -208.385 164.385 -268.963C147.156 -310.403 129.346 -353.251 112.264 -399.547C71.4489 -510.144 75.9459 -614.038 79.5672 -697.524C83.1487 -780.147 85.9754 -845.396 41.569 -876.832C11.6558 -898.01 -37.879 -903.186 -114.296 -893.118C-193.585 -882.67 -306.277 -854.705 -458.823 -807.601C-667.215 -743.256 -637.938 -644.497 -604.055 -530.146C-574.755 -431.317 -541.561 -319.301 -653.964 -205.221C-763.948 -93.6182 -830.759 25.1448 -847.185 138.215C-854.72 190.042 -851.602 239.661 -837.94 285.701C-824.688 330.388 -801.892 370.475 -770.174 404.86C-700.676 480.216 -593.955 521.906 -469.699 522.22C-409.436 522.384 -346.619 512.893 -282.682 494.234V494.255ZM-380.969 -828.837C-137.389 -899.906 -13.313 -913.079 40.225 -875.175C83.7036 -844.396 80.8946 -779.62 77.3432 -697.605C73.7218 -613.944 69.2059 -509.827 110.156 -398.856C127.252 -352.521 145.079 -309.654 162.304 -268.193C264.546 -22.2063 332.085 140.307 -33.5851 375.45C-181.34 470.475 -332.158 520.511 -469.71 520.159C-593.323 519.835 -699.433 478.415 -768.509 403.507C-800.006 369.362 -822.646 329.535 -835.82 285.15C-849.393 239.391 -852.49 190.052 -844.987 138.496C-828.617 25.8525 -761.994 -92.515 -652.332 -203.806C-539.086 -318.739 -572.469 -431.343 -601.913 -530.696C-618.682 -587.314 -634.553 -640.789 -620.181 -687.216C-604.221 -738.781 -552.725 -776.412 -458.124 -805.626C-431.166 -813.95 -405.429 -821.688 -380.935 -828.833L-380.969 -828.837Z" fill="#00B687" fill-opacity="0.3"/>
<path d="M-284.125 505.733C-200.517 481.34 -115.93 441.148 -33.3476 386.148C146.68 266.282 235.034 162.38 253.165 49.2783C270.089 -56.2576 225.809 -161.887 169.751 -295.626C155.06 -330.686 139.857 -366.934 124.719 -405.689C79.9834 -520.187 85.0509 -628.073 89.1195 -714.763C93.0461 -798.272 96.137 -864.23 51.1679 -896.243C20.5966 -918.003 -30.3044 -923.336 -109.037 -913.029C-190.823 -902.332 -307.276 -873.597 -465.038 -825.2C-678.735 -759.632 -647.505 -658.752 -611.346 -541.936C-579.694 -439.686 -543.825 -323.787 -662.953 -205.752C-722.151 -147.089 -769.463 -86.6559 -803.602 -26.1089C-835.542 30.5773 -855.919 87.2426 -864.143 142.316C-871.912 194.475 -868.748 244.49 -854.731 290.998C-841.191 335.883 -817.918 376.355 -785.567 411.281C-750.219 449.443 -705.56 479.456 -652.843 500.478C-598.828 521.999 -538.697 533.135 -474.105 533.542C-412.266 533.925 -348.484 524.497 -284.147 505.723L-284.125 505.733ZM-34.6417 384.462C-180.397 481.516 -332.347 532.344 -474.083 531.47C-538.386 531.053 -598.228 519.991 -651.966 498.563C-704.361 477.666 -748.743 447.85 -783.88 409.917C-816.009 375.231 -839.127 335.03 -852.578 290.436C-866.518 244.209 -869.659 194.475 -861.923 142.607C-853.744 87.7837 -833.456 31.3369 -801.626 -25.1411C-767.599 -85.5112 -720.398 -145.798 -661.344 -204.316C-541.327 -323.235 -577.397 -439.724 -609.216 -542.515C-627.117 -600.363 -644.031 -655.013 -629.769 -702.41C-613.932 -755.063 -561.36 -793.454 -464.35 -823.222C-159.381 -916.792 -10.4175 -937.455 49.8239 -894.586C93.8618 -863.239 90.7887 -797.755 86.8921 -714.854C82.8157 -627.977 77.7305 -519.867 122.62 -404.978C137.768 -366.193 152.972 -329.937 167.666 -294.866C223.605 -161.419 267.785 -56.0287 250.947 48.9661C232.916 161.454 144.824 264.929 -34.6561 384.452L-34.6417 384.462Z" fill="#00B687" fill-opacity="0.3"/>
<path d="M-285.346 516.921C-278.065 514.798 -270.788 512.55 -263.496 510.187C-185.528 484.899 -108.444 446.185 -34.3753 395.14C363.764 120.742 296.152 -37.8583 173.42 -325.795C161.671 -353.355 149.532 -381.844 137.183 -411.843C88.5002 -530.182 94.1637 -642.013 98.7151 -731.873C102.996 -816.347 106.366 -883.073 60.82 -915.669C29.6039 -938.004 -22.6767 -943.502 -103.726 -932.965C-188.029 -922.002 -308.231 -892.51 -471.209 -842.821C-690.233 -776.027 -657.049 -673.003 -618.638 -553.716C-584.611 -448.06 -546.033 -328.303 -671.921 -206.283C-733.583 -146.516 -782.826 -85.0951 -818.285 -23.7571C-851.424 33.5847 -872.566 90.864 -881.112 146.489C-889.169 198.981 -885.973 249.423 -871.612 296.379C-857.806 341.492 -834.077 382.339 -801.071 417.764C-764.38 457.164 -717.923 488.239 -663.02 510.125C-606.996 532.448 -544.89 544.082 -478.423 544.717C-415.518 545.321 -350.659 535.965 -285.335 516.91L-285.346 516.921ZM-403.52 -860.848C-133.498 -939.635 2.45093 -954.823 59.4649 -914.009C104.081 -882.079 100.724 -815.836 96.4877 -731.964C91.9296 -641.916 86.2528 -529.842 135.11 -411.086C147.452 -381.074 159.605 -352.577 171.353 -325.015C232.072 -182.566 280.034 -70.0467 262.588 39.4125C253.521 96.2653 226.97 150.787 181.408 206.099C133.005 264.867 61.9854 326.153 -35.6949 393.474C-109.586 444.395 -186.47 483.005 -264.226 508.231C-336.675 531.75 -408.736 543.323 -478.411 542.657C-544.59 542.032 -606.408 530.449 -662.154 508.231C-716.769 486.46 -762.938 455.583 -799.418 416.411C-832.213 381.205 -855.786 340.629 -869.492 295.817C-883.775 249.142 -886.95 199.002 -878.926 146.801C-870.413 91.4259 -849.36 34.3757 -816.354 -22.7476C-780.983 -83.919 -731.863 -145.184 -670.345 -204.816C-543.547 -327.71 -582.324 -448.086 -616.529 -554.298C-635.563 -613.388 -653.531 -669.211 -639.37 -717.604C-623.643 -771.349 -569.994 -810.5 -470.532 -840.827C-447.336 -847.902 -424.996 -854.57 -403.52 -860.839V-860.848Z" fill="#00B687" fill-opacity="0.3"/>
<path d="M-286.4 528.035C-278.887 525.839 -271.384 523.519 -263.86 521.073C-185.082 495.389 -108.221 456.041 -35.4141 404.131C67.1294 331.002 141.406 265.658 191.653 204.361C239.704 145.729 267.567 88.4392 276.827 29.193C294.755 -85.5738 244.489 -200.632 174.921 -359.868C166.736 -378.614 158.261 -397.993 149.649 -417.987C96.9971 -540.126 103.282 -655.866 108.335 -748.87C112.972 -834.374 116.644 -901.908 70.5066 -935.093C38.6435 -958.015 -15.0277 -963.673 -98.3923 -952.896C-185.2 -941.672 -309.174 -911.427 -477.401 -860.416C-701.764 -792.388 -666.638 -687.219 -625.963 -565.443C-589.527 -456.391 -548.242 -332.778 -680.888 -206.803C-745.014 -145.902 -796.188 -83.5236 -832.979 -21.3635C-867.328 36.6443 -889.247 94.5481 -898.148 150.724C-906.516 203.601 -903.309 254.46 -888.626 301.863C-874.575 347.226 -850.381 388.427 -816.731 424.362C-778.686 464.949 -730.42 497.054 -673.253 519.772C-615.198 542.844 -551.094 554.968 -482.706 555.811C-418.225 556.612 -352.291 547.267 -286.378 528.035H-286.4ZM-36.7692 402.466C-109.386 454.25 -186.049 493.484 -264.597 519.096C-337.752 542.948 -411.145 554.593 -482.695 553.719C-550.794 552.876 -614.62 540.815 -672.409 517.836C-729.254 495.233 -777.265 463.325 -815.077 422.968C-848.527 387.272 -872.555 346.331 -886.517 301.27C-901.111 254.137 -904.296 203.591 -895.973 151.016C-887.116 95.0996 -865.275 37.4352 -831.059 -20.3644C-794.357 -82.3581 -743.305 -144.591 -679.323 -205.357C-545.745 -332.216 -587.241 -456.459 -623.854 -566.079C-644.009 -626.421 -663.053 -683.415 -648.981 -732.794C-633.365 -787.627 -578.629 -827.554 -476.736 -858.451C-151.855 -956.949 6.28204 -978.687 69.1415 -933.464C114.351 -900.934 110.703 -833.887 106.098 -748.991C101.04 -655.789 94.7363 -539.793 147.576 -417.23C156.197 -397.238 164.667 -377.846 172.852 -359.101C242.296 -200.164 292.454 -85.324 274.615 28.8704C265.421 87.7419 237.698 144.73 189.886 203.071C139.766 264.221 65.6212 329.441 -36.7614 402.456L-36.7692 402.466Z" fill="#00B687" fill-opacity="0.3"/>
<path d="M-287.277 539.014C-279.564 536.756 -271.862 534.373 -264.154 531.854C-184.561 505.785 -107.96 465.833 -36.4673 413.112C71.1603 333.729 148.703 264.253 200.563 200.708C251 138.892 280.016 79.0524 289.256 17.7559C307.309 -102.037 251.283 -226.285 173.736 -398.258C169.903 -406.763 166.018 -415.385 162.082 -424.131C105.441 -550.023 112.366 -669.645 117.943 -765.766C122.957 -852.339 126.925 -920.733 80.1898 -954.529C47.6897 -978.038 -7.36774 -983.848 -93.0719 -972.836C-182.395 -961.346 -310.139 -930.339 -483.616 -878.024C-572.17 -851.313 -626.795 -817.141 -650.59 -773.554C-681.565 -716.812 -658.137 -648.981 -633.321 -577.158C-594.477 -464.723 -550.439 -337.274 -689.889 -207.334C-756.445 -145.309 -809.539 -81.9209 -847.695 -18.949C-883.265 39.7664 -905.994 98.3051 -915.261 155.043C-923.973 208.326 -920.777 259.601 -905.783 307.483C-891.5 353.086 -866.84 394.671 -832.513 431.054C-753.049 515.276 -627.106 564.751 -486.979 566.801C-420.911 567.779 -353.833 558.434 -287.266 539.004L-287.277 539.014ZM-427.459 -892.5C-129.854 -979.335 18.3281 -996.643 78.8425 -952.883C124.647 -919.753 120.714 -851.848 115.731 -765.883C110.143 -669.551 103.2 -549.664 160.046 -423.331C163.983 -414.583 167.866 -405.962 171.701 -397.457C249.11 -225.785 305.03 -101.756 287.065 17.4542C277.879 78.3864 249.002 137.924 198.807 199.439C147.065 262.858 69.6553 332.209 -37.8325 411.479C-109.137 464.064 -185.522 503.902 -264.884 529.898C-338.762 554.083 -413.475 565.802 -486.946 564.73C-626.44 562.68 -751.795 513.455 -830.848 429.68C-864.964 393.527 -889.458 352.211 -903.664 306.9C-918.569 259.32 -921.732 208.347 -913.075 155.366C-903.852 98.8773 -881.212 40.5782 -845.764 -17.9186C-807.719 -80.724 -754.736 -143.946 -688.324 -205.846C-547.909 -336.691 -592.169 -464.775 -631.212 -577.783C-655.884 -649.179 -679.179 -716.615 -648.625 -772.592C-625.108 -815.672 -570.904 -849.501 -482.94 -876.03C-463.906 -881.768 -445.405 -887.266 -427.47 -892.497L-427.459 -892.5Z" fill="#00B687" fill-opacity="0.3"/>
<path d="M-287.987 549.879C-280.085 547.569 -272.217 545.134 -264.347 542.542C-183.957 516.109 -107.628 475.585 -37.4906 422.104C183.961 253.232 282.187 133.574 301.535 9.10791C310.471 -48.3691 303.043 -110.623 278.133 -186.77C255.781 -255.143 222.598 -327.575 174.548 -430.277C113.894 -559.89 121.493 -683.369 127.609 -782.591C133.005 -870.29 137.277 -939.557 89.9297 -973.97C56.7825 -998.064 0.345612 -1004.04 -87.6914 -992.77C-179.53 -981.015 -311.061 -949.23 -489.798 -895.619C-580.427 -868.423 -636.162 -833.611 -660.19 -789.173C-691.476 -731.326 -666.804 -662.113 -640.668 -588.833C-599.393 -473.022 -552.592 -341.749 -698.845 -207.844C-767.832 -144.674 -822.857 -80.2974 -862.367 -16.4825C-899.18 42.951 -922.742 102.156 -932.397 159.466C-941.442 213.176 -938.279 264.908 -922.986 313.238C-908.469 359.121 -883.354 401.061 -848.328 437.912C-766.145 524.361 -635.962 575.324 -491.174 577.728C-423.442 578.862 -355.21 569.506 -287.976 549.89L-287.987 549.879ZM-38.889 420.491C-108.829 473.826 -184.931 514.225 -265.081 540.575C-339.661 565.104 -415.728 576.906 -491.141 575.636C-635.308 573.232 -764.891 522.52 -846.674 436.517C-881.478 399.896 -906.449 358.227 -920.877 312.634C-936.06 264.627 -939.211 213.197 -930.222 159.789C-920.6 102.728 -897.138 43.7732 -860.469 -15.4418C-821.059 -79.1005 -766.156 -143.332 -697.314 -206.376C-550.062 -341.197 -597.085 -473.117 -638.581 -589.509C-664.551 -662.367 -689.079 -731.176 -658.225 -788.243C-634.475 -832.154 -579.161 -866.635 -489.132 -893.645C-310.517 -947.232 -179.113 -978.99 -87.405 -990.718C-0.00177002 -1001.9 55.9146 -996.056 88.558 -972.327C134.971 -938.59 130.738 -869.803 125.383 -782.715C119.258 -683.274 111.639 -559.505 172.512 -429.442C220.539 -326.815 253.695 -254.425 276.01 -186.166C300.808 -110.311 308.22 -48.3588 299.33 8.80609C280.061 132.71 182.068 251.973 -38.9023 420.48L-38.889 420.491Z" fill="#00B687" fill-opacity="0.3"/>
<path d="M-288.598 560.629C-280.552 558.277 -272.505 555.78 -264.493 553.136C-183.305 526.339 -107.281 485.284 -38.5361 431.074C77.251 339.785 156.891 266.583 212.092 200.667C268.577 133.23 300.48 72.3813 312.505 9.18042C323.668 -49.4725 317.679 -112.215 293.656 -188.258C272.15 -256.33 238.264 -330.811 187.005 -436.451C122.327 -569.752 130.611 -697.083 137.275 -799.385C143.057 -888.231 147.628 -958.414 99.6706 -993.445C65.8864 -1018.13 8.04886 -1024.26 -82.3243 -1012.75C-176.678 -1000.72 -311.993 -968.175 -496.002 -913.241C-588.706 -885.561 -645.562 -850.096 -669.823 -804.826C-701.42 -745.866 -675.506 -675.27 -648.071 -600.528C-604.343 -481.344 -554.767 -346.266 -707.846 -208.385C-779.263 -144.06 -836.219 -78.6534 -877.105 -13.9852C-915.161 46.208 -939.555 106.089 -949.61 163.982C-959.022 218.15 -955.892 270.351 -940.31 319.128C-925.55 365.303 -899.957 407.617 -864.243 444.895C-822.768 488.146 -767.443 524.06 -704.228 548.724C-639.936 573.815 -569.672 587.219 -495.358 588.572C-425.95 589.841 -356.519 580.444 -288.598 560.629ZM-454.128 -923.411C-291.062 -970.99 -169.072 -999.587 -82.0213 -1010.68C7.71814 -1022.1 65.0219 -1016.11 98.3122 -991.795C145.351 -957.433 140.814 -887.74 135.063 -799.502C128.383 -696.966 120.075 -569.356 184.982 -435.577C236.2 -330.02 270.049 -255.611 291.519 -187.655C315.438 -111.934 321.415 -49.5037 310.316 8.81628C298.362 71.6737 266.592 132.221 210.339 199.376C155.237 265.168 75.6928 338.287 -39.9733 429.482C-108.507 483.514 -184.294 524.445 -265.241 551.159C-340.527 576.01 -417.937 587.895 -495.314 586.48C-569.351 585.127 -639.347 571.775 -703.384 546.788C-766.289 522.238 -821.348 486.522 -862.589 443.49C-898.092 406.441 -923.53 364.398 -938.19 318.514C-953.661 270.039 -956.769 218.161 -947.424 164.305C-937.413 106.661 -913.108 47.0302 -875.197 -12.9341C-834.41 -77.4462 -777.598 -142.697 -706.314 -206.897C-552.215 -345.693 -602.035 -481.439 -645.984 -601.213C-659.968 -639.312 -673.175 -675.295 -679.057 -709.273C-685.627 -747.289 -682.076 -777.361 -667.859 -803.896C-643.887 -848.645 -587.452 -883.77 -495.347 -911.264C-481.341 -915.451 -467.602 -919.504 -454.151 -923.427L-454.128 -923.411Z" fill="#00B687" fill-opacity="0.3"/>
<path d="M-289.219 571.328C-198.884 544.967 -113.798 500.572 -39.5749 440.066C78.6627 343.699 159.803 268.312 215.766 202.842C275.06 133.47 309.256 71.9237 323.381 9.17029C336.825 -50.5963 332.306 -113.818 309.15 -189.757C287.07 -262.188 249.33 -343.206 199.467 -442.571C130.736 -579.54 139.738 -710.699 146.963 -816.074C153.139 -906.116 158.019 -977.227 109.435 -1012.88C75.0025 -1038.15 15.7855 -1044.44 -76.9239 -1032.69C-173.793 -1020.4 -312.903 -987.092 -502.206 -930.824C-596.985 -902.655 -654.963 -866.546 -679.457 -820.424C-711.364 -760.348 -684.207 -688.37 -655.473 -612.154C-609.271 -489.617 -556.909 -350.73 -716.824 -208.884C-790.672 -143.384 -849.549 -76.9464 -891.822 -11.4041C-931.132 49.5593 -956.37 110.148 -966.846 168.655C-976.624 223.312 -973.538 275.981 -957.668 325.216C-942.674 371.704 -916.604 414.382 -880.147 452.076C-837.363 496.336 -780.096 533.114 -714.549 558.465C-649.092 583.774 -574.722 597.917 -499.465 599.385C-427.992 600.779 -357.13 591.153 -289.219 571.338V571.328ZM-467.113 -938.98C-295.357 -989.093 -167.404 -1019.11 -76.6231 -1030.63C15.4626 -1042.3 74.1457 -1036.14 108.073 -1011.24C155.734 -976.266 150.882 -905.631 144.747 -816.201C137.499 -710.579 128.474 -579.142 197.451 -441.678C247.273 -342.394 284.963 -261.46 307.007 -189.184C330.062 -113.578 334.58 -50.6794 321.21 8.75415C307.162 71.1849 273.109 132.46 214.038 201.562C158.158 266.927 77.1178 342.231 -41.0232 438.505C-170.625 544.135 -333.424 600.529 -499.409 597.303C-574.4 595.836 -648.492 581.735 -713.706 556.529C-778.953 531.303 -835.931 494.692 -878.504 450.671C-914.729 413.206 -940.643 370.798 -955.526 324.602C-971.297 275.68 -974.371 223.323 -964.638 168.999C-954.216 110.741 -929.068 50.4127 -889.902 -10.3217C-847.74 -75.7079 -788.985 -142.01 -715.282 -207.375C-643.476 -271.076 -607.939 -339.907 -606.663 -417.791C-605.531 -485.988 -629.847 -550.477 -653.376 -612.845C-668.014 -651.699 -681.854 -688.391 -688.158 -723.041C-695.205 -761.802 -691.809 -792.448 -677.448 -819.494C-653.231 -865.088 -595.687 -900.854 -501.518 -928.842C-489.876 -932.306 -478.389 -935.691 -467.113 -938.98Z" fill="#00B687" fill-opacity="0.3"/>
<path d="M-289.497 581.953C-198.225 555.322 -113.379 510.375 -40.6037 449.058C82.2308 345.551 162.39 270.268 219.309 204.902C281.49 133.511 317.975 71.2679 334.133 9.02454C366.542 -115.764 318.404 -243.029 211.921 -448.723C139.128 -589.346 148.855 -724.312 156.668 -832.748C163.243 -924.006 168.441 -996.083 119.221 -1032.36C84.153 -1058.21 23.5487 -1064.66 -71.5113 -1052.66C-170.896 -1040.11 -313.802 -1006.02 -508.388 -948.452C-605.242 -919.798 -664.352 -883.032 -689.079 -836.07C-703.806 -808.099 -707.113 -776.463 -699.489 -736.497C-692.73 -701.012 -678.225 -663.52 -662.876 -623.828C-614.188 -497.948 -559.007 -355.261 -725.803 -209.446C-802.081 -142.759 -862.889 -75.2605 -906.549 -8.81274C-947.135 52.9415 -973.228 114.248 -984.115 173.38C-994.27 228.536 -991.229 281.715 -975.07 331.398C-959.843 378.218 -933.274 421.271 -896.083 459.371C-851.957 504.578 -792.759 542.209 -724.87 568.185C-657.326 594.035 -580.793 608.532 -503.527 610.093C-430.145 611.581 -358.006 601.924 -289.486 581.932L-289.497 581.953ZM-42.093 447.507C-169.082 554.5 -332.935 611.519 -503.482 608.033C-580.482 606.472 -656.749 592.027 -724.038 566.27C-791.615 540.399 -850.547 502.955 -894.452 457.987C-931.409 420.116 -957.823 377.323 -972.95 330.815C-989.009 281.434 -992.028 228.588 -981.929 173.755C-971.097 114.894 -945.093 53.8364 -904.662 -7.70972C-861.102 -74.0013 -800.417 -141.344 -724.271 -207.917C-649.391 -273.376 -612.456 -344.122 -611.357 -424.179C-610.403 -494.256 -636.007 -560.484 -660.778 -624.525C-676.094 -664.132 -690.566 -701.544 -697.302 -736.854C-704.827 -776.358 -701.586 -807.593 -687.081 -835.137C-662.632 -881.572 -603.966 -917.98 -507.711 -946.457C-313.247 -1003.99 -170.459 -1038.06 -71.2071 -1050.59C23.2147 -1062.51 83.2952 -1056.21 117.858 -1030.72C166.146 -995.119 160.985 -923.521 154.463 -832.878C146.626 -724.195 136.884 -588.93 209.935 -447.806C316.176 -242.572 364.226 -115.629 331.984 8.5459C315.907 70.4667 279.557 132.45 217.596 203.591C160.753 268.863 80.6649 344.094 -42.0797 447.507H-42.093Z" fill="#00B687" fill-opacity="0.3"/>
<path d="M-290.007 592.402C-197.068 565.292 -112.216 519.522 -41.6413 458.039C86.6668 346.28 165.72 271.152 222.7 206.859C287.84 133.345 326.626 70.4042 344.759 8.79565C362.966 -53.0522 361.453 -117.159 340.015 -192.972C321.043 -260.055 286.463 -338.377 224.391 -454.858C147.521 -599.118 157.978 -737.872 166.389 -849.372C173.37 -941.859 178.87 -1014.92 129.032 -1051.83C93.3269 -1078.27 31.3319 -1084.88 -66.0808 -1072.62C-167.982 -1059.81 -314.668 -1024.94 -514.57 -966.047C-613.511 -936.896 -673.741 -899.486 -698.712 -851.675C-713.595 -823.194 -716.735 -790.963 -708.645 -750.251C-701.453 -714.096 -686.315 -675.885 -670.3 -635.435C-619.126 -506.207 -561.116 -359.744 -734.781 -209.956C-845.22 -114.702 -923.352 -19.1259 -966.99 74.1299C-1006.42 158.384 -1017.25 239.224 -999.175 314.393C-983.427 379.935 -946.625 438.286 -889.791 487.802C-836.475 534.259 -766.733 570.88 -688.08 593.713C-637.017 608.543 -583.112 617.43 -527.887 620.115C-471.22 622.873 -414.341 619.053 -358.816 608.74C-335.466 604.411 -312.492 598.937 -289.996 592.37L-290.007 592.402ZM-493.982 -969.898C-304.346 -1025.23 -164.152 -1058.18 -65.7878 -1070.55C30.9768 -1082.73 92.4512 -1076.25 127.648 -1050.18C176.575 -1013.95 171.099 -941.382 164.17 -849.509C155.746 -737.766 145.255 -598.696 222.402 -453.917C284.407 -337.565 318.937 -259.358 337.869 -192.431C359.204 -117.002 360.72 -53.2396 342.623 8.24402C324.569 69.5613 285.922 132.263 220.995 205.537C164.083 269.758 85.0931 344.823 -43.1463 456.519C-113.478 517.784 -198.046 563.398 -290.662 590.414C-313.092 596.96 -335.976 602.413 -359.26 606.742C-414.607 617.014 -471.297 620.823 -527.788 618.065C-582.824 615.38 -636.551 606.534 -687.447 591.746C-765.779 569.007 -835.232 532.541 -888.293 486.304C-944.794 437.069 -981.374 379.071 -997.033 313.956C-1015 239.224 -1004.2 158.821 -964.971 74.9833C-921.454 -18.0125 -843.511 -113.35 -733.294 -208.406C-655.351 -275.644 -617.007 -348.284 -616.096 -430.503C-615.297 -502.462 -642.211 -570.424 -668.236 -636.137C-684.229 -676.507 -699.311 -714.632 -706.481 -750.611C-714.483 -790.858 -711.386 -822.682 -696.736 -850.74C-672.043 -898.01 -612.256 -935.072 -513.926 -964.045C-507.234 -966.02 -500.563 -967.977 -493.993 -969.895L-493.982 -969.898Z" fill="#00B687" fill-opacity="0.3"/>
<path d="M-290.274 602.86C-196.271 575.428 -111.669 529.159 -42.6802 467.03C74.916 361.13 160.876 280.976 225.929 208.701C295.052 131.929 334.936 70.1544 355.242 8.44177C375.908 -54.3635 375.95 -118.896 355.37 -194.648C336.775 -263.083 300.22 -345.225 236.836 -460.996C155.91 -608.792 166.895 -751.876 175.712 -866.849C182.964 -961.388 188.692 -1036.07 137.76 -1073.69C101.254 -1100.65 37.8444 -1107.22 -61.7969 -1094.35C-166.141 -1080.88 -316.277 -1044.66 -520.796 -983.632C-621.69 -953.528 -682.964 -915.151 -708.101 -866.309C-723.084 -837.231 -726.058 -804.387 -717.479 -762.945C-709.855 -726.15 -694.117 -687.299 -677.459 -646.175C-623.921 -514.007 -563.236 -364.205 -743.771 -210.466C-857.617 -113.516 -938.179 -16.4929 -983.216 77.9388C-1023.87 163.161 -1035.17 244.854 -1016.81 320.762C-1008.65 354.532 -994.514 386.97 -974.815 417.171C-955.87 446.206 -931.698 473.316 -902.953 497.762C-847.495 544.925 -775.013 581.995 -693.363 604.952C-640.946 619.688 -585.787 628.44 -529.452 630.969C-471.708 633.561 -414.008 629.533 -357.94 619.022C-334.933 614.703 -312.337 609.302 -290.274 602.86ZM-474.682 -995.07C-293.281 -1048 -157.818 -1079.86 -61.4862 -1092.3C37.5181 -1105.09 100.398 -1098.64 136.395 -1072.06C186.404 -1035.12 180.711 -960.927 173.5 -866.999C164.663 -751.769 153.658 -608.364 234.861 -460.049C298.17 -344.434 334.672 -262.417 353.225 -194.138C373.7 -118.782 373.667 -54.6029 353.132 7.81738C332.92 69.2595 293.167 130.795 224.238 207.358C159.243 279.551 73.3289 359.673 -44.214 465.532C-112.941 527.421 -197.27 573.544 -290.928 600.873C-312.925 607.294 -335.421 612.664 -358.373 616.972C-414.241 627.462 -471.764 631.479 -529.33 628.888C-585.499 626.359 -640.457 617.638 -692.708 602.954C-774.058 580.08 -846.241 543.167 -901.455 496.211C-930.033 471.901 -954.083 444.926 -972.917 416.068C-992.494 386.065 -1006.53 353.835 -1014.65 320.294C-1032.89 244.833 -1021.64 163.577 -981.185 78.7712C-936.27 -15.3795 -855.897 -112.184 -742.273 -208.937C-661.233 -277.944 -621.468 -352.402 -620.68 -436.554C-620.003 -510.214 -648.159 -579.719 -675.383 -646.933C-692.02 -687.976 -707.713 -726.741 -715.304 -763.362C-723.783 -804.341 -720.864 -836.767 -706.104 -865.423C-681.232 -913.725 -620.403 -951.747 -520.119 -981.67C-504.681 -986.274 -489.521 -990.751 -474.694 -995.078L-474.682 -995.07Z" fill="#00B687" fill-opacity="0.3"/>
<path d="M-290.54 613.278C-195.462 585.544 -111.084 538.765 -43.7112 476.012C193.845 254.783 319.935 133.501 365.604 7.96326C388.797 -55.7683 390.413 -120.707 370.703 -196.396C352.363 -266.799 314.925 -350.303 249.303 -467.14C164.267 -618.565 176.023 -765.383 185.484 -883.357C193.151 -979.097 199.222 -1054.71 147.696 -1092.96C110.572 -1120.52 45.7697 -1127.26 -56.2289 -1114.18C-163.087 -1100.47 -317.076 -1063.53 -526.966 -1001.25C-629.947 -970.691 -692.364 -931.697 -717.768 -882.031C-732.895 -852.438 -735.725 -819.015 -726.657 -776.821C-718.611 -739.343 -702.241 -699.772 -684.906 -657.866C-628.848 -522.335 -565.289 -368.717 -752.716 -210.997C-870.014 -112.309 -953.029 -13.7766 -999.475 81.8416C-1041.35 168.073 -1053.1 250.662 -1034.42 327.329C-1026.02 361.859 -1011.34 394.984 -990.796 425.819C-971.086 455.406 -945.915 483.015 -915.949 507.888C-858.283 555.739 -783.003 593.224 -698.268 616.244C-644.53 630.855 -588.151 639.451 -530.729 641.793C-471.941 644.197 -413.453 639.951 -356.885 629.211C-334.267 624.902 -312.115 619.584 -290.518 613.288L-290.54 613.278ZM-490.83 -1009.7C-299.052 -1065.66 -156.575 -1099.2 -55.9392 -1112.12C45.4212 -1125.12 109.694 -1118.51 146.307 -1091.33C196.906 -1053.77 190.887 -978.633 183.258 -883.514C173.782 -765.273 161.994 -618.131 247.334 -466.173C312.871 -349.481 350.25 -266.122 368.543 -195.897C388.157 -120.603 386.545 -56.0388 363.502 7.30774C317.986 132.388 192.025 253.544 -45.2805 474.534C-127.643 551.243 -235.557 604.016 -357.352 627.161C-413.731 637.88 -472.041 642.094 -530.64 639.711C-587.896 637.38 -644.086 628.805 -697.669 614.256C-782.082 591.309 -857.062 553.99 -914.484 506.327C-944.294 481.59 -969.332 454.136 -988.932 424.727C-1009.33 394.089 -1023.92 361.172 -1032.28 326.871C-1050.85 250.661 -1039.14 168.52 -997.466 82.7053C-951.153 -12.6631 -868.316 -110.956 -751.251 -209.457C-667.137 -280.234 -625.963 -356.605 -625.386 -442.932C-624.864 -518.481 -654.341 -589.727 -682.841 -658.621C-700.144 -700.44 -716.491 -739.932 -724.493 -777.225C-733.461 -818.956 -730.675 -851.975 -715.77 -881.131C-690.643 -930.258 -628.671 -968.896 -526.3 -999.279C-514.303 -1002.83 -502.45 -1006.32 -490.83 -1009.72V-1009.7Z" fill="#00B687" fill-opacity="0.3"/>
<path d="M-290.829 623.674C-194.675 595.617 -110.521 548.339 -44.7611 485.003C-27.288 468.164 -10.321 451.867 6.12332 436.059C213.332 236.976 338.398 116.808 381.308 -7.40784C402.779 -69.5679 403.53 -132.987 383.684 -206.97C364.798 -277.372 327.186 -359.511 261.76 -473.281C172.524 -628.43 185.388 -778.284 195.725 -898.693C203.97 -994.689 210.481 -1070.52 158.89 -1109.32C121.348 -1137.54 55.1854 -1144.7 -49.3148 -1131.84C-158.795 -1118.36 -317.065 -1081.4 -533.17 -1018.86C-638.304 -988.048 -701.897 -948.544 -727.579 -898.12C-742.894 -868.061 -745.58 -834.046 -736.047 -791.086C-727.568 -752.928 -710.554 -712.585 -692.53 -669.876C-662.798 -599.412 -632.067 -526.539 -632.367 -449.43C-632.711 -361.472 -675.017 -283.658 -761.728 -211.528C-882.499 -111.05 -968 -10.9773 -1015.83 85.8896C-1058.93 173.182 -1071.14 256.697 -1052.11 334.135C-1043.45 369.414 -1028.21 403.257 -1006.8 434.707C-986.312 464.845 -960.087 492.922 -928.857 518.211C-868.915 566.749 -790.772 604.588 -702.896 627.639C-647.849 642.084 -590.293 650.472 -531.816 652.595C-472.019 654.77 -412.787 650.295 -355.764 639.316C-333.601 635.049 -311.915 629.814 -290.84 623.664L-290.829 623.674ZM-46.3482 483.546C-126.219 560.473 -233.362 613.642 -356.208 637.286C-413.065 648.234 -472.119 652.688 -531.728 650.524C-590.027 648.401 -647.405 640.034 -702.297 625.641C-789.851 602.673 -867.694 564.979 -927.403 516.64C-958.478 491.497 -984.548 463.554 -1004.94 433.593C-1026.2 402.331 -1041.35 368.717 -1049.96 333.666C-1068.87 256.697 -1056.71 173.63 -1013.83 86.7638C-966.114 -9.85339 -880.801 -109.686 -760.263 -209.967C-673.053 -282.523 -630.502 -360.84 -630.147 -449.421C-629.847 -526.936 -660.667 -599.991 -690.466 -670.64C-708.445 -713.263 -725.437 -753.526 -733.871 -791.502C-743.305 -833.99 -740.663 -867.587 -725.581 -897.21C-700.177 -947.083 -637.028 -986.23 -532.515 -1016.86C-316.532 -1079.36 -158.39 -1116.29 -49.0329 -1129.76C54.8303 -1142.55 120.455 -1135.54 157.489 -1107.69C208.162 -1069.59 201.689 -994.242 193.506 -898.863C188.389 -839.223 182.585 -771.635 189.239 -699.354C196.932 -615.748 220.009 -541.479 259.793 -472.304C325.133 -358.694 362.681 -276.716 381.522 -206.481C401.27 -132.894 400.527 -69.8385 379.195 -8.06348C336.445 115.684 211.509 235.728 4.53293 434.602C-11.9114 450.4 -28.8784 466.697 -46.3515 483.536L-46.3482 483.546Z" fill="#00B687" fill-opacity="0.3"/>
<path d="M-291.139 634.06C-193.883 605.681 -109.942 557.892 -45.7921 493.974C-8.18677 456.509 26.6418 422.239 60.3239 389.104C247.205 205.225 360.014 94.2358 397.9 -25.3285C416.976 -85.5321 416.435 -147.162 396.195 -219.26C376.849 -288.174 338.094 -370.847 274.226 -479.425C232.753 -549.939 208.728 -625.739 200.775 -711.145C193.894 -785.05 200.044 -854.222 205.467 -915.258C214.113 -1012.6 220.945 -1089.49 168.679 -1128.92C130.489 -1157.74 62.9431 -1165.04 -43.9066 -1151.9C-155.892 -1138.12 -317.964 -1100.36 -539.363 -1036.46C-646.583 -1005.16 -711.309 -965.026 -737.245 -913.764C-752.716 -883.189 -755.247 -848.587 -745.236 -804.874C-736.335 -766.043 -718.678 -724.97 -699.988 -681.488C-668.98 -609.348 -636.917 -534.759 -637.05 -455.779C-637.194 -365.668 -680.91 -285.947 -770.695 -212.048C-894.996 -109.749 -982.983 -8.10522 -1032.23 90.073C-1076.56 178.458 -1089.2 262.931 -1069.8 341.159C-1060.86 377.198 -1045.02 411.738 -1022.73 443.823C-1001.42 474.502 -974.115 503.069 -941.586 528.753C-879.27 577.946 -798.197 616.119 -707.102 639.128C-593.19 667.914 -467.946 671.556 -354.466 649.389C-332.824 645.164 -311.682 640.034 -291.161 634.05L-291.139 634.06ZM-538.708 -1034.47C-317.431 -1098.34 -155.491 -1136.07 -43.628 -1149.83C62.5747 -1162.89 129.597 -1155.73 167.276 -1127.3C218.615 -1088.56 211.832 -1012.15 203.237 -915.425C197.807 -854.31 191.654 -785.039 198.548 -710.954C206.52 -625.248 230.631 -549.189 272.26 -478.416C516.654 -62.9077 428.732 23.5941 58.7014 387.678C25.0193 420.813 -9.81042 455.083 -47.4258 492.558C-124.797 569.662 -231.133 623.195 -354.921 647.381C-468.079 669.485 -592.945 665.843 -706.525 637.141C-797.309 614.204 -878.093 576.177 -940.155 527.171C-972.517 501.633 -999.675 473.212 -1020.86 442.709C-1043.02 410.812 -1058.76 376.501 -1067.64 340.701C-1086.93 262.941 -1074.34 178.927 -1030.22 90.9681C-981.107 -6.94995 -893.298 -108.365 -769.242 -210.466C-678.946 -284.771 -634.986 -365.013 -634.841 -455.757C-634.719 -535.149 -666.86 -609.933 -697.946 -682.247C-716.602 -725.642 -734.215 -766.628 -743.072 -805.284C-752.982 -848.527 -750.497 -882.714 -735.259 -912.851C-709.599 -963.561 -645.307 -1003.33 -538.719 -1034.46L-538.708 -1034.47Z" fill="#00B687" fill-opacity="0.3"/>
<path d="M-291.506 644.446C-193.123 615.744 -109.372 567.456 -46.8309 502.965C8.28088 446.133 59.7102 394.671 105.092 349.256C441.344 12.771 531.727 -77.6644 286.682 -485.566C243.369 -557.668 218.308 -635.26 210.083 -722.744C202.971 -798.433 209.459 -869.284 215.194 -931.796C224.248 -1030.5 231.39 -1108.45 178.465 -1148.54C139.639 -1177.94 70.6986 -1185.38 -38.4894 -1171.96C-152.99 -1157.89 -318.852 -1119.33 -545.545 -1054.05C-545.855 -1053.96 -546.155 -1053.88 -546.466 -1053.79C-655.24 -1022.05 -720.809 -981.359 -746.923 -929.403C-762.549 -898.315 -764.946 -863.121 -754.447 -818.641C-745.125 -779.137 -726.846 -737.335 -707.48 -693.077C-675.195 -619.274 -641.811 -542.964 -641.756 -462.101C-641.678 -369.84 -686.792 -288.206 -779.674 -212.548C-907.526 -108.385 -998.021 -5.11841 -1048.67 94.3815C-1094.24 183.901 -1107.31 269.362 -1087.48 348.413C-1078.26 385.222 -1061.8 420.47 -1038.57 453.189C-1016.41 484.41 -987.999 513.465 -954.116 539.535C-889.369 589.383 -805.244 627.847 -710.876 650.784C-594.421 679.07 -467.335 682.161 -352.99 659.474C-331.936 655.29 -311.416 650.284 -291.494 644.467L-291.506 644.446ZM-545.822 -1051.8C-545.511 -1051.89 -545.223 -1051.98 -544.901 -1052.07C-318.319 -1117.31 -152.582 -1155.85 -38.2098 -1169.9C70.3401 -1183.24 138.747 -1175.94 177.064 -1146.91C229.071 -1107.53 221.967 -1030.05 212.975 -931.966C207.232 -869.375 200.731 -798.422 207.868 -722.555C216.125 -634.764 241.275 -556.904 284.748 -484.533C348.079 -379.112 386.84 -298.238 406.753 -230C427.222 -159.879 428.784 -100.102 411.671 -41.8962C395.752 12.2715 363.752 66.2415 307.917 133.074C256.075 195.141 188.729 262.525 103.472 347.84C58.091 393.256 6.65054 444.728 -48.4679 501.57C-123.358 578.8 -228.82 632.686 -353.467 657.413C-467.468 680.027 -594.211 676.957 -710.332 648.744C-804.401 625.891 -888.215 587.562 -952.729 537.911C-986.435 511.967 -1014.7 483.078 -1036.74 452.023C-1059.83 419.512 -1076.18 384.493 -1085.34 347.924C-1105.04 269.362 -1092.03 184.349 -1046.69 95.266C-996.168 -3.98413 -905.839 -107.012 -778.231 -210.987C-684.839 -287.071 -639.469 -369.209 -639.536 -462.115C-639.592 -543.383 -673.064 -619.884 -705.438 -693.871C-724.749 -738.043 -743.005 -779.756 -752.283 -819.087C-762.66 -863.087 -760.33 -897.862 -744.914 -928.506C-719.077 -979.901 -653.941 -1020.24 -545.811 -1051.78L-545.822 -1051.8Z" fill="#00B687" fill-opacity="0.3"/>
<path d="M-291.938 654.843C-192.401 625.797 -108.829 577.01 -47.872 511.946C22.5143 436.809 86.457 372.12 142.872 315.048C296.682 159.466 398.284 56.6775 429.267 -55.8102C459.843 -166.789 423.357 -288.997 299.128 -491.704C253.961 -565.401 227.88 -644.766 219.367 -734.346C212.008 -811.827 218.863 -884.344 224.909 -948.331C234.373 -1048.4 241.837 -1127.45 188.236 -1168.17C148.777 -1198.15 78.4496 -1205.73 -33.0991 -1192.04C-150.109 -1177.68 -319.773 -1138.31 -551.76 -1071.66C-552.393 -1071.48 -553.058 -1071.29 -553.691 -1071.1C-663.952 -1038.93 -730.342 -997.694 -756.634 -945.053C-772.427 -913.448 -774.669 -877.655 -763.692 -832.423C-753.948 -792.237 -735.026 -749.705 -714.993 -704.684C-681.421 -629.216 -646.706 -551.184 -646.461 -468.465C-646.195 -374.05 -692.708 -290.516 -788.675 -213.089C-1104.85 42.0247 -1135.33 237.101 -1105.23 355.812C-1095.7 393.402 -1078.61 429.368 -1054.4 462.722C-1031.36 494.494 -1001.78 524.018 -966.513 550.472C-899.236 600.956 -811.992 639.68 -714.227 662.471C-595.332 690.195 -466.492 692.661 -351.414 669.443C-331.038 665.322 -311.183 660.452 -291.938 654.832V654.843ZM-49.5378 510.572C-121.962 587.875 -226.499 642.105 -351.869 667.404C-466.625 690.559 -595.121 688.093 -713.684 660.452C-811.138 637.734 -898.081 599.135 -965.115 548.849C-1000.21 522.52 -1029.63 493.151 -1052.55 461.556C-1076.6 428.421 -1093.59 392.673 -1103.06 355.333C-1133.02 237.174 -1102.56 42.9197 -787.21 -211.517C-690.732 -289.371 -643.953 -373.428 -644.231 -468.484C-644.475 -551.628 -679.268 -629.854 -712.929 -705.504C-732.928 -750.448 -751.806 -792.894 -761.506 -832.909C-772.36 -877.664 -770.174 -913.028 -754.603 -944.186C-728.589 -996.266 -662.632 -1037.15 -553.014 -1069.13C-552.37 -1069.32 -551.738 -1069.5 -551.094 -1069.69C-319.218 -1136.29 -149.686 -1175.64 -32.8027 -1189.99C78.0989 -1203.6 147.899 -1196.17 186.851 -1166.56C239.535 -1126.54 232.116 -1047.98 222.719 -948.52C216.664 -884.455 209.801 -811.826 217.172 -734.164C225.704 -644.284 251.89 -564.635 297.214 -490.677C421.117 -288.497 457.539 -166.726 427.127 -56.3408C396.277 55.6368 294.821 158.269 141.249 313.633C84.8267 370.715 20.8662 435.414 -49.5378 510.572Z" fill="#00B687" fill-opacity="0.3"/>
<path d="M-292.438 665.26C-191.711 635.871 -108.293 586.574 -48.9141 520.927C34.7946 428.379 109.483 352.399 175.385 285.358C320.138 138.101 415.768 40.8175 444.389 -68.9436C459.011 -125.016 455.977 -182.815 434.828 -250.824C413.827 -318.354 374.669 -396.843 311.594 -497.849C264.575 -573.132 237.46 -654.286 228.675 -745.945C221.085 -825.212 228.302 -899.403 234.663 -964.855C244.529 -1066.3 252.321 -1146.43 198.037 -1187.81C157.94 -1218.38 86.2184 -1226.1 -27.6775 -1212.13C-147.194 -1197.48 -320.65 -1157.29 -557.953 -1089.28C-617.528 -1072.08 -663.541 -1052.89 -698.579 -1030.57C-731.108 -1009.85 -753.26 -986.997 -766.311 -960.713C-782.26 -928.594 -784.368 -892.209 -772.926 -846.22C-762.76 -805.351 -743.194 -762.1 -722.496 -716.293C-687.636 -639.162 -651.589 -559.416 -651.167 -474.82C-650.679 -378.266 -698.601 -292.816 -797.664 -213.62C-1122.32 45.9584 -1153.77 243.46 -1122.97 363.43C-1113.11 401.821 -1095.34 438.515 -1070.13 472.504C-1046.15 504.817 -1015.39 534.82 -978.688 561.649C-908.769 612.778 -818.318 651.731 -717.091 674.314C-595.842 701.372 -465.349 703.182 -349.66 679.413C-330.039 675.375 -310.939 670.651 -292.438 665.26ZM-560.217 -1086.44C-559.24 -1086.72 -558.286 -1087 -557.309 -1087.29C-320.128 -1155.26 -146.792 -1195.43 -27.3979 -1210.07C85.8499 -1223.96 157.038 -1216.37 196.633 -1186.19C249.995 -1145.52 242.251 -1065.88 232.439 -965.045C226.061 -899.501 218.842 -825.211 226.449 -745.753C235.255 -653.785 262.478 -572.345 309.666 -496.795C372.652 -395.949 411.739 -317.605 432.685 -250.241C453.715 -182.586 456.75 -125.141 442.224 -69.4431C413.743 39.7976 318.257 136.914 173.74 283.942C107.831 350.994 33.1254 426.995 -50.6199 519.574C-109.721 584.898 -192.812 633.987 -293.115 663.262C-311.56 668.642 -330.571 673.356 -350.138 677.373C-465.515 701.07 -595.665 699.269 -716.591 672.285C-817.508 649.764 -907.67 610.936 -977.334 560.005C-1013.86 533.301 -1044.48 503.454 -1068.33 471.307C-1093.38 437.537 -1111.03 401.082 -1120.83 362.93C-1151.48 243.533 -1120.04 46.8534 -796.232 -212.038C-696.637 -291.671 -648.459 -377.628 -648.947 -474.835C-649.38 -559.852 -685.516 -639.794 -720.464 -717.114C-741.141 -762.831 -760.651 -806.009 -770.784 -846.704C-782.104 -892.216 -780.051 -928.171 -764.336 -959.843C-738.133 -1012.6 -671.355 -1054.03 -560.25 -1086.45L-560.217 -1086.44Z" fill="#00B687" fill-opacity="0.3"/>
<path d="M-293.004 675.698C-191.071 645.955 -107.76 596.138 -49.9417 529.919C45.3957 420.709 129.576 334.988 203.853 259.341C341.54 119.129 432.492 26.4873 459.268 -80.9531C473.005 -136.057 469.422 -192.952 448.023 -259.993C426.579 -327.169 387.187 -404.691 324.065 -503.983C275.195 -580.85 247.037 -663.783 237.981 -757.52C230.159 -838.572 237.73 -914.425 244.415 -981.356C254.691 -1084.19 262.803 -1165.42 207.854 -1207.44C167.125 -1238.58 94.0061 -1246.46 -22.2372 -1232.2C-144.27 -1217.25 -321.515 -1176.25 -564.134 -1106.88C-624.809 -1089.42 -671.643 -1069.95 -707.269 -1047.29C-740.33 -1026.26 -762.816 -1003.05 -776 -976.349C-792.115 -943.714 -794.068 -906.73 -782.149 -859.985C-771.561 -818.443 -751.373 -774.449 -729.998 -727.869C-693.851 -649.078 -656.472 -567.614 -655.85 -481.149C-655.14 -382.447 -704.461 -295.105 -806.632 -214.13C-1139.87 49.986 -1172.25 249.974 -1140.71 371.235C-1130.52 410.438 -1112.04 447.882 -1085.79 482.505C-1060.86 515.401 -1028.84 545.862 -990.652 573.066C-918.003 624.809 -824.222 663.959 -719.444 686.282C-595.931 712.601 -463.917 713.683 -347.729 689.352C-328.962 685.428 -310.705 680.86 -293.015 675.698H-293.004ZM-567.397 -1103.75C-566.088 -1104.13 -564.811 -1104.51 -563.491 -1104.89C-321.016 -1174.24 -143.872 -1215.21 -21.9619 -1230.15C93.6365 -1244.31 166.218 -1236.59 206.447 -1205.83C260.48 -1164.5 252.425 -1083.77 242.211 -981.553C235.517 -914.543 227.922 -838.584 235.775 -757.335C244.856 -663.278 273.121 -580.061 322.164 -502.916C385.188 -403.781 424.512 -326.399 445.908 -259.399C467.199 -192.712 470.761 -136.161 457.122 -81.4318C430.486 25.4779 339.684 117.943 202.233 257.925C127.939 333.594 43.7221 419.346 -51.6476 528.587C-109.179 594.493 -192.143 644.092 -293.647 673.71C-311.283 678.851 -329.473 683.399 -348.195 687.312C-464.072 711.591 -595.731 710.488 -718.933 684.242C-823.412 661.982 -916.893 622.956 -989.298 571.401C-1027.32 544.311 -1059.17 513.996 -1083.98 481.288C-1110.06 446.872 -1128.43 409.688 -1138.56 370.736C-1169.93 250.047 -1137.57 50.8914 -805.2 -212.537C-702.496 -293.94 -652.92 -381.809 -653.62 -481.166C-654.241 -568.047 -691.709 -649.722 -727.945 -728.695C-749.287 -775.19 -769.43 -819.107 -779.985 -860.474C-791.793 -906.753 -789.884 -943.296 -773.98 -975.488C-747.6 -1028.93 -679.989 -1070.91 -567.386 -1103.77L-567.397 -1103.75Z" fill="#00B687" fill-opacity="0.3"/>
<path d="M-293.67 686.188C-190.479 656.071 -107.257 605.712 -50.9839 538.889C54.4874 413.685 151.333 315.329 229.15 236.31C293.561 170.903 349.184 114.425 390.895 62.1099C435.833 5.76721 462.227 -43.2074 473.94 -92.0156C499.511 -198.488 459.698 -319.624 336.511 -510.121C285.776 -588.581 256.573 -673.29 247.256 -769.11C239.192 -851.944 247.14 -929.465 254.152 -997.865C264.841 -1102.08 273.274 -1184.41 217.644 -1227.08C176.281 -1258.8 101.778 -1266.82 -16.8257 -1252.29C-141.36 -1237.03 -322.414 -1195.22 -570.338 -1124.47C-632.133 -1106.78 -679.767 -1087.01 -715.981 -1064.01C-749.586 -1042.66 -772.393 -1019.1 -785.711 -991.99C-801.992 -958.837 -803.801 -921.265 -791.405 -873.753C-780.395 -831.529 -759.564 -786.805 -737.523 -739.449C-700.077 -659.008 -661.355 -575.824 -660.556 -487.492C-659.635 -386.64 -710.365 -297.395 -815.621 -214.65C-958.034 -102.714 -1058.81 7.38025 -1115.12 112.583C-1165.65 206.994 -1180.25 296.691 -1158.51 379.196C-1147.96 419.232 -1128.74 457.425 -1101.39 492.704C-1075.45 526.162 -1042.15 557.101 -1002.39 584.68C-926.903 637.036 -829.694 676.354 -721.275 698.343C-595.609 723.85 -462.208 724.173 -345.643 699.249C-327.819 695.45 -310.472 691.069 -293.692 686.178L-293.67 686.188ZM-574.578 -1121.08C-572.958 -1121.56 -571.337 -1122.03 -569.695 -1122.49C-321.893 -1193.22 -140.955 -1235 -16.5404 -1250.24C101.416 -1264.69 175.382 -1256.82 216.233 -1225.48C270.945 -1183.51 262.561 -1101.67 251.937 -998.058C244.92 -929.571 236.96 -851.946 245.041 -768.921C254.394 -672.786 283.694 -587.777 334.613 -509.044C457.468 -319.062 497.203 -198.374 471.777 -92.4734C446.581 12.4485 359.428 100.948 227.52 234.905C149.678 313.945 52.796 412.332 -52.7219 537.609C-117.844 614.922 -219.291 670.13 -346.12 697.24C-462.374 722.081 -595.432 721.769 -720.786 696.335C-828.917 674.387 -925.827 635.215 -1001.06 583.015C-1040.64 555.572 -1073.78 524.778 -1099.58 491.486C-1126.76 456.426 -1145.86 418.482 -1156.34 378.697C-1214.58 157.666 -1002.43 -65.1035 -814.19 -213.058C-708.379 -296.219 -657.393 -385.995 -658.325 -487.499C-659.136 -576.253 -697.957 -659.639 -735.492 -740.273C-757.5 -787.54 -778.275 -832.191 -789.241 -874.243C-801.515 -921.277 -799.751 -958.413 -783.691 -991.119C-757.111 -1045.25 -688.679 -1087.78 -574.567 -1121.07L-574.578 -1121.08Z" fill="#00B687" fill-opacity="0.3"/>
<path d="M-294.114 696.501C-189.76 666.051 -106.698 615.203 -52.0149 547.871C62.2539 407.17 167.439 301.031 251.954 215.746C314.064 153.076 367.703 98.9503 408.107 48.2689C451.746 -6.45032 477.287 -54.2906 488.481 -102.277C500.984 -155.841 496.612 -211.33 474.733 -276.872C452.797 -342.592 411.667 -420.902 348.988 -516.269C296.381 -596.308 266.147 -682.797 256.558 -780.695C248.261 -865.314 256.578 -944.492 263.916 -1014.36C275 -1119.98 283.762 -1203.42 227.452 -1246.73C185.451 -1279.05 109.558 -1287.19 -11.3964 -1272.39C-138.437 -1256.84 -323.302 -1214.21 -576.531 -1142.09C-639.47 -1124.13 -687.935 -1104.07 -724.748 -1080.73C-758.92 -1059.07 -782.071 -1035.15 -795.511 -1007.63C-811.948 -973.982 -813.612 -935.85 -800.76 -887.613C-789.329 -844.745 -767.91 -799.313 -745.225 -751.22C-706.503 -669.155 -666.483 -584.291 -665.462 -494.072C-664.296 -391.055 -716.347 -299.83 -824.589 -215.181C-970.83 -101.465 -1074.3 10.2214 -1132.14 116.788C-1184.02 212.364 -1199.07 303.102 -1176.87 386.492C-1165.97 427.422 -1145.99 466.416 -1117.51 502.414C-1090.53 536.475 -1055.84 567.946 -1014.45 595.93C-935.926 649.015 -835.054 688.53 -722.751 710.218C-594.965 734.903 -460.255 734.465 -343.423 709.01C-326.498 705.326 -310.051 701.153 -294.114 696.501ZM-581.736 -1138.4C-579.794 -1138.97 -577.863 -1139.53 -575.887 -1140.09C-322.769 -1212.18 -138.022 -1254.78 -11.1045 -1270.32C109.19 -1285.05 184.549 -1277.04 226.044 -1245.13C281.437 -1202.51 272.73 -1119.57 261.701 -1014.55C254.358 -944.596 246.029 -865.317 254.335 -780.494C263.962 -682.269 294.306 -595.484 347.087 -515.169C409.671 -419.949 450.728 -341.79 472.607 -276.248C494.367 -211.049 498.718 -155.903 486.303 -102.703C475.172 -55.0192 449.757 -7.43909 406.326 47.0409C365.986 97.6285 312.383 151.723 250.327 214.352C165.78 299.667 60.5592 405.848 -53.7751 546.632C-108.17 613.6 -190.872 664.209 -294.757 694.534C-310.672 699.176 -327.053 703.328 -343.923 707.012C-460.443 732.395 -594.821 732.821 -722.307 708.199C-834.299 686.563 -934.872 647.173 -1013.14 594.265C-1054.36 566.405 -1088.87 535.091 -1115.72 501.186C-1144.04 465.428 -1163.88 426.683 -1174.72 386.013C-1221.77 209.2 -1100.23 1.87512 -823.179 -213.547C-714.394 -298.623 -662.077 -390.372 -663.253 -494.063C-664.263 -584.706 -704.394 -669.771 -743.205 -752.028C-765.845 -800.034 -787.232 -845.391 -798.607 -888.087C-811.337 -935.84 -809.706 -973.534 -793.491 -1006.73C-766.722 -1061.54 -697.413 -1104.64 -581.747 -1138.39L-581.736 -1138.4Z" fill="#00B687" fill-opacity="0.3"/>
<path d="M-295.312 707.293C-189.494 676.416 -106.323 624.913 -53.0538 556.862C68.8207 401.144 181.877 288.105 272.72 197.274C392.775 77.2311 479.519 -9.48914 502.892 -111.809C514.992 -164.77 510.328 -219.697 488.219 -284.678C465.928 -350.21 424.456 -427.968 361.44 -522.387C306.972 -604.008 275.69 -692.285 265.824 -792.249C257.295 -878.653 265.991 -959.489 273.658 -1030.82C285.159 -1137.88 294.251 -1222.42 237.259 -1266.39C194.626 -1299.28 117.336 -1307.57 -5.96381 -1292.48C-135.517 -1276.62 -324.19 -1233.19 -582.735 -1159.69C-646.728 -1141.49 -696.004 -1121.15 -733.383 -1097.47C-768.076 -1075.49 -791.549 -1051.22 -805.122 -1023.29C-821.725 -989.1 -823.257 -950.334 -809.906 -901.291C-798.053 -857.711 -775.967 -811.512 -752.583 -762.599C-712.529 -678.84 -671.122 -592.232 -669.934 -500.167C-668.569 -395.031 -722.096 -301.984 -833.589 -215.701C-983.494 -99.6749 -1089.5 14.0304 -1148.66 122.282C-1201.69 219.316 -1216.97 311.281 -1194.11 395.639C-1182.77 437.412 -1161.99 477.167 -1132.31 513.778C-1104.24 548.401 -1068.2 580.309 -1025.16 608.595C-943.64 662.19 -839.238 701.705 -723.239 722.862C-593.589 746.506 -457.835 745.143 -340.948 719.022C-325.311 715.525 -310.106 711.623 -295.334 707.314L-295.312 707.293ZM-589.128 -1155.67C-586.797 -1156.35 -584.455 -1157.03 -582.091 -1157.7C-323.657 -1231.17 -135.109 -1274.58 -5.68524 -1290.42C116.981 -1305.42 193.723 -1297.27 235.853 -1264.78C291.923 -1221.53 282.89 -1137.46 271.455 -1031.04C263.772 -959.627 255.08 -878.672 263.626 -792.077C273.524 -691.773 304.901 -603.207 359.571 -521.296C422.491 -427.025 463.876 -349.419 486.113 -284.053C508.093 -219.427 512.737 -164.832 500.724 -112.246C477.479 -10.4882 390.921 76.0656 271.112 195.859C180.232 286.721 67.126 399.823 -54.8317 555.634C-107.806 623.32 -190.606 674.574 -295.967 705.316C-310.694 709.614 -325.844 713.506 -341.437 716.992C-458.024 743.051 -593.456 744.415 -722.795 720.822C-838.484 699.717 -942.585 660.317 -1023.85 606.888C-1066.7 578.717 -1102.58 546.965 -1130.5 512.519C-1160.01 476.115 -1180.67 436.632 -1191.93 395.129C-1214.66 311.271 -1199.43 219.805 -1146.66 123.24C-1087.64 15.2374 -981.829 -98.2595 -832.158 -214.088C-720.109 -300.798 -666.316 -394.389 -667.681 -500.19C-668.891 -592.687 -710.388 -679.498 -750.519 -763.449C-773.859 -812.279 -795.922 -858.389 -807.73 -901.806C-820.948 -950.363 -819.461 -988.692 -803.08 -1022.42C-789.685 -1050 -766.467 -1073.99 -732.107 -1095.75C-696.293 -1118.44 -649.469 -1138.06 -589.117 -1155.67L-589.128 -1155.67Z" fill="#00B687" fill-opacity="0.3"/>
</g>
</svg>
