<svg width="1920" height="880" viewBox="0 0 1920 880" fill="none" xmlns="http://www.w3.org/2000/svg">
<g clip-path="url(#clip0_11_828)">
<mask id="mask0_11_828" style="mask-type:luminance" maskUnits="userSpaceOnUse" x="0" y="-255" width="1920" height="1135">
<path d="M1920 -255H0V880H1920V-255Z" fill="white"/>
</mask>
<g mask="url(#mask0_11_828)">
<path d="M950.29 1475.35C914.103 1501.49 884.16 1509.05 859.276 1498.49C799.302 1473.02 781.797 1346.82 764.861 1224.75C749.098 1111.11 734.211 1003.77 685.957 997.839C547.772 980.874 512.581 934.423 507.401 898.436C503.305 870.009 516.444 837.838 545.382 805.407C573.153 774.285 613.087 745.342 660.869 721.705C736.641 684.214 789.853 670.602 833.427 677.563C857.896 681.48 878.99 691.909 897.907 709.472C917.473 727.63 934.284 752.974 949.307 786.961C964.517 821.366 1031.9 835.569 1103.25 850.6C1200.38 871.069 1310.46 894.263 1328.56 973.474C1338.77 1018.17 1319.14 1075.26 1268.54 1148.01C1211.61 1229.89 1113.2 1333.03 976.066 1454.54C967.136 1462.45 958.545 1469.39 950.281 1475.35H950.29ZM597.293 762.469C537.362 805.755 503.572 856.175 509.6 898.07C512.988 921.638 528.475 941.781 555.615 957.946C585.726 975.88 629.669 988.494 686.208 995.432C736.154 1001.56 751.16 1109.81 767.057 1224.4C775.369 1284.3 783.954 1346.25 797.863 1396.19C813.495 1452.37 833.849 1485.11 860.084 1496.23C889.842 1508.87 927.336 1494.61 974.689 1452.65C1232.71 1224.02 1347.76 1067.48 1326.42 974.069C1308.66 896.361 1199.31 873.322 1102.85 853C1027.82 837.196 963.021 823.538 947.33 788.025C918.204 722.109 881.911 687.776 833.126 679.978C789.999 673.074 737.157 686.637 661.798 723.93C637.958 735.735 616.31 748.75 597.298 762.48L597.293 762.469Z" fill="white" fill-opacity="0.5"/>
<path d="M962.619 1477.24C921.745 1506.75 888.056 1515.37 860.106 1503.56C797.2 1476.97 776.776 1351.77 757.013 1230.68C738.863 1119.43 721.72 1014.34 672.916 1003.87C557.692 979.112 493.501 937.664 487.279 883.97C483.939 855.142 497.199 824.297 526.701 792.275C554.784 761.801 597.507 731.089 650.26 703.454C723.664 665.01 779.676 652.958 826.527 665.558C871.741 677.712 911.215 712.628 954.497 778.802C975.274 810.554 1040.55 827.318 1109.64 845.062C1211.31 871.165 1326.54 900.744 1343.41 985.857C1362.9 1084.26 1245.39 1239.46 984.152 1460.34C976.765 1466.59 969.589 1472.23 962.622 1477.26L962.619 1477.24ZM982.794 1458.4C1243.28 1238.16 1360.52 1083.74 1341.24 986.343C1324.67 902.753 1210.15 873.352 1109.13 847.412C1039.62 829.565 973.95 812.705 952.687 780.212C909.732 714.558 870.662 679.917 825.99 667.911C779.67 655.466 724.127 667.456 651.211 705.65C598.68 733.169 556.164 763.716 528.26 794.002C499.281 825.457 486.227 855.631 489.475 883.665C493.723 920.311 529.073 970.497 673.339 1001.48C723.628 1012.28 740.903 1118.16 759.192 1230.26C778.837 1350.69 799.157 1475.21 860.899 1501.3C892.826 1514.79 932.699 1500.75 982.794 1458.4Z" fill="white" fill-opacity="0.5"/>
<path d="M975.728 1478.72C929.638 1512 891.844 1521.79 860.58 1508.64C794.874 1481.02 771.64 1356.99 749.167 1237.04C728.732 1127.96 709.439 1024.95 659.866 1009.86C536.916 972.417 472.098 925.332 467.218 869.913C464.701 841.261 478.557 810.742 508.404 779.227C537.414 748.594 581.561 716.956 639.621 685.198C796.096 599.595 860.057 658.737 959.628 770.656C985.786 800.064 1048.58 818.823 1115.06 838.691C1221.84 870.601 1342.87 906.77 1358.39 997.899C1375.78 1100.02 1256 1253.16 992.2 1466.09C986.593 1470.61 981.095 1474.82 975.712 1478.71L975.728 1478.72ZM563.141 735.573C497.911 782.687 465.793 828.331 469.435 869.666C471.752 895.957 488.451 920.785 519.079 943.444C551.099 967.13 598.662 988.688 660.467 1007.5C711.351 1022.99 730.775 1126.72 751.351 1236.53C773.698 1355.84 796.806 1479.2 861.384 1506.35C895.536 1520.72 937.907 1506.9 990.9 1464.12C1253.95 1251.8 1373.45 1099.44 1356.23 998.337C1340.96 908.701 1220.65 872.744 1114.5 841.02C1047.72 821.061 984.638 802.219 958.056 772.33C859.2 661.22 795.713 602.492 640.621 687.343C611.076 703.515 585.212 719.618 563.135 735.564L563.141 735.573Z" fill="white" fill-opacity="0.5"/>
<path d="M989.791 1479.73C937.873 1517.22 895.557 1528.35 860.695 1513.75C792.297 1485.15 766.358 1362.39 741.272 1243.69C718.66 1136.7 697.304 1035.63 646.845 1015.85C515.921 964.53 450.611 912.419 447.189 856.53C445.422 827.687 459.559 798.187 490.405 766.344C520.596 735.177 565.941 702.66 629.024 666.924C696.113 628.921 747.381 618.707 795.271 633.804C839.199 647.641 876.786 682.292 920.32 722.401C934.399 735.378 948.974 748.8 964.813 762.558C995.607 789.288 1054.94 809.181 1117.75 830.243C1230.99 868.205 1359.33 911.236 1373.58 1009.14C1389 1115.01 1266.89 1266.37 1000.3 1471.88C996.764 1474.61 993.261 1477.22 989.806 1479.73H989.791ZM547.289 721.4C479.05 770.688 446.887 815.201 449.406 856.369C452.756 911.191 517.579 962.61 647.594 1013.56C699.201 1033.8 720.682 1135.48 743.432 1243.14C768.386 1361.23 794.189 1483.34 861.487 1511.49C897.931 1526.74 942.939 1513.13 999.017 1469.9C1264.86 1264.99 1386.66 1114.4 1371.38 1009.54C1357.34 913.116 1229.7 870.33 1117.08 832.567C1054.06 811.441 994.548 791.48 963.422 764.465C947.561 750.693 932.981 737.261 918.879 724.27C830.341 642.67 771.838 588.771 630.043 669.101C598.202 687.133 570.632 704.555 547.287 721.417L547.289 721.4Z" fill="white" fill-opacity="0.5"/>
<path d="M1004.95 1480.14C946.472 1522.38 899.157 1535.06 860.358 1518.89C789.336 1489.32 760.787 1367.88 733.171 1250.46C708.488 1145.5 685.183 1046.36 633.81 1021.85C564.562 988.797 514.87 959.41 481.891 931.987C446.061 902.196 428.127 873.398 427.077 843.934C426.051 815.241 440.924 785.704 472.533 753.646C503.694 722.04 551.408 687.694 618.403 648.654C680.337 612.555 730.131 601.614 775.111 614.198C816.359 625.749 850.366 655.473 889.739 689.911C914.204 711.299 939.5 733.426 969.966 754.47C1003.74 777.808 1057.97 797.539 1115.38 818.413C1237.33 862.774 1375.55 913.048 1388.78 1019.15C1402.49 1129.08 1278.05 1279.05 1008.35 1477.65C1007.22 1478.49 1006.08 1479.33 1004.95 1480.14ZM1007.11 1475.64C1148.96 1371.19 1252.25 1278.43 1314.11 1199.93C1342.39 1164.04 1362.74 1130.22 1374.61 1099.42C1385.61 1070.85 1389.65 1043.96 1386.59 1019.49C1373.55 914.888 1236.01 864.863 1114.69 820.731C1057.14 799.799 1002.8 780.034 968.786 756.53C938.223 735.412 912.877 713.247 888.357 691.812C849.185 657.55 815.349 627.979 774.565 616.558C730.157 604.129 680.87 615.007 619.449 650.809C552.624 689.757 505.062 723.978 474.048 755.433C442.944 786.983 428.298 815.903 429.297 843.846C430.317 872.53 447.964 900.72 483.238 930.053C516.073 957.347 565.62 986.647 634.702 1019.62C687.074 1044.61 710.516 1144.29 735.328 1249.84C762.799 1366.68 791.209 1487.48 861.153 1516.61C899.967 1532.77 947.705 1519.39 1007.12 1475.63L1007.11 1475.64Z" fill="white" fill-opacity="0.5"/>
<path d="M1047.99 1460.93C1037.68 1468.38 1027.16 1475.88 1016.42 1483.43C952.873 1528.15 901.566 1541.44 859.587 1524.03C785.99 1493.54 754.886 1373.39 724.812 1257.19C698.18 1154.3 673.035 1057.12 620.791 1027.84C485.869 952.231 407.607 895.964 406.842 832.138C406.511 803.484 422.164 773.72 454.717 741.154C487.024 708.823 537.101 672.597 607.785 630.41C739.267 551.939 797.134 602.951 870.384 667.539C899.902 693.561 933.359 723.057 975.13 746.445C1009.03 765.427 1055.7 783.223 1105.11 802.062C1169.34 826.565 1242.15 854.319 1298.81 889.823C1363.94 930.623 1398.33 975.722 1403.95 1027.71C1406.77 1053.63 1402.29 1081.74 1390.66 1111.25C1378.22 1142.81 1357.17 1177.08 1328.12 1213.08C1269.56 1285.62 1175.42 1368.9 1047.97 1460.95L1047.99 1460.93ZM518.629 691.105C493.088 709.553 472.412 726.743 456.223 742.948C424.162 775.029 408.749 804.197 409.074 832.113C409.432 862.051 427.367 891.27 465.516 924.073C498.345 952.305 545.085 982.685 621.82 1025.69C674.911 1055.44 700.196 1153.12 726.959 1256.54C756.886 1372.16 787.829 1491.72 860.385 1521.79C901.667 1538.88 952.318 1525.69 1015.24 1481.4C1158.63 1380.53 1263.33 1289.71 1326.49 1211.47C1355.39 1175.66 1376.32 1141.62 1388.66 1110.29C1400.13 1081.17 1404.55 1053.47 1401.79 1027.99C1396.25 976.828 1362.21 932.323 1297.74 891.934C1241.26 856.549 1168.56 828.818 1104.4 804.36C1054.92 785.494 1008.19 767.667 974.147 748.61C932.174 725.106 898.618 695.536 869.013 669.432C831.926 636.736 799.897 608.509 760.308 597.637C716.871 585.716 668.747 596.803 608.859 632.546C573.82 653.457 543.854 672.902 518.636 691.115L518.629 691.105Z" fill="white" fill-opacity="0.5"/>
<path d="M1100.71 1436.16C1076.63 1453.55 1051.22 1471.23 1024.5 1489.21C957.211 1534.46 902.841 1547.55 858.318 1529.19C782.151 1497.79 748.558 1378.82 716.074 1263.76C687.627 1163 660.758 1067.83 607.781 1033.83C470.121 945.466 385.779 887.913 386.464 821.062C387.057 764.195 450.079 701.719 597.174 612.133C657.37 575.468 705.785 564.113 749.516 576.389C789.137 587.516 821.892 617.343 856.577 648.921C890.513 679.831 928.975 714.853 980.325 738.384C1009.61 751.804 1044.9 765.35 1082.24 779.691C1226.61 835.112 1406.29 904.093 1419.06 1034.4C1421.7 1061.44 1416.95 1090.47 1404.92 1120.66C1392.08 1152.91 1370.51 1187.53 1340.85 1223.61C1288.13 1287.69 1207.55 1358.98 1100.69 1436.16H1100.71ZM505.561 675.083C424.989 733.277 389.128 778.888 388.687 821.087C388.013 886.59 471.929 943.811 608.896 1031.73C662.609 1066.21 689.603 1161.82 718.179 1263.04C750.512 1377.53 783.932 1495.93 859.089 1526.91C902.927 1545 956.652 1531.97 1023.33 1487.15C1168.48 1389.55 1274.75 1300.34 1339.19 1222.01C1368.7 1186.13 1390.13 1151.72 1402.89 1119.71C1414.75 1089.91 1419.46 1061.31 1416.85 1034.68C1404.24 905.901 1225.29 837.202 1081.51 781.999C1044.13 767.65 1008.82 754.098 979.462 740.637C927.811 716.96 889.206 681.809 855.152 650.794C784.197 586.178 728.153 535.146 598.25 614.251C562.444 636.052 531.643 656.23 505.546 675.079L505.561 675.083Z" fill="white" fill-opacity="0.5"/>
<path d="M1143.51 1419.62C1109.44 1444.23 1072.44 1469.36 1032.57 1494.99C961.27 1540.8 903.688 1553.67 856.516 1534.31C777.779 1502 741.729 1384.09 706.87 1270.04C676.747 1171.52 648.299 1078.46 594.773 1039.81C580.872 1029.77 567.419 1020.16 554.413 1010.85C439.786 928.9 364.066 874.757 365.918 810.763C366.758 781.768 384.097 751.005 418.935 716.716C453.952 682.238 508.783 642.054 586.571 593.849C647.31 556.209 696.013 544.647 739.838 557.454C779.432 569.02 811.665 599.618 845.781 632.015C883.181 667.527 925.569 707.764 985.529 730.36C1001.73 736.463 1018.94 742.74 1037.16 749.366C1198.52 808.137 1419.53 888.636 1433.96 1038.78C1436.67 1067.09 1431.83 1097.19 1419.53 1128.23C1406.42 1161.34 1384.44 1196.55 1354.2 1232.86C1306.13 1290.59 1235.5 1353.16 1143.49 1419.62H1143.51ZM494.202 657.928C408.044 720.156 369.394 767.826 368.147 810.842C366.324 873.475 441.643 927.327 555.635 1008.82C568.641 1018.12 582.094 1027.74 596.002 1037.78C650.163 1076.89 678.728 1170.34 708.976 1269.28C743.674 1382.78 779.545 1500.14 857.295 1532.03C903.798 1551.12 960.761 1538.3 1031.45 1492.89C1178.82 1398.18 1286.87 1310.15 1352.57 1231.23C1382.64 1195.1 1404.51 1160.12 1417.51 1127.26C1429.64 1096.61 1434.45 1066.92 1431.75 1039.02C1417.48 890.439 1197.26 810.24 1036.47 751.668C1018.25 745.031 1001.03 738.761 984.82 732.649C924.464 709.901 881.892 669.492 844.34 633.84C810.422 601.636 778.379 571.222 739.278 559.793C696.054 547.165 647.879 558.653 587.682 595.958C551.821 618.175 520.757 638.734 494.205 657.911L494.202 657.928Z" fill="white" fill-opacity="0.5"/>
<path d="M1179 1409.05C1137.52 1439.02 1091.37 1469.62 1040.64 1500.76C965.067 1547.17 904.066 1559.82 854.148 1539.43C772.802 1506.21 734.331 1389.16 697.123 1275.97C665.497 1179.78 635.626 1088.93 581.785 1045.81C554.923 1024.31 529.844 1005.08 505.577 986.489C457.926 949.964 416.768 918.433 388.467 889.043C357.803 857.21 344.054 829.379 345.182 801.457C346.395 771.625 364.014 740.996 400.628 705.044C437.135 669.199 494.495 626.854 575.971 575.592C637.686 536.768 686.986 524.963 731.137 538.465C770.947 550.633 802.91 582.371 836.762 615.963C877.049 655.957 922.714 701.28 990.738 722.346C1077.63 749.263 1188.92 786.754 1279.14 838.197C1327.77 865.923 1366.45 895.601 1394.11 926.406C1425.94 961.856 1444.25 999.977 1448.55 1039.68C1455.2 1101.29 1428.36 1168.74 1368.75 1240.19C1324.27 1293.5 1260.71 1350.03 1179 1409.04V1409.05ZM482.405 641.016C448.859 665.245 422.286 687.058 402.108 706.858C366.463 741.861 348.573 772.834 347.397 801.56C346.292 828.722 359.824 855.954 389.983 887.278C418.164 916.536 459.259 948.027 506.839 984.496C531.113 1003.1 556.206 1022.34 583.08 1043.86C637.479 1087.41 667.463 1178.61 699.198 1275.16C736.239 1387.83 774.531 1504.34 854.908 1537.17C904.18 1557.29 964.571 1544.69 1039.54 1498.66C1189.99 1406.26 1300.19 1318.75 1367.1 1238.57C1426.26 1167.68 1452.91 1100.86 1446.34 1039.98C1442.1 1000.83 1424 963.181 1392.52 928.121C1365.03 897.492 1326.53 867.97 1278.11 840.369C1188.07 789.028 1076.91 751.591 990.121 724.698C921.598 703.469 875.732 657.941 835.261 617.775C801.622 584.38 769.839 552.831 730.535 540.821C687.006 527.511 638.241 539.234 577.069 577.724C540.827 600.523 509.361 621.561 482.402 641.033L482.405 641.016Z" fill="white" fill-opacity="0.5"/>
<path d="M1209.39 1402.67C1162.29 1436.69 1108.74 1471.31 1048.71 1506.53C968.582 1553.56 903.972 1565.97 851.179 1544.51C767.191 1510.34 726.293 1393.96 686.752 1281.43C655.27 1191.82 622.701 1099.16 568.79 1051.81C532.944 1020.31 498.368 992.601 467.859 968.151C382.895 900.055 321.503 850.849 324.271 792.875C327.13 732.958 396.982 664.717 565.372 557.335C628.346 517.179 678.443 505.133 723.059 519.406C763.23 532.26 795.11 565.339 828.854 600.364C871.66 644.782 920.18 695.133 995.955 714.343C1077.41 734.984 1195.24 771.971 1294.09 830.879C1396.82 892.104 1453.64 962.087 1462.97 1038.89C1476.39 1149.35 1391.19 1271.37 1209.39 1402.68V1402.67ZM1047.66 1504.4C1338.54 1333.68 1477.52 1177.17 1460.76 1039.19C1451.53 963.193 1395.08 893.831 1293.03 832.99C1194.39 774.212 1076.76 737.297 995.452 716.686C919.08 697.325 870.333 646.73 827.319 602.098C793.769 567.284 762.084 534.398 722.427 521.711C678.448 507.634 628.892 519.61 566.489 559.41C481.327 613.713 421.48 658.22 383.538 695.478C346.034 732.291 327.909 763.273 326.486 792.978C323.78 849.641 384.762 898.518 469.167 966.17C499.688 990.645 534.286 1018.36 570.181 1049.9C624.567 1097.67 657.23 1190.64 688.831 1280.56C728.202 1392.59 768.907 1508.44 851.959 1542.23C904.119 1563.43 968.128 1551.06 1047.67 1504.38L1047.66 1504.4Z" fill="white" fill-opacity="0.5"/>
<path d="M1234.87 1399.97C1183.37 1437.16 1123.94 1474.67 1056.78 1512.33C971.769 1559.98 903.334 1572.16 847.552 1549.54C808.634 1533.76 775.081 1500.33 744.988 1447.35C718.223 1400.23 696.599 1342.34 675.683 1286.34C643.136 1199.21 609.485 1109.11 555.785 1057.81C513.411 1017.33 472.416 983.511 436.242 953.674C357.284 888.549 300.222 841.499 303.153 784.835C306.317 723.548 379.215 652.35 554.75 539.064C619.164 497.505 670.196 485.176 715.368 500.285C756.01 513.877 787.893 548.438 821.656 585.019C866.721 633.849 917.796 689.212 1001.16 706.345C1116.33 730.015 1225.61 771.389 1308.86 822.847C1356.26 852.139 1394.5 884.258 1422.5 918.318C1453.38 955.885 1471.82 995.858 1477.29 1037.14C1486.39 1105.96 1459.67 1178.7 1397.85 1253.35C1358.11 1301.35 1303.58 1350.38 1234.88 1400L1234.87 1399.97ZM460.222 606.027C354.008 682.741 307.835 737.082 305.366 784.954C302.508 840.329 359.159 887.05 437.579 951.719C473.779 981.579 514.81 1015.41 557.243 1055.96C611.344 1107.66 645.096 1198.02 677.741 1285.4C698.625 1341.3 720.219 1399.11 746.882 1446.05C776.708 1498.58 809.89 1531.67 848.331 1547.26C903.487 1569.63 971.346 1557.49 1055.76 1510.16C1212.31 1422.39 1326.84 1335.43 1396.19 1251.69C1457.55 1177.6 1484.08 1105.54 1475.08 1037.47C1469.69 996.672 1451.43 957.122 1420.84 919.921C1393 886.064 1354.95 854.108 1307.77 824.943C1224.74 773.613 1115.7 732.337 1000.76 708.719C916.727 691.454 865.392 635.814 820.1 586.74C786.545 550.373 754.84 516.017 714.727 502.597C670.204 487.704 619.722 499.955 555.888 541.153C519.73 564.489 487.938 586.023 460.238 606.03L460.222 606.027Z" fill="white" fill-opacity="0.5"/>
<path d="M1257.5 1399.51C1202.52 1439.22 1138.22 1478.83 1064.85 1518.09C974.628 1566.41 902.143 1578.3 843.254 1554.47C803.086 1538.23 768.287 1504.61 736.883 1451.7C708.907 1404.58 686.021 1346.63 663.869 1290.56C630.489 1206.04 595.97 1118.67 542.794 1063.79C495.53 1015.01 449.185 976.111 408.307 941.796C333.183 878.734 278.903 833.169 281.89 777.192C285.245 714.368 361.229 640.084 544.139 520.787C688.326 426.75 747.014 493.049 814.972 569.817C862.11 623.059 915.526 683.413 1006.37 698.314C1123.78 717.575 1236.39 758.713 1323.47 814.151C1421.93 876.842 1480.05 953.005 1491.52 1034.42C1501.77 1107.21 1475.01 1182.95 1411.99 1259.58C1373.72 1306.11 1322.04 1352.88 1257.49 1399.5L1257.5 1399.51ZM1063.87 1515.9C1223.11 1430.66 1339.68 1343.87 1410.35 1257.97C1472.89 1181.91 1499.48 1106.83 1489.33 1034.79C1477.97 954.144 1420.22 878.573 1322.36 816.262C1235.53 760.974 1123.19 719.951 1006.05 700.732C914.457 685.699 860.761 625.037 813.378 571.521C779.723 533.508 747.947 497.601 707.302 483.43C662.166 467.698 610.682 480.223 545.268 522.882C363.072 641.709 287.411 715.425 284.096 777.345C281.174 832.037 335.067 877.271 409.651 939.878C450.578 974.227 496.964 1013.17 544.316 1062.03C597.829 1117.24 632.439 1204.86 665.904 1289.62C688.011 1345.58 710.867 1403.45 738.739 1450.39C769.867 1502.84 804.317 1536.15 844.015 1552.21C902.293 1575.79 974.211 1563.92 1063.86 1515.93L1063.87 1515.9Z" fill="white" fill-opacity="0.5"/>
<path d="M1277.61 1400.91C1219.78 1442.68 1151.44 1483.75 1072.93 1523.86C977.109 1572.84 900.337 1584.44 838.227 1559.34C796.784 1542.58 760.728 1508.7 728.009 1455.76C698.821 1408.52 674.641 1350.33 651.255 1294.06C617.286 1212.29 582.155 1127.76 529.83 1069.78C478.791 1013.25 427.746 969.962 382.713 931.777C310.031 870.14 257.514 825.602 260.508 769.881C263.976 705.39 343.086 627.931 533.549 502.523C681.411 405.162 740.384 474.474 808.673 554.728C857.731 612.392 913.345 677.738 1011.62 690.318C1132.32 705.756 1248.21 746.465 1337.94 804.947C1384.56 835.328 1422.54 869.478 1450.81 906.448C1480.9 945.8 1499.38 987.655 1505.75 1030.84C1517.11 1107.8 1490.25 1186.8 1425.94 1265.65C1388.71 1311.28 1339.11 1356.48 1277.61 1400.9V1400.91ZM1071.99 1521.68C1233.72 1439.03 1352.25 1352.34 1424.28 1264.04C1488.13 1185.77 1514.8 1107.45 1503.56 1031.24C1497.26 988.494 1478.92 947.033 1449.11 908.023C1421.01 871.265 1383.22 837.288 1336.81 807.043C1247.34 748.735 1131.77 708.15 1011.37 692.742C912.275 680.069 856.377 614.359 807.047 556.398C773.255 516.679 741.332 479.159 700.118 464.221C654.328 447.623 601.76 460.448 534.687 504.612C344.928 629.555 266.141 706.446 262.714 770.034C259.784 824.472 311.915 868.677 384.064 929.869C429.152 968.103 480.253 1011.44 531.389 1068.09C583.992 1126.37 619.206 1211.11 653.251 1293.06C676.596 1349.25 700.737 1407.35 729.823 1454.41C762.718 1507.65 797.401 1540.27 838.971 1557.08C900.493 1581.94 976.707 1570.36 1071.97 1521.69L1071.99 1521.68Z" fill="white" fill-opacity="0.5"/>
<path d="M1295.69 1403.74C1235.49 1447.22 1163.77 1489.29 1080.99 1529.64C1013.16 1562.71 955.416 1578.51 904.491 1577.95C858.826 1577.45 819.582 1563.71 784.514 1535.93C719.297 1484.26 679.678 1393.14 637.72 1296.68C603.431 1217.83 567.979 1136.29 516.835 1075.78C462.818 1011.86 407.478 964.7 358.65 923.083C287.454 862.411 236.022 818.574 238.977 762.81C242.502 696.559 324.759 615.85 522.936 484.246C674.622 383.497 733.94 455.879 802.621 539.694C853.493 601.783 911.156 672.142 1016.85 682.307C1141.39 694.284 1260.51 734.393 1352.26 795.265C1398.65 826.054 1436.56 861.066 1464.95 899.351C1494.69 939.476 1513.19 982.247 1519.95 1026.46C1525.91 1065.51 1522.59 1105.53 1510.09 1145.4C1496.82 1187.63 1473.13 1230.05 1439.64 1271.5C1403.09 1316.76 1354.98 1360.93 1295.7 1403.74H1295.69ZM431.976 549.87C300.655 644.718 244.069 708.894 241.199 762.966C238.308 817.446 289.359 860.963 360.016 921.18C408.905 962.853 464.332 1010.08 518.464 1074.13C569.838 1134.91 605.363 1216.62 639.726 1295.64C722.1 1485.07 799.908 1664 1080.09 1527.42C1244.08 1447.49 1364.49 1360.84 1437.97 1269.91C1471.25 1228.7 1494.8 1186.56 1507.95 1144.64C1520.34 1105.14 1523.64 1065.53 1517.74 1026.87C1511.06 983.074 1492.71 940.69 1463.21 900.899C1434.99 862.844 1397.27 827.998 1351.08 797.363C1259.62 736.695 1140.85 696.688 1016.63 684.75C910.065 674.502 852.09 603.757 800.943 541.343C766.963 499.88 734.876 460.72 693.05 444.985C646.568 427.504 592.876 440.647 524.072 486.352C490 508.98 459.343 530.103 431.958 549.883L431.976 549.87Z" fill="white" fill-opacity="0.5"/>
<path d="M1312.15 1407.67C1249.91 1452.62 1175.41 1495.31 1089.07 1535.43C1017.8 1568.55 957.224 1584.34 903.901 1583.75C855.992 1583.21 814.841 1569.35 778.102 1541.34C709.662 1489.17 667.687 1396.47 623.249 1298.32C588.937 1222.54 553.455 1144.2 503.861 1081.78C447.445 1010.8 385.469 957.912 335.669 915.414C265.3 855.367 214.465 811.988 217.366 755.956C220.895 687.883 306.351 603.874 512.337 465.989C667.974 361.804 727.67 437.304 796.781 524.725C849.379 591.245 908.982 666.637 1022.09 674.327C1150.78 683.068 1273.07 722.453 1366.45 785.217C1412.72 816.318 1450.62 852.109 1479.1 891.601C1508.54 932.423 1527.08 976.062 1534.15 1021.33C1540.58 1062.46 1537.41 1104.52 1524.72 1146.32C1511.33 1190.48 1487.23 1234.51 1453.12 1277.18C1416.95 1322.42 1369.83 1366.02 1312.15 1407.67ZM423.262 530.571C282.824 632.003 222.483 699.765 219.574 756.093C216.744 810.85 267.194 853.898 337.023 913.49C386.9 956.049 448.973 1009.02 505.524 1080.18C555.307 1142.82 590.857 1221.31 625.224 1297.23C669.54 1395.1 711.389 1487.52 779.361 1539.32C815.722 1567.04 856.458 1580.77 903.912 1581.31C956.931 1581.89 1017.21 1566.15 1088.19 1533.17C1174.41 1493.12 1248.81 1450.49 1310.93 1405.64C1368.43 1364.1 1415.39 1320.66 1451.44 1275.56C1485.36 1233.14 1509.31 1189.4 1522.62 1145.55C1535.19 1104.12 1538.33 1062.46 1531.96 1021.73C1524.93 976.876 1506.57 933.602 1477.35 893.101C1449.03 853.839 1411.32 818.232 1365.27 787.288C1272.19 724.719 1150.27 685.462 1021.94 676.75C907.907 669.001 847.973 593.193 795.09 526.311C760.907 483.074 728.615 442.227 686.142 425.706C638.944 407.345 584.087 420.805 513.479 468.061C480.329 490.257 450.305 511.039 423.253 530.578L423.262 530.571Z" fill="white" fill-opacity="0.5"/>
<path d="M1327.29 1412.44C1263.29 1458.67 1186.42 1501.7 1097.14 1541.19C1022.18 1574.34 958.608 1590.13 902.768 1589.46C852.492 1588.85 809.356 1574.82 770.911 1546.5C699.155 1493.69 654.754 1399.03 607.733 1298.78C573.727 1226.3 538.558 1151.32 490.885 1087.76C432.501 1009.92 366.483 953.674 313.442 908.466C243.42 848.795 192.823 805.68 195.652 749.22C199.15 679.263 287.827 591.908 501.728 447.695C661.404 340.039 721.504 418.684 791.095 509.746C845.326 580.721 906.797 661.154 1027.33 666.31C1095.13 669.204 1160.46 680.346 1221.47 699.426C1280.44 717.861 1333.96 743.23 1380.55 774.815C1474.19 838.325 1533.81 923.799 1548.4 1015.48C1562.57 1104.51 1534.22 1196.88 1466.41 1282.62C1430.37 1328.22 1383.86 1371.56 1327.3 1412.42L1327.29 1412.44ZM414.894 511.007C264.98 619.286 200.8 690.721 197.867 749.367C195.109 804.553 245.319 847.336 314.808 906.562C367.941 951.835 434.06 1008.18 492.606 1086.23C540.433 1149.99 575.653 1225.08 609.717 1297.69C656.601 1397.63 700.876 1492.03 772.16 1544.5C810.241 1572.53 852.977 1586.45 902.806 1587.03C958.342 1587.7 1021.64 1571.97 1096.32 1538.94C1185.45 1499.51 1262.22 1456.54 1326.08 1410.42C1382.49 1369.68 1428.81 1326.48 1464.74 1281.05C1532.09 1195.88 1560.26 1104.21 1546.21 1015.93C1531.73 924.936 1472.48 840.046 1379.38 776.911C1332.96 745.436 1279.63 720.162 1220.86 701.788C1160.01 682.763 1094.87 671.652 1027.24 668.763C905.728 663.573 843.923 582.696 789.395 511.338C754.973 466.294 722.461 423.757 679.33 406.432C631.394 387.176 575.333 400.954 502.889 449.798C470.77 471.453 441.471 491.828 414.892 511.024L414.894 511.007Z" fill="white" fill-opacity="0.5"/>
<path d="M1341.17 1417.85C1338.28 1419.93 1335.37 1422.02 1332.42 1424.08C1268.51 1469.08 1192.06 1510.42 1105.2 1546.96C1026.29 1580.18 959.509 1595.93 901.056 1595.15C848.274 1594.44 803.077 1580.15 762.875 1551.46C687.704 1497.81 640.773 1400.73 591.09 1297.96C557.738 1228.97 523.265 1157.65 477.895 1093.77C417.87 1009.25 347.939 949.861 291.749 902.139C221.709 842.64 171.103 799.662 173.835 742.646C177.274 670.78 269.196 580.049 491.103 429.441C654.905 318.282 715.437 400.093 785.519 494.82C841.334 570.255 904.589 655.747 1032.54 658.323C1103.04 659.735 1170.53 669.951 1233.12 688.699C1293.1 706.661 1347.43 732.062 1394.55 764.188C1487.79 827.748 1547.51 914.735 1562.68 1009.12C1577.73 1102.69 1548.96 1199.1 1479.49 1287.94C1443.72 1333.68 1397.2 1377.36 1341.16 1417.84L1341.17 1417.85ZM1104.41 1544.69C1191.13 1508.21 1267.43 1466.94 1331.21 1422.04C1391.01 1379.94 1440.33 1334.29 1477.81 1286.38C1546.84 1198.1 1575.43 1102.37 1560.52 1009.54C1545.44 915.859 1486.1 829.454 1393.4 766.261C1346.45 734.254 1292.33 708.952 1232.55 691.063C1170.15 672.373 1102.83 662.187 1032.51 660.773C903.532 658.184 839.924 572.219 783.81 496.374C749.144 449.512 716.393 405.254 672.58 387.127C623.881 366.98 566.596 381.089 492.292 431.523C271.085 581.64 179.473 671.828 176.066 742.797C173.394 798.545 223.615 841.19 293.124 900.227C349.408 948.042 419.457 1007.54 479.662 1092.28C525.145 1156.34 559.674 1227.76 593.071 1296.83C692.878 1503.29 779.07 1681.59 1104.42 1544.7L1104.41 1544.69Z" fill="white" fill-opacity="0.5"/>
<path d="M1354.33 1423.73C1350.57 1426.44 1346.77 1429.15 1342.92 1431.82C1278.05 1477.08 1200.79 1517.75 1113.29 1552.72C955.501 1615.78 841.331 1616.88 753.977 1556.15C675.282 1501.47 625.731 1401.44 573.266 1295.55C540.981 1230.38 507.595 1163 464.94 1099.76C403.519 1008.71 329.762 946.349 270.501 896.244C235.784 866.887 205.791 841.529 184.501 816.1C161.104 788.162 150.785 762.759 151.997 736.146C155.374 662.345 250.555 568.197 480.532 411.164C648.505 296.468 709.487 381.476 780.103 479.893C837.444 559.803 902.415 650.373 1037.82 650.316C1181.63 650.26 1309.83 685.874 1408.57 753.319C1501.58 816.844 1561.44 905.23 1577.11 1002.19C1592.97 1100.34 1563.68 1200.94 1492.42 1293.07C1456.47 1339.57 1410.06 1383.47 1354.33 1423.72V1423.73ZM1112.53 1550.45C1199.88 1515.54 1277 1474.94 1341.72 1429.77C1402.37 1387.48 1452.47 1340.96 1490.71 1291.53C1561.54 1199.95 1590.65 1100.05 1574.91 1002.63C1559.34 906.348 1499.85 818.544 1407.38 755.386C1308.98 688.185 1181.2 652.699 1037.81 652.743C901.336 652.797 836.001 561.732 778.349 481.394C743.417 432.7 710.422 386.713 665.9 367.785C616.439 346.748 557.906 361.191 481.683 413.23C252.398 569.777 157.521 663.371 154.2 736.272C151.624 792.665 202.054 835.305 271.855 894.32C331.227 944.52 405.122 1007 466.723 1098.32C509.472 1161.7 542.898 1229.16 575.21 1294.41C627.529 1400.02 676.946 1499.78 755.153 1554.11C841.878 1614.38 955.436 1613.22 1112.51 1550.45H1112.53Z" fill="white" fill-opacity="0.5"/>
<path d="M1366.74 1430.01C1362.29 1433.22 1357.77 1436.42 1353.21 1439.58C1287.4 1485.14 1209.39 1525.14 1121.36 1558.5C954.759 1621.63 834.892 1622.3 744.102 1560.6C706.481 1535.03 673.219 1498.93 639.416 1446.99C609.31 1400.71 582.496 1347.6 554.117 1291.38C523.325 1230.38 491.481 1167.3 451.968 1105.77C389.356 1008.28 311.825 943.102 249.545 890.723C214.608 861.352 184.447 835.982 162.969 810.414C139.362 782.306 128.908 756.679 130.069 729.739C133.347 653.987 231.816 556.401 469.927 392.897C642.12 274.659 703.586 362.855 774.75 464.982C833.556 549.378 900.211 645.036 1043.07 642.32C1191.35 639.508 1322.58 674.079 1422.55 742.309C1515.48 805.73 1575.52 895.42 1591.6 994.873C1599.64 1044.6 1596.67 1095.41 1582.77 1145.91C1568.27 1198.53 1542.17 1249.74 1505.15 1298.1C1468.88 1345.51 1422.36 1389.84 1366.76 1429.99L1366.74 1430.01ZM391.686 450.789C211.533 580.907 135.138 663.976 132.282 729.858C131.14 756.102 141.407 781.179 164.598 808.771C185.945 834.187 216.044 859.499 250.899 888.798C313.305 941.277 390.979 1006.59 453.79 1104.38C493.373 1166.01 525.245 1229.15 556.068 1290.2C613.691 1404.35 663.451 1502.93 745.28 1558.53C835.46 1619.83 954.723 1619.07 1120.64 1556.21C1208.51 1522.9 1286.37 1482.98 1352.03 1437.54C1413.47 1395 1464.43 1347.57 1503.45 1296.56C1540.27 1248.44 1566.24 1197.53 1580.64 1145.23C1594.44 1095.09 1597.41 1044.66 1589.43 995.323C1573.45 896.551 1513.77 807.432 1421.39 744.39C1321.78 676.417 1190.97 641.972 1043.11 644.777C899.132 647.504 832.116 551.335 772.995 466.481C737.782 415.953 704.526 368.232 659.311 348.481C609.056 326.547 549.258 341.32 471.123 394.973C442.681 414.497 416.23 433.091 391.707 450.803L391.686 450.789Z" fill="white" fill-opacity="0.5"/>
<path d="M1378.55 1436.6C1373.53 1440.22 1368.46 1443.79 1363.29 1447.34C1296.55 1493.2 1217.87 1532.55 1129.43 1564.28C1036.61 1597.57 958.933 1613.11 891.959 1611.8C830.78 1610.59 778.859 1595.21 733.218 1564.73C647.166 1507.28 594.516 1404.3 533.55 1285.06C504.729 1228.69 474.912 1170.39 438.978 1111.78C375.315 1007.92 294.078 940.037 228.8 885.486C193.571 856.049 163.148 830.621 141.437 804.886C117.553 776.585 106.951 750.687 108.074 723.396C109.673 684.319 135.299 641.091 188.722 587.337C243.974 531.738 332.486 462.161 459.296 374.634C635.761 252.828 697.708 344.245 769.432 450.086C829.672 538.979 897.945 639.729 1048.28 634.332C1201.06 628.845 1335.3 662.34 1436.5 731.171C1529.52 794.443 1589.77 885.375 1606.18 987.218C1614.54 1039.07 1611.5 1092.17 1597.15 1145.04C1582.25 1199.89 1555.51 1253.04 1517.68 1303.02C1480.96 1351.5 1434.2 1396.36 1378.53 1436.59L1378.55 1436.6ZM384.563 430.226C193.736 568.052 113.088 655.139 110.296 723.509C109.207 750.106 119.624 775.454 143.082 803.247C164.662 828.829 195.016 854.188 230.17 883.565C295.58 938.226 376.975 1006.25 440.84 1110.43C476.823 1169.12 506.654 1227.46 535.501 1283.9C596.314 1402.83 648.835 1505.55 734.381 1562.67C779.667 1592.91 831.231 1608.19 892.004 1609.38C958.722 1610.69 1036.16 1595.18 1128.73 1561.97C1216.99 1530.3 1295.51 1491.04 1362.1 1445.28C1424.34 1402.5 1476.11 1354.11 1515.98 1301.47C1553.62 1251.77 1580.23 1198.89 1595.03 1144.36C1609.29 1091.86 1612.3 1039.13 1604.01 987.643C1587.71 886.5 1527.81 796.139 1435.34 733.244C1334.52 664.665 1200.71 631.299 1048.37 636.774C896.871 642.207 828.229 540.91 767.662 451.539C732.171 399.158 698.644 349.683 652.695 329.137C601.649 306.305 540.578 321.415 460.488 376.7C433.464 395.358 408.149 413.19 384.553 430.233L384.563 430.226Z" fill="white" fill-opacity="0.5"/>
<path d="M1390 1443.19C1318.91 1494.53 1233.89 1537.39 1137.49 1570.05C1039.25 1603.34 957.461 1618.75 887.456 1617.19C823.132 1615.76 768.785 1599.85 721.302 1568.55C631.428 1509.32 575.848 1401.32 511.494 1276.27C485.152 1225.08 457.916 1172.16 426.03 1117.78C361.447 1007.63 276.524 937.139 208.283 880.491C138.71 822.738 83.7533 777.108 86.0591 717.111C87.5984 677.071 113.961 632.555 169.032 577.029C226.077 519.508 317.568 447.328 448.715 356.363C629.488 230.981 691.93 325.606 764.23 435.181C825.867 528.582 895.721 634.449 1053.55 626.333C1210.82 618.247 1348.09 650.626 1450.53 719.945C1497.7 751.869 1536.42 790.836 1565.61 835.775C1594.12 879.659 1612.73 927.935 1620.96 979.282C1638.6 1089.51 1606.32 1206.17 1530.1 1307.82C1492.77 1357.59 1445.65 1402.99 1390 1443.19ZM377.758 409.418C176.008 555.132 90.9923 646.335 88.2687 717.203C87.237 744.181 97.8192 769.802 121.578 797.83C143.434 823.605 174.105 849.072 209.609 878.543C277.989 935.31 363.092 1005.96 427.879 1116.45C459.803 1170.91 487.057 1223.85 513.408 1275.08C577.609 1399.83 633.06 1507.57 722.43 1566.47C769.571 1597.53 823.562 1613.34 887.479 1614.76C957.235 1616.32 1038.79 1600.92 1136.82 1567.72C1232.98 1535.13 1317.84 1492.37 1388.75 1441.14C1444.22 1401.08 1491.16 1355.85 1528.35 1306.27C1604.17 1205.19 1636.26 1089.2 1618.74 979.696C1610.57 928.712 1592.09 880.763 1563.77 837.178C1534.75 792.512 1496.25 753.763 1449.33 722.008C1347.26 652.941 1210.44 620.688 1053.62 628.759C894.583 636.93 824.353 530.504 762.395 436.593C726.611 382.358 692.801 331.134 646.133 309.769C594.283 286.047 531.916 301.497 449.863 358.401C424.331 376.114 400.288 393.1 377.72 409.401L377.758 409.418Z" fill="white" fill-opacity="0.5"/>
<path d="M1400.79 1450.31C1328.66 1502.39 1242.73 1544.81 1145.57 1575.81C1041.41 1609.06 955.238 1624.32 882.139 1622.49C814.491 1620.79 757.628 1604.29 708.282 1572.02C665.267 1543.9 627.275 1503.73 588.726 1445.56C553.992 1393.16 521.833 1330.68 487.798 1264.54C464.511 1219.29 440.436 1172.5 413.056 1123.78C347.648 1007.4 259.069 934.36 187.883 875.674C117.435 817.592 61.8025 771.723 63.992 710.848C65.465 669.838 92.5725 624.041 149.288 566.745C208.136 507.296 302.6 432.503 438.1 338.102C623.205 209.141 686.155 306.994 759.048 420.29C822.041 518.214 893.445 629.193 1058.79 618.343C1220.55 607.722 1360.88 638.962 1464.58 708.679C1512.13 740.635 1551.09 779.975 1580.44 825.605C1608.9 869.893 1627.55 918.857 1635.83 971.165C1653.99 1085.8 1620.78 1207.04 1542.33 1312.55C1504.29 1363.72 1456.67 1409.93 1400.77 1450.3L1400.79 1450.31ZM371.255 388.362C158.315 542.159 68.8475 637.537 66.211 710.934C64.0672 770.538 119.298 816.072 189.225 873.73C260.554 932.544 349.33 1005.74 414.96 1122.51C442.366 1171.27 466.444 1218.08 489.753 1263.35C627.962 1531.92 719.283 1709.35 1144.96 1573.48C1316.98 1518.58 1453.79 1427.81 1540.63 1311.01C1618.67 1206.04 1651.71 1085.5 1633.65 971.566C1625.43 919.628 1606.91 870.988 1578.63 826.998C1549.47 781.644 1510.71 742.528 1463.42 710.752C1360.1 641.298 1220.22 610.184 1058.93 620.777C892.341 631.708 820.568 520.137 757.238 421.699C721.145 365.604 687.067 312.611 639.651 290.446C586.992 265.823 523.318 281.62 439.284 340.158C415.34 356.842 392.653 372.922 371.243 388.385L371.255 388.362Z" fill="white" fill-opacity="0.5"/>
<path d="M1411.18 1457.57C1338.08 1510.36 1251.33 1552.31 1153.64 1581.6C940.683 1645.46 798.975 1643.45 694.158 1575.16C596.352 1511.43 537.238 1395.78 462.394 1249.36C442.77 1210.99 422.487 1171.28 400.098 1129.8C333.954 1007.2 241.72 931.691 167.607 871.015C96.2091 812.571 39.8237 766.401 41.8942 704.622C43.3038 662.625 71.1465 615.554 129.525 556.473C190.163 495.093 287.639 417.687 427.513 319.822C616.992 187.264 680.452 288.346 753.94 405.388C818.265 507.839 891.182 623.956 1064.05 610.338C1149.95 603.569 1229.8 608.193 1301.37 624.057C1368.39 638.922 1428.06 663.576 1478.71 697.352C1526.67 729.342 1565.94 769.019 1595.43 815.298C1623.9 859.97 1642.54 909.621 1650.88 962.865C1659.98 1021.05 1656.46 1081.08 1640.4 1141.29C1623.95 1202.98 1595.04 1262.16 1554.46 1317.18C1515.6 1369.86 1467.43 1416.93 1411.18 1457.56V1457.57ZM1153.07 1579.24C1325.49 1527.55 1463.68 1436.41 1552.74 1315.66C1593.13 1260.89 1621.91 1201.99 1638.27 1140.62C1654.22 1080.78 1657.73 1021.11 1648.69 963.29C1640.41 910.406 1621.89 861.088 1593.6 816.704C1564.3 770.703 1525.23 731.249 1477.55 699.442C1427.13 665.812 1367.69 641.257 1300.93 626.447C1229.55 610.621 1149.91 606.016 1064.21 612.77C890.06 626.485 816.775 509.759 752.111 406.767C715.719 348.807 681.338 294.052 633.193 271.075C579.711 245.547 514.729 261.691 428.707 321.871C158.312 511.037 46.8991 621.959 44.1132 704.708C42.0823 765.206 98.0659 811.04 168.943 869.061C243.215 929.87 335.646 1005.53 402.015 1128.55C424.423 1170.07 444.713 1209.77 464.342 1248.16C539.021 1394.26 598.006 1509.65 695.306 1573.04C799.559 1640.97 940.741 1642.88 1153.07 1579.23V1579.24Z" fill="white" fill-opacity="0.5"/>
<path d="M1421.18 1464.82C1414.82 1469.41 1408.36 1473.92 1401.78 1478.35C1331.53 1525.7 1250.75 1562.37 1161.71 1587.37C683.071 1721.72 595.025 1547.12 435.175 1230.15C419.876 1199.82 404.056 1168.45 387.125 1135.8C320.313 1007.03 224.444 929.102 147.41 866.489C74.9922 807.631 17.7956 761.13 19.7502 698.431C21.0934 655.461 49.6745 607.101 109.712 546.226C172.16 482.911 272.644 402.882 416.883 301.559C610.746 165.398 674.736 269.72 748.838 390.498C814.47 497.479 888.856 618.75 1069.28 602.348C1157.67 594.312 1239.54 598.023 1312.62 613.356C1380.93 627.695 1441.59 652.149 1492.89 686.056C1541.32 718.061 1580.91 758.075 1610.57 804.977C1639.06 850.041 1657.73 900.364 1666.05 954.53C1675.32 1014.75 1671.53 1077.11 1654.81 1139.81C1637.75 1203.79 1608.01 1265.01 1566.43 1321.8C1527.08 1375.54 1478.27 1423.57 1421.17 1464.82H1421.18ZM359.131 345.57C123.067 516.069 24.4159 620.016 21.9784 698.51C20.0634 759.929 76.8522 806.084 148.746 864.534C225.939 927.28 322.017 1005.37 389.063 1134.61C406.01 1167.26 421.827 1198.64 437.125 1228.98C516.213 1385.79 578.682 1509.66 680.057 1575.85C732.709 1610.22 794.522 1628.06 869.024 1630.36C948.177 1632.82 1043.74 1617.98 1161.17 1585.02C1250 1560.09 1330.56 1523.5 1400.63 1476.29C1465.94 1432.3 1521.13 1379.8 1564.71 1320.28C1606.12 1263.75 1635.72 1202.81 1652.7 1139.14C1669.33 1076.78 1673.1 1014.8 1663.88 954.93C1655.61 901.107 1637.06 851.119 1608.76 806.353C1579.29 759.728 1539.93 719.952 1491.77 688.137C1440.69 654.384 1380.28 630.031 1312.23 615.74C1239.34 600.453 1157.68 596.752 1069.5 604.774C887.771 621.296 812.996 499.402 747.023 391.853C710.315 332.024 675.64 275.502 626.736 251.705C572.42 225.279 506.133 241.769 418.101 303.604C397.567 318.027 377.915 332.017 359.137 345.579L359.131 345.57Z" fill="white" fill-opacity="0.5"/>
<path d="M1431.01 1472.14C1424.45 1476.88 1417.78 1481.53 1410.99 1486.09C1339.89 1533.84 1258.74 1569.86 1169.78 1593.14C1044.49 1625.93 943.513 1640.52 861.102 1637.75C782.282 1635.1 717.353 1616.33 662.599 1580.35C556.54 1510.64 493.442 1382.95 406.106 1206.22C395.824 1185.42 385.201 1163.91 374.156 1141.82C306.723 1006.87 207.236 926.58 127.29 862.066C53.7963 802.749 -4.25758 755.905 -2.4158 692.268C-1.14521 648.318 28.1836 598.661 89.8846 536.002C154.137 470.757 257.63 388.09 406.283 283.301C604.549 143.524 669.078 251.082 743.799 375.62C810.708 487.152 886.559 613.568 1074.54 594.362C1165.41 585.085 1249.3 587.873 1323.9 602.678C1393.53 616.481 1455.2 640.741 1507.19 674.757C1556.12 706.772 1596.06 747.108 1625.87 794.618C1654.41 840.076 1673.09 891.049 1681.41 946.146C1690.8 1008.4 1686.72 1073.04 1669.26 1138.28C1651.52 1204.53 1620.92 1267.81 1578.29 1326.38C1538.11 1381.59 1488.62 1430.55 1431 1472.17L1431.01 1472.14ZM1169.27 1590.76C1258 1567.54 1338.94 1531.62 1409.83 1484C1475.86 1439.67 1531.96 1386.11 1576.56 1324.84C1619 1266.52 1649.47 1203.52 1667.13 1137.56C1684.48 1072.67 1688.56 1008.4 1679.21 946.512C1670.95 891.772 1652.39 841.123 1624.04 795.97C1594.4 748.744 1554.71 708.655 1506.05 676.818C1454.29 642.951 1392.88 618.807 1323.5 605.045C1249.11 590.285 1165.41 587.498 1074.74 596.759C885.436 616.096 809.201 489.041 741.942 376.932C704.914 315.224 669.945 256.934 620.287 232.327C565.148 204.997 497.529 221.839 407.483 285.316C120.408 487.71 2.29606 605.61 -0.205898 692.317C-2.00199 754.684 55.6348 801.187 128.607 860.082C208.719 924.737 308.43 1005.2 376.095 1140.62C387.13 1162.72 397.768 1184.24 408.052 1205.03C495.215 1381.44 558.2 1508.88 663.732 1578.23C718.142 1614 782.725 1632.65 861.153 1635.3C943.363 1638.07 1044.15 1623.5 1169.26 1590.76H1169.27Z" fill="white" fill-opacity="0.5"/>
<path d="M1440.63 1479.52C1433.88 1484.39 1427.04 1489.15 1420.08 1493.81C1348.14 1541.97 1266.66 1577.32 1177.86 1598.89C1044.18 1631.36 937.727 1645.66 852.439 1642.6C769.484 1639.61 701.722 1619.93 645.285 1582.41C535.006 1509.11 467.967 1369.73 375.18 1176.83C370.589 1167.29 365.936 1157.61 361.211 1147.81C293.208 1006.7 190.112 924.084 107.261 857.709C32.6465 797.92 -26.3045 750.692 -24.5877 686.096C-23.3989 641.172 6.68346 590.228 70.061 525.761C136.125 458.581 242.634 373.284 395.689 265.01C473.832 209.737 536.631 188.734 587.674 200.811C654.119 216.539 695.244 286.57 738.795 360.717C806.969 476.795 884.239 608.372 1079.8 586.351C1173.14 575.84 1259.09 577.737 1335.22 592C1406.21 605.291 1468.91 629.328 1521.59 663.45C1571.07 695.48 1611.37 736.124 1641.38 784.239C1669.96 830.079 1688.66 881.722 1696.94 937.729C1716.09 1067.35 1677.14 1210.65 1590.07 1330.89C1549.02 1387.58 1498.81 1437.5 1440.62 1479.53L1440.63 1479.52ZM348.177 301.875C87.9979 489.79 -20.1513 602.534 -22.3748 686.173C-24.0521 749.486 34.4725 796.382 108.566 855.747C191.598 922.269 294.924 1005.07 363.161 1146.68C367.886 1156.48 372.541 1166.14 377.13 1175.68C469.75 1368.26 536.675 1507.37 646.427 1580.33C702.529 1617.63 769.945 1637.19 852.509 1640.17C937.612 1643.25 1043.88 1628.95 1177.38 1596.53C1265.95 1575.01 1347.21 1539.77 1418.92 1491.75C1485.69 1447.05 1542.68 1392.43 1588.34 1329.37C1675.02 1209.67 1713.79 1067.07 1694.75 938.115C1686.52 882.462 1667.95 831.153 1639.55 785.601C1609.74 737.784 1569.67 697.394 1520.47 665.54C1468.02 631.569 1405.56 607.631 1334.85 594.391C1258.92 580.172 1173.19 578.287 1080.04 588.773C883.123 610.954 805.464 478.711 736.945 362.038C693.658 288.329 652.767 218.71 587.22 203.192C536.776 191.25 474.526 212.146 396.909 267.055C380.12 278.934 363.862 290.546 348.186 301.867L348.177 301.875Z" fill="white" fill-opacity="0.5"/>
<path d="M1450.04 1486.96C1443.14 1491.94 1436.15 1496.81 1429.02 1501.56C1356.29 1550.12 1274.49 1584.82 1185.94 1604.67C906.301 1667.39 745.341 1662.1 630.378 1586.42C577.282 1551.47 530.623 1499.15 483.563 1421.7C441.3 1352.19 402.55 1270.51 348.243 1153.82C279.711 1006.56 173.005 921.665 87.2537 853.453C11.4683 793.156 -48.395 745.538 -46.8001 679.968C-45.6839 634.062 -14.8632 581.828 50.2031 515.574C118.08 446.459 227.629 358.529 385.089 246.753C464.944 190.083 528.975 168.613 580.866 181.125C648.417 197.408 689.9 269.511 733.816 345.854C803.234 466.492 881.907 603.243 1085.05 578.382C1180.88 566.658 1268.86 567.66 1346.54 581.386C1418.91 594.164 1482.68 617.994 1536.1 652.205C1586.15 684.271 1626.84 725.212 1657.03 773.912C1685.69 820.156 1704.39 872.467 1712.61 929.39C1731.88 1062.97 1691.48 1210.96 1601.75 1335.41C1559.77 1393.63 1508.82 1444.52 1450.05 1486.97L1450.04 1486.96ZM1185.48 1602.29C1273.8 1582.48 1355.35 1547.9 1427.86 1499.49C1495.35 1454.44 1553.27 1398.72 1599.99 1333.89C1689.33 1209.96 1729.58 1062.67 1710.41 929.756C1702.24 873.187 1683.67 821.21 1655.2 775.264C1625.2 726.88 1584.74 686.174 1534.98 654.29C1481.81 620.226 1418.3 596.499 1346.2 583.764C1268.71 570.074 1180.92 569.071 1085.29 580.77C880.763 605.802 801.696 468.374 731.936 347.125C688.264 271.232 647.023 199.552 580.384 183.482C529.106 171.125 465.616 192.48 386.297 248.779C228.932 360.47 119.488 448.31 51.7158 517.334C-12.8773 583.116 -43.4772 634.812 -44.5749 680.02C-46.1363 744.3 13.3068 791.594 88.5616 851.475C174.5 919.842 281.457 1004.94 350.222 1152.72C404.486 1269.33 443.213 1350.95 485.41 1420.35C532.29 1497.47 578.719 1549.58 631.523 1584.33C745.967 1659.65 906.463 1664.85 1185.48 1602.28V1602.29Z" fill="white" fill-opacity="0.5"/>
<path d="M1459.31 1494.39C1452.26 1499.47 1445.12 1504.44 1437.86 1509.27C1364.31 1558.24 1282.27 1592.28 1194 1610.42C1045.32 1641.01 934.462 1654.33 845.104 1652.33C753.677 1650.32 683.255 1632.33 623.484 1595.77C568.011 1561.84 520.031 1510.36 472.502 1433.76C429.957 1365.18 389.962 1281.38 335.258 1159.81C266.233 1006.42 155.913 919.246 67.274 849.22C-9.70347 788.401 -70.513 740.36 -69.0399 673.815C-68.0055 626.935 -36.4279 573.397 30.3209 505.346C100.01 434.296 212.586 343.73 374.481 228.459C456.046 170.392 521.327 148.456 574.053 161.385C642.716 178.234 684.555 252.408 728.856 330.934C799.501 456.145 879.56 598.067 1090.31 570.351C1188.62 557.423 1278.68 557.558 1357.94 570.753C1431.72 583.033 1496.59 606.659 1550.73 640.966C1601.39 673.061 1642.48 714.323 1672.85 763.598C1701.62 810.257 1720.32 863.237 1728.45 921.079C1737.88 988.214 1732.46 1061.65 1712.77 1133.44C1692.75 1206.48 1659.29 1275.93 1613.34 1339.89C1570.42 1399.62 1518.69 1451.51 1459.31 1494.39ZM339.564 256.415C197.005 359.379 96.13 441.583 31.8366 507.133C-34.4392 574.712 -65.7927 627.696 -66.8178 673.885C-68.2606 739.156 -7.87738 786.864 68.5786 847.259C157.421 917.446 267.985 1004.8 337.26 1158.74C391.918 1280.22 431.874 1363.93 474.352 1432.4C521.685 1508.67 569.414 1559.91 624.571 1593.65C684.01 1630.01 754.1 1647.89 845.151 1649.9C934.345 1651.87 1045.07 1638.57 1193.6 1608.03C1281.59 1589.93 1363.38 1556.01 1436.7 1507.18C1504.89 1461.77 1563.73 1404.98 1611.59 1338.38C1657.37 1274.65 1690.69 1205.47 1710.64 1132.73C1730.23 1061.28 1735.64 988.214 1726.25 921.434C1718.17 863.956 1699.59 811.301 1671.01 764.947C1640.81 715.976 1599.97 674.971 1549.61 643.056C1495.7 608.899 1431.1 585.374 1357.59 573.141C1278.53 559.98 1188.69 559.85 1090.57 572.752C878.418 600.652 797.963 458.027 726.969 332.194C704.385 292.168 683.06 254.361 658.748 224.245C631.54 190.557 604.477 171.322 573.572 163.741C521.46 150.951 456.729 172.782 375.697 230.478C363.367 239.253 351.317 247.896 339.561 256.388L339.564 256.415Z" fill="white" fill-opacity="0.5"/>
<path d="M1468.53 1501.77C1389.56 1558.83 1299.02 1598.06 1202.07 1616.19C1047.65 1645.09 934.048 1658.07 844.572 1657.06C749.764 1655.98 677.32 1639.43 616.585 1604.98C558.748 1572.16 509.448 1521.57 461.447 1445.77C415.672 1373.49 372.723 1281.59 322.312 1165.84C252.828 1006.3 138.895 916.908 47.3647 845.083C-30.8476 783.714 -92.6188 735.246 -91.2645 667.712C-90.3027 619.85 -57.9866 565.021 10.4447 495.172C81.9466 422.188 197.55 328.968 363.897 210.206C447.183 150.736 513.706 128.325 567.281 141.689C637.064 159.097 679.26 235.342 723.952 316.061C795.797 445.848 877.234 592.949 1095.58 562.378C1196.41 548.261 1288.53 547.527 1369.39 560.194C1444.61 571.979 1510.58 595.409 1565.5 629.819C1616.79 661.96 1658.3 703.535 1688.88 753.398C1717.74 800.486 1736.45 854.148 1744.46 912.91C1753.87 981.895 1747.94 1057.63 1727.34 1131.9C1706.77 1206.09 1671.33 1279.56 1624.86 1344.4C1580.74 1405.99 1527.9 1458.91 1468.53 1501.78V1501.77ZM334.936 233.903C184.79 342.347 78.96 428.552 11.9542 496.95C-56.0132 566.333 -88.1052 620.607 -89.0484 667.77C-90.3786 734.022 -29.0184 782.159 48.6632 843.112C140.411 915.099 254.589 1004.68 324.326 1164.8C374.691 1280.45 417.604 1372.24 463.284 1444.39C511.068 1519.84 560.109 1570.2 617.619 1602.83C678.035 1637.11 750.166 1653.57 844.608 1654.64C933.949 1655.65 1047.42 1642.7 1201.71 1613.81C1370.97 1582.14 1520.62 1485.94 1623.11 1342.91C1669.4 1278.28 1704.7 1205.09 1725.21 1131.18C1745.72 1057.25 1751.61 981.895 1742.25 913.267C1734.28 854.865 1715.7 801.537 1687.01 754.753C1656.64 705.204 1615.37 663.878 1564.38 631.936C1509.71 597.677 1443.99 574.358 1369.07 562.612C1288.41 549.973 1196.48 550.704 1095.86 564.8C997.803 578.524 918.498 557.716 853.413 501.189C796.423 451.699 758.613 383.395 722.046 317.334C699.265 276.184 677.753 237.319 653.151 206.349C625.634 171.706 598.195 151.912 566.777 144.077C513.815 130.868 447.849 153.167 365.1 212.248C354.864 219.554 344.794 226.784 334.936 233.903Z" fill="white" fill-opacity="0.5"/>
<path d="M1477.48 1509.4C1397.68 1567.04 1306.84 1605.67 1210.14 1621.98C1046.92 1649.49 934.017 1661.7 844.028 1661.58C745.725 1661.46 671.253 1646.33 609.659 1613.98C486.155 1549.14 411.626 1414.2 309.348 1171.84C239.42 1006.15 121.887 914.562 27.4581 840.973C-52.0106 779.04 -114.78 730.129 -113.554 661.595C-112.656 612.76 -79.5855 556.644 -9.46854 484.981C63.8457 410.062 182.499 314.203 353.27 191.925C438.268 131.059 506.048 108.176 560.464 121.966C592.877 130.175 621.08 150.771 649.228 186.792C674.225 218.774 695.977 258.789 719.004 301.16C792.036 435.521 874.822 587.819 1100.8 554.357C1204.15 539.06 1298.37 537.465 1380.86 549.629C1457.53 560.926 1524.65 584.164 1580.34 618.678C1632.29 650.871 1674.24 692.78 1705 743.232C1733.99 790.758 1752.68 845.112 1760.57 904.81C1769.92 975.637 1763.47 1053.62 1741.91 1130.36C1720.44 1206.71 1683.93 1282.27 1636.27 1348.89C1591.02 1412.16 1537.34 1466.14 1477.45 1509.4H1477.48ZM1209.81 1619.56C1378.54 1591.11 1529.38 1494.47 1634.55 1347.39C1682.03 1281.01 1718.42 1205.7 1739.8 1129.65C1761.26 1053.25 1767.7 975.625 1758.39 905.162C1750.55 845.835 1731.98 791.806 1703.18 744.594C1672.61 694.457 1630.91 652.814 1579.27 620.806C1523.82 586.445 1456.98 563.309 1380.58 552.047C1298.29 539.918 1204.26 541.514 1101.11 556.785C999.645 571.806 917.876 550.769 851.119 492.482C792.686 441.458 754.254 370.777 717.102 302.418C694.122 260.144 672.418 220.209 647.543 188.388C619.716 152.789 591.886 132.434 559.97 124.347C506.167 110.711 438.958 133.486 354.489 193.971C183.82 316.174 65.2625 411.95 -7.95284 486.769C-77.6028 557.949 -110.458 613.517 -111.337 661.655C-112.53 728.898 -50.1814 777.486 28.7475 839.008C123.394 912.76 241.185 1004.56 311.362 1170.85C413.422 1412.66 487.731 1547.27 610.619 1611.81C671.901 1643.99 746.075 1659.04 844.033 1659.17C933.902 1659.29 1046.71 1647.07 1209.8 1619.59L1209.81 1619.56Z" fill="white" fill-opacity="0.5"/>
<path d="M1486.42 1516.71C1405.17 1575.39 1313.65 1613.42 1218.21 1627.74C1044.71 1653.78 932.645 1665.19 843.492 1665.91C741.568 1666.72 665.058 1653.02 602.734 1622.82C540.168 1592.49 488.229 1543.79 439.249 1469.56C395.909 1403.85 353.184 1316.62 296.387 1177.87C226.04 1006.04 104.918 912.26 7.58246 836.913C-73.1582 774.414 -136.929 725.034 -135.832 655.505C-135.02 605.694 -101.203 548.281 -29.3786 474.817C45.7482 397.963 167.442 299.471 342.671 173.668C429.395 111.41 498.419 88.051 553.694 102.253C586.621 110.718 615.211 131.892 643.679 168.863C668.954 201.704 690.9 242.789 714.133 286.277C788.348 425.229 872.463 582.71 1106.07 546.375C1254.63 523.264 1383 527.766 1487.59 559.772C1582.09 588.688 1655.66 639.304 1706.25 710.222C1750.35 772.045 1775.18 846.391 1780.04 931.174C1784.6 1010.7 1770.65 1096.88 1739.66 1180.4C1719.55 1234.65 1692.74 1286.87 1659.97 1335.67C1626.35 1385.71 1587.16 1431.07 1543.49 1470.49C1525.12 1487.07 1506.05 1502.49 1486.38 1516.69L1486.42 1516.71ZM326.445 188.27C160.66 308.009 44.6663 402.413 -27.8537 476.598C-99.2015 549.573 -132.798 606.447 -133.598 655.55C-134.68 723.802 -71.3258 772.844 8.87486 834.931C106.419 910.448 227.824 1004.42 298.423 1176.89C355.153 1315.48 397.815 1402.59 441.052 1468.13C489.783 1542.01 541.439 1590.46 603.63 1620.59C665.668 1650.66 741.886 1664.29 843.481 1663.48C932.529 1662.77 1044.51 1651.37 1217.91 1625.35C1313.01 1611.07 1404.23 1573.15 1485.19 1514.68C1504.8 1500.52 1523.79 1485.16 1542.13 1468.63C1585.65 1429.33 1624.71 1384.13 1658.21 1334.23C1690.86 1285.61 1717.6 1233.55 1737.64 1179.5C1768.49 1096.31 1782.4 1010.48 1777.86 931.323C1773.01 847.037 1748.34 773.147 1704.53 711.713C1654.23 641.21 1581.05 590.883 1487.01 562.108C1382.71 530.195 1254.67 525.711 1106.41 548.776C1001.55 565.086 917.316 543.837 848.902 483.79C789.018 431.239 749.984 358.169 712.244 287.511C689.059 244.104 667.16 203.117 642.007 170.435C613.869 133.88 585.647 112.964 553.209 104.628C498.561 90.5835 430.104 113.823 343.908 175.7C338.041 179.909 332.198 184.114 326.454 188.263L326.445 188.27Z" fill="white" fill-opacity="0.5"/>
<path d="M1495.22 1524.2C1413.03 1583.57 1321.26 1621.02 1226.29 1633.51C1064.41 1654.8 943.814 1668.35 842.972 1670C735.829 1671.78 659.59 1659.88 595.8 1631.43C530.885 1602.49 477.607 1554.79 428.136 1481.32C383.442 1414.95 338.82 1323.21 283.438 1183.87C212.742 1005.99 87.7149 909.458 -12.7446 831.883C-95.351 768.097 -160.607 717.708 -159.402 646.73C-158.508 595.858 -123.759 537.278 -50.0235 462.374C27.1943 383.937 152.188 283.527 332.098 155.392C420.852 92.1754 491.333 68.6539 547.567 83.4746C581.051 92.2921 610.033 114.072 638.795 151.995C664.332 185.667 686.421 227.74 709.804 272.271C784.951 415.396 870.125 577.615 1111.35 538.385C1263.46 513.635 1394.56 517.154 1501.02 548.84C1597.08 577.44 1671.65 628.29 1722.67 699.99C1745.37 731.884 1763.18 767.858 1775.62 806.886C1787.58 844.412 1794.63 884.952 1796.6 927.382C1800.38 1009.26 1785.07 1098.08 1752.28 1184.25C1731.24 1239.55 1703.53 1292.76 1669.92 1342.36C1635.48 1393.21 1595.61 1439.1 1551.42 1478.83C1533.28 1495.14 1514.51 1510.28 1495.22 1524.2ZM293.448 186C134.861 300.54 22.7607 391.739 -48.5232 464.159C-121.792 538.579 -156.311 596.615 -157.192 646.779C-158.373 716.472 -93.5433 766.53 -11.4677 829.898C89.2159 907.646 214.522 1004.4 285.471 1182.9C340.773 1322.07 385.326 1413.66 429.913 1479.87C479.132 1552.97 532.107 1600.41 596.629 1629.19C660.131 1657.51 736.093 1669.35 842.931 1667.57C943.676 1665.91 1064.21 1652.38 1226.02 1631.11C1320.64 1618.66 1412.11 1581.32 1493.99 1522.19C1513.23 1508.3 1531.9 1493.22 1549.99 1476.96C1594.05 1437.38 1633.8 1391.61 1668.12 1340.93C1701.62 1291.47 1729.24 1238.45 1750.22 1183.32C1782.88 1097.49 1798.14 1009.03 1794.37 927.505C1792.41 885.305 1785.4 844.983 1773.5 807.684C1761.15 768.902 1743.45 733.165 1720.91 701.48C1670.2 630.201 1596.02 579.639 1500.42 551.18C1394.27 519.589 1263.48 516.085 1111.66 540.779C1003.38 558.393 916.752 537.009 846.815 475.428C785.597 421.524 746.078 346.256 707.865 273.467C684.531 229.017 662.488 187.043 637.073 153.529C608.633 116.03 580.025 94.5183 547.03 85.8272C491.414 71.1718 421.507 94.5852 333.289 157.412C319.709 167.09 306.412 176.622 293.451 185.983L293.448 186Z" fill="white" fill-opacity="0.5"/>
<path d="M1503.98 1531.69C1420.87 1591.73 1328.82 1628.61 1234.35 1639.28C901.321 1676.91 721.361 1694.02 588.846 1639.85C521.56 1612.37 466.95 1565.7 416.981 1493.01C370.507 1425.41 325.316 1331.92 270.471 1189.89C199.384 1005.83 70.7858 907.2 -32.5566 827.952C-116.417 763.63 -182.656 712.844 -181.593 640.894C-180.81 589.051 -145.32 529.164 -69.9101 452.426C9.09244 372.031 137.121 268.89 321.467 137.127C411.925 72.4782 483.639 48.4439 540.71 63.6631C574.718 72.7298 604.085 95.0616 633.162 133.949C658.993 168.487 681.274 211.629 704.874 257.313C781.199 405.062 867.703 572.537 1116.57 530.401C1272.32 504.026 1406.21 506.576 1514.54 537.955C1612.22 566.26 1687.81 617.394 1739.24 689.923C1762.4 722.589 1780.45 759.535 1792.88 799.746C1804.81 838.326 1811.65 880.079 1813.18 923.862C1816.14 1008.12 1799.39 1099.62 1764.71 1188.44C1742.73 1244.78 1714.1 1298.91 1679.67 1349.29C1644.4 1400.87 1603.85 1447.29 1559.15 1487.26C1541.27 1503.24 1522.85 1518.08 1503.97 1531.71L1503.98 1531.69ZM291.605 161.491C123.949 282.581 6.0162 378.488 -68.3913 454.197C-143.333 530.452 -178.594 589.795 -179.371 640.92C-180.415 711.574 -114.599 762.055 -31.2764 825.949C72.296 905.382 201.182 1004.23 272.515 1188.94C327.292 1330.78 372.401 1424.11 418.76 1491.55C468.464 1563.87 522.764 1610.25 589.632 1637.59C721.68 1691.55 901.446 1674.45 1234.14 1636.87C1349.6 1623.81 1461.51 1571.43 1557.75 1485.35C1602.32 1445.52 1642.73 1399.23 1677.89 1347.82C1712.23 1297.59 1740.76 1243.64 1762.68 1187.48C1797.23 1098.98 1813.93 1007.86 1810.97 923.945C1809.44 880.4 1802.65 838.868 1790.79 800.513C1778.44 760.565 1760.52 723.856 1737.5 691.401C1686.38 619.3 1611.18 568.466 1513.97 540.295C1405.95 508.991 1272.36 506.466 1116.92 532.786C1005.23 551.702 916.134 530.09 844.526 466.73C781.86 411.282 741.742 333.607 702.945 258.503C679.391 212.917 657.159 169.855 631.456 135.488C602.7 97.0217 573.691 74.956 540.189 66.0206C483.735 50.9655 412.594 74.8916 322.675 139.153C312.138 146.689 301.754 154.147 291.591 161.487L291.605 161.491Z" fill="white" fill-opacity="0.5"/>
<path d="M1512.75 1539.14C1428.68 1599.85 1336.36 1636.17 1242.44 1645.04C1217.48 1647.39 1193.28 1649.71 1169.82 1651.96C874.283 1680.25 695.893 1697.32 566.213 1641.8C501.315 1614.01 448.513 1567.73 400.028 1496.19C353.899 1428.12 309.946 1335.49 257.513 1195.9C186.014 1005.54 54.208 905.591 -51.7001 825.285C-136.137 761.263 -202.832 710.69 -202.173 638.281C-201.68 585.593 -165.675 524.242 -88.8609 445.224C-8.38557 362.439 122.37 255.684 310.865 118.843C402.893 52.5647 475.773 27.907 533.65 43.447C568.157 52.7057 597.926 75.5916 627.335 115.449C653.452 150.856 675.965 195.113 699.793 241.971C739.106 319.28 779.768 399.225 843.586 456.01C916.388 520.778 1007.4 542.488 1121.85 522.384C1281.26 494.377 1418 495.962 1528.24 527.094C1627.57 555.146 1704.22 606.577 1756.07 679.973C1779.68 713.415 1797.95 751.36 1810.36 792.758C1822.23 832.407 1828.8 875.398 1829.89 920.56C1831.97 1007.26 1813.69 1101.45 1777.04 1192.95C1754.09 1250.27 1724.56 1305.25 1689.27 1356.35C1653.17 1408.63 1611.97 1455.51 1566.79 1495.7C1549.23 1511.32 1531.17 1525.82 1512.74 1539.13L1512.75 1539.14ZM1242.24 1642.63C1356.32 1631.86 1468.07 1580.41 1565.39 1493.82C1610.44 1453.75 1651.52 1407.01 1687.5 1354.89C1722.67 1303.94 1752.13 1249.13 1775.01 1191.98C1811.54 1100.81 1829.74 1006.96 1827.67 920.633C1826.6 875.71 1820.06 832.944 1808.25 793.522C1795.92 752.377 1777.79 714.673 1754.31 681.457C1702.78 608.491 1626.53 557.352 1527.69 529.444C1417.74 498.394 1281.32 496.827 1122.2 524.779C1007.09 544.998 915.509 523.116 842.193 457.89C778.038 400.809 737.277 320.658 697.857 243.15C674.075 196.39 651.611 152.215 625.613 116.983C596.532 77.559 567.139 54.9404 533.135 45.8142C475.892 30.4419 403.583 54.9915 312.103 120.876C123.71 257.642 -6.94107 364.307 -87.3267 446.998C-163.673 525.534 -199.461 586.32 -199.941 638.299C-200.598 709.411 -134.323 759.661 -50.4352 823.278C2.02031 863.058 61.4702 908.135 116.899 967.24C181.017 1035.6 227.684 1110.09 259.564 1194.96C311.922 1334.35 355.784 1426.81 401.801 1494.72C450.02 1565.89 502.518 1611.89 567.008 1639.51C696.206 1694.84 874.402 1677.78 1169.62 1649.53C1193.07 1647.28 1217.28 1644.96 1242.24 1642.61V1642.63Z" fill="white" fill-opacity="0.5"/>
<path d="M1521.51 1546.55C1436.48 1607.96 1343.88 1643.73 1250.5 1650.8C1195.76 1654.95 1145.42 1659.12 1096.73 1663.14C826.62 1685.46 663.578 1698.94 540.917 1642.6C479.154 1614.23 428.641 1568.18 381.967 1497.7C337.356 1430.34 293.684 1336.35 244.545 1201.92C212.63 1114.63 165.3 1038.21 99.8632 968.285C43.2369 907.794 -17.739 861.839 -71.5392 821.285C-157.343 756.606 -225.12 705.518 -224.552 632.07C-224.133 578.401 -187.369 515.774 -108.841 434.965C-26.5353 350.275 107.292 240.895 300.265 100.586C394.018 32.8882 468.134 7.74439 526.865 23.6866C561.895 33.1944 592.054 56.6417 621.78 97.4653C648.185 133.727 670.896 179.063 694.934 227.064C734.822 306.695 776.061 389.033 841.317 447.343C915.766 513.875 1009.24 535.805 1127.11 514.397C1290.25 484.755 1429.87 485.398 1542.07 516.289C1643.1 544.107 1720.81 595.881 1773.07 670.186C1797.14 704.416 1815.61 743.386 1827.96 786.01C1839.77 826.757 1846.05 871.018 1846.65 917.57C1847.76 1006.76 1827.91 1103.68 1789.2 1197.89C1740.78 1315.7 1664.45 1424.5 1574.28 1504.24C1557.09 1519.46 1539.46 1533.57 1521.52 1546.53L1521.51 1546.55ZM301.497 102.608C108.626 242.842 -25.0969 352.133 -107.313 436.728C-185.365 517.048 -221.915 579.128 -222.327 632.078C-222.877 704.232 -155.529 755.005 -70.265 819.273C-16.3943 859.878 44.6644 905.905 101.432 966.547C167.104 1036.7 214.593 1113.38 246.624 1201.01C434.679 1715.42 561.754 1704.9 1096.59 1660.71C1145.27 1656.69 1195.62 1652.53 1250.36 1648.37C1363 1639.85 1474.54 1589.36 1572.91 1502.37C1662.82 1422.86 1738.92 1314.36 1787.19 1196.9C1825.76 1103.03 1845.55 1006.44 1844.44 917.618C1843.87 871.306 1837.62 827.271 1825.86 786.758C1813.59 744.396 1795.23 705.679 1771.32 671.679C1719.38 597.816 1642.07 546.332 1541.54 518.652C1429.63 487.837 1290.32 487.22 1127.48 516.799C1008.97 538.331 914.908 516.227 839.938 449.227C774.35 390.604 732.997 308.056 693.017 228.231C669.025 180.326 646.359 135.089 620.076 98.9855C590.67 58.6031 560.885 35.4231 526.359 26.0466C468.262 10.272 394.715 35.3259 301.513 102.612L301.497 102.608Z" fill="white" fill-opacity="0.5"/>
<path d="M1530.32 1553.93C1444.31 1616.05 1351.41 1651.29 1258.58 1656.58C1176.77 1661.23 1101.72 1666.74 1035.5 1671.6C544.837 1707.59 412.957 1717.28 231.587 1207.94C199.526 1117.9 151.375 1039.28 84.3955 967.592C26.4433 905.584 -36.132 858.674 -91.3476 817.292C-178.534 751.952 -247.383 700.344 -246.938 625.849C-246.603 571.207 -209.068 507.296 -128.831 424.712C-44.6851 338.112 92.2047 226.112 289.666 82.3299C289.935 82.1355 290.204 81.941 290.472 81.7466C385.561 13.0682 460.674 -12.3867 520.089 3.9201C555.641 13.6758 586.201 37.6785 616.257 79.4705C642.952 116.588 665.861 163.002 690.119 212.142C730.566 294.09 772.392 378.814 839.077 438.682C915.166 506.986 1011.1 529.146 1132.38 506.424C1299.31 475.15 1441.85 474.862 1556.04 505.542C1658.78 533.156 1737.58 585.307 1790.26 660.564C1814.79 695.607 1833.44 735.628 1845.73 779.509C1857.45 821.385 1863.43 866.945 1863.49 914.93C1863.6 1006.66 1842.05 1106.38 1801.19 1203.31C1750.77 1322.89 1672.82 1432.86 1581.66 1512.95C1564.88 1527.69 1547.74 1541.37 1530.33 1553.95L1530.32 1553.93ZM291.697 83.759C291.429 83.9534 291.169 84.1405 290.892 84.3411C93.5318 228.05 -43.2621 339.966 -127.303 426.477C-207.073 508.577 -244.383 571.933 -244.706 625.869C-245.148 699.064 -176.719 750.352 -90.0828 815.287C-34.7966 856.72 27.8708 903.694 85.9547 965.854C153.168 1037.79 201.484 1116.7 233.666 1207.06C280.539 1338.69 322.72 1431.36 366.415 1498.7C411.316 1567.91 459.649 1613.45 518.516 1642.01C573.299 1668.58 638.104 1681.39 728.63 1683.53C812.679 1685.51 910.946 1678.3 1035.36 1669.18C1101.58 1664.32 1176.64 1658.81 1258.47 1654.16C1369.63 1647.84 1480.9 1598.34 1580.27 1511.03C1671.14 1431.17 1748.89 1321.52 1799.17 1202.27C1839.9 1105.66 1861.37 1006.3 1861.26 914.905C1861.2 867.165 1855.26 821.842 1843.61 780.199C1831.4 736.592 1812.87 696.833 1788.5 662.027C1736.15 587.22 1657.75 535.355 1555.52 507.888C1441.62 477.275 1299.37 477.595 1132.74 508.806C1010.8 531.648 914.287 509.324 837.662 440.549C770.64 380.385 728.711 295.445 688.165 213.29C663.953 164.249 641.099 117.926 614.518 80.9749C584.786 39.6325 554.61 15.8911 519.558 6.28367C460.783 -9.84451 386.234 15.5095 291.71 83.7796L291.697 83.759Z" fill="white" fill-opacity="0.5"/>
<path d="M1539.16 1561.26C1452.15 1624.11 1358.95 1658.82 1266.64 1662.34C1160.06 1666.39 1066.17 1672.71 983.341 1678.3C757.519 1693.53 608.339 1703.58 495.893 1646.62C384.946 1590.44 307.211 1469.13 218.638 1213.94C186.436 1121.16 137.467 1040.36 68.9402 966.875C9.6651 903.335 -54.5159 855.502 -111.147 813.294C-199.715 747.293 -269.673 695.145 -269.321 619.613C-269.062 564.006 -230.774 498.808 -148.815 414.427C-62.8439 325.913 77.1232 211.296 279.073 64.0387C279.629 63.6377 280.203 63.2221 280.759 62.821C377.154 -6.80039 453.235 -32.5481 513.329 -15.8865C549.412 -5.889 580.37 18.6861 610.742 61.4442C637.73 99.4242 660.839 146.919 685.301 197.192C726.307 281.459 768.707 368.592 836.813 429.981C914.55 500.051 1012.95 522.428 1137.63 498.394C1548.44 419.222 1728.71 537.693 1807.61 651.004C1832.59 686.885 1851.43 727.976 1863.63 773.151C1875.24 816.179 1880.87 863.065 1880.37 912.519C1879.39 1006.87 1856.1 1109.43 1812.97 1209.11C1760.53 1330.34 1680.94 1441.34 1588.89 1521.65C1572.58 1535.88 1555.99 1549.09 1539.16 1561.24V1561.26ZM1266.57 1659.91C1376.23 1655.73 1487.2 1607.28 1587.5 1519.77C1679.29 1439.66 1758.65 1328.98 1810.95 1208.08C1853.94 1108.71 1877.16 1006.5 1878.14 912.501C1878.64 863.299 1873.04 816.649 1861.49 773.855C1849.37 728.97 1830.65 688.142 1805.83 652.491C1727.31 539.705 1547.71 421.83 1137.99 500.792C1012.64 524.954 913.644 502.409 835.38 431.861C766.924 370.157 724.42 282.807 683.316 198.333C658.894 148.149 635.831 100.752 608.956 62.9377C578.899 20.6365 548.332 -3.66639 512.758 -13.5229C453.304 -30.0059 377.787 -4.36027 281.957 64.8529C281.392 65.2612 280.844 65.6561 280.28 66.0644C78.438 213.257 -61.424 327.784 -147.311 416.195C-228.795 500.085 -266.874 564.726 -267.12 619.625C-267.463 693.869 -197.941 745.691 -109.915 811.299C-53.2144 853.558 11.0648 901.464 70.4808 965.162C139.244 1038.86 188.38 1119.97 220.698 1213.08C309.043 1467.6 386.457 1588.54 496.811 1644.42C608.753 1701.11 757.715 1691.08 983.195 1675.87C1066.04 1670.3 1159.95 1663.96 1266.57 1659.91Z" fill="white" fill-opacity="0.5"/>
<path d="M1548.07 1568.53C1460.02 1632.14 1366.51 1666.35 1274.71 1668.1C1145.32 1670.56 1035.31 1677.64 938.244 1683.88C725.033 1697.6 584.177 1706.65 475.477 1649.72C419.939 1620.63 374.17 1575.32 331.448 1507.08C289.028 1439.35 249.063 1348.11 205.67 1219.95C173.333 1124.44 123.543 1041.43 53.4726 966.183C-7.12854 901.124 -72.9214 852.359 -130.961 809.335C-220.924 742.652 -291.978 689.986 -291.739 613.385C-291.562 556.804 -252.505 490.322 -168.826 404.161C-81.0244 313.741 62.0203 196.509 268.461 45.762C320.385 8.01168 365.372 -16.7797 405.99 -29.9561C443.689 -42.192 476.578 -44.0513 506.541 -35.6737C543.146 -25.4271 574.505 -0.297867 605.202 43.4191C632.485 82.2643 655.785 130.829 680.473 182.248C722.038 268.834 765.006 358.367 834.547 421.297C913.916 493.127 1014.78 515.733 1142.89 490.39C1562.75 407.33 1745.63 526.776 1825.12 641.614C1850.56 678.359 1869.58 720.561 1881.65 767.059C1893.13 811.277 1898.4 859.529 1897.29 910.48C1895.2 1007.52 1870.04 1112.98 1824.55 1215.44C1770.07 1338.18 1688.9 1450.09 1596 1530.52C1580.25 1544.16 1564.24 1556.84 1548.07 1568.53ZM272.24 45.943C271.388 46.5592 270.545 47.168 269.693 47.7841C63.3628 198.451 -79.586 315.599 -167.298 405.925C-250.501 491.597 -289.333 557.523 -289.513 613.393C-289.756 688.687 -219.131 741.037 -129.709 807.309C-71.5828 850.388 -5.70715 899.224 55.041 964.445C125.353 1039.93 175.312 1123.24 207.761 1219.1C251.078 1347.06 290.971 1438.13 333.286 1505.7C375.787 1573.55 421.269 1618.63 476.435 1647.52C584.615 1704.19 725.247 1695.13 938.116 1681.44C1035.2 1675.21 1145.24 1668.12 1274.68 1665.65C1366.03 1663.9 1459.17 1629.81 1546.85 1566.48C1562.98 1554.84 1578.92 1542.21 1594.62 1528.62C1687.27 1448.39 1768.22 1336.78 1822.56 1214.38C1867.9 1112.21 1892.98 1007.1 1895.08 910.404C1896.18 859.705 1890.96 811.69 1879.54 767.706C1867.54 721.504 1848.63 679.576 1823.36 643.06C1744.25 528.77 1562.04 409.924 1143.29 492.768C1014.48 518.246 913.035 495.482 833.132 423.163C763.252 359.91 720.17 270.169 678.511 183.359C653.878 132.032 630.609 83.5621 603.447 44.8761C573.065 1.61609 542.097 -23.2421 506.001 -33.3478C445.873 -50.1747 369.383 -24.2471 272.247 45.9102L272.24 45.943Z" fill="white" fill-opacity="0.5"/>
<path d="M1557.05 1575.78C1467.93 1640.13 1374.05 1673.87 1282.78 1673.87C1132.28 1673.87 1008.21 1681.78 898.742 1688.75C695.819 1701.7 561.758 1710.23 456.139 1653.44C401.968 1624.32 357.289 1579.2 315.523 1511.48C273.672 1443.62 234.658 1352.91 192.71 1225.98C160.236 1127.72 109.64 1042.52 38.0264 965.514C-23.9008 898.928 -91.2903 849.235 -150.755 805.39C-242.121 738.033 -314.29 684.818 -314.154 607.185C-314.053 549.639 -274.233 481.864 -188.834 393.923C-99.1928 301.591 46.9201 181.751 257.852 27.5108C310.694 -10.9892 356.428 -36.2618 397.693 -49.6874C435.994 -62.1384 469.385 -64.0256 499.773 -55.4462C536.911 -44.9578 568.667 -19.2575 599.689 25.4182C627.261 65.1177 650.775 114.765 675.673 167.328C717.789 256.24 761.334 348.165 832.29 412.65C913.288 486.259 1016.6 509.074 1148.15 482.414C1577.19 395.443 1762.71 515.938 1842.81 632.349C1868.7 669.986 1887.89 713.339 1899.83 761.195C1911.18 806.645 1916.04 856.304 1914.29 908.788C1910.97 1008.61 1883.86 1117.03 1835.92 1222.31C1779.4 1346.42 1696.67 1459.07 1602.99 1539.52C1587.85 1552.51 1572.52 1564.6 1557.06 1575.76L1557.05 1575.78ZM262.496 27.0539C261.357 27.8778 260.236 28.6871 259.087 29.5171C48.2598 183.666 -97.7606 303.44 -187.313 395.677C-272.229 483.139 -311.831 550.348 -311.934 607.183C-312.063 683.53 -240.338 736.424 -149.521 803.378C-89.9856 847.274 -22.4948 897.024 39.5764 963.776C111.438 1041.04 162.203 1126.55 194.794 1225.17C236.676 1351.89 275.622 1442.44 317.354 1510.13C358.892 1577.49 403.3 1622.34 457.106 1651.28C562.2 1707.78 696.021 1699.25 898.601 1686.34C1008.1 1679.36 1132.21 1671.45 1282.77 1671.45C1373.59 1671.45 1467.08 1637.85 1555.82 1573.76C1571.24 1562.62 1586.5 1550.57 1601.59 1537.61C1695.04 1457.38 1777.53 1345.02 1833.91 1221.23C1881.72 1116.25 1908.75 1008.18 1912.06 908.698C1913.8 856.45 1908.96 807.041 1897.68 761.834C1885.81 714.274 1866.75 671.206 1841.02 633.809C1761.32 517.956 1576.47 398.054 1148.55 484.803C1016.32 511.607 912.407 488.614 830.865 414.523C759.566 349.733 715.905 257.571 673.692 168.454C648.84 115.989 625.366 66.4289 597.916 26.8886C567.203 -17.3399 535.843 -42.7595 499.206 -53.1009C438.391 -70.2754 360.923 -44.0501 262.481 27.0503L262.496 27.0539Z" fill="white" fill-opacity="0.5"/>
<path d="M1566.13 1582.96C1475.91 1648.12 1381.63 1681.38 1290.85 1679.63C1120.71 1676.37 978.211 1685.68 863.711 1693.15C768.935 1699.34 687.093 1704.7 617.506 1701.34C542.542 1697.73 485.409 1683.87 437.718 1657.69C333.656 1600.59 258.918 1477.26 179.76 1231.98C147.156 1130.96 95.7529 1043.57 22.5864 964.797C-40.6577 896.691 -109.662 846.083 -170.545 801.429C-263.315 733.396 -336.593 679.644 -336.562 600.951C-336.538 542.441 -295.958 473.39 -208.837 383.65C-117.358 289.425 31.8353 166.952 247.264 9.23052C301.003 -30.0327 347.496 -55.7671 389.414 -69.432C428.319 -82.1151 462.209 -84.0133 493.019 -75.2431C530.688 -64.5129 562.836 -38.2499 594.188 7.39435C622.056 47.9578 645.768 98.6853 670.885 152.385C713.545 243.612 757.655 337.953 830.038 403.97C912.675 479.35 1018.45 502.383 1153.41 474.403C1335.99 436.547 1490.67 432.61 1613.15 462.72C1723.07 489.735 1806.33 543.714 1860.65 623.162C1886.99 661.719 1906.34 706.255 1918.12 755.522C1929.31 802.242 1933.74 853.341 1931.32 907.426C1926.7 1010.11 1897.56 1121.55 1847.03 1229.69C1788.47 1355.01 1704.23 1468.28 1609.83 1548.61C1595.4 1560.89 1580.8 1572.35 1566.13 1582.95V1582.96ZM252.746 8.15506C251.329 9.17826 249.91 10.2027 248.49 11.2429C33.1565 168.879 -115.941 291.27 -207.324 385.411C-293.969 474.661 -334.349 543.147 -334.349 600.94C-334.378 678.334 -261.529 731.771 -169.302 799.411C-108.342 844.125 -39.2456 894.798 24.1455 963.059C97.5509 1042.1 149.137 1129.8 181.851 1231.17C260.797 1475.79 335.215 1598.73 438.711 1655.52C541.247 1711.78 669.487 1703.41 863.58 1690.74C978.12 1683.25 1120.67 1673.94 1290.89 1677.21C1395.94 1679.23 1505.76 1634.11 1608.47 1546.7C1702.62 1466.59 1786.64 1353.63 1845.06 1228.59C1895.45 1120.76 1924.51 1009.67 1929.1 907.324C1931.52 853.491 1927.1 802.642 1915.98 756.155C1904.26 707.191 1885.05 662.939 1858.86 624.639C1713.36 411.787 1395.15 426.763 1153.82 476.802C1018.16 504.933 911.791 481.721 828.619 405.852C755.896 339.514 711.676 244.947 668.914 153.504C643.851 99.8956 620.169 49.263 592.415 8.86474C561.378 -36.3238 529.617 -62.2976 492.457 -72.8869C430.955 -90.4089 352.51 -63.8858 252.751 8.16479L252.746 8.15506Z" fill="white" fill-opacity="0.5"/>
<path d="M1574.92 1590.23C1483.69 1656.11 1389.11 1688.88 1298.91 1685.4C1110.43 1678.15 956.207 1688.74 832.298 1697.27C741.234 1703.53 662.595 1708.94 595.182 1705.68C522.378 1702.18 466.728 1688.44 420.041 1662.42C367.919 1633.39 324.902 1588.65 284.672 1521.63C244.338 1454.43 205.774 1361.66 166.784 1238.01C134.062 1134.23 81.8442 1044.65 7.13428 964.104C-57.4358 894.485 -128.04 842.964 -190.341 797.501C-284.518 728.766 -358.921 674.472 -358.995 594.72C-359.053 535.236 -317.698 464.911 -228.863 373.382C-135.554 277.252 16.7263 152.155 236.653 -9.04616C291.337 -49.081 338.595 -75.3088 381.169 -89.2301C420.699 -102.159 455.096 -104.075 486.318 -95.1081C524.496 -84.1482 557.017 -57.3541 588.677 -10.7815C616.814 30.6071 640.735 82.3627 666.048 137.16C709.241 230.664 753.912 327.35 827.714 394.948C911.985 472.133 1020.24 495.514 1158.66 466.424C1345.12 426.633 1502.84 421.587 1627.42 451.404C1739.14 478.143 1823.54 532.519 1878.3 613.004C1905.17 652.511 1924.69 698.281 1936.35 749.044C1947.37 797.105 1951.36 849.765 1948.23 905.543C1942.3 1011.33 1911.01 1126.02 1857.76 1237.21C1797.17 1363.74 1711.5 1477.55 1616.48 1557.71C1602.72 1569.31 1588.85 1580.16 1574.92 1590.23ZM242.993 -10.728C241.288 -9.49699 239.602 -8.27936 237.891 -7.01433C18.0658 154.114 -134.119 279.126 -227.338 375.162C-315.694 466.186 -356.824 535.956 -356.776 594.719C-356.699 673.173 -282.741 727.147 -189.098 795.482C-126.719 841.007 -56.0237 892.592 8.70883 962.367C83.6638 1043.19 136.055 1133.09 168.896 1237.21C207.825 1360.67 246.31 1453.27 286.54 1520.29C326.55 1586.94 369.299 1631.42 421.064 1660.26C467.462 1686.11 522.823 1699.76 595.292 1703.26C662.593 1706.51 741.184 1701.1 832.174 1694.85C956.137 1686.34 1110.41 1675.73 1299.01 1682.99C1388.73 1686.45 1482.87 1653.81 1573.71 1588.22C1587.62 1578.17 1601.42 1567.37 1615.15 1555.8C1709.9 1475.86 1795.38 1362.31 1855.82 1236.09C1908.91 1125.2 1940.11 1010.85 1946.04 905.416C1949.15 849.881 1945.17 797.481 1934.21 749.66C1922.64 699.204 1903.23 653.734 1876.54 614.477C1760.45 443.815 1512.37 393.447 1159.1 468.823C1019.99 498.064 911.146 474.515 826.321 396.828C752.17 328.915 707.397 231.996 664.1 138.274C638.832 83.5754 614.952 31.9074 586.928 -9.31471C555.58 -55.4135 523.446 -81.9195 485.777 -92.7372C423.593 -110.597 344.128 -83.7593 243.008 -10.7243L242.993 -10.728Z" fill="white" fill-opacity="0.5"/>
<path d="M1584.59 1597.19C1492.07 1664 1396.89 1696.37 1306.99 1691.17C1101.29 1679.25 936.399 1691.42 803.9 1701.2C628.795 1714.12 502.282 1723.46 403.045 1667.59C351.68 1638.66 309.306 1594.08 269.69 1527.28C229.738 1459.92 191.841 1367.26 153.847 1244.04C120.998 1137.51 67.9693 1045.72 -8.2688 963.412C-74.1649 892.271 -146.378 839.846 -210.092 793.583C-305.721 724.136 -381.248 669.3 -381.429 588.49C-381.562 528.041 -339.444 456.423 -248.883 363.122C-153.728 265.092 1.62323 137.369 226.057 -27.3204C281.611 -68.071 329.608 -94.7739 372.827 -108.927C412.947 -122.066 447.838 -124.003 479.486 -114.834C518.218 -103.619 551.173 -76.2372 583.189 -28.6535C611.638 13.6283 635.773 66.5116 661.317 122.509C705.066 218.393 750.303 317.54 825.52 386.648C911.41 465.575 1022.1 489.045 1163.93 458.406C1354.62 417.223 1515.61 411.516 1642.41 441.475C1756.07 468.322 1841.65 523.398 1896.76 605.169C1924.06 645.665 1943.69 692.686 1955.1 744.915C1965.9 794.302 1969.39 848.443 1965.47 905.833C1958.06 1014.55 1924.53 1132.22 1868.51 1246.15C1805.9 1373.48 1718.77 1487.49 1623.17 1567.2C1610.38 1577.86 1597.53 1587.86 1584.61 1597.19H1584.59ZM233.427 -29.7617C231.389 -28.2889 229.342 -26.8112 227.288 -25.2983C2.9566 139.318 -152.305 266.946 -247.355 364.887C-337.443 457.713 -379.334 528.76 -379.21 588.488C-379.032 667.99 -303.944 722.517 -208.885 791.547C-145.086 837.864 -72.7775 890.382 -6.73428 961.674C69.7643 1044.26 122.971 1136.35 155.931 1243.26C193.865 1366.3 231.686 1458.77 271.54 1525.95C310.945 1592.38 353.05 1636.7 404.059 1665.42C502.751 1720.99 629.003 1711.69 803.752 1698.79C936.299 1689 1101.27 1676.83 1307.1 1688.75C1396.52 1693.94 1491.25 1661.7 1583.37 1595.17C1596.24 1585.88 1609.06 1575.92 1621.81 1565.29C1717.16 1485.79 1804.08 1372.05 1866.54 1245.02C1922.41 1131.39 1955.85 1014.05 1963.23 905.673C1967.12 848.531 1963.66 794.641 1952.92 745.503C1941.57 693.589 1922.07 646.878 1894.96 606.632C1840.17 525.348 1755.03 470.591 1641.93 443.875C1515.42 413.993 1354.74 419.687 1164.34 460.815C1021.82 491.605 910.517 467.953 824.077 388.534C748.513 319.094 703.167 219.721 659.314 123.621C633.806 67.728 609.727 14.9359 581.384 -27.1904C549.69 -74.3062 517.121 -101.4 478.906 -112.465C447.66 -121.516 413.165 -119.588 373.444 -106.578C332.035 -93.0179 286.178 -67.8608 233.418 -29.7544L233.427 -29.7617Z" fill="white" fill-opacity="0.5"/>
</g>
</g>
<defs>
<clipPath id="clip0_11_828">
<rect width="1920" height="1135" fill="white" transform="translate(0 -255)"/>
</clipPath>
</defs>
</svg>
