<svg width="1920" height="880" viewBox="0 0 1920 880" fill="none" xmlns="http://www.w3.org/2000/svg">
<g clip-path="url(#clip0_16_1072)">
<mask id="mask0_16_1072" style="mask-type:luminance" maskUnits="userSpaceOnUse" x="0" y="0" width="1920" height="900">
<path d="M1920 0H0V900H1920V0Z" fill="white"/>
</mask>
<g mask="url(#mask0_16_1072)">
<path d="M-395.342 839.833C-438.692 839.833 -467.492 830.525 -482.952 811.638C-520.209 766.108 -471.354 674.2 -424.109 585.308C-380.115 502.545 -338.563 424.378 -375.865 397.388C-482.685 320.098 -488.701 272.525 -474.928 246.228C-464.051 225.453 -436.905 210.44 -396.441 202.808C-357.608 195.485 -309.719 195.418 -257.945 202.616C-175.84 214.025 -124.578 230.454 -91.7045 255.893C-73.2481 270.183 -60.8846 287.171 -53.926 307.841C-46.7232 329.213 -45.4357 354.026 -49.986 383.705C-54.5918 413.75 -5.48209 455.367 46.5133 499.423C117.298 559.407 197.527 627.389 172.8 688.471C158.85 722.939 113.758 751.346 34.9378 775.311C-53.7707 802.291 -187.782 823.51 -363.357 838.378C-374.788 839.342 -385.453 839.833 -395.353 839.833H-395.342ZM-331.516 199.205C-403.311 199.205 -456.871 216.424 -472.908 247.038C-481.931 264.257 -479.134 284.994 -464.606 308.669C-448.492 334.937 -418.149 364.288 -374.444 395.913C-335.833 423.848 -377.74 502.67 -422.1 586.128C-445.284 629.75 -469.267 674.856 -482.774 714.565C-497.979 759.228 -497.446 790.622 -481.143 810.53C-462.653 833.117 -424.186 841.606 -363.557 836.47C-33.2055 808.497 141.559 759.883 170.714 687.845C194.975 627.919 115.278 560.39 44.9708 500.82C-9.71042 454.49 -56.9336 414.472 -52.1725 383.464C-43.3383 325.908 -56.3676 285.832 -93.1695 257.348C-125.698 232.16 -176.628 215.875 -258.29 204.533C-284.126 200.949 -308.742 199.214 -331.516 199.214V199.205Z" fill="#AFAFAF" fill-opacity="0.5"/>
<path d="M-385.997 846.974C-434.963 846.974 -467.414 836.567 -484.805 815.387C-523.949 767.718 -478.035 675.078 -433.642 585.482C-392.845 503.162 -354.312 425.409 -389.782 395.143C-473.518 323.673 -506.258 265.549 -484.45 227.034C-472.741 206.355 -446.161 192.277 -405.43 185.185C-366.664 178.439 -315.556 178.536 -257.623 185.464C-177.017 195.11 -124.2 213.909 -91.4269 244.648C-59.797 274.308 -44.4037 316.292 -41.5515 380.785C-40.1753 411.736 5.88251 454.038 54.6372 498.816C126.376 564.698 207.693 639.367 178.971 703.764C145.754 778.221 -30.3866 824.772 -359.528 846.087C-368.839 846.694 -377.662 846.993 -386.008 846.993L-385.997 846.974ZM-359.683 844.15C-31.4854 822.903 144.034 776.747 176.907 703.051C205.119 639.8 124.312 565.594 53.0281 500.127C3.97372 455.079 -42.3616 412.526 -43.7711 380.853C-46.6123 316.86 -61.8057 275.252 -93.0584 245.949C-125.465 215.567 -177.86 196.95 -257.934 187.372C-315.623 180.473 -366.475 180.367 -404.997 187.073C-445.007 194.04 -471.076 207.771 -482.463 227.882C-497.346 254.169 -493.073 304.285 -388.228 393.765C-351.681 424.957 -390.503 503.297 -431.611 586.244C-475.771 675.347 -521.429 767.487 -483.007 814.269C-463.141 838.465 -422.799 848.236 -359.683 844.15Z" fill="#AFAFAF" fill-opacity="0.5"/>
<path d="M-375.798 854.22C-431.012 854.22 -467.481 842.628 -486.969 818.981C-527.922 769.279 -484.949 676.08 -443.386 585.935C-405.597 503.971 -369.894 426.556 -403.688 392.869C-487.491 309.306 -517.922 247.154 -494.128 208.138C-481.82 187.969 -454.906 174.392 -414.143 167.801C-374.522 161.393 -321.761 161.557 -257.324 168.293C-83.6584 186.437 -60.0081 256.163 -33.1725 377.846C-26.1251 409.818 16.8584 452.255 62.3613 497.188C135.455 569.361 218.292 651.161 185.419 718.902C148.584 794.814 -28.4113 838.918 -355.699 853.738C-362.658 854.056 -369.361 854.21 -375.809 854.21L-375.798 854.22ZM-346.499 165.074C-424.641 165.074 -474.406 179.933 -492.152 209.034C-503.439 227.544 -501.985 251.962 -487.813 281.602C-472.997 312.591 -444.13 349.594 -402.001 391.597C-367.319 426.18 -403.266 504.126 -441.311 586.648C-482.652 676.301 -525.403 769.009 -485.149 817.854C-463.863 843.688 -421.545 854.798 -355.799 851.821C-29.4434 837.039 146.93 793.321 183.399 718.16C215.728 651.527 133.379 570.209 60.7189 498.46C15.0162 453.325 -28.1671 410.695 -35.3255 378.203C-61.9725 257.397 -85.4341 188.172 -257.568 170.191C-290.364 166.77 -320.051 165.065 -346.499 165.065V165.074Z" fill="#AFAFAF" fill-opacity="0.5"/>
<path d="M-364.566 861.611C-426.761 861.611 -467.68 848.747 -489.444 822.421C-532.15 770.782 -492.074 677.13 -453.319 586.561C-418.393 504.935 -385.398 427.828 -417.572 390.614C-501.053 294.052 -529.365 228.334 -504.116 189.704C-491.087 169.767 -464.451 156.999 -422.688 150.668C-381.813 144.472 -327.609 144.627 -256.98 151.131C-181.867 158.05 -133.933 175.799 -101.549 208.687C-71.8385 238.847 -57.8881 279.752 -41.7179 327.113C-36.4906 342.434 -31.0746 358.285 -24.7708 374.965C-12.5073 407.38 27.0139 448.911 68.8543 492.88C144.289 572.146 229.779 661.982 192.444 733.606C152.08 811.051 -25.9695 852.871 -351.848 861.447C-356.176 861.562 -360.416 861.62 -364.555 861.62L-364.566 861.611ZM-352.603 148.115C-434.352 148.115 -483.584 162.203 -502.185 190.658C-526.956 228.546 -498.7 293.57 -415.796 389.457C-382.89 427.52 -416.096 505.099 -451.244 587.236C-489.799 677.332 -529.664 770.493 -487.646 821.303C-464.895 848.824 -420.48 861.331 -351.926 859.52C-26.9682 850.972 150.438 809.528 190.414 732.816C227.182 662.281 142.147 572.936 67.134 494.104C25.1492 449.991 -14.4937 408.325 -26.8905 375.562C-33.2054 358.863 -38.6215 343.002 -43.8599 327.662C-76.7329 231.321 -98.4633 167.676 -257.224 153.058C-292.872 149.772 -324.646 148.124 -352.614 148.124L-352.603 148.115Z" fill="#AFAFAF" fill-opacity="0.5"/>
<path d="M-352.125 869.136C-422.178 869.136 -468.047 854.904 -492.308 825.658C-536.723 772.131 -499.488 678.103 -463.485 587.168C-431.311 505.898 -400.913 429.138 -431.467 388.349C-472.652 333.366 -499.355 290.158 -513.095 256.24C-528.022 219.392 -528.51 191.756 -514.571 171.752C-500.997 152.268 -473.729 139.828 -431.223 133.718C-389.316 127.696 -332.215 127.773 -256.658 133.959C-186.806 139.673 -139.738 156.238 -108.518 186.071C-79.896 213.437 -66.456 249.369 -50.9073 290.987C-41.2408 316.84 -31.2523 343.58 -16.4028 372.074C0.0559082 403.67 35.4039 442.657 72.8273 483.919C152.324 571.587 242.42 670.943 200.102 747.501C156.264 826.815 -23.0284 866.592 -348.03 869.117C-349.395 869.126 -350.771 869.136 -352.125 869.136ZM-348.052 867.189C-177.117 865.86 -44.2484 853.844 46.8573 831.459C88.5202 821.226 122.514 808.574 147.907 793.85C171.458 780.196 188.349 764.325 198.104 746.672C239.823 671.203 150.171 572.338 71.085 485.123C33.5729 443.756 -1.85297 404.692 -18.4225 372.874C-33.3165 344.284 -43.3272 317.496 -53.016 291.585C-68.4869 250.179 -81.8604 214.429 -110.161 187.371C-140.981 157.914 -187.594 141.552 -256.869 135.886C-332.237 129.719 -389.149 129.633 -430.856 135.626C-472.686 141.639 -499.455 153.78 -512.673 172.754C-526.246 192.228 -525.691 219.324 -510.997 255.604C-497.313 289.368 -470.688 332.451 -429.602 387.299C-398.449 428.878 -429.014 506.072 -461.377 587.794C-497.202 678.267 -534.237 771.813 -490.498 824.531C-466.227 853.786 -419.647 867.748 -348.041 867.189H-348.052Z" fill="#AFAFAF" fill-opacity="0.5"/>
<path d="M-306.534 876.999C-318.886 876.999 -331.438 876.932 -344.201 876.797C-419.736 876.016 -469.245 860.281 -495.537 828.694C-541.639 773.326 -507.179 678.922 -473.851 587.631C-444.341 506.794 -416.462 430.449 -445.351 386.094C-519.953 271.542 -556.988 196.882 -525.525 154.272C-511.396 135.145 -483.362 122.926 -439.813 116.933C-396.585 110.978 -336.566 110.939 -256.347 116.807C-107.131 127.725 -84.4795 189.154 -55.8127 266.926C-44.2594 298.262 -31.1634 333.781 -8.05682 369.231C10.6992 398.004 40.709 432.096 72.4722 468.183C113.769 515.11 160.592 568.291 190.036 618.88C223.886 677.024 229.912 723.315 208.47 760.413C197.783 778.914 179.903 795.382 155.354 809.354C129.095 824.3 94.3025 836.923 51.9404 846.858C-33.4164 866.881 -153.888 876.999 -306.556 876.999H-306.534ZM-361.292 114.36C-391.89 114.36 -417.794 115.853 -439.458 118.841C-482.352 124.747 -509.887 136.686 -523.649 155.322C-538.41 175.307 -538.132 203.223 -522.783 243.174C-509.576 277.555 -485.837 320.011 -443.409 385.16C-414.054 430.237 -442.066 506.978 -471.731 588.228C-504.893 679.066 -539.187 772.998 -493.739 827.586C-467.88 858.642 -418.959 874.118 -344.168 874.889C-173.754 876.671 -40.6747 866.602 51.3855 845.017C93.5256 835.131 128.108 822.604 154.167 807.765C178.394 793.975 196.007 777.758 206.517 759.565C227.626 723.055 221.589 677.322 188.083 619.767C158.728 569.342 111.982 516.228 70.7297 469.368C38.9109 433.224 8.86798 399.084 -9.96576 370.195C-33.1833 334.571 -46.3237 298.956 -57.9103 267.524C-72.4268 228.151 -84.9678 194.155 -112.547 168.032C-142.812 139.375 -188.559 123.707 -256.525 118.735C-296.29 115.824 -331.083 114.369 -361.292 114.369V114.36Z" fill="#AFAFAF" fill-opacity="0.5"/>
<path d="M-250.077 885.806C-278.921 885.806 -309.02 885.363 -340.361 884.486C-419.292 882.27 -471.254 864.935 -499.188 831.498C-546.978 774.299 -515.192 679.491 -484.45 587.804C-457.526 507.508 -432.099 431.673 -459.224 383.84C-529.698 259.536 -571.161 181.118 -536.967 137.197C-507.878 99.8385 -423.853 88.6127 -256.014 99.6362C-187.327 104.146 -141.203 119.775 -110.871 148.809C-83.3919 175.115 -71.0507 210.517 -57.977 248.001C-45.1917 284.685 -30.6974 326.255 0.333374 366.379C18.0351 389.265 40.6755 415.099 64.6368 442.446C157.285 548.152 272.585 679.712 217.704 772.063C206.317 791.229 187.75 808.169 162.523 822.402C135.588 837.607 100.173 850.221 57.2675 859.915C-18.9554 877.124 -122.081 885.797 -250.088 885.797L-250.077 885.806ZM-364.145 97.5066C-460.666 97.5066 -513.539 110.554 -535.125 138.276C-568.63 181.311 -527.356 259.304 -457.237 382.982C-429.736 431.48 -455.284 507.672 -482.33 588.334C-512.917 679.577 -544.558 773.923 -497.402 830.361C-469.9 863.287 -418.504 880.352 -340.306 882.559C-170.058 887.348 -36.4905 879.109 56.7016 858.064C99.3745 848.428 134.567 835.892 161.303 820.802C186.196 806.753 204.508 790.063 215.717 771.196C269.955 679.924 155.132 548.904 62.8611 443.621C38.8777 416.255 16.215 390.402 -1.52008 367.458C-32.7284 327.093 -47.2781 285.37 -60.1077 248.56C-86.8435 171.867 -107.964 111.296 -256.181 101.554C-297.034 98.8653 -332.892 97.497 -364.156 97.497L-364.145 97.5066Z" fill="#AFAFAF" fill-opacity="0.5"/>
<path d="M-206.028 895.317C-246.836 895.317 -290.363 894.267 -336.532 892.166C-419.092 888.408 -473.629 869.396 -503.273 834.032C-552.749 775.002 -523.549 679.722 -495.293 587.563C-470.888 507.941 -447.837 432.742 -473.085 381.575C-479.644 368.287 -486.037 355.491 -492.219 343.118C-546.689 234.068 -582.67 162.029 -548.942 120.556C-533.66 101.766 -503.716 89.6919 -457.392 83.6501C-410.824 77.5698 -344.845 77.1844 -255.67 82.4649C-186.04 86.5891 -139.571 102.219 -109.428 131.647C-82.1933 158.233 -70.6732 193.895 -58.4873 231.649C-45.125 273.036 -29.9758 319.934 8.71265 363.556C19.1672 375.341 30.3765 387.723 42.2517 400.818C147.397 516.864 291.408 675.81 227.948 782.085C215.973 802.128 196.795 819.733 170.925 834.399C143.323 850.047 107.276 862.844 63.7601 872.422C-5.39319 887.657 -95.8108 895.308 -206.039 895.308L-206.028 895.317ZM-364.999 80.7208C-468.213 80.7208 -524.448 93.7968 -547.122 121.674C-580.139 162.26 -544.347 233.913 -490.177 342.357C-483.995 354.729 -477.602 367.526 -471.043 380.824C-445.495 432.598 -468.646 508.115 -493.151 588.065C-521.263 679.78 -550.34 774.617 -501.475 832.895C-472.253 867.758 -418.26 886.51 -336.41 890.239C-165.763 898.006 -31.3076 891.386 63.2274 870.562C106.5 861.032 142.336 848.323 169.726 832.789C195.263 818.306 214.197 800.952 225.983 781.198C288.788 676.022 145.288 517.654 40.5204 402.013C28.6453 388.908 17.4249 376.526 6.97034 364.732C-31.9734 320.82 -47.1893 273.72 -60.6071 232.169C-72.7264 194.637 -84.1798 159.187 -111.071 132.929C-140.803 103.905 -186.794 88.4778 -255.803 84.3921C-296.911 81.9542 -333.181 80.7112 -364.988 80.7112L-364.999 80.7208Z" fill="#AFAFAF" fill-opacity="0.5"/>
<path d="M-171.09 905.29C-220.788 905.29 -274.693 903.479 -332.703 899.846C-419.126 894.44 -476.404 873.646 -507.823 836.287C-559.019 775.407 -532.272 679.539 -506.413 586.831C-484.439 508.038 -463.685 433.619 -486.947 379.339C-498.556 352.262 -509.821 327.546 -520.73 303.639C-542.139 256.683 -560.64 216.135 -569.485 183.151C-579.074 147.421 -576.554 122.425 -561.572 104.483C-545.557 85.3169 -515.447 73.4647 -466.804 67.1724C-418.304 60.8994 -349.129 60.2924 -255.337 65.3127C-184.297 69.1189 -137.207 84.8737 -107.142 114.919C-80.0291 142.005 -69.3082 178.295 -57.9437 216.713C-44.426 262.445 -29.0992 314.277 17.0918 360.742C76.0901 420.1 150.138 498.122 199.581 575.306C226.228 616.905 243.596 655.044 251.188 688.654C259.933 727.343 256.049 761.329 239.668 789.659C214.241 833.618 157.907 865.436 72.228 884.226C8.29089 898.246 -73.1927 905.281 -171.079 905.281L-171.09 905.29ZM-366.342 63.8865C-406.529 63.8865 -439.68 65.621 -466.482 69.0803C-513.838 75.2088 -544.347 87.1574 -559.774 105.61C-574.357 123.061 -576.754 147.556 -567.332 182.708C-558.52 215.547 -540.052 256.038 -518.677 302.926C-507.767 326.843 -496.492 351.569 -484.883 378.665C-461.377 433.503 -482.208 508.201 -504.271 587.284C-530.008 679.567 -556.633 774.992 -506.047 835.15C-475.039 872.027 -418.293 892.561 -332.559 897.928C-160.503 908.692 -24.5045 903.459 71.6619 882.366C156.697 863.721 212.543 832.24 237.67 788.801C253.829 760.857 257.647 727.285 249.001 689.03C241.454 655.613 224.163 617.666 197.627 576.251C148.284 499.221 74.3145 421.294 15.3938 362.004C-31.1301 315.193 -46.5235 263.13 -60.1078 217.195C-71.3947 179.008 -82.0601 142.93 -108.829 116.191C-138.473 86.5696 -185.074 71.0171 -255.493 67.2495C-297.211 65.0139 -334.057 63.8962 -366.353 63.8962L-366.342 63.8865Z" fill="#AFAFAF" fill-opacity="0.5"/>
<path d="M-142.512 915.591C-198.936 915.591 -261.042 912.903 -328.863 907.526C-419.403 900.347 -479.578 877.674 -512.85 838.224C-565.778 775.455 -541.395 678.874 -517.811 585.482C-499.033 511.121 -479.622 434.216 -500.809 377.094C-514.892 339.109 -529.82 304.237 -542.993 273.469C-579.673 187.776 -606.176 125.856 -574.712 88.8052C-542.194 50.5118 -449.568 38.7367 -255.004 48.1607C-182.244 51.6874 -134.366 67.6639 -104.301 98.4412C-77.2324 126.154 -67.2552 163.291 -56.7007 202.606C-43.3051 252.472 -28.1226 308.997 25.4709 357.938C83.082 410.541 162.845 491.358 215.74 577.609C270.698 667.243 282.94 740.737 252.109 796.028C207.76 875.563 75.28 915.601 -142.512 915.601V915.591ZM-328.664 905.608C-0.0107422 931.674 194.719 894.517 250.111 795.17C280.62 740.457 268.39 667.561 213.786 578.496C161.014 492.437 81.3841 411.765 23.8728 359.248C-30.1424 309.922 -45.3916 253.128 -58.8538 203.02C-69.3528 163.937 -79.2635 127.021 -105.988 99.665C-135.62 69.3213 -183.01 53.5568 -255.115 50.0686C-353.513 45.2988 -425.851 46.1467 -476.259 52.6703C-526.08 59.1071 -556.788 70.9498 -572.914 89.9326C-603.668 126.145 -577.342 187.651 -540.907 272.785C-527.733 303.572 -512.795 338.464 -498.689 376.497C-477.314 434.12 -496.802 511.275 -515.636 585.896C-539.109 678.874 -563.392 775.021 -511.052 837.087C-478.179 876.064 -418.526 898.478 -328.652 905.608H-328.664Z" fill="#AFAFAF" fill-opacity="0.5"/>
<path d="M-119.883 925.988C-181.567 925.988 -250.043 922.404 -325.046 915.215C-419.969 906.119 -483.218 881.461 -518.411 839.824C-542.96 810.771 -554.158 772.603 -552.638 723.151C-551.284 679.163 -540.219 630.501 -529.52 583.439C-512.873 510.206 -495.659 434.486 -514.682 374.849C-529.698 327.797 -546.911 285.813 -562.105 248.772C-595.266 167.917 -619.238 109.494 -588.296 73.3877C-554.835 34.3331 -458.18 22.0569 -254.683 30.9894C-180.013 34.2753 -131.214 50.5119 -101.105 82.1083C-74.0138 110.534 -64.7802 148.654 -54.9915 189.01C-41.9288 242.875 -27.1348 303.938 33.8391 355.134C118.075 425.862 188.493 505.494 232.11 579.353C256.947 621.405 272.707 660.941 278.955 696.874C285.847 736.507 281.131 771.774 264.938 801.713C237.925 851.618 179.038 886.992 89.8964 906.851C32.5849 919.619 -37.5894 926.008 -119.883 926.008V925.988ZM-367.263 30.1222C-494.505 30.1222 -560.373 44.0173 -586.51 74.5248C-616.741 109.812 -592.947 167.82 -560.007 248.117C-544.802 285.186 -527.567 327.199 -512.54 374.329C-493.373 434.409 -510.642 510.36 -527.334 583.805C-538.01 630.79 -549.053 679.375 -550.407 723.199C-551.916 772.217 -540.862 809.99 -516.613 838.686C-481.82 879.861 -419.07 904.269 -324.801 913.298C-149.993 930.045 -10.6539 927.241 89.3525 904.963C177.817 885.257 236.216 850.24 262.929 800.875C278.944 771.292 283.594 736.391 276.769 697.144C270.554 661.423 254.861 622.079 230.145 580.221C186.64 506.544 116.377 427.095 32.3075 356.512C-29.1547 304.911 -44.0264 243.54 -57.1556 189.405C-66.8777 149.29 -76.0671 111.392 -102.803 83.332C-132.48 52.1886 -180.779 36.1639 -254.782 32.9166C-296.701 31.0761 -334.068 30.1319 -367.252 30.1319L-367.263 30.1222Z" fill="#AFAFAF" fill-opacity="0.5"/>
<path d="M-100.761 936.501C-166.629 936.501 -240.222 931.972 -321.206 922.895C-420.813 911.737 -487.302 884.958 -524.481 841.037C-549.841 811.079 -561.982 772.188 -561.594 722.158C-561.25 677.592 -551.206 628.285 -541.506 580.587C-526.868 508.683 -511.741 434.342 -528.532 372.594C-543.459 317.717 -562.582 269.807 -579.451 227.554C-610.449 149.897 -632.845 93.787 -602.203 58.1628C-567.809 18.1831 -467.026 5.3384 -254.35 13.8181C-86.6993 20.5054 -71.0507 92.4476 -52.9272 175.751C-40.3528 233.528 -26.1138 299.014 42.2294 352.31C130.549 421.188 203.865 502.256 248.668 580.577C299.343 669.151 309.553 747.347 278.19 806.714C250.144 859.799 189.714 897.148 98.5643 917.74C43.2283 930.238 -23.4391 936.491 -100.761 936.491V936.501ZM-320.928 920.977C-145.132 940.673 -4.17236 938.958 98.0094 915.88C188.471 895.442 248.413 858.45 276.17 805.924C307.245 747.106 297.045 669.479 246.682 581.444C202 503.335 128.862 422.48 40.7422 353.756C-28.1558 300.016 -42.4727 234.193 -55.1136 176.117C-64.0921 134.865 -72.5601 95.9069 -99.3624 67.0953C-129.128 35.1039 -178.404 18.7806 -254.461 15.7453C-466.304 7.2945 -566.533 19.9176 -600.438 59.3191C-630.381 94.1242 -608.14 149.83 -577.365 226.927C-560.473 269.229 -541.34 317.187 -526.379 372.161C-509.477 434.293 -524.648 508.837 -539.331 580.934C-549.02 628.545 -559.041 677.775 -559.385 722.178C-559.774 771.774 -547.766 810.289 -522.706 839.9C-485.915 883.368 -419.914 909.896 -320.939 920.987L-320.928 920.977Z" fill="#AFAFAF" fill-opacity="0.5"/>
<path d="M-84.6794 947.043C-153.955 947.043 -231.654 941.56 -317.366 930.575C-421.978 917.181 -491.897 888.157 -531.118 841.847C-557.288 810.944 -570.351 771.283 -571.039 720.597C-571.649 675.376 -562.571 625.298 -553.792 576.867C-541.029 506.505 -527.844 433.754 -542.372 370.368C-556.544 308.544 -577.387 255.488 -595.777 208.686C-625.453 133.14 -646.895 78.5525 -616.375 43.1018C-581.049 2.07179 -476.06 -11.38 -254.006 -3.33399C-81.6163 2.91012 -67.244 76.9819 -50.5966 162.752C-38.6436 224.374 -25.0817 294.215 50.6308 349.526C143.623 417.45 219.89 499.799 265.382 581.406C289.021 623.804 303.549 664.564 308.554 702.549C313.882 742.982 308.266 779.522 291.863 811.156C262.641 867.527 200.502 906.977 107.165 928.417C53.1391 940.828 -10.998 947.033 -84.6683 947.033L-84.6794 947.043ZM-317.044 928.677C-140.481 951.292 2.05371 950.579 106.588 926.566C199.248 905.281 260.898 866.187 289.832 810.376C306.068 779.059 311.617 742.857 306.346 702.781C301.374 665.017 286.913 624.459 263.385 582.254C218.026 500.888 141.958 418.77 49.1992 351.01C-27.1458 295.246 -40.7634 225.029 -52.7939 163.079C-61.0289 120.633 -68.8087 80.5375 -95.7 50.9455C-125.576 18.0675 -175.907 1.42618 -254.105 -1.4068C-475.338 -9.42393 -579.773 3.80628 -614.61 44.2581C-644.431 78.8898 -623.145 133.073 -593.69 208.07C-575.278 254.929 -554.413 308.043 -540.219 369.993C-525.613 433.715 -538.831 506.64 -551.628 577.166C-560.395 625.519 -569.463 675.52 -568.852 720.578C-568.164 771.543 -555.612 809.711 -529.365 840.71C-490.51 886.577 -421.068 915.35 -317.077 928.677H-317.044Z" fill="#AFAFAF" fill-opacity="0.5"/>
<path d="M-71.0062 957.565C-143.123 957.565 -224.14 951.119 -313.537 938.255C-386.796 927.713 -442.942 910.571 -485.171 885.855C-523.039 863.692 -548.887 835.834 -564.191 800.682C-592.647 735.302 -579.895 656.046 -566.411 572.136C-555.379 503.547 -543.97 432.627 -556.234 368.123C-569.185 299.997 -591.659 242.316 -611.492 191.428C-640.414 117.231 -661.301 63.6265 -630.792 28.1276C-594.534 -14.0395 -485.282 -28.1369 -253.673 -20.5052C-76.3889 -14.6754 -63.2707 61.5933 -48.0884 149.907C-36.8458 215.326 -24.0938 289.465 59.0211 346.722C156.963 414.193 236.227 497.689 282.196 581.84C305.447 624.402 319.486 665.701 323.925 704.612C328.576 745.391 322.516 782.547 305.924 815.04C291.263 843.745 268.368 868.645 237.87 889.054C205.574 910.667 164.455 927.424 115.655 938.852C62.3838 951.321 0.0116577 957.565 -70.9951 957.565H-71.0062ZM-362.602 -20.5534C-519.92 -20.5534 -599.428 -5.12617 -629.016 29.2935C-658.826 63.9734 -638.094 117.183 -609.394 190.821C-589.539 241.776 -567.021 299.534 -554.047 367.815C-541.728 432.607 -553.159 503.673 -564.213 572.406C-590.716 737.181 -615.742 892.812 -313.182 936.357C-136.086 961.844 7.99127 962.056 115.056 936.993C163.567 925.632 204.419 908.991 236.482 887.531C266.681 867.315 289.354 842.666 303.871 814.259C320.319 782.075 326.312 745.246 321.695 704.804C317.278 666.125 303.316 625.028 280.165 582.668C234.329 498.787 155.298 415.523 57.6115 348.235C-26.1915 290.506 -39.01 215.962 -50.3192 150.196C-57.8326 106.507 -64.9244 65.2454 -91.9265 34.8342C-121.936 1.04086 -173.366 -15.9281 -253.784 -18.5684C-293.604 -19.8789 -329.818 -20.5534 -362.624 -20.5534H-362.602Z" fill="#AFAFAF" fill-opacity="0.5"/>
<path d="M-59.242 968.03C-133.8 968.03 -217.459 960.669 -309.708 945.945C-385.853 933.794 -444.363 915.293 -488.579 889.41C-528.299 866.149 -555.679 837.299 -572.259 801.193C-603.157 733.944 -591.582 652.52 -579.318 566.307C-569.851 499.741 -560.074 430.921 -570.084 365.898C-581.482 291.941 -606.62 227.303 -626.819 175.365C-655.363 101.978 -675.984 48.9608 -645.386 13.2595C-608.207 -30.112 -494.627 -44.8647 -253.34 -37.657C-71.0283 -32.2126 -59.1643 46.3013 -45.4357 137.207C-34.9813 206.384 -23.1395 284.782 67.4114 343.947C170.437 411.254 252.719 495.79 299.099 581.975C322.083 624.681 335.723 666.492 339.641 706.25C343.692 747.347 337.21 785.091 320.352 818.432C305.036 848.737 281.242 875.062 249.634 896.666C216.239 919.494 173.988 937.118 124.057 949.048C71.1072 961.7 9.84473 968.03 -59.242 968.03ZM-360.172 -37.4932C-528.41 -37.4932 -612.857 -21.4878 -643.61 14.4062C-673.509 49.2981 -653.044 101.911 -624.721 174.739C-604.489 226.754 -579.307 291.489 -567.887 365.628C-557.832 430.892 -567.631 499.847 -577.121 566.528C-589.34 652.491 -600.882 733.674 -570.195 800.461C-553.781 836.191 -526.679 864.752 -487.336 887.792C-443.375 913.529 -385.143 931.924 -309.308 944.037C-217.193 958.741 -133.645 966.094 -59.242 966.094C9.64496 966.094 70.6965 959.792 123.469 947.178C173.111 935.316 215.096 917.808 248.258 895.144C279.588 873.733 303.161 847.658 318.321 817.651C335.013 784.61 341.45 747.183 337.421 706.404C333.526 666.877 319.952 625.279 297.079 582.784C250.844 496.87 168.805 412.594 66.0685 345.479C-25.2258 285.832 -37.1343 207 -47.6443 137.448C-54.4365 92.4865 -60.8513 50.0111 -87.9977 18.7713C-118.163 -15.9471 -170.724 -33.263 -253.428 -35.7394C-292.261 -36.8957 -327.776 -37.4932 -360.183 -37.4932H-360.172Z" fill="#AFAFAF" fill-opacity="0.5"/>
<path d="M-49.0095 978.427C-125.665 978.427 -211.488 970.16 -305.868 953.615C-385.109 939.729 -446.117 919.783 -492.396 892.648C-534.059 868.211 -563.004 838.291 -580.861 801.174C-614.2 731.91 -603.656 648.019 -592.503 559.195C-584.434 494.952 -576.088 428.512 -583.924 363.652C-593.513 284.213 -620.337 215.422 -641.879 160.14C-670.324 87.1671 -690.878 34.4391 -660.124 -1.58018C-622.024 -46.214 -504.072 -61.6412 -252.996 -54.8382C-65.5682 -49.76 -54.9472 31.028 -42.6503 124.574C-33.0724 197.48 -22.2072 280.108 75.8127 341.143C130.96 375.476 179.881 414.077 221.222 455.878C261.176 496.272 293.095 538.651 316.101 581.83C362.337 668.641 369.118 753.716 335.19 821.38C302.251 887.078 232.132 934.67 132.414 959.011C79.3975 971.952 18.7786 978.427 -48.9874 978.427H-49.0095ZM-357.319 -54.4431C-536.911 -54.4431 -626.408 -37.8403 -658.349 -0.423855C-688.403 34.786 -668.004 87.1093 -639.781 159.533C-618.195 214.902 -591.337 283.809 -581.715 363.459C-573.858 428.531 -582.215 495.068 -590.294 559.417C-601.415 647.981 -611.925 731.631 -578.807 800.441C-561.117 837.203 -532.439 866.843 -491.142 891.058C-445.118 918.048 -384.366 937.898 -305.424 951.736C-211.188 968.252 -125.499 976.51 -48.9985 976.51C18.5788 976.51 78.9756 970.063 131.803 957.17C230.855 932.994 300.475 885.777 333.137 820.629C366.809 753.476 360.039 668.958 314.07 582.659C291.152 539.634 259.345 497.409 219.524 457.15C178.294 415.465 129.506 376.969 74.5029 342.723C-24.3159 281.197 -35.2366 198.116 -44.8699 124.815C-50.9517 78.543 -56.7006 34.8438 -83.9913 2.75601C-114.323 -32.9067 -168.05 -50.5888 -253.084 -52.8917C-290.785 -53.9132 -325.49 -54.4431 -357.33 -54.4431H-357.319Z" fill="#AFAFAF" fill-opacity="0.5"/>
<path d="M-40.1309 988.641C-43.5936 988.641 -47.0784 988.622 -50.5745 988.584C-126.553 987.813 -211.155 978.63 -302.039 961.294C-384.61 945.549 -448.281 924.051 -496.68 895.587C-540.385 869.888 -570.928 838.821 -590.061 800.615C-625.831 729.164 -616.186 642.469 -605.976 550.686C-599.128 489.083 -592.037 425.39 -597.785 361.417C-605.388 276.774 -633.899 204.032 -656.806 145.58C-685.351 72.7131 -705.982 20.0717 -675.029 -16.3619C-636.019 -62.287 -513.661 -78.3983 -252.685 -72C-60.0524 -67.2687 -50.6631 15.8223 -39.798 112.028C-31.1414 188.643 -21.3305 275.473 84.1807 338.348C142.325 372.989 193.521 412.015 236.338 454.346C277.379 494.913 309.953 537.697 333.137 581.492C379.006 668.139 385.11 754.266 350.317 823.991C315.824 893.12 243.319 943.188 140.649 968.782C87.7877 981.954 27.0024 988.641 -40.142 988.641H-40.1309ZM-301.562 959.416C-210.822 976.722 -126.376 985.885 -50.5522 986.656C20.5321 987.37 84.658 980.74 140.038 966.941C242.054 941.512 314.059 891.819 348.286 823.24C382.824 754.025 376.731 668.457 331.128 582.312C308.033 538.68 275.581 496.06 234.673 455.637C191.978 413.431 140.915 374.512 82.9266 339.957C-23.4392 276.581 -33.3055 189.27 -42.0065 112.24C-47.3782 64.6477 -52.4612 19.6959 -79.9183 -13.2495C-110.438 -49.8662 -165.353 -67.9144 -252.74 -70.0535C-512.884 -76.4422 -634.709 -60.5428 -673.243 -15.1959C-703.508 20.4283 -683.031 72.6649 -654.697 144.973C-631.757 203.531 -603.201 276.398 -595.566 361.282C-589.806 425.419 -596.898 489.199 -603.756 550.889C-624.266 735.263 -641.979 894.488 -301.562 959.425V959.416Z" fill="#AFAFAF" fill-opacity="0.5"/>
<path d="M-32.1071 998.827C-36.6129 998.827 -41.1411 998.798 -45.7024 998.73C-122.613 997.67 -207.559 987.658 -298.188 968.974C-461.61 935.277 -557.466 881.422 -599.85 799.468C-638.039 725.647 -629.105 635.753 -619.649 540.578C-613.823 482.001 -607.807 421.439 -611.614 359.191C-617.097 269.557 -647.306 193.018 -671.578 131.521C-685.795 95.4925 -698.081 64.3683 -703.064 37.3587C-708.546 7.67988 -704.384 -14.0685 -689.99 -31.1049C-650.058 -78.3405 -523.261 -95.1553 -252.319 -89.152C-54.4255 -84.7677 -46.2684 0.655243 -36.8126 99.5589C-29.1328 179.865 -20.4427 270.877 92.6153 335.573C212.688 404.287 301.795 489.151 350.306 581.001C395.998 667.513 401.513 754.632 365.832 826.304C329.719 898.853 254.683 951.437 148.861 978.36C95.4787 991.947 34.6491 998.827 -32.0959 998.827H-32.1071ZM-297.677 967.105C-207.204 985.76 -122.414 995.753 -45.6691 996.803C26.2144 997.796 91.439 990.964 148.218 976.519C253.396 949.76 327.932 897.552 363.779 825.543C399.205 754.372 393.7 667.812 348.275 581.801C299.931 490.278 211.1 405.694 91.3834 337.172C-22.5625 271.966 -31.3079 180.453 -39.0323 99.713C-43.7048 50.7816 -48.1219 4.56744 -75.7676 -29.2452C-106.476 -66.8159 -162.6 -85.2398 -252.396 -87.2345C-522.517 -93.2281 -648.782 -76.6349 -688.214 -29.9679C-718.723 6.12846 -698.069 58.4615 -669.48 130.895C-645.164 192.508 -614.899 269.191 -609.405 359.094C-605.588 421.478 -611.614 482.117 -617.452 540.752C-626.885 635.666 -635.797 725.319 -597.841 798.678C-555.756 880.034 -460.378 933.553 -297.688 967.095L-297.677 967.105Z" fill="#AFAFAF" fill-opacity="0.5"/>
<path d="M-24.9041 1008.92C-30.2424 1008.92 -35.614 1008.87 -41.0189 1008.78C-118.862 1007.47 -204.097 996.659 -294.359 976.654C-465.172 938.795 -565.567 881.933 -610.326 797.685C-628.872 762.774 -638.483 722.978 -640.58 672.437C-642.445 627.418 -638.117 579.44 -633.533 528.659C-628.561 473.56 -623.422 416.583 -625.465 356.965C-628.705 262.503 -660.646 182.293 -686.294 117.848C-700.689 81.7036 -713.107 50.4926 -718.179 23.2999C-723.751 -6.59087 -719.589 -28.5513 -705.072 -45.8286C-664.242 -94.4035 -532.972 -111.922 -251.986 -106.314C-48.7877 -102.257 -41.829 -14.4924 -33.7828 87.1286C-27.1349 171.106 -19.5991 266.29 101.017 332.788C226.216 401.82 318.365 487.436 367.508 580.394C413.189 666.8 418.205 754.873 381.614 828.395C363.325 865.147 335.29 897.36 298.289 924.138C259.733 952.044 212.188 973.455 156.963 987.774C102.848 1001.81 41.7299 1008.92 -24.8818 1008.92H-24.9041ZM-346.41 -105.398C-562.227 -105.398 -667.771 -86.9356 -703.286 -44.6915C-717.436 -27.8671 -721.476 -6.35962 -715.993 22.9916C-710.954 50.0205 -698.558 81.164 -684.197 117.222C-658.493 181.792 -626.497 262.156 -623.245 356.917C-621.192 416.631 -626.341 473.666 -631.313 528.813C-640.614 631.918 -648.649 720.954 -608.307 796.886C-563.847 880.564 -463.918 937.089 -293.804 974.795C-203.708 994.76 -118.64 1005.55 -40.9632 1006.86C31.7082 1008.09 98.0869 1001.05 156.32 985.943C211.256 971.692 258.535 950.406 296.857 922.674C333.592 896.088 361.427 864.116 379.572 827.644C415.908 754.632 410.903 667.108 365.489 581.213C316.523 488.602 224.652 403.266 99.8182 334.436C-21.7411 267.408 -29.3211 171.713 -36.0024 87.2828C-39.9867 37.0023 -43.7489 -10.4838 -71.5612 -45.1733C-102.481 -83.7172 -159.826 -102.527 -252.03 -104.367C-285.591 -105.042 -317.022 -105.379 -346.399 -105.379L-346.41 -105.398Z" fill="#AFAFAF" fill-opacity="0.5"/>
<path d="M-18.3672 1018.92C-24.3713 1018.92 -30.4088 1018.86 -36.5017 1018.73C-115.277 1017.19 -200.745 1005.62 -290.53 984.334C-384.743 961.998 -457.403 935.152 -512.651 902.265C-563.114 872.22 -598.718 837.212 -621.491 795.219C-664.431 716.049 -656.595 622.715 -647.528 514.648C-643.233 463.548 -638.805 410.705 -639.326 354.729C-640.247 255.556 -673.92 171.781 -700.977 104.464C-715.582 68.1362 -728.19 36.7615 -733.373 9.34714C-739.077 -20.8038 -734.905 -43.0147 -720.244 -60.5426C-699.257 -85.6443 -656.129 -102.006 -584.501 -112.047C-510.42 -122.434 -401.546 -126.173 -251.675 -123.485C-43.1163 -119.746 -37.3785 -29.6208 -30.7306 74.7272C-25.1481 162.366 -18.8221 261.694 109.385 329.994C239.679 399.402 334.891 485.75 384.755 579.691C430.58 666.039 435.152 755.037 397.64 830.294C378.54 868.616 349.296 902.313 310.73 930.44C270.709 959.628 221.666 982.022 164.943 997.015C109.918 1011.56 48.3224 1018.9 -18.3782 1018.9L-18.3672 1018.92ZM-342.015 -122.415C-570.617 -122.415 -681.733 -103.326 -718.446 -59.4055C-732.729 -42.321 -736.78 -20.5629 -731.176 9.04842C-726.026 36.299 -713.44 67.5966 -698.868 103.847C-671.755 171.299 -638.017 255.238 -637.095 354.729C-636.574 410.782 -641.013 463.664 -645.308 514.802C-654.353 622.6 -662.166 715.703 -619.483 794.409C-596.886 836.075 -561.527 870.842 -511.397 900.684C-456.36 933.447 -383.922 960.206 -289.953 982.474C-200.345 1003.71 -115.055 1015.27 -36.4573 1016.81C37.0132 1018.24 104.557 1010.97 164.31 995.184C220.734 980.278 269.522 957.999 309.309 928.976C347.609 901.041 376.642 867.585 395.609 829.542C432.866 754.796 428.305 666.347 382.746 580.51C333.071 486.916 238.147 400.857 108.231 331.651C-20.9642 262.821 -27.3235 162.954 -32.9392 74.8428C-36.2243 23.2036 -39.3317 -25.5737 -67.3549 -61.14C-98.4855 -100.657 -157.062 -119.852 -251.719 -121.548C-283.66 -122.116 -313.759 -122.415 -342.026 -122.415H-342.015Z" fill="#AFAFAF" fill-opacity="0.5"/>
<path d="M-12.1188 1028.76C-97.287 1028.76 -189.802 1016.48 -286.69 992.014C-385.442 967.076 -461.465 938.178 -519.121 903.681C-572.093 871.979 -609.461 835.468 -633.355 792.048C-678.592 709.873 -670.679 611.817 -661.512 498.276C-657.76 451.802 -653.887 403.757 -653.155 352.513C-651.679 248.734 -687.115 161.47 -715.594 91.3493C-744.627 19.86 -767.556 -36.6165 -735.459 -75.2278C-714.04 -100.994 -669.647 -117.857 -595.754 -128.283C-519.21 -139.085 -406.54 -143.123 -251.32 -140.637C-37.3674 -137.206 -32.8281 -44.7203 -27.5787 62.3739C-23.095 153.665 -18.023 257.136 117.809 327.219C253.152 397.051 351.46 484.112 402.113 578.968C425.43 622.648 438.16 666.954 439.925 710.653C441.656 753.331 432.922 794.188 413.955 832.105C373.257 913.5 287.645 975.296 172.9 1006.13C116.721 1021.23 54.5485 1028.76 -12.1188 1028.76ZM-337.232 -139.442C-578.918 -139.442 -695.75 -119.717 -733.662 -74.11C-748.089 -56.746 -752.14 -34.7278 -746.402 -4.81775C-741.12 22.693 -728.323 54.2122 -713.507 90.694C-684.973 160.96 -649.459 248.406 -650.946 352.523C-651.679 403.825 -655.552 451.898 -659.314 498.402C-668.459 611.673 -676.35 709.497 -631.369 791.21C-607.641 834.312 -570.517 870.581 -517.878 902.082C-460.433 936.463 -384.61 965.265 -286.091 990.145C-189.425 1014.55 -97.0872 1026.81 -12.141 1026.81C54.3154 1026.81 116.244 1019.31 172.223 1004.27C286.336 973.609 371.459 912.18 411.901 831.315C430.724 793.667 439.403 753.09 437.683 710.701C435.918 667.263 423.266 623.207 400.071 579.758C349.607 485.249 251.609 398.486 116.643 328.857C-20.2206 258.235 -25.3257 154.214 -29.8205 62.4317C-32.4176 9.42421 -34.8813 -40.6443 -63.0931 -77.0972C-94.4458 -117.588 -154.277 -137.177 -251.386 -138.739C-281.607 -139.22 -310.218 -139.471 -337.254 -139.471L-337.232 -139.442Z" fill="#AFAFAF" fill-opacity="0.5"/>
<path d="M-6.69196 1038.62C-93.0919 1038.62 -186.162 1025.61 -282.85 999.694C-386.519 971.904 -466.127 940.808 -526.224 904.645C-581.837 871.179 -621.003 833.069 -645.974 788.126C-667.738 748.947 -679.247 704.187 -682.177 647.258C-684.818 595.966 -680.246 539.239 -675.396 479.187C-672.077 438.1 -668.648 395.624 -667.005 350.287C-663.077 241.979 -700.289 151.285 -730.199 78.408C-759.798 6.28273 -783.171 -50.6755 -750.731 -89.9228C-728.878 -116.364 -683.22 -133.718 -607.064 -144.53C-528.044 -155.746 -411.579 -160.092 -250.998 -157.799C-31.6296 -154.667 -28.2892 -59.8008 -24.4159 50.0397C-21.0753 144.973 -17.2797 252.569 126.199 324.434C266.57 394.738 367.997 482.502 419.504 578.226C443.121 622.108 455.873 666.781 457.415 711.01C458.914 753.938 449.846 795.257 430.458 833.839C387.974 918.395 299.287 982.773 180.736 1015.11C123.247 1030.8 60.264 1038.62 -6.70294 1038.62H-6.69196ZM-332.071 -156.488C-587.164 -156.488 -709.811 -136.127 -748.922 -88.8051C-780.685 -50.3768 -757.478 6.16711 -728.101 77.7624C-698.136 150.793 -660.835 241.68 -664.775 350.354C-666.417 395.73 -669.858 438.225 -673.165 479.332C-692.853 723.18 -705.849 884.284 -282.184 997.853C-110.993 1043.75 48.8661 1049.08 180.092 1013.28C298.022 981.106 386.22 917.114 428.438 833.069C447.693 794.756 456.694 753.707 455.207 711.068C453.675 667.108 440.99 622.686 417.495 579.045C366.177 483.678 265.06 396.212 125.089 326.11C-19.466 253.706 -23.2726 145.542 -26.6355 50.1071C-28.5554 -4.27829 -30.3533 -55.6477 -58.7871 -92.9871C-90.3617 -134.46 -151.458 -154.445 -251.042 -155.871C-279.421 -156.276 -306.445 -156.488 -332.093 -156.488H-332.071Z" fill="#AFAFAF" fill-opacity="0.5"/>
<path d="M-1.67535 1048.4C-89.2407 1048.4 -182.744 1034.69 -279.021 1007.37C-488.9 947.833 -606.187 878.762 -659.336 783.443C-708.935 694.503 -700.123 589.693 -688.969 456.996C-686.05 422.21 -683.02 386.239 -680.845 348.071C-674.408 235.301 -713.429 141.225 -744.782 65.6307C-774.991 -7.18834 -798.842 -64.7054 -766.046 -104.608C-743.75 -131.733 -696.837 -149.579 -618.395 -160.776C-536.911 -172.416 -416.617 -177.051 -250.643 -174.96C-25.8141 -172.118 -23.6722 -74.8714 -21.1862 37.7346C-19.0109 136.301 -16.5359 248.02 134.611 321.649C209.724 358.237 274.05 399.469 325.823 444.19C374.29 486.068 411.702 530.913 436.995 577.484C460.945 621.588 473.774 666.626 475.117 711.357C476.416 754.535 467.016 796.317 447.194 835.545C425.53 878.406 392.402 916.458 348.719 948.643C303.971 981.607 250.078 1006.96 188.527 1023.98C129.606 1040.27 65.7244 1048.4 -1.66425 1048.4H-1.67535ZM-278.322 1005.54C-108.396 1053.75 52.7949 1059.49 187.85 1022.15C249.123 1005.21 302.761 979.979 347.276 947.178C390.693 915.186 423.621 877.375 445.152 834.774C464.84 795.816 474.174 754.314 472.886 711.414C471.555 666.954 458.792 622.166 434.975 578.313C409.793 531.944 372.536 487.282 324.247 445.558C272.629 400.963 208.459 359.836 133.524 323.335C-18.7445 249.157 -21.2195 136.86 -23.4058 37.7731C-24.6377 -17.9902 -25.803 -70.6701 -54.4366 -108.896C-86.2442 -151.362 -148.605 -171.742 -250.676 -173.033C-571.516 -177.09 -720.299 -156.931 -764.237 -103.49C-796.356 -64.4164 -772.672 -7.3136 -742.684 64.9755C-711.265 140.734 -672.155 235.002 -678.614 348.157C-680.789 386.354 -683.819 422.335 -686.738 457.131C-697.87 589.539 -706.659 694.118 -657.317 782.595C-604.456 877.404 -487.557 946.156 -278.311 1005.53L-278.322 1005.54Z" fill="#AFAFAF" fill-opacity="0.5"/>
<path d="M3.03027 1057.98C-4.59424 1057.98 -12.252 1057.88 -19.9653 1057.66C-102.425 1055.42 -188.293 1041.08 -275.192 1015.05C-742.296 875.159 -727.99 717.495 -702.031 431.268C-699.545 403.873 -696.982 375.553 -694.695 345.845C-685.706 228.662 -726.548 131.252 -759.365 52.9787C-790.218 -20.6016 -814.579 -78.7258 -781.417 -119.293C-758.688 -147.093 -710.511 -165.44 -629.782 -177.032C-545.812 -189.087 -421.689 -194.02 -250.332 -192.132C-20.0318 -189.578 -19.0774 -89.9324 -17.9565 25.4391C-16.9688 127.629 -15.8589 243.463 143.002 318.864C220.823 355.799 287.301 397.397 340.595 442.484C390.404 484.632 428.738 529.815 454.519 576.79C478.846 621.125 491.776 666.54 492.941 711.761C494.062 755.21 484.34 797.444 464.052 837.28C441.5 881.576 406.985 921.035 361.493 954.549C315.08 988.738 259.467 1015.04 196.196 1032.75C136.32 1049.51 71.4288 1057.98 3.01917 1057.98H3.03027ZM-320.673 -190.609C-603.468 -190.609 -738.09 -168.967 -779.597 -118.176C-812.082 -78.4367 -787.888 -20.7365 -757.268 52.3234C-724.383 130.76 -683.453 228.382 -692.476 345.98C-694.751 375.697 -697.326 404.027 -699.812 431.422C-712.652 573.032 -722.796 684.887 -671.456 777.161C-644.787 825.08 -602.158 866.438 -541.129 903.585C-476.293 943.054 -389.06 978.919 -274.46 1013.24C-187.771 1039.2 -102.126 1053.5 -19.8876 1055.75C56.746 1057.85 129.218 1049.49 195.53 1030.93C258.523 1013.31 313.882 987.119 360.073 953.094C405.32 919.763 439.625 880.545 462.043 836.509C482.198 796.924 491.853 754.969 490.744 711.809C489.589 666.858 476.737 621.713 452.532 577.629C426.862 530.865 388.684 485.865 339.063 443.872C285.914 398.91 219.602 357.418 141.958 320.57C-18.0453 244.629 -19.1661 128.197 -20.1539 25.468C-20.7088 -31.683 -21.2305 -85.6733 -50.086 -124.805C-82.1379 -168.263 -145.764 -189.038 -250.343 -190.195C-274.737 -190.465 -298.177 -190.609 -320.673 -190.609Z" fill="#AFAFAF" fill-opacity="0.5"/>
<path d="M7.55835 1067.54C-0.310303 1067.54 -8.21228 1067.42 -16.1697 1067.19C-99.5288 1064.8 -185.385 1049.85 -271.352 1022.73C-392.434 984.536 -484.062 945.925 -551.461 904.693C-615.92 865.253 -660.679 821.785 -688.292 771.793C-741.774 674.952 -730.232 560.265 -714.262 401.531C-712.386 382.847 -710.433 363.527 -708.546 343.629C-696.971 222.061 -739.644 121.356 -773.937 40.4326C-805.456 -33.9667 -830.361 -92.7269 -796.822 -133.969C-773.66 -162.453 -724.206 -181.301 -641.191 -193.278C-554.746 -205.747 -426.783 -210.989 -249.999 -209.284C-14.2053 -207.019 -14.4274 -104.974 -14.6826 13.1821C-14.9156 118.995 -15.1708 238.934 151.403 316.089C231.921 353.39 300.553 395.345 355.378 440.807C406.563 483.235 445.84 528.774 472.132 576.145C496.881 620.73 509.932 666.52 510.931 712.224C511.886 755.952 501.842 798.62 481.088 839.072C457.626 884.766 421.712 925.603 374.323 960.437C326.201 995.811 268.834 1023.07 203.798 1041.46C142.491 1058.79 76.5673 1067.54 7.53613 1067.54H7.55835ZM-270.586 1020.91C-184.841 1047.96 -99.207 1062.88 -16.092 1065.26C61.3184 1067.47 135.089 1058.84 203.132 1039.61C267.89 1021.3 325.002 994.163 372.902 958.943C420.025 924.292 455.751 883.696 479.068 838.262C499.7 798.08 509.677 755.682 508.723 712.243C507.724 666.81 494.75 621.299 470.145 576.964C443.975 529.805 404.843 484.458 353.858 442.185C299.176 396.848 230.711 354.989 150.371 317.775C-17.3795 240.071 -17.1242 119.525 -16.8912 13.1628C-16.7691 -45.3854 -16.647 -100.686 -45.7244 -140.714C-78.0093 -185.165 -142.923 -206.345 -250.01 -207.376C-591.426 -210.652 -749.31 -189.077 -795.002 -132.88C-827.864 -92.4571 -803.137 -34.1209 -771.84 39.7485C-737.479 120.845 -694.707 221.772 -706.326 343.763C-708.224 363.662 -710.166 382.992 -712.042 401.676C-727.99 560.11 -739.499 674.576 -686.283 770.936C-658.848 820.619 -614.322 863.846 -550.185 903.093C-482.952 944.229 -391.491 982.763 -270.597 1020.9L-270.586 1020.91Z" fill="#AFAFAF" fill-opacity="0.5"/>
<path d="M11.8755 1077.01C3.79602 1077.01 -4.31683 1076.89 -12.4741 1076.65C-96.7321 1074.13 -182.533 1058.57 -267.501 1030.4C-395.42 987.986 -491.475 946.561 -561.128 903.758C-628.872 862.121 -675.54 816.697 -703.785 764.885C-758.977 663.64 -744.849 539.336 -725.293 367.285C-724.328 358.777 -723.351 350.152 -722.363 341.403C-708.169 215.49 -752.684 111.518 -788.465 27.9737C-820.683 -47.2736 -846.142 -106.718 -812.226 -148.654C-788.642 -177.822 -737.912 -197.161 -652.589 -209.534C-563.658 -222.417 -431.855 -227.958 -249.644 -226.455C-156.618 -225.684 -93.6356 -209.563 -57.1001 -177.167C-9.54407 -134.99 -10.4319 -68.9738 -11.3642 0.925522C-12.8292 110.352 -14.494 234.386 159.827 313.305C243.03 350.972 313.815 393.312 370.194 439.15C422.767 481.886 463.02 527.772 489.845 575.548C515.038 620.403 528.233 666.569 529.088 712.764C529.898 756.771 519.533 799.892 498.279 840.922C449.092 935.875 344.513 1012.11 211.367 1050.07C148.584 1067.97 81.5728 1077.01 11.8645 1077.01H11.8755ZM-307.843 -224.768C-619.527 -224.768 -766.501 -201.844 -810.417 -147.546C-843.656 -106.439 -818.386 -47.4182 -786.389 27.2992C-750.531 111.026 -705.916 215.23 -720.166 341.586C-721.154 350.336 -722.13 358.96 -723.096 367.468C-742.618 539.21 -756.713 663.293 -701.787 764.056C-673.709 815.56 -627.274 860.743 -559.852 902.188C-490.354 944.904 -394.465 986.252 -266.713 1028.61C-181.967 1056.71 -96.4102 1072.22 -12.3964 1074.73C65.8131 1077.06 140.86 1068.15 210.679 1048.24C343.225 1010.45 447.316 934.594 496.259 840.132C517.379 799.362 527.679 756.521 526.88 712.793C526.036 666.887 512.907 621 487.858 576.396C461.156 528.832 421.058 483.129 368.685 440.557C312.45 394.844 241.832 352.61 158.806 315.02C-16.7247 235.561 -15.0488 110.901 -13.5728 0.915878C-12.6405 -68.5691 -11.7637 -134.2 -58.6761 -175.808C-94.7788 -207.828 -157.251 -223.757 -249.655 -224.518C-269.643 -224.682 -289.054 -224.768 -307.832 -224.768H-307.843Z" fill="#AFAFAF" fill-opacity="0.5"/>
<path d="M15.9931 1086.45C7.72491 1086.45 -0.565369 1086.31 -8.90027 1086.05C-94.0351 1083.42 -179.758 1067.28 -263.672 1038.09C-528.632 945.916 -660.335 865.465 -718.246 760.414C-744.993 711.896 -757.623 654.948 -757.967 581.194C-758.289 514.976 -749.554 442.378 -736.214 339.186C-719.367 208.947 -765.747 101.737 -803.026 15.5912C-835.965 -60.5523 -861.991 -120.69 -827.686 -163.33C-803.669 -193.182 -751.674 -213.022 -664.042 -225.771C-572.626 -239.068 -436.96 -244.898 -249.311 -243.607C-154.154 -242.942 -89.9066 -226.542 -52.8828 -193.452C-4.68298 -150.379 -6.31433 -82.821 -8.04565 -11.2932C-10.7648 101.746 -13.8612 229.876 168.217 310.539C254.107 348.591 327.044 391.317 384.988 437.541C438.97 480.594 480.222 526.857 507.602 575.037C533.261 620.191 546.635 666.742 547.345 713.409C548.022 757.725 537.323 801.289 515.559 842.897C464.474 940.529 356.321 1019.17 218.836 1058.65C154.522 1077.12 86.4005 1086.45 15.9931 1086.45ZM-262.851 1036.3C-179.17 1065.41 -93.7021 1081.5 -8.82257 1084.12C70.1638 1086.57 146.531 1077.38 218.137 1056.81C355.034 1017.49 462.698 939.228 513.54 842.088C535.17 800.74 545.802 757.455 545.136 713.428C544.426 667.06 531.13 620.779 505.627 575.885C478.369 527.917 437.283 481.847 383.501 438.948C325.701 392.84 252.93 350.21 167.218 312.235C-16.103 231.023 -12.9955 102.257 -10.2542 -11.351C-8.54517 -82.4645 -6.92468 -149.627 -54.4698 -192.122C-91.0608 -224.817 -154.798 -241.034 -249.322 -241.689C-436.849 -242.99 -572.381 -237.17 -663.665 -223.882C-750.664 -211.22 -802.204 -191.63 -825.855 -162.231C-859.483 -120.43 -833.646 -60.7065 -800.939 14.907C-763.582 101.245 -717.092 208.706 -734.006 339.398C-747.346 442.523 -756.069 515.072 -755.747 581.184C-755.392 654.639 -742.84 711.328 -716.237 759.575C-658.582 864.145 -527.223 944.316 -262.84 1036.29L-262.851 1036.3Z" fill="#AFAFAF" fill-opacity="0.5"/>
<path d="M19.9885 1095.78C11.5539 1095.78 3.08588 1095.65 -5.40442 1095.38C-91.4158 1092.63 -177.017 1075.94 -259.832 1045.75C-399.315 994.914 -498.556 950.733 -572.148 906.697C-647.45 861.649 -697.193 816.08 -728.701 763.304C-757.944 714.324 -772.106 657.308 -773.26 583.882C-774.292 518.155 -765.536 443.563 -750.065 336.941C-730.543 202.404 -778.798 91.9657 -817.575 3.23767C-851.248 -73.8212 -877.85 -134.692 -843.157 -178.034C-818.719 -208.571 -765.436 -228.912 -675.495 -242.046C-581.593 -255.758 -442.077 -261.887 -248.967 -260.788C-151.679 -260.229 -86.1553 -243.54 -48.6432 -209.775C0.200195 -165.797 -2.17468 -96.697 -4.68292 -23.5407C-8.67828 93.1124 -13.2175 225.328 176.641 307.734C265.216 346.182 340.318 389.322 399.849 435.951C455.262 479.351 497.525 525.999 525.47 574.593C551.618 620.056 565.169 667.012 565.746 714.151C566.29 758.785 555.258 802.792 532.962 844.969C507.069 893.91 465.617 939.931 413.078 978.042C359.64 1016.81 296.79 1046.78 226.261 1067.16C160.393 1086.18 91.1174 1095.78 19.9885 1095.78ZM-292.172 -258.976C-462.953 -258.976 -588.496 -252.79 -675.129 -240.138C-764.437 -227.091 -817.254 -207.01 -841.337 -176.926C-875.364 -134.412 -848.95 -73.9658 -815.5 2.56314C-776.634 91.4936 -728.268 202.172 -747.856 337.192C-763.316 443.727 -772.061 518.242 -771.029 583.863C-769.875 656.981 -755.803 713.717 -726.725 762.417C-695.395 814.905 -645.874 860.242 -570.883 905.107C-497.424 949.057 -398.305 993.18 -258.966 1043.97C-176.406 1074.06 -91.0718 1090.71 -5.31555 1093.44C74.4478 1095.99 152.124 1086.52 225.562 1065.31C295.825 1045.02 358.43 1015.16 411.657 976.548C463.941 938.621 505.194 892.84 530.942 844.15C553.105 802.243 564.07 758.505 563.526 714.161C562.949 667.31 549.476 620.643 523.484 575.441C495.66 527.059 453.564 480.604 398.362 437.367C338.975 390.854 264.051 347.82 175.653 309.45C-15.4705 226.494 -10.9092 93.6231 -6.8916 -23.6082C-5.6153 -60.8994 -4.40546 -96.1189 -9.55505 -127.677C-15.3263 -162.983 -28.2446 -188.653 -50.2303 -208.445C-87.2984 -241.824 -152.312 -258.321 -248.967 -258.87C-263.672 -258.957 -278.078 -258.996 -292.161 -258.996L-292.172 -258.976Z" fill="#AFAFAF" fill-opacity="0.5"/>
<path d="M23.9727 1105.09C-70.64 1105.09 -165.952 1087.78 -255.992 1053.43C-399.426 998.73 -500.787 953.017 -574.967 909.569C-653.565 863.528 -705.716 817.94 -739.089 766.099C-770.863 716.724 -786.578 659.669 -788.531 586.552C-790.396 516.826 -780.03 435.459 -763.904 334.744C-741.674 195.919 -791.828 82.2818 -832.114 -9.0191C-866.541 -87.0319 -893.732 -148.644 -858.639 -192.7C-833.768 -223.921 -779.22 -244.763 -686.971 -258.282C-590.583 -272.409 -447.204 -278.846 -248.623 -277.93C-149.194 -277.477 -82.3931 -260.508 -44.3926 -226.05C5.10565 -181.166 1.987 -110.524 -1.2981 -35.73C-6.59198 84.5269 -12.5851 220.828 185.053 304.979C276.325 343.841 353.591 387.395 414.72 434.438C471.577 478.195 514.871 525.247 543.405 574.275C570.063 620.075 583.802 667.436 584.258 715.057C584.668 760.028 573.292 804.488 550.43 847.214C523.594 897.379 480.566 944.673 426.018 983.987C371.537 1023.25 305.003 1054.95 233.608 1075.65C165.808 1095.32 95.0904 1105.09 23.9727 1105.09ZM-284.715 -276.09C-464.584 -276.09 -596.276 -269.624 -686.605 -256.384C-778.232 -242.952 -832.314 -222.369 -856.819 -191.602C-891.246 -148.384 -864.233 -87.1861 -830.039 -9.70328C-789.652 81.8096 -739.388 195.688 -761.696 335.014C-777.81 435.643 -788.154 516.922 -786.301 586.513C-784.358 659.303 -768.743 716.078 -737.146 765.174C-703.951 816.745 -652.023 862.131 -573.724 907.989C-499.655 951.37 -398.416 997.035 -255.104 1051.68C-97.8863 1111.64 75.4243 1119.5 232.898 1073.82C304.037 1053.18 370.316 1021.61 424.598 982.494C478.902 943.362 521.708 896.3 548.41 846.395C571.128 803.93 582.438 759.749 582.027 715.067C581.572 667.744 567.91 620.663 541.407 575.143C512.996 526.327 469.868 479.477 413.233 435.883C352.26 388.956 275.149 345.488 184.065 306.713C95.3124 268.921 39.5768 217.234 13.6735 148.703C-9.01141 88.6993 -6.22577 25.4102 -3.52887 -35.7975C-1.85303 -73.927 -0.266052 -109.937 -5.22687 -142.198C-10.776 -178.285 -23.7277 -204.504 -46.013 -224.711C-83.5806 -258.774 -149.859 -275.55 -248.645 -276.003C-260.864 -276.061 -272.906 -276.09 -284.715 -276.09Z" fill="#AFAFAF" fill-opacity="0.5"/>
<path d="M27.6017 1114.41C-67.9876 1114.41 -163.244 1096.55 -252.163 1061.11C-402.245 1001.29 -502.64 955.407 -577.698 912.305C-659.692 865.224 -714.251 819.607 -749.399 768.749C-819.884 666.781 -814.246 541.841 -777.744 332.518C-752.795 189.414 -804.846 72.5976 -846.664 -21.2568C-881.857 -100.243 -909.658 -162.626 -874.154 -207.395C-848.862 -239.3 -793.037 -260.634 -698.469 -274.548C-599.595 -289.089 -452.343 -295.815 -248.301 -295.111C-146.741 -294.764 -78.6531 -277.506 -40.1643 -242.364C-17.2353 -221.435 -4.05048 -194.319 1.33221 -157.018C6.11542 -123.899 4.15106 -87.0127 2.06458 -47.9581C-4.53888 75.8931 -12.019 216.28 193.443 302.165C287.412 341.451 366.865 385.439 429.603 432.925C487.925 477.058 532.262 524.525 561.395 573.996C588.575 620.143 602.514 667.937 602.83 716.04C603.124 761.358 591.394 806.271 567.954 849.556C540.142 900.906 495.538 949.442 438.948 989.923C382.646 1030.2 314.159 1062.76 240.877 1084.08C171.291 1104.32 99.3409 1114.39 27.5795 1114.39L27.6017 1114.41ZM-251.231 1059.36C-96.0773 1121.19 78.443 1129.34 240.189 1082.26C313.216 1061.02 381.459 1028.57 437.549 988.449C493.884 948.141 538.289 899.836 565.956 848.746C589.252 805.731 600.916 761.088 600.622 716.069C600.305 668.265 586.444 620.769 559.431 574.892C530.431 525.643 486.26 478.368 428.149 434.39C365.555 387.019 286.269 343.128 192.478 303.919C100.229 265.356 42.551 212.339 16.1371 141.842C-6.98053 80.1329 -3.51782 14.9744 -0.15509 -48.0352C1.92029 -87.0031 3.8847 -123.812 -0.876343 -156.768C-6.20349 -193.635 -19.1996 -220.413 -41.7736 -241.025C-79.8295 -275.772 -147.385 -292.828 -248.312 -293.174C-452.232 -293.878 -599.361 -287.162 -698.103 -272.64C-792.038 -258.822 -847.408 -237.748 -872.334 -206.296C-907.161 -162.366 -879.548 -100.397 -844.6 -21.9409C-802.682 72.1254 -750.52 189.202 -775.557 332.817C-811.971 541.677 -817.631 666.299 -747.501 767.766C-712.53 818.364 -658.182 863.788 -576.477 910.706C-501.519 953.75 -401.213 999.598 -251.242 1059.37L-251.231 1059.36Z" fill="#AFAFAF" fill-opacity="0.5"/>
<path d="M31.3975 1123.52C-65.9343 1123.52 -161.457 1104.94 -248.323 1068.79C-406.252 1003.08 -505.537 957.055 -580.317 914.907C-665.807 866.718 -722.785 821.072 -759.62 771.283C-796.6 721.301 -815.467 664.237 -819.018 591.678C-822.159 527.474 -813.957 449.306 -791.594 330.312C-763.904 182.939 -817.853 62.9618 -861.214 -33.4462C-897.183 -113.415 -925.584 -176.589 -889.692 -222.08C-863.977 -254.669 -806.877 -276.504 -709.978 -290.794C-608.617 -305.749 -457.503 -312.764 -247.968 -312.263C-144.266 -312.013 -74.9017 -294.475 -35.9025 -258.648C-12.6738 -237.305 0.544373 -209.621 5.71606 -171.539C10.2996 -137.717 7.95795 -100.031 5.48303 -60.1378C-2.4411 67.3172 -11.4197 211.77 201.856 299.4C337.488 355.125 442.377 419.473 513.595 490.664C577.943 554.984 613.901 623.66 620.46 694.783C626.187 756.79 609.528 817.873 570.951 876.315C534.771 931.134 479.779 981.511 411.913 1021.98C367.853 1048.27 319.198 1070.03 267.313 1086.65C214.086 1103.7 158.561 1115 102.282 1120.21C78.6095 1122.4 54.9369 1123.49 31.3753 1123.49L31.3975 1123.52ZM-268.855 -310.355C-467.458 -310.355 -611.758 -303.321 -709.6 -288.886C-805.856 -274.692 -862.501 -253.108 -887.85 -220.981C-923.087 -176.328 -894.864 -113.579 -859.138 -34.14C-815.689 62.4799 -761.607 182.727 -789.397 330.63C-811.738 449.49 -819.928 527.541 -816.799 591.601C-813.269 663.794 -794.513 720.559 -757.756 770.242C-721.087 819.8 -664.32 865.263 -579.107 913.298C-504.416 955.397 -405.208 1001.39 -247.369 1067.06C-160.802 1103.08 -65.6014 1121.59 31.3975 1121.59C54.8814 1121.59 78.4653 1120.5 102.071 1118.32C158.173 1113.13 213.509 1101.87 266.57 1084.87C318.277 1068.29 366.765 1046.61 410.681 1020.41C478.269 980.094 533.039 929.939 569.053 875.371C607.397 817.266 623.956 756.559 618.274 694.947C611.748 624.238 575.967 555.938 511.941 491.936C440.923 420.948 336.289 356.763 200.935 301.153C105.201 261.819 45.5699 207.482 18.6567 135.029C-4.90497 71.6149 -0.743164 4.58704 3.28552 -60.2245C5.76044 -100.04 8.09113 -137.64 3.52972 -171.298C-1.5755 -208.946 -14.616 -236.283 -37.5006 -257.309C-76.056 -292.731 -144.887 -310.076 -247.957 -310.326C-254.971 -310.355 -261.963 -310.355 -268.844 -310.355H-268.855Z" fill="#AFAFAF" fill-opacity="0.5"/>
<path d="M34.9712 1132.69C-63.4816 1132.69 -158.927 1113.6 -244.483 1076.47C-390.326 1013.18 -497.801 964.484 -582.814 917.374C-673.143 867.325 -730.798 822.999 -769.742 773.673C-809.374 723.479 -829.861 666.434 -834.212 594.155C-838.141 528.852 -829.262 446.801 -805.423 328.096C-774.98 176.551 -830.805 52.8827 -875.653 -46.4931C-912.532 -128.206 -941.665 -192.758 -904.952 -239.155C-878.638 -272.409 -820.173 -294.571 -720.954 -308.9C-617.052 -323.903 -462.22 -330.61 -247.602 -329.415C-141.724 -328.827 -71.0617 -310.702 -31.574 -274.008C-8.05682 -252.163 5.18341 -223.891 10.1221 -185.039C14.506 -150.542 11.787 -112.133 8.91241 -71.4792C-0.332458 59.1846 -10.8093 207.28 210.279 296.634C349.707 352.976 457.371 417.98 530.298 489.845C596.111 554.705 632.79 624.017 639.316 695.862C642.224 727.825 639.005 760.154 629.761 791.933C620.871 822.489 606.376 852.698 586.677 881.721C548.666 937.725 491.21 989.201 420.514 1030.56C375.133 1057.11 325.246 1079.08 272.252 1095.84C217.937 1113.03 161.569 1124.35 104.702 1129.52C81.3619 1131.64 58.0778 1132.69 34.9712 1132.69ZM-295.258 -327.642C-485.238 -327.642 -624.677 -320.858 -720.599 -307.002C-819.185 -292.769 -877.184 -270.857 -903.132 -238.066C-939.179 -192.507 -910.235 -128.38 -873.588 -47.1965C-828.641 52.4009 -772.694 176.348 -803.237 328.423C-827.053 446.975 -835.921 528.9 -832.003 594.049C-827.675 665.962 -807.31 722.689 -767.922 772.584C-729.156 821.689 -671.7 865.841 -581.626 915.746C-496.691 962.808 -389.271 1011.48 -243.495 1074.75C-158.261 1111.74 -63.1264 1130.76 34.9601 1130.76C58.0001 1130.76 81.1843 1129.71 104.457 1127.6C161.136 1122.47 217.327 1111.17 271.475 1094.03C324.303 1077.31 374.023 1055.42 419.26 1028.96C489.689 987.755 546.912 936.502 584.757 880.738C604.345 851.869 618.762 821.824 627.596 791.451C636.786 759.874 639.982 727.757 637.097 696.007C630.615 624.585 594.113 555.649 528.622 491.108C455.906 419.454 348.486 354.604 209.336 298.369C110.095 258.264 48.5333 202.693 21.1206 128.496C-2.8739 63.5497 1.98712 -5.16443 6.69275 -71.6141C9.56732 -112.191 12.2751 -150.513 7.91351 -184.846C3.03033 -223.265 -10.0323 -251.18 -33.2055 -272.707C-72.2603 -308.996 -142.39 -326.919 -247.624 -327.507C-263.828 -327.594 -279.72 -327.642 -295.247 -327.642H-295.258Z" fill="#AFAFAF" fill-opacity="0.5"/>
<path d="M38.5226 1141.84C-61.0511 1141.84 -156.441 1122.24 -240.654 1084.14C-537.577 949.838 -696.405 875.13 -779.786 775.928C-822.126 725.56 -844.245 668.563 -849.405 596.563C-854.2 529.594 -844.911 446.107 -819.274 325.879C-786.056 170.066 -843.801 43.2948 -890.214 -58.5671C-927.87 -141.234 -957.625 -206.518 -920.545 -253.628C-893.832 -287.576 -834.09 -310.249 -732.552 -324.992C-626.175 -340.439 -467.436 -347.502 -247.291 -346.586C-139.272 -346.133 -67.3216 -327.758 -27.3345 -290.399C-3.50659 -268.14 9.77808 -239.319 14.4948 -199.676C18.6899 -164.466 15.5935 -125.258 12.3195 -83.7362C1.73181 50.5507 -10.2766 202.761 218.659 293.849C361.926 350.846 472.409 416.544 547.056 489.103C614.367 554.541 651.757 624.527 658.216 697.125C661.124 729.819 657.606 762.9 647.762 795.46C638.317 826.7 623.024 857.602 602.292 887.319C562.394 944.509 502.397 997.064 428.782 1039.28C382.092 1066.06 330.984 1088.2 276.902 1105.08C221.522 1122.37 164.333 1133.71 106.921 1138.8C83.9589 1140.83 61.1187 1141.84 38.5004 1141.84H38.5226ZM-284.47 -344.746C-485.316 -344.746 -631.99 -337.635 -732.174 -323.094C-833.08 -308.447 -892.356 -286.024 -918.703 -252.549C-955.116 -206.287 -925.562 -141.408 -888.138 -59.2802C-841.625 42.813 -783.748 169.863 -817.087 326.226C-842.691 446.3 -851.969 529.642 -847.186 596.448C-842.058 668.072 -820.062 724.741 -777.988 774.8C-694.895 873.646 -536.234 948.267 -239.622 1082.44C-136.675 1129.01 -16.9133 1147.83 106.71 1136.87C163.944 1131.8 220.956 1120.49 276.159 1103.26C330.085 1086.44 381.026 1064.36 427.572 1037.67C500.91 995.609 560.674 943.276 600.405 886.317C621.026 856.764 636.242 826.025 645.631 794.968C655.409 762.62 658.905 729.752 656.019 697.269C649.604 625.105 612.392 555.505 545.414 490.385C470.978 418.019 360.739 352.484 217.748 295.594C115.001 254.718 51.4965 197.817 23.5843 121.645C-0.842957 54.9832 4.72833 -15.6099 10.111 -83.8712C13.3739 -125.306 16.4703 -164.438 12.2973 -199.474C7.63605 -238.683 -5.48206 -267.157 -28.9549 -289.088C-68.5092 -326.042 -139.926 -344.216 -247.302 -344.669C-259.888 -344.717 -272.307 -344.746 -284.481 -344.746H-284.47Z" fill="#AFAFAF" fill-opacity="0.5"/>
<path d="M42.0961 1150.95C-58.6096 1150.95 -153.944 1130.86 -236.803 1091.82C-258.822 1081.45 -280.186 1071.41 -300.896 1061.68C-561.827 939.122 -719.323 865.137 -799.652 766.388C-839.85 716.965 -860.659 661.095 -865.154 590.56C-869.427 523.446 -859.538 441.125 -833.113 323.663C-797.066 163.475 -856.83 34.3043 -904.852 -69.4848C-943.141 -152.229 -973.384 -217.59 -936.416 -265.201C-909.514 -299.842 -848.606 -323.239 -744.749 -338.82C-635.941 -355.143 -473.107 -363.295 -246.947 -363.758C-136.797 -363.633 -63.5594 -345.112 -23.0619 -307.156C1.08795 -284.531 14.4282 -255.151 18.9341 -214.709C22.9294 -178.786 19.4667 -138.729 15.7932 -96.321C9.73352 -26.3542 3.47412 46.0023 28.1901 114.1C56.3907 191.775 121.449 249.659 227.093 291.064C374.245 348.736 487.592 415.157 563.959 488.467C632.768 554.522 670.891 625.211 677.261 698.579C680.158 732.007 676.329 765.858 665.863 799.189C655.841 831.113 639.704 862.709 617.896 893.12C576.034 951.495 513.406 1005.11 436.806 1048.15C388.817 1075.12 336.522 1097.39 281.364 1114.35C224.951 1131.7 166.974 1143.03 109.052 1148.03C86.5336 1149.98 64.1705 1150.95 42.0961 1150.95ZM-235.749 1090.13C-135.11 1137.54 -15.9588 1156.9 108.83 1146.12C166.585 1141.13 224.385 1129.84 280.62 1112.54C335.612 1095.63 387.752 1073.43 435.596 1046.54C511.93 1003.65 574.313 950.242 616.01 892.108C637.707 861.861 653.755 830.428 663.721 798.688C674.12 765.559 677.938 731.93 675.052 698.724C668.726 625.789 630.792 555.485 562.316 489.758C486.149 416.64 373.057 350.383 226.183 292.818C119.928 251.172 54.4819 192.903 26.0814 114.678C1.2323 46.224 7.51398 -26.3156 13.5847 -96.4655C17.2471 -138.787 20.7098 -178.766 16.7255 -214.516C12.2751 -254.515 -0.88739 -283.538 -24.6822 -305.836C-64.7358 -343.378 -137.44 -361.696 -246.936 -361.821C-472.974 -361.358 -635.675 -353.216 -744.36 -336.912C-847.585 -321.427 -908.026 -298.301 -934.562 -264.122C-970.876 -217.368 -940.822 -152.422 -902.788 -70.2075C-879.004 -18.7996 -852.047 39.4595 -835.499 105.081C-816.355 180.983 -814.856 252.598 -830.927 324.019C-857.318 441.318 -867.196 523.484 -862.934 590.435C-858.473 660.594 -837.785 716.146 -797.843 765.26C-717.813 863.644 -560.484 937.542 -299.841 1059.98C-279.132 1069.71 -257.768 1079.74 -235.749 1090.12V1090.13Z" fill="#AFAFAF" fill-opacity="0.5"/>
<path d="M45.681 1160.05C-56.1789 1160.05 -151.469 1139.45 -232.974 1099.49C-280.752 1076.07 -324.868 1054.75 -367.53 1034.14C-604.234 919.783 -747.113 850.76 -821.171 754.825C-858.462 706.52 -877.473 651.893 -880.991 582.929C-884.354 517.009 -873.544 433.918 -846.964 321.447C-829.706 248.406 -830.782 175.192 -850.249 97.632C-867.096 30.5175 -894.886 -29.0521 -919.402 -81.6164C-958.501 -165.449 -989.388 -231.668 -951.976 -280.011C-924.64 -315.337 -862.457 -339.215 -756.269 -355.162C-644.975 -371.871 -478.257 -380.293 -246.614 -380.91C-134.311 -380.91 -59.7969 -362.11 -18.7889 -323.479C5.67169 -300.44 19.0563 -270.501 23.3403 -229.268C27.147 -192.642 23.3069 -151.776 19.2339 -108.51C12.4861 -36.732 5.50531 37.4843 30.654 107.278C59.343 186.909 126.343 246.113 235.495 288.289C386.587 346.664 502.807 413.836 580.939 487.927C651.28 554.637 690.113 626.059 696.372 700.227C699.258 734.397 695.074 769.019 683.953 803.14C673.321 835.757 656.308 868.057 633.39 899.152C589.474 958.722 524.149 1013.39 444.464 1057.23C344.812 1112.07 226.383 1147.6 111.005 1157.27C88.9976 1159.12 67.1895 1160.05 45.6921 1160.05H45.681ZM-246.603 -378.982C-478.124 -378.366 -644.709 -369.954 -755.88 -353.264C-861.425 -337.413 -923.153 -313.795 -950.122 -278.942C-986.868 -231.446 -956.182 -165.642 -917.327 -82.3391C-892.777 -29.7074 -864.954 29.949 -848.062 97.2274C-828.518 175.057 -827.442 248.522 -844.766 321.832C-946.471 752.233 -835.111 806.03 -366.431 1032.47C-323.769 1053.08 -279.654 1074.39 -231.865 1097.82C-133.556 1146.03 -15.0599 1165.92 110.806 1155.37C225.85 1145.73 343.925 1110.3 443.287 1055.62C522.696 1011.92 587.787 957.46 631.525 898.131C654.332 867.2 671.257 835.063 681.823 802.629C692.876 768.72 697.027 734.319 694.164 700.381C687.949 626.657 649.305 555.62 579.308 489.238C501.387 415.34 385.41 348.331 234.607 290.062C124.845 247.655 57.4452 188.056 28.5564 107.865C3.28564 37.7059 10.2775 -36.7031 17.0475 -108.655C21.1094 -151.834 24.9384 -192.613 21.1539 -229.076C16.9143 -269.865 3.7074 -299.447 -20.3981 -322.159C-60.9622 -360.375 -134.954 -378.954 -246.592 -378.982H-246.603Z" fill="#AFAFAF" fill-opacity="0.5"/>
<path d="M49.3214 1169.14C-53.715 1169.14 -148.983 1148.06 -229.134 1107.17C-299.764 1071.14 -365.177 1038.91 -422.899 1010.47C-850.582 799.719 -965.538 743.078 -860.803 319.23C-842.291 244.311 -842.946 169.246 -862.812 89.7784C-880.003 21.0258 -908.648 -39.941 -933.93 -93.729C-973.85 -178.66 -1005.37 -245.737 -967.535 -294.832C-939.779 -330.841 -876.308 -355.201 -767.8 -371.505C-654.009 -388.599 -483.418 -397.291 -246.281 -398.062C-245.959 -398.062 -245.637 -398.062 -245.316 -398.062C-131.403 -398.062 -55.9014 -379.002 -14.5048 -339.803C10.2665 -316.349 23.7065 -285.851 27.7796 -243.819C31.3976 -206.489 27.1802 -164.814 22.7188 -120.69C15.2717 -47.1102 7.58063 28.9658 33.14 100.474C62.3063 182.062 131.249 242.595 243.907 285.533C398.983 344.64 518.112 412.593 598.008 487.494C669.881 554.888 709.435 627.08 715.561 702.077C718.414 736.998 713.863 772.41 702.055 807.331C690.779 840.652 672.855 873.665 648.772 905.454C602.736 966.228 534.604 1021.93 451.755 1066.56C349.529 1121.61 229.158 1157.13 112.792 1166.56C91.3615 1168.29 70.1749 1169.16 49.3214 1169.16V1169.14ZM-245.305 -396.144C-245.626 -396.144 -245.937 -396.144 -246.27 -396.144C-483.285 -395.374 -653.754 -386.692 -767.411 -369.607C-875.287 -353.399 -938.291 -329.3 -965.682 -293.753C-1002.86 -245.515 -971.531 -178.853 -931.865 -94.4517C-906.55 -40.5963 -877.861 20.4573 -860.637 89.3737C-840.704 169.121 -840.049 244.445 -858.628 319.645C-885.697 429.186 -897.083 510.687 -894.475 576.154C-891.801 643.433 -874.354 696.681 -839.572 743.724C-807.21 787.51 -759.554 826.969 -685.062 871.661C-615.898 913.153 -530.241 955.359 -421.8 1008.8C-364.078 1037.25 -298.654 1069.48 -228.013 1105.52C-132.036 1154.48 -14.2607 1174.91 112.592 1164.62C228.614 1155.21 348.653 1119.8 450.59 1064.9C533.172 1020.43 601.06 964.918 646.93 904.375C670.891 872.75 688.726 839.91 699.935 806.772C711.677 772.073 716.194 736.892 713.353 702.202C707.271 627.658 667.916 555.851 596.388 488.794C516.702 414.077 397.807 346.288 243.019 287.287C129.739 244.108 60.3973 183.19 31.0203 101.033C5.3277 29.1681 13.0411 -47.1006 20.5102 -120.864C24.9606 -164.9 29.1779 -206.489 25.571 -243.655C21.5423 -285.234 8.29102 -315.376 -16.1362 -338.492C-57.0889 -377.268 -132.069 -396.125 -245.305 -396.125V-396.144Z" fill="#AFAFAF" fill-opacity="0.5"/>
<path d="M53.028 1178.22C-51.2181 1178.22 -146.474 1156.64 -225.294 1114.84C-316.311 1066.57 -397.861 1025.88 -469.811 989.971C-665.973 892.089 -795.557 827.422 -860.781 735.967C-925.14 645.736 -929.024 528.273 -874.632 317.014C-854.855 240.206 -855.099 163.311 -875.353 81.9158C-892.877 11.5154 -922.399 -50.8294 -948.446 -105.841C-989.188 -191.871 -1021.36 -259.834 -983.084 -309.661C-954.905 -346.345 -890.158 -371.197 -779.309 -387.867C-663.032 -405.356 -488.556 -414.308 -245.926 -415.233C-245.26 -415.233 -244.572 -415.233 -243.906 -415.233C-128.429 -415.233 -51.9728 -395.903 -10.1879 -356.145C14.9053 -332.277 28.3898 -301.211 32.2408 -258.388C35.6703 -220.345 31.0756 -177.86 26.2145 -132.889C18.0684 -57.5071 9.64484 20.4383 35.6259 93.6331C65.2803 177.177 136.165 239.03 252.331 282.729C635.065 426.72 725.971 591.322 734.85 704.043C737.658 739.735 732.73 775.947 720.189 811.677C708.247 845.711 689.369 879.437 664.076 911.93C615.821 973.918 544.792 1030.66 458.67 1076.03C353.924 1131.21 231.677 1166.63 114.446 1175.78C93.6808 1177.4 73.1824 1178.22 53.028 1178.22ZM-224.14 1113.2C-130.493 1162.86 -13.4949 1183.84 114.235 1173.86C231.144 1164.73 353.047 1129.4 457.504 1074.38C543.36 1029.16 614.145 972.607 662.223 910.85C687.383 878.522 706.172 844.969 718.047 811.118C730.51 775.619 735.405 739.639 732.619 704.178C723.796 591.987 633.145 428.098 251.432 284.493C134.634 240.553 63.3383 178.305 33.4839 94.192C7.36969 20.6214 15.8154 -57.5167 23.9838 -133.082C28.8337 -177.976 33.4174 -220.374 29.999 -258.253C26.1813 -300.623 12.8854 -331.323 -11.8526 -354.854C-53.1936 -394.188 -129.128 -413.315 -243.928 -413.315C-244.605 -413.315 -245.26 -413.315 -245.937 -413.315C-488.445 -412.381 -662.788 -403.439 -778.942 -385.978C-889.148 -369.404 -953.44 -344.823 -981.253 -308.601C-1018.88 -259.622 -986.902 -192.083 -946.415 -106.573C-920.334 -51.4943 -890.769 10.9469 -873.2 81.5111C-852.868 163.176 -852.635 240.351 -872.479 317.429C-926.727 528.138 -922.92 645.196 -858.905 734.946C-793.97 825.986 -664.575 890.557 -468.713 988.295C-396.752 1024.21 -315.179 1064.91 -224.14 1113.2Z" fill="#AFAFAF" fill-opacity="0.5"/>
<path d="M56.8014 1187.3C-48.6876 1187.3 -143.955 1165.24 -221.454 1122.51C-330.706 1062.29 -426.095 1014.38 -510.265 972.106C-695.139 879.254 -817.276 817.911 -879.382 728.258C-911.112 682.449 -926.527 630.569 -927.881 564.986C-929.224 499.866 -916.705 420.37 -888.482 314.798C-867.44 236.111 -867.262 157.365 -887.916 74.0624C-905.785 2.02386 -936.183 -61.7085 -962.996 -117.934C-1004.56 -205.082 -1037.39 -273.912 -998.666 -324.501C-970.066 -361.869 -904.031 -387.202 -790.851 -404.229C-672.088 -422.104 -493.728 -431.316 -245.593 -432.408C-183.265 -432.568 -133.245 -427.471 -92.7145 -416.775C-55.0913 -406.85 -26.702 -392.357 -5.90381 -372.488C19.5001 -348.205 33.04 -316.58 36.6803 -272.968C39.9209 -234.212 34.949 -190.927 29.6995 -145.089C20.8541 -67.9044 11.6981 11.9008 38.1008 86.8012C68.2327 172.292 141.059 235.475 260.743 279.945C652.989 425.689 745.593 592.189 754.194 706.202C756.947 742.683 751.608 779.714 738.301 816.264C725.649 851.021 705.783 885.479 679.236 918.675C628.673 981.906 554.647 1039.68 465.151 1085.76C357.953 1140.96 233.919 1176.23 115.922 1185.05C95.9116 1186.55 76.179 1187.3 56.8014 1187.3ZM-242.53 -430.477C-243.551 -430.477 -244.561 -430.477 -245.582 -430.477C-493.584 -429.389 -671.822 -420.186 -790.462 -402.331C-902.999 -385.4 -968.567 -360.327 -996.813 -323.431C-1034.88 -273.71 -1002.25 -205.294 -960.932 -118.676C-934.074 -62.3734 -903.643 1.44571 -885.73 73.6577C-864.998 157.24 -865.187 236.265 -886.307 315.232C-914.497 420.64 -926.993 499.992 -925.65 564.948C-924.296 630.183 -908.992 681.755 -877.473 727.256C-815.667 816.485 -693.719 877.722 -509.144 970.43C-424.963 1012.71 -329.552 1060.63 -220.256 1120.88C-143.123 1163.39 -48.2327 1185.36 56.8125 1185.36C76.1345 1185.36 95.7786 1184.62 115.733 1183.12C233.408 1174.32 357.109 1139.15 464.03 1084.1C553.249 1038.15 627.041 980.567 677.427 917.567C703.841 884.535 723.619 850.25 736.204 815.676C749.422 779.358 754.727 742.568 751.997 706.317C743.429 592.844 651.091 427.067 259.877 281.708C139.55 236.997 66.3126 173.429 35.9811 87.36C9.45618 12.0838 18.6234 -67.9141 27.5021 -145.291C32.7515 -191.043 37.7013 -234.25 34.4828 -272.842C30.8759 -316.002 17.5245 -347.261 -7.52423 -371.206C-49.2536 -411.09 -126.142 -430.497 -242.508 -430.497L-242.53 -430.477Z" fill="#AFAFAF" fill-opacity="0.5"/>
<path d="M60.6525 1196.38C-46.1017 1196.38 -141.436 1173.83 -217.626 1130.19C-343.258 1058.24 -450.8 1004.17 -545.69 956.448C-721.587 867.999 -837.786 809.557 -897.394 721.475C-927.97 676.301 -942.575 625.076 -943.386 560.284C-944.196 495.357 -931.144 416.66 -902.333 312.591C-880.025 232.025 -879.415 151.439 -900.469 66.2285C-918.681 -7.44821 -949.945 -72.5584 -977.535 -130.008C-1019.93 -218.274 -1053.41 -288 -1014.26 -339.321C-985.237 -377.364 -917.915 -403.188 -802.404 -420.571C-681.145 -438.832 -498.911 -448.304 -245.271 -449.563C-181.8 -449.778 -130.915 -444.642 -89.718 -433.802C-51.4845 -423.732 -22.6622 -409.018 -1.60889 -388.811C24.1169 -364.114 37.7012 -331.92 41.1306 -287.518C44.1826 -248.058 38.8444 -203.955 33.1953 -157.259C23.6398 -78.2726 13.7622 3.3923 40.5646 79.9983C71.1626 167.445 145.931 231.938 269.144 277.179C671.024 424.725 765.303 593.181 773.616 708.524C776.302 745.815 770.52 783.685 756.425 821.072C743.04 856.581 722.12 891.771 694.275 925.68C641.303 990.164 564.159 1048.97 471.188 1095.74C361.593 1150.86 235.883 1185.88 117.231 1194.34C98.0646 1195.71 79.1866 1196.38 60.6636 1196.38H60.6525ZM-241.165 -447.649C-242.53 -447.649 -243.873 -447.649 -245.249 -447.649C-498.756 -446.396 -680.878 -436.924 -802.016 -418.683C-916.883 -401.386 -983.739 -375.831 -1012.41 -338.261C-1050.91 -287.788 -1017.63 -218.486 -975.493 -130.75C-947.869 -73.233 -916.55 -8.03598 -898.304 65.8237C-877.173 151.324 -877.795 232.189 -900.18 313.044C-928.947 416.949 -941.976 495.511 -941.177 560.265C-940.378 624.71 -925.861 675.627 -895.496 720.501C-836.187 808.15 -720.188 866.477 -544.592 954.781C-449.679 1002.51 -342.093 1056.6 -216.416 1128.58C-140.604 1172 -45.6689 1194.46 60.6414 1194.46C79.1089 1194.46 97.9093 1193.78 117.032 1192.41C235.372 1183.98 360.738 1149.05 470.056 1094.06C562.76 1047.43 639.66 988.815 692.454 924.553C720.178 890.798 740.987 855.781 754.305 820.465C768.311 783.309 774.06 745.69 771.396 708.64C763.117 593.846 669.115 426.113 268.279 278.952C144.422 233.48 69.2426 168.582 38.4337 80.5571C11.4982 3.58499 21.3978 -78.2918 30.9757 -157.461C36.6136 -204.07 41.9407 -248.097 38.911 -287.393C35.5149 -331.352 22.1193 -363.17 -3.26245 -387.53C-45.3915 -427.972 -123.246 -447.649 -241.176 -447.649H-241.165Z" fill="#AFAFAF" fill-opacity="0.5"/>
<path d="M64.6145 1205.48C-43.4604 1205.48 -138.883 1182.42 -213.785 1137.86C-354.167 1054.37 -477.802 992.4 -577.143 942.61C-659.37 901.397 -730.376 865.812 -786.778 830.323C-847.541 792.097 -888.26 755.605 -914.907 715.481C-973.062 627.938 -973.428 510.572 -916.161 310.375C-892.578 227.92 -891.534 145.494 -912.998 58.3751C-931.544 -16.9397 -963.695 -83.428 -992.062 -142.092C-1035.29 -231.475 -1069.43 -302.087 -1029.83 -354.16C-1000.39 -392.878 -931.788 -419.184 -813.935 -436.933C-690.19 -455.569 -504.061 -465.311 -244.916 -466.73C-180.313 -467.017 -128.562 -461.823 -86.6992 -450.829C-47.8442 -440.624 -18.6003 -425.679 2.70837 -405.144C28.756 -380.033 42.3846 -347.28 45.6033 -302.078C48.4666 -261.905 42.751 -216.992 36.7135 -169.439C26.4476 -88.6603 15.8264 -5.12604 43.0505 73.1759C74.1256 162.578 150.837 228.392 277.568 274.394C449.014 336.623 580.118 407.968 667.217 486.453C745.382 556.882 787.744 632.419 793.127 710.971C795.735 749.091 789.487 787.818 774.548 826.063C760.387 862.333 738.39 898.275 709.168 932.917C653.677 998.682 573.315 1058.51 476.76 1105.93C364.845 1160.89 237.57 1195.59 118.375 1203.63C100.151 1204.86 82.2052 1205.48 64.6256 1205.48H64.6145ZM-239.8 -464.81C-241.498 -464.81 -243.196 -464.81 -244.905 -464.81C-503.927 -463.404 -689.934 -453.671 -813.558 -435.045C-930.767 -417.392 -998.899 -391.355 -1027.98 -353.11C-1066.92 -301.895 -1032.98 -231.697 -990.009 -142.834C-961.609 -84.0929 -929.413 -17.5179 -910.823 57.9703C-889.292 145.378 -890.336 228.093 -914.008 310.838C-971.12 510.495 -970.82 627.447 -912.987 714.517C-855.687 800.779 -744.427 856.542 -576.033 940.943C-476.659 990.752 -352.98 1052.74 -212.531 1136.28C-125.854 1187.84 -11.4974 1210.47 118.197 1201.72C237.07 1193.7 364.024 1159.1 475.661 1104.27C571.95 1056.98 652.068 997.343 707.37 931.789C736.459 897.312 758.345 861.543 772.44 825.456C787.278 787.442 793.493 748.966 790.896 711.097C776.479 500.647 503.318 358.43 276.702 276.177C149.317 229.944 72.1946 163.725 40.9197 73.7444C13.5736 -4.93329 24.2168 -88.67 34.505 -169.641C40.5425 -217.108 46.2358 -261.944 43.3835 -301.953C40.1984 -346.702 26.7472 -379.079 1.05481 -403.853C-41.4739 -444.854 -120.294 -464.81 -239.8 -464.81Z" fill="#AFAFAF" fill-opacity="0.5"/>
<path d="M68.2993 1214.49C-40.9852 1214.49 -136.408 1190.96 -209.957 1145.53C-363.645 1050.62 -497.712 983.91 -605.432 930.315C-684.596 890.923 -752.961 856.908 -807.598 822.527C-866.608 785.4 -906.151 749.698 -932.043 710.162C-960.954 666.029 -974.361 615.845 -974.239 552.248C-974.117 488.486 -959.656 408.643 -930.023 308.159C-905.152 223.825 -903.687 139.558 -925.551 50.5314C-944.44 -26.4215 -977.468 -94.2781 -1006.61 -154.156C-1050.66 -244.676 -1085.47 -316.185 -1045.42 -369.009C-1015.56 -408.411 -945.672 -435.189 -825.489 -453.305C-699.257 -472.326 -509.232 -482.328 -244.583 -483.889C-178.804 -484.246 -126.165 -479.013 -83.6249 -467.874C-44.1261 -457.535 -14.4495 -442.358 7.10339 -421.496C33.4618 -395.99 47.1349 -362.707 50.1426 -316.744C52.8173 -275.897 46.7576 -230.203 40.3317 -181.831C29.3666 -99.2888 18.0353 -13.9333 45.6477 66.0934C77.1779 157.471 155.787 224.702 285.958 271.619C461.622 334.426 595.811 406.484 684.808 485.779C764.627 556.892 807.743 633.238 812.971 712.687C815.534 751.683 808.82 791.316 793.016 830.486C778.045 867.566 754.905 904.336 724.24 939.758C666.085 1006.94 582.293 1067.9 481.932 1116.04C367.73 1170.83 238.968 1205.2 119.351 1212.83C102.027 1213.94 84.9912 1214.49 68.2993 1214.49ZM-238.446 -481.972C-240.488 -481.972 -242.508 -481.972 -244.572 -481.952C-509.099 -480.391 -699.002 -470.399 -825.111 -451.397C-944.64 -433.387 -1014.06 -406.869 -1043.57 -367.949C-1082.96 -315.983 -1048.36 -244.898 -1004.56 -154.898C-975.382 -94.943 -942.309 -26.9997 -923.364 50.1363C-901.434 139.462 -902.91 224.017 -927.859 308.641C-957.447 408.97 -971.886 488.66 -972.008 552.257C-972.13 615.508 -958.812 665.384 -930.101 709.218C-904.364 748.503 -865.021 784.012 -806.289 820.976C-751.741 855.299 -683.42 889.295 -604.322 928.658C-496.558 982.282 -362.447 1049.01 -208.669 1143.98C-135.509 1189.17 -40.5081 1212.58 68.2993 1212.58C84.9578 1212.58 101.916 1212.03 119.196 1210.93C238.491 1203.32 366.943 1169.03 480.866 1114.37C580.95 1066.36 664.498 1005.58 722.464 938.621C752.996 903.354 776.025 866.766 790.918 829.87C806.634 790.94 813.304 751.568 810.762 712.821C799.675 544.356 617.919 392.416 285.126 273.421C154.3 226.272 75.28 158.647 43.5391 66.6716C15.7933 -13.731 27.158 -99.2888 38.1453 -182.023C44.5601 -230.309 50.6086 -275.926 47.9451 -316.609C44.9596 -362.11 31.4641 -395.017 5.46094 -420.186C-37.4672 -461.736 -117.297 -481.972 -238.435 -481.972H-238.446Z" fill="#AFAFAF" fill-opacity="0.5"/>
<path d="M72.8716 1223.73C-37.9557 1223.73 -133.689 1199.64 -206.117 1153.21C-371.825 1046.99 -515.592 976.211 -631.114 919.34C-783.781 844.179 -894.087 789.88 -948.824 705.45C-977.158 661.751 -990.109 611.981 -989.588 548.827C-989.066 485.143 -974.105 405.694 -943.852 305.962C-917.704 219.749 -915.806 133.632 -938.058 42.7069C-957.292 -35.8841 -991.208 -105.109 -1021.13 -166.191C-1066.03 -257.878 -1101.5 -330.282 -1061.02 -383.858C-1030.73 -423.934 -959.556 -451.204 -837.042 -469.667C-708.313 -489.064 -514.404 -499.336 -244.239 -501.051C-177.372 -501.465 -123.878 -496.195 -80.684 -484.901C-40.5858 -474.417 -10.4874 -459.019 11.3207 -437.82C38.012 -411.88 51.7517 -378 54.5485 -331.198C57.0345 -289.609 50.5863 -243.067 43.7498 -193.789C32.0522 -109.407 19.9551 -22.1529 47.9894 59.5505C79.9968 152.856 160.592 221.31 294.393 268.834C474.285 332.74 611.537 405.925 702.321 486.376C783.693 558.482 827.432 635.849 832.326 716.329C834.745 756.183 827.487 796.693 810.751 836.721C794.925 874.571 770.608 912.074 738.479 948.19C677.627 1016.61 590.461 1078.47 486.404 1127.1C370.105 1181.45 240.045 1215.26 120.161 1222.31C104.124 1223.26 88.3649 1223.73 72.8939 1223.73H72.8716ZM-236.859 -499.143C-239.3 -499.143 -241.753 -499.143 -244.228 -499.124C-514.271 -497.409 -708.058 -487.156 -836.653 -467.768C-958.535 -449.393 -1029.23 -422.393 -1059.16 -382.798C-1098.99 -330.09 -1063.74 -258.099 -1019.1 -166.962C-989.133 -105.803 -955.183 -36.4719 -935.905 42.2925C-913.576 133.526 -915.473 219.922 -941.721 306.444C-971.93 406.022 -986.857 485.306 -987.379 548.836C-987.89 611.644 -975.027 661.105 -946.893 704.506C-892.456 788.474 -782.383 842.666 -630.026 917.673C-514.46 974.563 -370.626 1045.38 -204.807 1151.67C-132.779 1197.85 -37.4785 1221.8 72.8605 1221.8C88.2871 1221.8 103.991 1221.34 119.984 1220.4C239.556 1213.36 369.306 1179.63 485.328 1125.41C589.107 1076.91 676.029 1015.22 736.692 947.014C768.677 911.053 792.883 873.723 808.631 836.066C825.267 796.279 832.481 756.039 830.084 716.435C825.223 636.437 781.696 559.494 700.712 487.735C610.139 407.477 473.142 334.426 293.527 270.627C159.072 222.871 78.0546 154.002 45.8362 60.1094C17.6801 -21.9794 29.7993 -109.436 41.519 -194.01C48.3334 -243.202 54.7814 -289.657 52.3066 -331.092C49.5431 -377.431 35.981 -410.935 9.6449 -436.529C-11.8859 -457.458 -41.6514 -472.673 -81.3499 -483.051C-122.735 -493.872 -173.665 -499.143 -236.87 -499.143H-236.859Z" fill="#AFAFAF" fill-opacity="0.5"/>
</g>
</g>
<defs>
<clipPath id="clip0_16_1072">
<rect width="1920" height="900" fill="white"/>
</clipPath>
</defs>
</svg>
