<svg width="1920" height="868" viewBox="0 0 1920 868" fill="none" xmlns="http://www.w3.org/2000/svg">
<g clip-path="url(#clip0_4_504)">
<mask id="mask0_4_504" style="mask-type:luminance" maskUnits="userSpaceOnUse" x="0" y="-104" width="1920" height="972">
<path d="M0 -104H1920V868H0V-104Z" fill="white"/>
</mask>
<g mask="url(#mask0_4_504)">
<path d="M2315.34 803.02C2358.69 803.02 2387.49 792.967 2402.95 772.57C2440.21 723.397 2391.35 624.137 2344.11 528.133C2300.12 438.749 2258.56 354.329 2295.86 325.179C2402.69 241.706 2408.7 190.327 2394.93 161.927C2384.05 139.49 2356.9 123.276 2316.44 115.033C2277.61 107.124 2229.72 107.051 2177.95 114.825C2095.84 127.147 2044.58 144.891 2011.7 172.365C1993.25 187.798 1980.88 206.145 1973.93 228.468C1966.72 251.55 1965.44 278.348 1969.99 310.401C1974.59 342.85 1925.48 387.797 1873.49 435.377C1802.7 500.16 1722.47 573.58 1747.2 639.549C1761.15 676.774 1806.24 707.454 1885.06 733.336C1973.77 762.475 2107.78 785.391 2283.36 801.449C2294.79 802.489 2305.45 803.02 2315.35 803.02H2315.34ZM2251.52 111.141C2323.31 111.141 2376.87 129.738 2392.91 162.801C2401.93 181.398 2399.13 203.793 2384.61 229.363C2368.49 257.732 2338.15 289.431 2294.44 323.587C2255.83 353.756 2297.74 438.884 2342.1 529.018C2365.28 576.13 2389.27 624.844 2402.77 667.731C2417.98 715.967 2417.45 749.872 2401.14 771.373C2382.65 795.766 2344.19 804.935 2283.56 799.388C1953.21 769.177 1778.44 716.674 1749.29 638.873C1725.03 574.152 1804.72 501.221 1875.03 436.886C1929.71 386.85 1976.93 343.63 1972.17 310.141C1963.34 247.981 1976.37 204.699 2013.17 173.936C2045.7 146.733 2096.63 129.145 2178.29 116.896C2204.13 113.025 2228.74 111.152 2251.52 111.152V111.141Z" fill="#00B687" fill-opacity="0.3"/>
<path d="M2306 810.732C2354.96 810.732 2387.41 799.492 2404.81 776.618C2443.95 725.135 2398.04 625.084 2353.64 528.321C2312.84 439.415 2274.31 355.442 2309.78 322.754C2393.52 245.567 2426.26 182.793 2404.45 141.196C2392.74 118.863 2366.16 103.659 2325.43 95.9994C2286.66 88.7146 2235.56 88.8186 2177.62 96.3011C2097.02 106.718 2044.2 127.022 2011.43 160.22C1979.8 192.252 1964.4 237.595 1961.55 307.248C1960.18 340.675 1914.12 386.361 1865.36 434.722C1793.62 505.873 1712.31 586.516 1741.03 656.065C1774.25 736.479 1950.39 786.754 2279.53 809.774C2288.84 810.43 2297.66 810.752 2306.01 810.752L2306 810.732ZM2279.68 807.682C1951.49 784.735 1775.97 734.886 1743.09 655.295C1714.88 586.984 1795.69 506.841 1866.97 436.137C1916.03 387.485 1962.36 341.528 1963.77 307.321C1966.61 238.209 1981.81 193.272 2013.06 161.625C2045.47 128.812 2097.86 108.706 2177.93 98.3617C2235.62 90.9104 2286.48 90.796 2325 98.0391C2365.01 105.563 2391.08 120.393 2402.46 142.112C2417.35 170.502 2413.07 224.628 2308.23 321.266C2271.68 354.953 2310.5 439.561 2351.61 529.143C2395.77 625.375 2441.43 724.885 2403.01 775.411C2383.14 801.542 2342.8 812.095 2279.68 807.682Z" fill="#00B687" fill-opacity="0.3"/>
<path d="M2295.8 818.558C2351.01 818.558 2387.48 806.038 2406.97 780.5C2447.92 726.821 2404.95 626.166 2363.39 528.81C2325.6 440.289 2289.89 356.681 2323.69 320.298C2407.49 230.05 2437.92 162.926 2414.13 120.788C2401.82 99.0069 2374.91 84.3437 2334.14 77.2254C2294.52 70.3048 2241.76 70.4818 2177.32 77.7562C2003.66 97.3523 1980.01 172.656 1953.17 304.074C1946.13 338.604 1903.14 384.436 1857.64 432.963C1784.55 510.91 1701.71 599.254 1734.58 672.414C1771.42 754.399 1948.41 802.031 2275.7 818.037C2282.66 818.381 2289.36 818.547 2295.81 818.547L2295.8 818.558ZM2266.5 74.2802C2344.64 74.2802 2394.41 90.3276 2412.15 121.756C2423.44 141.748 2421.99 168.119 2407.81 200.13C2393 233.599 2364.13 273.561 2322 318.925C2287.32 356.275 2323.27 440.456 2361.31 529.58C2402.65 626.405 2445.4 726.53 2405.15 779.282C2383.86 807.183 2341.55 819.182 2275.8 815.966C1949.44 800.002 1773.07 752.786 1736.6 671.613C1704.27 599.649 1786.62 511.826 1859.28 434.337C1904.98 385.591 1948.17 339.551 1955.33 304.459C1981.97 173.988 2005.43 99.2255 2177.57 79.8063C2210.36 76.1118 2240.05 74.2698 2266.5 74.2698V74.2802Z" fill="#00B687" fill-opacity="0.3"/>
<path d="M2284.57 826.54C2346.76 826.54 2387.68 812.646 2409.44 784.215C2452.15 728.445 2412.07 627.3 2373.32 529.486C2338.39 441.33 2305.4 358.054 2337.57 317.863C2421.05 213.576 2449.36 142.601 2424.12 100.88C2411.09 79.3484 2384.45 65.5593 2342.69 58.722C2301.81 52.0304 2247.61 52.1969 2176.98 59.2215C2101.87 66.6937 2053.93 85.8631 2021.55 121.382C1991.84 153.955 1977.89 198.132 1961.72 249.282C1956.49 265.829 1951.07 282.948 1944.77 300.962C1932.51 335.971 1892.99 380.824 1851.15 428.311C1775.71 513.918 1690.22 610.941 1727.56 688.295C1767.92 771.935 1945.97 817.1 2271.85 826.363C2276.18 826.487 2280.42 826.55 2284.56 826.55L2284.57 826.54ZM2272.6 55.9642C2354.35 55.9642 2403.58 71.179 2422.18 101.91C2446.96 142.83 2418.7 213.056 2335.8 316.614C2302.89 357.721 2336.1 441.507 2371.24 530.215C2409.8 627.519 2449.66 728.132 2407.65 783.008C2384.89 812.73 2340.48 826.238 2271.93 824.281C1946.97 815.05 1769.56 770.29 1729.59 687.442C1692.82 611.263 1777.85 514.771 1852.87 429.633C1894.85 381.99 1934.49 336.991 1946.89 301.607C1953.21 283.572 1958.62 266.443 1963.86 249.875C1996.73 145.827 2018.46 77.0901 2177.22 61.3029C2212.87 57.7542 2244.65 55.9745 2272.61 55.9745L2272.6 55.9642Z" fill="#00B687" fill-opacity="0.3"/>
<path d="M2272.13 834.667C2342.18 834.667 2388.05 819.296 2412.31 787.712C2456.72 729.901 2419.49 628.351 2383.49 530.142C2351.31 442.371 2320.91 359.47 2351.47 315.417C2392.65 256.036 2419.35 209.372 2433.09 172.739C2448.02 132.944 2448.51 103.097 2434.57 81.4922C2421 60.4495 2393.73 47.0143 2351.22 40.4164C2309.32 33.9121 2252.21 33.9954 2176.66 40.6766C2106.81 46.8478 2059.74 64.7372 2028.52 96.9568C1999.9 126.512 1986.46 165.319 1970.91 210.267C1961.24 238.188 1951.25 267.067 1936.4 297.84C1919.94 331.964 1884.6 374.07 1847.17 418.633C1767.68 513.314 1677.58 620.619 1719.9 703.302C1763.74 788.96 1943.03 831.92 2268.03 834.646C2269.39 834.657 2270.77 834.667 2272.13 834.667ZM2268.05 832.565C2097.12 831.129 1964.25 818.152 1873.14 793.977C1831.48 782.924 1797.49 769.26 1772.09 753.359C1748.54 738.612 1731.65 721.472 1721.9 702.407C1680.18 620.9 1769.83 514.126 1848.91 419.933C1886.43 375.257 1921.85 333.067 1938.42 298.704C1953.32 267.827 1963.33 238.896 1973.02 210.912C1988.49 166.194 2001.86 127.584 2030.16 98.3617C2060.98 66.548 2107.59 48.8772 2176.87 42.7579C2252.24 36.0975 2309.15 36.0039 2350.86 42.4769C2392.69 48.9708 2419.45 62.0835 2432.67 82.5746C2446.25 103.607 2445.69 132.871 2431 172.053C2417.31 208.518 2390.69 255.047 2349.6 314.283C2318.45 359.189 2349.01 442.558 2381.38 530.818C2417.2 628.528 2454.24 729.558 2410.5 786.494C2386.23 818.089 2339.65 833.169 2268.04 832.565H2268.05Z" fill="#00B687" fill-opacity="0.3"/>
<path d="M2226.53 843.159C2238.89 843.159 2251.44 843.086 2264.2 842.941C2339.74 842.098 2389.25 825.103 2415.54 790.99C2461.64 731.192 2427.18 629.236 2393.85 530.642C2364.34 443.338 2336.46 360.885 2365.35 312.982C2439.95 189.266 2476.99 108.633 2445.52 62.6142C2431.4 41.9566 2403.36 28.7607 2359.81 22.2877C2316.58 15.8562 2256.57 15.8146 2176.35 22.1524C2027.13 33.9433 2004.48 100.287 1975.81 184.281C1964.26 218.124 1951.16 256.483 1928.06 294.77C1909.3 325.845 1879.29 362.665 1847.53 401.638C1806.23 452.32 1759.41 509.755 1729.96 564.391C1696.11 627.186 1690.09 677.18 1711.53 717.247C1722.22 737.228 1740.1 755.013 1764.65 770.103C1790.9 786.244 1825.7 799.877 1868.06 810.607C1953.42 832.232 2073.89 843.159 2226.56 843.159H2226.53ZM2281.29 19.5091C2311.89 19.5091 2337.79 21.1221 2359.46 24.3483C2402.35 30.7277 2429.89 43.6217 2443.65 63.7486C2458.41 85.3324 2458.13 115.481 2442.78 158.628C2429.58 195.759 2405.84 241.612 2363.41 311.973C2334.05 360.656 2362.07 443.536 2391.73 531.287C2424.89 629.392 2459.19 730.838 2413.74 789.793C2387.88 823.334 2338.96 840.048 2264.17 840.88C2093.75 842.805 1960.67 831.93 1868.61 808.619C1826.47 797.941 1791.89 784.413 1765.83 768.386C1741.61 753.494 1723.99 735.979 1713.48 716.331C1692.37 676.899 1698.41 627.509 1731.92 565.348C1761.27 510.889 1808.02 453.527 1849.27 402.918C1881.09 363.882 1911.13 327.011 1929.97 295.811C1953.18 257.337 1966.32 218.873 1977.91 184.926C1992.43 142.404 2004.97 105.688 2032.55 77.4752C2062.81 46.5253 2108.56 29.6037 2176.52 24.2337C2216.29 21.0909 2251.08 19.5195 2281.29 19.5195V19.5091Z" fill="#00B687" fill-opacity="0.3"/>
<path d="M2170.08 852.671C2198.92 852.671 2229.02 852.192 2260.36 851.245C2339.29 848.852 2391.25 830.13 2419.19 794.018C2466.98 732.243 2435.19 629.85 2404.45 530.829C2377.53 444.109 2352.1 362.207 2379.22 310.547C2449.7 176.299 2491.16 91.6077 2456.97 44.1732C2427.88 3.82586 2343.85 -8.2981 2176.01 3.60734C2107.33 8.47775 2061.2 25.3576 2030.87 56.7135C2003.39 85.1242 1991.05 123.359 1977.98 163.842C1965.19 203.46 1950.7 248.356 1919.67 291.69C1901.96 316.406 1879.32 344.307 1855.36 373.841C1762.71 488.005 1647.41 630.089 1702.3 729.829C1713.68 750.528 1732.25 768.823 1757.48 784.194C1784.41 800.616 1819.83 814.239 1862.73 824.708C1938.96 843.295 2042.08 852.661 2170.09 852.661L2170.08 852.671ZM2284.14 1.3074C2380.67 1.3074 2433.54 15.3983 2455.12 45.3388C2488.63 91.8158 2447.36 176.049 2377.24 309.621C2349.74 361.998 2375.28 444.286 2402.33 531.401C2432.92 629.944 2464.56 731.837 2417.4 792.79C2389.9 828.35 2338.5 846.781 2260.31 849.164C2090.06 854.336 1956.49 845.438 1863.3 822.71C1820.63 812.303 1785.43 798.764 1758.7 782.467C1733.8 767.293 1715.49 749.269 1704.28 728.892C1650.05 630.318 1764.87 488.816 1857.14 375.111C1881.12 345.556 1903.78 317.634 1921.52 292.855C1952.73 249.261 1967.28 204.199 1980.11 164.445C2006.84 81.6171 2027.96 16.1996 2176.18 5.67829C2217.03 2.77478 2252.89 1.29699 2284.16 1.29699L2284.14 1.3074Z" fill="#00B687" fill-opacity="0.3"/>
<path d="M2126.03 862.943C2166.84 862.943 2210.36 861.808 2256.53 859.54C2339.09 855.481 2393.63 834.948 2423.27 796.755C2472.75 733.003 2443.55 630.1 2415.29 530.569C2390.89 444.577 2367.84 363.362 2393.09 308.101C2399.64 293.75 2406.04 279.93 2412.22 266.568C2466.69 148.793 2502.67 70.9917 2468.94 26.2006C2453.66 5.90722 2423.72 -7.13255 2377.39 -13.6576C2330.82 -20.2244 2264.84 -20.6406 2175.67 -14.9377C2106.04 -10.4835 2059.57 6.39635 2029.43 38.1789C2002.19 66.8914 1990.67 105.407 1978.49 146.181C1965.12 190.879 1949.98 241.529 1911.29 288.641C1900.83 301.368 1889.62 314.741 1877.75 328.884C1772.6 454.214 1628.59 625.875 1692.05 740.652C1704.03 762.298 1723.2 781.311 1749.08 797.151C1776.68 814.051 1812.72 827.872 1856.24 838.216C1925.39 854.669 2015.81 862.932 2126.04 862.932L2126.03 862.943ZM2285 -16.8213C2388.21 -16.8213 2444.45 -2.69921 2467.12 27.4078C2500.14 71.2415 2464.35 148.627 2410.18 265.745C2403.99 279.108 2397.6 292.928 2391.04 307.29C2365.49 363.206 2388.65 444.764 2413.15 531.11C2441.26 630.162 2470.34 732.586 2421.47 795.527C2392.25 833.179 2338.26 853.431 2256.41 857.458C2085.76 865.846 1951.31 858.697 1856.77 836.207C1813.5 825.915 1777.66 812.188 1750.27 795.413C1724.74 779.771 1705.8 761.028 1694.02 739.694C1631.21 626.104 1774.71 455.067 1879.48 330.174C1891.35 316.021 1902.58 302.648 1913.03 289.91C1951.97 242.486 1967.19 191.618 1980.61 146.743C1992.73 106.208 2004.18 67.9217 2031.07 39.563C2060.8 8.21757 2106.79 -8.4438 2175.8 -12.8563C2216.91 -15.4892 2253.18 -16.8317 2284.99 -16.8317L2285 -16.8213Z" fill="#00B687" fill-opacity="0.3"/>
<path d="M2091.09 873.714C2140.79 873.714 2194.69 871.757 2252.7 867.834C2339.13 861.996 2396.4 839.538 2427.82 799.19C2479.02 733.44 2452.27 629.902 2426.41 529.778C2404.44 444.681 2383.68 364.309 2406.95 305.687C2418.56 276.444 2429.82 249.75 2440.73 223.931C2462.14 173.218 2480.64 129.426 2489.48 93.8035C2499.07 55.2149 2496.55 28.2195 2481.57 8.84194C2465.56 -11.8573 2435.45 -24.6577 2386.8 -31.4534C2338.3 -38.2282 2269.13 -38.8839 2175.34 -33.4619C2104.3 -29.3512 2057.21 -12.336 2027.14 20.1126C2000.03 49.3662 1989.31 88.5585 1977.94 130.051C1964.43 179.442 1949.1 235.42 1902.91 285.602C1843.91 349.708 1769.86 433.972 1720.42 517.331C1693.77 562.258 1676.4 603.448 1668.81 639.747C1660.07 681.531 1663.95 718.235 1680.33 748.832C1705.76 796.308 1762.09 830.671 1847.77 850.964C1911.71 866.106 1993.19 873.703 2091.08 873.703L2091.09 873.714ZM2286.34 -35.0021C2326.53 -35.0021 2359.68 -33.1289 2386.48 -29.3928C2433.84 -22.7741 2464.35 -9.8696 2479.77 10.0595C2494.36 28.9063 2496.75 55.3606 2487.33 93.3248C2478.52 128.791 2460.05 172.521 2438.68 223.161C2427.77 248.99 2416.49 275.694 2404.88 304.958C2381.38 364.184 2402.21 444.858 2424.27 530.267C2450.01 629.933 2476.63 732.992 2426.05 797.962C2395.04 837.789 2338.29 859.966 2252.56 865.763C2080.5 877.387 1944.5 871.737 1848.34 848.956C1763.3 828.819 1707.46 794.819 1682.33 747.905C1666.17 717.726 1662.35 681.468 1671 640.153C1678.55 604.062 1695.84 563.08 1722.37 518.351C1771.72 435.159 1845.69 350.998 1904.61 286.965C1951.13 236.409 1966.52 180.18 1980.11 130.571C1991.39 89.3286 2002.06 50.3653 2028.83 21.4863C2058.47 -10.5044 2105.07 -27.3011 2175.49 -31.3702C2217.21 -33.7845 2254.06 -34.9917 2286.35 -34.9917L2286.34 -35.0021Z" fill="#00B687" fill-opacity="0.3"/>
<path d="M2062.51 884.839C2118.94 884.839 2181.04 881.935 2248.86 876.128C2339.4 868.375 2399.58 843.888 2432.85 801.282C2485.78 733.492 2461.4 629.184 2437.81 528.321C2419.03 448.011 2399.62 364.954 2420.81 303.262C2434.89 262.238 2449.82 224.576 2462.99 191.347C2499.67 98.7988 2526.18 31.9244 2494.71 -8.08999C2462.19 -49.4468 2369.57 -62.164 2175 -51.9861C2102.24 -48.1772 2054.37 -30.9226 2024.3 2.31686C1997.23 32.247 1987.26 72.355 1976.7 114.815C1963.31 168.67 1948.12 229.717 1894.53 282.573C1836.92 339.384 1757.15 426.667 1704.26 519.819C1649.3 616.623 1637.06 695.996 1667.89 755.711C1712.24 841.609 1844.72 884.849 2062.51 884.849V884.839ZM2248.66 874.057C1920.01 902.208 1725.28 862.079 1669.89 754.784C1639.38 695.694 1651.61 616.966 1706.21 520.776C1758.99 427.832 1838.62 340.706 1896.13 283.989C1950.14 230.716 1965.39 169.378 1978.85 115.262C1989.35 73.0523 1999.26 33.1836 2025.99 3.63855C2055.62 -29.1326 2103.01 -46.1582 2175.12 -49.9255C2273.51 -55.0769 2345.85 -54.1611 2396.26 -47.1157C2446.08 -40.1639 2476.79 -27.3738 2492.91 -6.87234C2523.67 32.2366 2497.34 98.6636 2460.91 190.608C2447.73 223.858 2432.79 261.541 2418.69 302.617C2397.31 364.85 2416.8 448.178 2435.64 528.768C2459.11 629.184 2483.39 733.024 2431.05 800.054C2398.18 842.15 2338.53 866.356 2248.65 874.057H2248.66Z" fill="#00B687" fill-opacity="0.3"/>
<path d="M2039.88 896.068C2101.57 896.068 2170.04 892.196 2245.05 884.433C2339.97 874.609 2403.22 847.978 2438.41 803.01C2462.96 771.633 2474.16 730.411 2472.64 677.003C2471.28 629.496 2460.22 576.942 2449.52 526.115C2432.87 447.022 2415.66 365.245 2434.68 300.837C2449.7 250.021 2466.91 204.678 2482.1 164.674C2515.27 77.3502 2539.24 14.2535 2508.3 -24.741C2474.84 -66.92 2378.18 -80.1783 2174.68 -70.5312C2100.01 -66.9824 2051.21 -49.4468 2021.1 -15.3228C1994.01 15.3775 1984.78 56.547 1974.99 100.131C1961.93 158.305 1947.13 224.253 1886.16 279.545C1801.92 355.931 1731.51 441.934 1687.89 521.702C1663.05 567.118 1647.29 609.817 1641.04 648.624C1634.15 691.427 1638.87 729.516 1655.06 761.851C1682.07 815.748 1740.96 853.951 1830.1 875.4C1887.41 889.189 1957.59 896.089 2039.88 896.089V896.068ZM2287.26 -71.4677C2414.5 -71.4677 2480.37 -56.461 2506.51 -23.513C2536.74 14.5969 2512.95 77.2462 2480.01 163.966C2464.8 204.002 2447.57 249.375 2432.54 300.275C2413.37 365.162 2430.64 447.189 2447.33 526.51C2458.01 577.254 2469.05 629.725 2470.41 677.056C2471.92 729.995 2460.86 770.79 2436.61 801.782C2401.82 846.25 2339.07 872.611 2244.8 882.362C2069.99 900.449 1930.65 897.421 1830.65 873.36C1742.18 852.078 1683.78 814.26 1657.07 760.945C1641.06 728.996 1636.41 691.302 1643.23 648.915C1649.45 610.337 1665.14 567.846 1689.85 522.639C1733.36 443.068 1803.62 357.263 1887.69 281.033C1949.15 225.304 1964.03 159.023 1977.16 100.558C1986.88 57.2338 1996.07 16.3036 2022.8 -14.0011C2052.48 -47.6361 2100.78 -64.9427 2174.78 -68.4498C2216.7 -70.4375 2254.07 -71.4573 2287.25 -71.4573L2287.26 -71.4677Z" fill="#00B687" fill-opacity="0.3"/>
<path d="M2020.76 907.422C2086.63 907.422 2160.22 902.53 2241.21 892.727C2340.81 880.676 2407.3 851.755 2444.48 804.321C2469.84 771.966 2481.98 729.964 2481.59 675.932C2481.25 627.8 2471.21 574.548 2461.51 523.034C2446.87 445.378 2431.74 365.089 2448.53 298.402C2463.46 239.135 2482.58 187.392 2499.45 141.758C2530.45 57.8895 2552.84 -2.70966 2522.2 -41.1838C2487.81 -84.3618 2387.03 -98.2341 2174.35 -89.0761C2006.7 -81.8537 1991.05 -4.15618 1972.93 85.8111C1960.35 148.211 1946.11 218.935 1877.77 276.496C1789.45 350.884 1716.14 438.437 1671.33 523.024C1620.66 618.684 1610.45 703.135 1641.81 767.252C1669.86 824.583 1730.29 864.92 1821.44 887.16C1876.77 900.657 1943.44 907.411 2020.76 907.411V907.422ZM2240.93 890.656C2065.13 911.928 1924.17 910.075 1821.99 885.151C1731.53 863.078 1671.59 823.126 1643.83 766.398C1612.76 702.875 1622.95 619.037 1673.32 523.96C1718 439.602 1791.14 352.279 1879.26 278.057C1948.16 220.018 1962.47 148.929 1975.11 86.2065C1984.09 41.6548 1992.56 -0.420135 2019.36 -31.5366C2049.13 -66.0874 2098.4 -83.7166 2174.46 -86.9947C2386.3 -96.1215 2486.53 -82.4886 2520.44 -39.935C2550.38 -2.34541 2528.14 57.8166 2497.36 141.082C2480.47 186.768 2461.34 238.563 2446.38 297.934C2429.48 365.037 2444.65 445.545 2459.33 523.409C2469.02 574.829 2479.04 627.998 2479.39 675.952C2479.77 729.516 2467.77 771.113 2442.71 803.093C2405.91 850.038 2339.91 878.688 2240.94 890.667L2240.93 890.656Z" fill="#00B687" fill-opacity="0.3"/>
<path d="M2004.68 918.807C2073.95 918.807 2151.65 912.885 2237.37 901.021C2341.98 886.556 2411.9 855.21 2451.12 805.195C2477.29 771.82 2490.35 728.986 2491.04 674.246C2491.65 625.406 2482.57 571.322 2473.79 519.017C2461.03 443.026 2447.84 364.454 2462.37 295.998C2476.54 229.228 2497.39 171.928 2515.78 121.382C2545.45 39.7919 2566.9 -19.1629 2536.38 -57.4497C2501.05 -101.762 2396.06 -116.29 2174.01 -107.6C2001.62 -100.857 1987.24 -20.8592 1970.6 71.7722C1958.64 138.324 1945.08 213.753 1869.37 273.488C1776.38 346.846 1700.11 435.783 1654.62 523.919C1630.98 569.709 1616.45 613.73 1611.45 654.754C1606.12 698.421 1611.73 737.884 1628.14 772.049C1657.36 832.929 1719.5 875.535 1812.83 898.69C1866.86 912.094 1931 918.796 2004.67 918.796L2004.68 918.807ZM2237.04 898.971C2060.48 923.396 1917.95 922.626 1813.41 896.692C1720.75 873.703 1659.1 831.483 1630.17 771.206C1613.93 737.384 1608.38 698.285 1613.65 655.003C1618.63 614.219 1633.09 570.416 1656.62 524.834C1701.97 436.959 1778.04 348.272 1870.8 275.091C1947.15 214.866 1960.76 139.032 1972.79 72.126C1981.03 26.2838 1988.81 -17.0191 2015.7 -48.9785C2045.58 -84.4867 2095.91 -102.459 2174.11 -105.519C2395.34 -114.177 2499.77 -99.8888 2534.61 -56.2009C2564.43 -18.7987 2543.15 39.7191 2513.69 120.716C2495.28 171.324 2474.41 228.687 2460.22 295.592C2445.61 364.413 2458.83 443.172 2471.63 519.34C2480.4 571.561 2489.46 625.562 2488.85 674.225C2488.16 729.267 2475.61 770.488 2449.36 803.967C2410.51 853.504 2341.07 884.579 2237.08 898.971H2237.04Z" fill="#00B687" fill-opacity="0.3"/>
<path d="M1991.01 930.171C2063.12 930.171 2144.14 923.209 2233.54 909.316C2306.8 897.93 2362.94 879.417 2405.17 852.723C2443.04 828.787 2468.89 798.701 2484.19 760.737C2512.65 690.127 2499.9 604.53 2486.41 513.907C2475.38 439.831 2463.97 363.237 2476.23 293.573C2489.19 219.997 2511.66 157.701 2531.49 102.743C2560.41 22.6101 2581.3 -35.2831 2550.79 -73.622C2514.53 -119.162 2405.28 -134.388 2173.67 -126.145C1996.39 -119.849 1983.27 -37.479 1968.09 57.8998C1956.85 128.552 1944.09 208.622 1860.98 270.46C1763.04 343.329 1683.77 433.504 1637.8 524.387C1614.55 570.354 1600.51 614.958 1596.07 656.981C1591.42 701.022 1597.48 741.151 1614.08 776.243C1628.74 807.245 1651.63 834.136 1682.13 856.178C1714.43 879.521 1755.55 897.618 1804.34 909.961C1857.62 923.427 1919.99 930.171 1991 930.171H1991.01ZM2282.6 -126.197C2439.92 -126.197 2519.43 -109.536 2549.02 -72.3627C2578.83 -34.9085 2558.09 22.5582 2529.39 102.087C2509.54 157.119 2487.02 219.497 2474.05 293.24C2461.73 363.216 2473.16 439.967 2484.21 514.199C2510.72 692.156 2535.74 860.237 2233.18 907.265C2056.09 934.792 1912.01 935.021 1804.94 907.952C1756.43 895.683 1715.58 877.71 1683.52 854.534C1653.32 832.7 1630.65 806.08 1616.13 775.4C1599.68 740.641 1593.69 700.866 1598.31 657.189C1602.72 615.416 1616.68 571.031 1639.83 525.282C1685.67 434.69 1764.7 344.765 1862.39 272.094C1946.19 209.746 1959.01 129.239 1970.32 58.212C1977.83 11.0273 1984.92 -33.5348 2011.93 -66.3788C2041.94 -102.876 2093.37 -121.202 2173.78 -124.054C2213.6 -125.469 2249.82 -126.197 2282.62 -126.197H2282.6Z" fill="#00B687" fill-opacity="0.3"/>
<path d="M1979.24 941.473C2053.8 941.473 2137.46 933.522 2229.71 917.62C2305.85 904.497 2364.36 884.516 2408.58 856.563C2448.3 831.441 2475.68 800.283 2492.26 761.289C2523.16 688.659 2511.58 600.721 2499.32 507.611C2489.85 435.721 2480.07 361.395 2490.08 291.169C2501.48 211.297 2526.62 141.488 2546.82 85.3948C2575.36 6.13617 2595.98 -51.1223 2565.39 -89.6797C2528.21 -136.521 2414.63 -152.454 2173.34 -144.67C1991.03 -138.79 1979.16 -53.9946 1965.44 44.1837C1954.98 118.894 1943.14 203.565 1852.59 267.463C1749.56 340.155 1667.28 431.454 1620.9 524.533C1597.92 570.656 1584.28 615.811 1580.36 658.75C1576.31 703.135 1582.79 743.899 1599.65 779.906C1614.96 812.636 1638.76 841.068 1670.37 864.4C1703.76 889.054 1746.01 908.088 1795.94 920.971C1848.89 934.636 1910.16 941.473 1979.24 941.473ZM2280.17 -144.493C2448.41 -144.493 2532.86 -127.207 2563.61 -88.4413C2593.51 -50.7581 2573.04 6.06335 2544.72 84.7184C2524.49 140.895 2499.31 210.808 2487.89 290.878C2477.83 361.364 2487.63 435.835 2497.12 507.851C2509.34 600.69 2520.88 688.368 2490.2 760.498C2473.78 799.086 2446.68 829.932 2407.34 854.815C2363.38 882.612 2305.14 902.478 2229.31 915.56C2137.19 931.441 2053.64 939.381 1979.24 939.381C1910.36 939.381 1849.3 932.575 1796.53 918.952C1746.89 906.142 1704.9 887.232 1671.74 862.755C1640.41 839.631 1616.84 811.471 1601.68 779.064C1584.99 743.378 1578.55 702.958 1582.58 658.916C1586.47 616.227 1600.05 571.301 1622.92 525.407C1669.16 432.619 1751.19 341.601 1853.93 269.117C1945.23 204.699 1957.13 119.56 1967.64 44.4438C1974.44 -4.11455 1980.85 -49.988 2008 -83.727C2038.16 -121.223 2090.72 -139.924 2173.43 -142.599C2212.26 -143.847 2247.78 -144.493 2280.18 -144.493H2280.17Z" fill="#00B687" fill-opacity="0.3"/>
<path d="M1969.01 952.702C2045.67 952.702 2131.49 943.773 2225.87 925.904C2305.11 910.908 2366.12 889.366 2412.4 860.06C2454.06 833.668 2483 801.355 2500.86 761.268C2534.2 686.463 2523.66 595.861 2512.5 499.931C2504.43 430.548 2496.09 358.793 2503.92 288.745C2513.51 202.951 2540.34 128.656 2561.88 68.9519C2590.32 -9.85919 2610.88 -66.8055 2580.12 -105.706C2542.02 -153.911 2424.07 -170.572 2173 -163.225C1985.57 -157.741 1974.95 -70.4895 1962.65 30.5402C1953.07 109.278 1942.21 198.517 1844.19 264.434C1789.04 301.514 1740.12 343.204 1698.78 388.349C1658.82 431.974 1626.91 477.743 1603.9 524.377C1557.66 618.132 1550.88 710.014 1584.81 783.091C1617.75 854.045 1687.87 905.444 1787.59 931.732C1840.6 945.708 1901.22 952.702 1968.99 952.702H1969.01ZM2277.32 -162.798C2456.91 -162.798 2546.41 -144.867 2578.35 -104.457C2608.4 -66.4308 2588 -9.92163 2559.78 68.2963C2538.2 128.094 2511.34 202.513 2501.72 288.536C2493.86 358.814 2502.21 430.673 2510.29 500.17C2521.41 595.82 2531.92 686.162 2498.81 760.477C2481.12 800.179 2452.44 832.19 2411.14 858.343C2365.12 887.492 2304.37 908.93 2225.42 923.875C2131.19 941.712 2045.5 950.631 1969 950.631C1901.42 950.631 1841.02 943.669 1788.2 929.744C1689.14 903.633 1619.53 852.64 1586.86 782.279C1553.19 709.754 1559.96 618.475 1605.93 525.272C1628.85 478.805 1660.66 433.202 1700.48 389.722C1741.71 344.702 1790.49 303.127 1845.5 266.141C1944.32 199.693 1955.24 109.965 1964.87 30.8004C1970.95 -19.1733 1976.7 -66.3684 2003.99 -101.023C2034.32 -139.539 2088.05 -158.636 2173.08 -161.123C2210.79 -162.226 2245.49 -162.798 2277.33 -162.798H2277.32Z" fill="#00B687" fill-opacity="0.3"/>
<path d="M1960.13 963.733C1963.59 963.733 1967.08 963.712 1970.57 963.671C2046.55 962.838 2131.16 952.92 2222.04 934.198C2304.61 917.194 2368.28 893.976 2416.68 863.234C2460.39 835.479 2490.93 801.927 2510.06 760.664C2545.83 683.497 2536.19 589.867 2525.98 490.742C2519.13 424.211 2512.04 355.421 2517.79 286.33C2525.39 194.916 2553.9 116.355 2576.81 53.2272C2605.35 -25.4694 2625.98 -82.3221 2595.03 -121.67C2556.02 -171.269 2433.66 -188.67 2172.68 -181.76C1980.05 -176.65 1970.66 -86.9115 1959.8 16.9905C1951.14 99.7354 1941.33 193.512 1835.82 261.416C1777.68 298.829 1726.48 340.977 1683.66 386.694C1642.62 430.507 1610.05 476.713 1586.86 524.012C1540.99 617.591 1534.89 710.607 1569.68 785.911C1604.18 860.57 1676.68 914.644 1779.35 942.285C1832.21 956.511 1893 963.733 1960.14 963.733H1960.13ZM2221.56 932.169C2130.82 950.86 2046.38 960.757 1970.55 961.589C1899.47 962.359 1835.34 955.199 1779.96 940.297C1677.95 912.833 1605.94 859.165 1571.71 785.099C1537.18 710.347 1543.27 617.934 1588.87 524.897C1611.97 477.775 1644.42 431.745 1685.33 388.088C1728.02 342.506 1779.08 300.473 1837.07 263.154C1943.44 194.708 1953.31 100.412 1962.01 17.2194C1967.38 -34.18 1972.46 -82.7279 1999.92 -118.309C2030.44 -157.855 2085.35 -177.347 2172.74 -179.657C2432.88 -186.557 2554.71 -169.386 2593.24 -120.411C2623.51 -81.937 2603.03 -25.5215 2574.7 52.5715C2551.76 115.814 2523.2 194.511 2515.57 286.185C2509.81 355.453 2516.9 424.335 2523.76 490.96C2544.27 690.085 2561.98 862.048 2221.56 932.179V932.169Z" fill="#00B687" fill-opacity="0.3"/>
<path d="M1952.11 974.733C1956.61 974.733 1961.14 974.702 1965.7 974.629C2042.61 973.484 2127.56 962.672 2218.19 942.493C2381.61 906.1 2477.47 847.936 2519.85 759.426C2558.04 679.699 2549.1 582.613 2539.65 479.825C2533.82 416.562 2527.81 351.155 2531.61 283.926C2537.1 187.122 2567.31 104.46 2591.58 38.0435C2605.79 -0.867676 2618.08 -34.4818 2623.06 -63.6522C2628.55 -95.7053 2624.38 -119.194 2609.99 -137.593C2570.06 -188.607 2443.26 -206.767 2172.32 -200.284C1974.43 -195.549 1966.27 -103.292 1956.81 3.52403C1949.13 90.2547 1940.44 188.547 1827.38 258.419C1707.31 332.63 1618.2 424.283 1569.69 523.482C1524 616.914 1518.49 711.003 1554.17 788.409C1590.28 866.762 1665.32 923.552 1771.14 952.629C1824.52 967.303 1885.35 974.733 1952.1 974.733H1952.11ZM2217.68 940.474C2127.2 960.622 2042.41 971.413 1965.67 972.548C1893.79 973.62 1828.56 966.241 1771.78 950.641C1666.6 921.742 1592.07 865.357 1556.22 787.587C1520.79 710.722 1526.3 617.237 1571.72 524.345C1620.07 425.501 1708.9 334.15 1828.62 260.147C1942.56 189.723 1951.31 90.8895 1959.03 3.69051C1963.7 -49.1555 1968.12 -99.0667 1995.77 -135.584C2026.48 -176.161 2082.6 -196.059 2172.4 -198.213C2442.52 -204.686 2568.78 -186.765 2608.21 -136.365C2638.72 -97.3808 2618.07 -40.8612 2589.48 37.3671C2565.16 103.909 2534.9 186.726 2529.41 283.822C2525.59 351.196 2531.61 416.687 2537.45 480.012C2546.89 582.52 2555.8 679.345 2517.84 758.572C2475.76 846.437 2380.38 904.237 2217.69 940.463L2217.68 940.474Z" fill="#00B687" fill-opacity="0.3"/>
<path d="M1944.9 985.629C1950.24 985.629 1955.61 985.577 1961.02 985.483C2038.86 984.068 2124.1 972.392 2214.36 950.787C2385.17 909.899 2485.57 848.488 2530.33 757.5C2548.87 719.796 2558.48 676.816 2560.58 622.232C2562.44 573.611 2558.12 521.796 2553.53 466.952C2548.56 407.445 2543.42 345.91 2545.46 281.522C2548.71 179.504 2580.65 92.8773 2606.29 23.2762C2620.69 -15.7599 2633.11 -49.4677 2638.18 -78.8358C2643.75 -111.118 2639.59 -134.835 2625.07 -153.495C2584.24 -205.955 2452.97 -224.875 2171.99 -218.818C1968.79 -214.437 1961.83 -119.651 1953.78 -9.90082C1947.13 80.7949 1939.6 183.594 1818.98 255.411C1693.78 329.966 1601.63 422.431 1552.49 522.826C1506.81 616.144 1501.79 711.263 1538.39 790.667C1556.68 830.359 1584.71 865.149 1621.71 894.07C1660.27 924.208 1707.81 947.332 1763.04 962.797C1817.15 977.959 1878.27 985.629 1944.88 985.629H1944.9ZM2266.41 -217.83C2482.23 -217.83 2587.77 -197.89 2623.29 -152.267C2637.44 -134.096 2641.48 -110.868 2635.99 -79.1688C2630.95 -49.9776 2618.56 -16.3426 2604.2 22.5998C2578.49 92.3362 2546.5 179.129 2543.24 281.47C2541.19 345.962 2546.34 407.56 2551.31 467.118C2560.61 578.471 2568.65 674.631 2528.31 756.637C2483.85 847.01 2383.92 908.056 2213.8 948.778C2123.71 970.341 2038.64 981.997 1960.96 983.413C1888.29 984.734 1821.91 977.137 1763.68 960.819C1708.74 945.427 1661.47 922.439 1623.14 892.488C1586.41 863.775 1558.57 829.245 1540.43 789.855C1504.09 711.003 1509.1 616.477 1554.51 523.711C1603.48 423.69 1695.35 331.527 1820.18 257.191C1941.74 184.801 1949.32 81.4506 1956 -9.73427C1959.99 -64.0372 1963.75 -115.322 1991.56 -152.787C2022.48 -194.414 2079.83 -214.728 2172.03 -216.716C2205.59 -217.445 2237.02 -217.809 2266.4 -217.809L2266.41 -217.83Z" fill="#00B687" fill-opacity="0.3"/>
<path d="M1938.37 996.431C1944.37 996.431 1950.41 996.369 1956.5 996.234C2035.28 994.569 2120.74 982.07 2210.53 959.081C2304.74 934.958 2377.4 905.965 2432.65 870.446C2483.11 837.997 2518.72 800.189 2541.49 754.836C2584.43 669.334 2576.59 568.533 2567.53 451.82C2563.23 396.632 2558.8 339.561 2559.33 279.108C2560.25 172.001 2593.92 81.5234 2620.98 8.82109C2635.58 -30.4127 2648.19 -64.2974 2653.37 -93.9049C2659.08 -126.468 2654.9 -150.456 2640.24 -169.386C2619.26 -196.496 2576.13 -214.166 2504.5 -225.01C2430.42 -236.229 2321.55 -240.267 2171.67 -237.363C1963.12 -233.325 1957.38 -135.99 1950.73 -23.2944C1945.15 71.3559 1938.82 178.63 1810.61 252.393C1680.32 327.354 1585.11 420.61 1535.24 522.066C1489.42 615.322 1484.85 711.44 1522.36 792.717C1541.46 834.105 1570.7 870.498 1609.27 900.876C1649.29 932.398 1698.33 956.584 1755.06 972.777C1810.08 988.481 1871.68 996.411 1938.38 996.411L1938.37 996.431ZM2262.01 -236.208C2490.62 -236.208 2601.73 -215.592 2638.45 -168.158C2652.73 -149.706 2656.78 -126.208 2651.18 -94.2275C2646.03 -64.7969 2633.44 -30.9955 2618.87 8.15511C2591.76 81.0031 2558.02 171.657 2557.1 279.108C2556.57 339.645 2561.01 396.757 2565.31 451.987C2574.35 568.408 2582.17 668.959 2539.48 753.962C2516.89 798.961 2481.53 836.509 2431.4 868.739C2376.36 904.123 2303.92 933.022 2209.95 957.073C2120.35 980.009 2035.06 992.487 1956.46 994.152C1882.99 995.703 1815.44 987.846 1755.69 970.799C1699.27 954.7 1650.48 930.639 1610.69 899.294C1572.39 869.124 1543.36 832.992 1524.39 791.906C1487.13 711.18 1491.7 615.655 1537.25 522.951C1586.93 421.869 1681.85 328.925 1811.77 254.183C1940.96 179.847 1947.32 71.9907 1952.94 -23.1696C1956.22 -78.9399 1959.33 -131.619 1987.35 -170.031C2018.49 -212.71 2077.06 -233.44 2171.72 -235.272C2203.66 -235.886 2233.76 -236.208 2262.03 -236.208H2262.01Z" fill="#00B687" fill-opacity="0.3"/>
<path d="M1932.12 1007.06C2017.29 1007.06 2109.8 993.798 2206.69 967.375C2305.44 940.443 2381.47 909.232 2439.12 871.976C2492.09 837.737 2529.46 798.306 2553.36 751.412C2598.59 662.663 2590.68 556.763 2581.51 434.139C2577.76 383.947 2573.89 332.058 2573.15 276.714C2571.68 164.633 2607.12 70.3881 2635.59 -5.34259C2664.63 -82.551 2687.56 -143.546 2655.46 -185.246C2634.04 -213.074 2589.65 -231.286 2515.75 -242.546C2439.21 -254.212 2326.54 -258.573 2171.32 -255.888C1957.37 -252.183 1952.83 -152.298 1947.58 -36.636C1943.09 61.9585 1938.02 173.707 1802.19 249.396C1666.85 324.815 1568.54 418.841 1517.89 521.286C1494.57 568.46 1481.84 616.311 1480.08 663.506C1478.34 709.598 1487.08 753.723 1506.05 794.674C1546.74 882.58 1632.35 949.319 1747.1 982.621C1803.28 998.929 1865.45 1007.06 1932.12 1007.06ZM2257.23 -254.597C2498.92 -254.597 2615.75 -233.294 2653.66 -184.039C2668.09 -165.285 2672.14 -141.506 2666.4 -109.203C2661.12 -79.4914 2648.32 -45.4506 2633.51 -6.05025C2604.97 69.8365 2569.46 164.279 2570.95 276.725C2571.68 332.131 2575.55 384.051 2579.31 434.274C2588.46 556.607 2596.35 662.257 2551.37 750.507C2527.64 797.057 2490.52 836.228 2437.88 870.248C2380.43 907.38 2304.61 938.486 2206.09 965.357C2109.42 991.717 2017.09 1004.95 1932.14 1004.95C1865.68 1004.95 1803.76 996.858 1747.78 980.613C1633.66 947.498 1548.54 881.155 1508.1 793.82C1489.28 753.161 1480.6 709.338 1482.32 663.558C1484.08 616.644 1496.73 569.064 1519.93 522.139C1570.39 420.069 1668.39 326.365 1803.36 251.166C1940.22 174.894 1945.33 62.5517 1949.82 -36.5736C1952.42 -93.8217 1954.88 -147.896 1983.09 -187.265C2014.45 -230.994 2074.28 -252.151 2171.39 -253.837C2201.61 -254.358 2230.22 -254.628 2257.25 -254.628L2257.23 -254.597Z" fill="#00B687" fill-opacity="0.3"/>
<path d="M1926.69 1017.71C2013.09 1017.71 2106.16 1003.66 2202.85 975.67C2306.52 945.656 2386.13 912.073 2446.22 873.016C2501.84 836.873 2541 795.714 2565.97 747.177C2587.74 704.863 2599.25 656.523 2602.18 595.039C2604.82 539.643 2600.25 478.378 2595.4 413.523C2592.08 369.148 2588.65 323.275 2587.01 274.31C2583.08 157.337 2620.29 59.388 2650.2 -19.319C2679.8 -97.2143 2703.17 -158.729 2670.73 -201.116C2648.88 -229.673 2603.22 -248.415 2527.06 -260.092C2448.04 -272.205 2331.58 -276.899 2171 -274.422C1951.63 -271.04 1948.29 -168.584 1944.42 -49.9568C1941.08 52.5715 1937.28 168.774 1793.8 246.389C1653.43 322.317 1552 417.103 1500.5 520.484C1476.88 567.877 1464.13 616.123 1462.58 663.891C1461.09 710.253 1470.15 754.878 1489.54 796.547C1532.03 887.867 1620.71 957.395 1739.26 992.321C1796.75 1009.26 1859.74 1017.71 1926.7 1017.71H1926.69ZM2252.07 -273.007C2507.16 -273.007 2629.81 -251.017 2668.92 -199.909C2700.68 -158.407 2677.48 -97.3392 2648.1 -20.0163C2618.14 58.8573 2580.83 157.015 2584.77 274.383C2586.42 323.389 2589.86 369.283 2593.16 413.679C2612.85 677.035 2625.85 851.027 2202.18 973.682C2030.99 1023.25 1871.13 1029 1739.91 990.343C1621.98 955.595 1533.78 886.483 1491.56 795.714C1472.31 754.337 1463.31 710.004 1464.79 663.953C1466.32 616.477 1479.01 568.502 1502.51 521.369C1553.82 418.372 1654.94 323.909 1794.91 248.2C1939.47 170.002 1943.27 53.1855 1946.64 -49.8839C1948.56 -108.62 1950.35 -164.099 1978.79 -204.426C2010.36 -249.217 2071.46 -270.801 2171.04 -272.341C2199.42 -272.778 2226.44 -273.007 2252.09 -273.007H2252.07Z" fill="#00B687" fill-opacity="0.3"/>
<path d="M1921.68 1028.28C2009.24 1028.28 2102.74 1013.47 2199.02 983.964C2408.9 919.66 2526.19 845.064 2579.34 742.119C2628.93 646.064 2620.12 532.869 2608.97 389.556C2606.05 351.987 2603.02 313.138 2600.84 271.917C2594.41 150.125 2633.43 48.5233 2664.78 -33.1185C2694.99 -111.763 2718.84 -173.882 2686.05 -216.976C2663.75 -246.272 2616.84 -265.545 2538.39 -277.638C2456.91 -290.209 2336.62 -295.215 2170.64 -292.957C1945.81 -289.887 1943.67 -184.861 1941.19 -63.2463C1939.01 43.2054 1936.54 163.862 1785.39 243.381C1710.28 282.896 1645.95 327.427 1594.18 375.725C1545.71 420.953 1508.3 469.387 1483.01 519.683C1459.06 567.315 1446.23 615.957 1444.88 664.265C1443.58 710.899 1452.98 756.023 1472.81 798.389C1494.47 844.679 1527.6 885.775 1571.28 920.534C1616.03 956.136 1669.92 983.517 1731.47 1001.9C1790.39 1019.49 1854.28 1028.28 1921.66 1028.28H1921.68ZM2198.32 981.987C2028.4 1034.05 1867.21 1040.25 1732.15 999.918C1670.88 981.623 1617.24 954.377 1572.72 918.952C1529.31 884.402 1496.38 843.565 1474.85 797.557C1455.16 755.482 1445.83 710.659 1447.11 664.328C1448.45 616.311 1461.21 567.94 1485.03 520.578C1510.21 470.5 1547.46 422.265 1595.75 377.203C1647.37 329.04 1711.54 284.624 1786.48 245.202C1938.74 165.09 1941.22 43.809 1943.41 -63.2047C1944.64 -123.429 1945.8 -180.323 1974.44 -221.607C2006.24 -267.47 2068.61 -289.481 2170.68 -290.875C2491.52 -295.257 2640.3 -273.486 2684.24 -215.769C2716.36 -173.569 2692.67 -111.898 2662.68 -33.8261C2631.27 47.9925 2592.15 149.803 2598.61 272.01C2600.79 313.263 2603.82 352.122 2606.74 389.702C2617.87 532.702 2626.66 645.648 2577.32 741.203C2524.46 843.596 2407.56 917.849 2198.31 981.976L2198.32 981.987Z" fill="#00B687" fill-opacity="0.3"/>
<path d="M1916.97 1038.62C1924.59 1038.62 1932.25 1038.51 1939.97 1038.28C2022.43 1035.85 2108.29 1020.37 2195.19 992.258C2662.3 841.172 2647.99 670.895 2622.03 361.77C2619.55 332.183 2616.98 301.597 2614.7 269.513C2605.71 142.955 2646.55 37.7522 2679.36 -46.7827C2710.22 -126.249 2734.58 -189.024 2701.42 -232.836C2678.69 -262.86 2630.51 -282.675 2549.78 -295.194C2465.81 -308.213 2341.69 -313.542 2170.33 -311.502C1940.03 -308.744 1939.08 -201.127 1937.96 -76.5254C1936.97 33.8392 1935.86 158.94 1777 240.374C1699.18 280.263 1632.7 325.189 1579.4 373.883C1529.6 419.403 1491.26 468.2 1465.48 518.934C1441.15 566.816 1428.22 615.863 1427.06 664.703C1425.94 711.627 1435.66 757.24 1455.95 800.262C1478.5 848.103 1513.01 890.719 1558.51 926.914C1604.92 963.837 1660.53 992.248 1723.8 1011.38C1783.68 1029.47 1848.57 1038.62 1916.98 1038.62H1916.97ZM2240.67 -309.858C2523.47 -309.858 2658.09 -286.484 2699.6 -231.629C2732.08 -188.711 2707.89 -126.395 2677.27 -47.4904C2644.38 37.2214 2603.45 142.653 2612.48 269.658C2614.75 301.753 2617.33 332.349 2619.81 361.936C2632.65 514.875 2642.8 635.678 2591.46 735.334C2564.79 787.087 2522.16 831.753 2461.13 871.872C2396.29 914.498 2309.06 953.233 2194.46 990.302C2107.77 1018.34 2022.13 1033.78 1939.89 1036.21C1863.25 1038.48 1790.78 1029.45 1724.47 1009.41C1661.48 990.375 1606.12 962.089 1559.93 925.342C1514.68 889.345 1480.37 846.989 1457.96 799.43C1437.8 756.678 1428.15 711.367 1429.26 664.755C1430.41 616.207 1443.26 567.451 1467.47 519.839C1493.14 469.335 1531.32 420.735 1580.94 375.382C1634.09 326.823 1700.4 282.011 1778.04 242.216C1938.05 160.199 1939.17 34.4532 1940.15 -76.4943C1940.71 -138.217 1941.23 -196.527 1970.09 -238.789C2002.14 -285.724 2065.76 -308.161 2170.34 -309.41C2194.74 -309.701 2218.18 -309.858 2240.67 -309.858Z" fill="#00B687" fill-opacity="0.3"/>
<path d="M1912.44 1048.94C1920.31 1048.94 1928.21 1048.81 1936.17 1048.57C2019.53 1045.99 2105.38 1029.84 2191.35 1000.55C2312.43 959.3 2404.06 917.6 2471.46 873.069C2535.92 830.473 2580.68 783.528 2608.29 729.537C2661.77 624.949 2650.23 501.086 2634.26 329.654C2632.39 309.475 2630.43 288.609 2628.55 267.119C2616.97 135.826 2659.64 27.0644 2693.94 -60.3323C2725.46 -140.684 2750.36 -204.145 2716.82 -248.686C2693.66 -279.449 2644.21 -299.804 2561.19 -312.74C2474.75 -326.207 2346.78 -331.868 2170 -330.026C1934.21 -327.58 1934.43 -217.372 1934.68 -89.7629C1934.92 24.5147 1935.17 154.049 1768.6 237.377C1688.08 277.661 1619.45 322.973 1564.62 372.072C1513.44 417.894 1474.16 467.077 1447.87 518.237C1423.12 566.389 1410.07 615.843 1409.07 665.202C1408.11 712.429 1418.16 758.51 1438.91 802.198C1462.37 851.547 1498.29 895.652 1545.68 933.272C1593.8 971.476 1651.17 1000.92 1716.2 1020.77C1777.51 1039.5 1843.43 1048.94 1912.46 1048.94H1912.44ZM2190.59 998.586C2104.84 1027.8 2019.21 1043.91 1936.09 1046.48C1858.68 1048.87 1784.91 1039.55 1716.87 1018.78C1652.11 999.002 1595 969.696 1547.1 931.659C1499.97 894.236 1464.25 850.392 1440.93 801.324C1420.3 757.927 1410.32 712.137 1411.28 665.223C1412.28 616.155 1425.25 567.003 1449.85 519.121C1476.02 468.19 1515.16 419.215 1566.14 373.561C1620.82 324.596 1689.29 279.389 1769.63 239.198C1937.38 155.277 1937.12 25.0871 1936.89 -89.7838C1936.77 -153.016 1936.65 -212.741 1965.72 -255.971C1998.01 -303.978 2062.92 -326.852 2170.01 -327.965C2511.43 -331.504 2669.31 -308.203 2715 -247.51C2747.86 -203.853 2723.14 -140.85 2691.84 -61.0712C2657.48 26.5128 2614.71 135.514 2626.33 267.265C2628.22 288.755 2630.17 309.631 2632.04 329.81C2647.99 500.92 2659.5 624.543 2606.28 728.611C2578.85 782.269 2534.32 828.954 2470.18 871.341C2402.95 915.768 2311.49 957.385 2190.6 998.575L2190.59 998.586Z" fill="#00B687" fill-opacity="0.3"/>
<path d="M1908.12 1059.17C1916.2 1059.17 1924.32 1059.04 1932.47 1058.78C2016.73 1056.06 2102.53 1039.26 2187.5 1008.84C2315.42 963.025 2411.48 918.286 2481.13 872.059C2548.87 827.091 2595.54 778.033 2623.78 722.076C2678.98 612.731 2664.85 478.482 2645.29 292.668C2644.33 283.479 2643.35 274.165 2642.36 264.715C2628.17 128.729 2672.68 16.439 2708.46 -73.7884C2740.68 -155.056 2766.14 -219.255 2732.23 -264.546C2708.64 -296.048 2657.91 -316.934 2572.59 -330.297C2483.66 -344.211 2351.86 -350.194 2169.64 -348.571C2076.62 -347.738 2013.64 -330.328 1977.1 -295.34C1929.54 -249.789 1930.43 -178.492 1931.36 -103C1932.83 15.1798 1934.49 149.137 1760.17 234.369C1676.97 275.049 1606.18 320.777 1549.81 370.282C1497.23 416.437 1456.98 465.994 1430.16 517.591C1404.96 566.035 1391.77 615.894 1390.91 665.785C1390.1 713.313 1400.47 759.884 1421.72 804.196C1470.91 906.745 1575.49 989.074 1708.63 1030.08C1771.42 1049.41 1838.43 1059.17 1908.14 1059.17H1908.12ZM2227.84 -346.75C2539.53 -346.75 2686.5 -321.992 2730.42 -263.349C2763.66 -218.954 2738.39 -155.212 2706.39 -74.5169C2670.53 15.9082 2625.92 128.448 2640.17 264.913C2641.15 274.362 2642.13 283.677 2643.1 292.866C2662.62 478.347 2676.71 612.356 2621.79 721.181C2593.71 776.805 2547.27 825.603 2479.85 870.363C2410.35 916.496 2314.47 961.152 2186.71 1006.9C2101.97 1037.25 2016.41 1054 1932.4 1056.71C1854.19 1059.23 1779.14 1049.6 1709.32 1028.1C1576.77 987.284 1472.68 905.361 1423.74 803.343C1402.62 759.311 1392.32 713.042 1393.12 665.816C1393.96 616.238 1407.09 566.681 1432.14 518.507C1458.84 467.139 1498.94 417.779 1551.32 371.802C1607.55 322.432 1678.17 276.818 1761.19 236.221C1936.72 150.406 1935.05 15.7729 1933.57 -103.011C1932.64 -178.055 1931.76 -248.936 1978.68 -293.873C2014.78 -328.455 2077.25 -345.657 2169.65 -346.479C2189.64 -346.656 2209.05 -346.75 2227.83 -346.75H2227.84Z" fill="#00B687" fill-opacity="0.3"/>
<path d="M1904.01 1069.36C1912.28 1069.36 1920.57 1069.22 1928.9 1068.94C2014.04 1066.09 2099.76 1048.66 2183.67 1017.14C2448.63 917.589 2580.34 830.702 2638.25 717.247C2664.99 664.848 2677.62 603.344 2677.97 523.69C2678.29 452.174 2669.55 373.769 2656.21 262.322C2639.37 121.663 2685.75 5.87601 2723.03 -87.1613C2755.97 -169.396 2781.99 -234.345 2747.69 -280.396C2723.67 -312.636 2671.67 -334.064 2584.04 -347.832C2492.63 -362.194 2356.96 -368.49 2169.31 -367.095C2074.15 -366.377 2009.91 -348.665 1972.88 -312.928C1924.68 -266.409 1926.31 -193.446 1928.05 -116.196C1930.76 5.88638 1933.86 144.266 1751.78 231.382C1665.89 272.479 1592.96 318.623 1535.01 368.544C1481.03 415.042 1439.78 465.006 1412.4 517.04C1386.74 565.806 1373.37 616.082 1372.66 666.482C1371.98 714.343 1382.68 761.393 1404.44 806.329C1455.53 911.772 1563.68 996.702 1701.16 1039.34C1765.48 1059.29 1833.6 1069.36 1904.01 1069.36ZM2182.85 1015.21C2099.17 1046.64 2013.7 1064.02 1928.82 1066.85C1849.84 1069.5 1773.47 1059.57 1701.86 1037.35C1564.97 994.891 1457.3 910.367 1406.46 805.455C1384.83 760.8 1374.2 714.052 1374.86 666.503C1375.57 616.425 1388.87 566.441 1414.37 517.956C1441.63 466.15 1482.72 416.395 1536.5 370.064C1594.3 320.267 1667.07 274.227 1752.78 233.214C1936.1 145.505 1933 6.43796 1930.25 -116.259C1928.55 -193.061 1926.92 -265.597 1974.47 -311.491C2011.06 -346.802 2074.8 -364.317 2169.32 -365.024C2356.85 -366.429 2492.38 -360.143 2583.66 -345.792C2670.66 -332.118 2722.2 -310.961 2745.85 -279.209C2779.48 -234.064 2753.65 -169.563 2720.94 -87.9002C2683.58 5.34521 2637.09 121.402 2654.01 262.551C2667.35 373.925 2676.07 452.278 2675.75 523.679C2675.39 603.011 2662.84 664.234 2636.24 716.341C2578.58 829.277 2447.22 915.862 2182.84 1015.19L2182.85 1015.21Z" fill="#00B687" fill-opacity="0.3"/>
<path d="M1900.01 1079.45C1908.45 1079.45 1916.91 1079.3 1925.4 1079.01C2011.42 1076.04 2097.02 1058.02 2179.83 1025.41C2319.32 970.508 2418.56 922.792 2492.15 875.233C2567.45 826.581 2617.19 777.367 2648.7 720.369C2677.94 667.471 2692.11 605.893 2693.26 526.593C2694.29 455.608 2685.54 375.049 2670.06 259.897C2650.54 114.596 2698.8 -4.67657 2737.58 -100.503C2771.25 -183.726 2797.85 -249.467 2763.16 -296.277C2738.72 -329.256 2685.44 -351.225 2595.5 -365.409C2501.59 -380.218 2362.08 -386.837 2168.97 -385.651C2071.68 -385.047 2006.16 -367.022 1968.64 -330.557C1919.8 -283.06 1922.17 -208.432 1924.68 -129.423C1928.68 -3.43814 1933.22 139.354 1743.36 228.354C1654.78 269.877 1579.68 316.468 1520.15 366.827C1464.74 413.7 1422.48 464.079 1394.53 516.561C1368.38 565.661 1354.83 616.373 1354.25 667.283C1353.71 715.488 1364.74 763.016 1387.04 808.567C1412.93 861.423 1454.38 911.126 1506.92 952.285C1560.36 994.152 1623.21 1026.53 1693.74 1048.53C1759.61 1069.07 1828.88 1079.45 1900.01 1079.45ZM2212.17 -383.694C2382.95 -383.694 2508.5 -377.013 2595.13 -363.349C2684.44 -349.258 2737.25 -327.57 2761.34 -295.08C2795.36 -249.165 2768.95 -183.883 2735.5 -101.231C2696.63 -5.18652 2648.27 114.347 2667.86 260.167C2683.32 375.225 2692.06 455.702 2691.03 526.572C2689.88 605.54 2675.8 666.815 2646.73 719.411C2615.39 776.097 2565.87 825.062 2490.88 873.516C2417.42 920.982 2318.31 968.635 2178.97 1023.49C2096.41 1055.99 2011.07 1073.96 1925.32 1076.92C1845.55 1079.67 1767.88 1069.45 1694.44 1046.54C1624.18 1024.62 1561.57 992.373 1508.34 950.672C1456.06 909.711 1414.81 860.268 1389.06 807.682C1366.9 762.423 1355.93 715.186 1356.47 667.294C1357.05 616.696 1370.52 566.295 1396.52 517.477C1424.34 465.224 1466.44 415.053 1521.64 368.357C1581.03 318.123 1655.95 271.646 1744.35 230.206C1935.47 140.613 1930.91 -2.8866 1926.89 -129.496C1925.62 -169.771 1924.41 -207.808 1929.56 -241.89C1935.33 -280.021 1948.24 -307.745 1970.23 -329.121C2007.3 -365.17 2072.31 -382.986 2168.97 -383.58C2183.67 -383.673 2198.08 -383.715 2212.16 -383.715L2212.17 -383.694Z" fill="#00B687" fill-opacity="0.3"/>
<path d="M1896.03 1089.5C1990.64 1089.5 2085.95 1070.8 2175.99 1033.71C2319.43 974.629 2420.79 925.259 2494.97 878.335C2573.57 828.611 2625.72 779.376 2659.09 723.387C2690.86 670.062 2706.58 608.443 2708.53 529.476C2710.4 454.172 2700.03 366.297 2683.9 257.524C2661.67 107.593 2711.83 -15.1354 2752.11 -113.74C2786.54 -197.994 2813.73 -264.536 2778.64 -312.116C2753.77 -345.834 2699.22 -368.344 2606.97 -382.945C2510.58 -398.201 2367.2 -405.153 2168.62 -404.164C2069.19 -403.675 2002.39 -385.349 1964.39 -348.134C1914.89 -299.659 1918.01 -223.366 1921.3 -142.588C1926.59 -12.7106 1932.58 134.494 1734.95 225.377C1643.67 267.348 1566.41 314.387 1505.28 365.193C1448.42 412.451 1405.13 463.268 1376.59 516.218C1349.94 565.681 1336.2 616.831 1335.74 668.262C1335.33 716.831 1346.71 764.848 1369.57 810.992C1396.41 865.17 1439.43 916.247 1493.98 958.707C1548.46 1001.11 1615 1035.34 1686.39 1057.71C1754.19 1078.95 1824.91 1089.5 1896.03 1089.5ZM2204.71 -402.177C2384.58 -402.177 2516.28 -395.194 2606.6 -380.895C2698.23 -366.387 2752.31 -344.158 2776.82 -310.929C2811.25 -264.255 2784.23 -198.161 2750.04 -114.479C2709.65 -15.6453 2659.39 107.343 2681.7 257.816C2697.81 366.494 2708.15 454.276 2706.3 529.434C2704.36 608.048 2688.74 669.365 2657.15 722.388C2623.95 778.085 2572.02 827.102 2493.72 876.628C2419.65 923.48 2318.42 972.798 2175.1 1031.81C2017.89 1096.57 1844.58 1105.06 1687.1 1055.73C1615.96 1033.44 1549.68 999.335 1495.4 957.094C1441.1 914.831 1398.29 864.004 1371.59 810.107C1348.87 764.244 1337.56 716.529 1337.97 668.272C1338.43 617.164 1352.09 566.316 1378.59 517.154C1407 464.433 1450.13 413.835 1506.77 366.754C1567.74 316.073 1644.85 269.128 1735.93 227.251C1824.69 186.435 1880.42 130.613 1906.33 56.5991C1929.01 -8.20444 1926.23 -76.5566 1923.53 -142.661C1921.85 -183.841 1920.27 -222.731 1925.23 -257.573C1930.78 -296.547 1943.73 -324.864 1966.01 -346.687C2003.58 -383.476 2069.86 -401.594 2168.64 -402.083C2180.86 -402.145 2192.91 -402.177 2204.71 -402.177Z" fill="#00B687" fill-opacity="0.3"/>
<path d="M1892.4 1099.56C1987.99 1099.56 2083.24 1080.28 2172.16 1042C2322.25 977.397 2422.64 927.84 2497.7 881.29C2579.69 830.442 2634.25 781.176 2669.4 726.249C2739.88 616.123 2734.25 481.188 2697.74 255.12C2672.79 100.568 2724.85 -25.5943 2766.66 -126.957C2801.86 -212.262 2829.66 -279.636 2794.15 -327.986C2768.86 -362.443 2713.04 -385.484 2618.47 -400.512C2519.59 -416.216 2372.34 -423.48 2168.3 -422.72C2066.74 -422.345 1998.65 -403.707 1960.16 -365.753C1937.24 -343.149 1924.05 -313.864 1918.67 -273.579C1913.88 -237.811 1915.85 -197.973 1917.94 -155.794C1924.54 -22.0352 1932.02 129.582 1726.56 222.339C1632.59 264.767 1553.14 312.275 1490.4 363.56C1432.08 411.223 1387.74 462.487 1358.6 515.916C1331.43 565.754 1317.49 617.372 1317.17 669.323C1316.88 718.267 1328.61 766.773 1352.05 813.521C1379.86 868.979 1424.46 921.398 1481.05 965.117C1537.35 1008.62 1605.84 1043.78 1679.12 1066.8C1748.71 1088.67 1820.66 1099.54 1892.42 1099.54L1892.4 1099.56ZM2171.23 1040.11C2016.08 1106.89 1841.56 1115.68 1679.81 1064.85C1606.78 1041.9 1538.54 1006.86 1482.45 963.525C1426.12 919.993 1381.71 867.824 1354.04 812.647C1330.75 766.19 1319.08 717.975 1319.38 669.354C1319.69 617.726 1333.56 566.431 1360.57 516.884C1389.57 463.694 1433.74 412.638 1491.85 365.141C1554.44 313.981 1633.73 266.578 1727.52 224.233C1819.77 182.584 1877.45 125.326 1903.86 49.1893C1926.98 -17.4561 1923.52 -87.8273 1920.16 -155.878C1918.08 -197.963 1916.12 -237.717 1920.88 -273.309C1926.2 -313.125 1939.2 -342.046 1961.77 -364.306C1999.83 -401.833 2067.38 -420.253 2168.31 -420.628C2372.23 -421.388 2519.36 -414.134 2618.1 -398.451C2712.04 -383.528 2767.41 -360.768 2792.33 -326.8C2827.16 -279.355 2799.55 -212.429 2764.6 -127.696C2722.68 -26.1042 2670.52 100.339 2695.56 255.443C2731.97 481.011 2737.63 615.603 2667.5 725.187C2632.53 779.834 2578.18 828.892 2496.48 879.562C2421.52 926.05 2321.21 975.566 2171.24 1040.12L2171.23 1040.11Z" fill="#00B687" fill-opacity="0.3"/>
<path d="M1888.6 1109.4C1985.93 1109.4 2081.46 1089.33 2168.32 1050.3C2326.25 979.323 2425.54 929.619 2500.32 884.1C2585.81 832.055 2642.79 782.758 2679.62 728.986C2716.6 675.005 2735.47 613.376 2739.02 535.013C2742.16 465.672 2733.96 381.251 2711.59 252.737C2683.9 93.5745 2737.85 -36.0012 2781.21 -140.122C2817.18 -226.488 2845.58 -294.716 2809.69 -343.846C2783.98 -379.042 2726.88 -402.624 2629.98 -418.058C2528.62 -434.209 2377.5 -441.785 2167.97 -441.244C2064.27 -440.973 1994.9 -422.033 1955.9 -383.34C1932.67 -360.289 1919.46 -330.39 1914.28 -289.262C1909.7 -252.734 1912.04 -212.033 1914.52 -168.949C1922.44 -31.2973 1931.42 124.712 1718.14 219.352C1582.51 279.535 1477.62 349.032 1406.41 425.917C1342.06 495.383 1306.1 569.553 1299.54 646.366C1293.81 713.334 1310.47 779.303 1349.05 842.42C1385.23 901.625 1440.22 956.032 1508.09 999.741C1552.15 1028.13 1600.8 1051.63 1652.69 1069.58C1705.91 1088 1761.44 1100.2 1817.72 1105.83C1841.39 1108.19 1865.06 1109.37 1888.62 1109.37L1888.6 1109.4ZM2188.85 -439.183C2387.46 -439.183 2531.76 -431.586 2629.6 -415.997C2725.86 -400.668 2782.5 -377.356 2807.85 -342.66C2843.09 -294.435 2814.86 -226.665 2779.14 -140.871C2735.69 -36.5215 2681.61 93.3456 2709.4 253.08C2731.74 381.449 2739.93 465.744 2736.8 534.929C2733.27 612.897 2714.51 674.204 2677.76 727.862C2641.09 781.384 2584.32 830.484 2499.11 882.362C2424.42 927.83 2325.21 977.501 2167.37 1048.42C2080.8 1087.32 1985.6 1107.32 1888.6 1107.32C1865.12 1107.32 1841.53 1106.14 1817.93 1103.79C1761.83 1098.18 1706.49 1086.02 1653.43 1067.66C1601.72 1049.76 1553.24 1026.34 1509.32 998.044C1441.73 954.502 1386.96 900.335 1350.95 841.4C1312.6 778.647 1296.04 713.084 1301.73 646.543C1308.25 570.177 1344.03 496.413 1408.06 427.291C1479.08 350.624 1583.71 281.304 1719.07 221.246C1814.8 178.765 1874.43 120.081 1901.34 41.8317C1924.9 -26.6558 1920.74 -99.0459 1916.71 -169.042C1914.24 -212.044 1911.91 -252.651 1916.47 -289.002C1921.58 -329.662 1934.62 -359.186 1957.5 -381.894C1996.06 -420.149 2064.89 -438.882 2167.96 -439.152C2174.97 -439.183 2181.96 -439.183 2188.84 -439.183H2188.85Z" fill="#00B687" fill-opacity="0.3"/>
<path d="M1885.03 1119.31C1983.48 1119.31 2078.93 1098.69 2164.48 1058.59C2310.33 990.229 2417.8 937.643 2502.81 886.764C2593.14 832.711 2650.8 784.839 2689.74 731.567C2729.37 677.357 2749.86 615.749 2754.21 537.687C2758.14 467.16 2749.26 378.545 2725.42 250.343C2694.98 86.6748 2750.8 -46.8867 2795.65 -154.213C2832.53 -242.463 2861.67 -312.178 2824.95 -362.287C2798.64 -398.201 2740.17 -422.137 2640.95 -437.612C2537.05 -453.815 2382.22 -461.059 2167.6 -459.768C2061.72 -459.133 1991.06 -439.558 1951.57 -399.929C1928.06 -376.336 1914.82 -345.803 1909.88 -303.842C1905.49 -266.586 1908.21 -225.104 1911.09 -181.198C1920.33 -40.0807 1930.81 119.862 1709.72 216.365C1570.29 277.214 1462.63 347.418 1389.7 425.033C1323.89 495.081 1287.21 569.938 1280.68 647.531C1277.78 682.051 1280.99 716.966 1290.24 751.288C1299.13 784.288 1313.62 816.913 1333.32 848.259C1371.33 908.743 1428.79 964.337 1499.49 1009C1544.87 1037.67 1594.75 1061.4 1647.75 1079.51C1702.06 1098.08 1758.43 1110.3 1815.3 1115.88C1838.64 1118.17 1861.92 1119.31 1885.03 1119.31ZM2215.26 -457.853C2405.24 -457.853 2544.68 -450.527 2640.6 -435.562C2739.18 -420.191 2797.18 -396.526 2823.13 -361.111C2859.18 -311.908 2830.23 -242.65 2793.59 -154.972C2748.64 -47.4071 2692.69 86.4563 2723.24 250.697C2747.05 378.733 2755.92 467.212 2752 537.572C2747.67 615.239 2727.31 676.504 2687.92 730.391C2649.16 783.424 2591.7 831.108 2501.63 885.005C2416.69 935.832 2309.27 988.397 2163.5 1056.73C2078.26 1096.68 1983.13 1117.22 1885.04 1117.22C1862 1117.22 1838.82 1116.09 1815.54 1113.81C1758.86 1108.26 1702.67 1096.07 1648.52 1077.55C1595.7 1059.5 1545.98 1035.85 1500.74 1007.28C1430.31 962.776 1373.09 907.422 1335.24 847.197C1315.65 816.018 1301.24 783.57 1292.4 750.767C1283.21 716.664 1280.02 681.978 1282.9 647.687C1289.38 570.552 1325.89 496.101 1391.38 426.396C1464.09 349.011 1571.51 278.973 1710.66 218.238C1809.9 174.925 1871.47 114.909 1898.88 34.7758C1922.87 -35.3664 1918.01 -109.578 1913.31 -181.343C1910.43 -225.167 1907.72 -266.555 1912.09 -303.634C1916.97 -345.126 1930.03 -375.275 1953.21 -398.524C1992.26 -437.716 2062.39 -457.073 2167.62 -457.708C2183.83 -457.801 2199.72 -457.853 2215.25 -457.853H2215.26Z" fill="#00B687" fill-opacity="0.3"/>
<path d="M1881.48 1129.19C1981.05 1129.19 2076.44 1108.02 2160.65 1066.88C2457.58 921.825 2616.4 841.14 2699.79 734.002C2742.13 679.605 2764.24 618.049 2769.41 540.289C2774.2 467.961 2764.91 377.796 2739.27 247.95C2706.06 79.671 2763.8 -57.2416 2810.21 -167.252C2847.87 -256.533 2877.62 -327.039 2840.55 -377.918C2813.83 -414.582 2754.09 -439.069 2652.55 -454.991C2546.17 -471.674 2387.44 -479.302 2167.29 -478.313C2059.27 -477.824 1987.32 -457.978 1947.33 -417.631C1923.51 -393.591 1910.22 -362.464 1905.51 -319.65C1901.31 -281.624 1904.41 -239.278 1907.68 -194.435C1918.27 -49.4052 1930.28 114.981 1701.34 213.357C1558.07 274.914 1447.59 345.868 1372.94 424.231C1305.63 494.904 1268.24 570.489 1261.78 648.895C1258.88 684.205 1262.39 719.932 1272.24 755.097C1281.68 788.836 1296.98 822.21 1317.71 854.305C1357.61 916.07 1417.6 972.829 1491.22 1018.42C1537.91 1047.34 1589.02 1071.26 1643.1 1089.49C1698.48 1108.16 1755.67 1120.41 1813.08 1125.9C1836.04 1128.1 1858.88 1129.19 1881.5 1129.19H1881.48ZM2204.47 -476.326C2405.32 -476.326 2551.99 -468.645 2652.17 -452.941C2753.08 -437.123 2812.36 -412.906 2838.7 -376.753C2875.12 -326.789 2845.56 -256.72 2808.14 -168.023C2761.63 -57.7619 2703.75 79.4524 2737.09 248.324C2762.69 378.004 2771.97 468.013 2767.19 540.164C2762.06 617.518 2740.06 678.721 2697.99 732.784C2614.9 839.538 2456.23 920.128 2159.62 1065.03C2056.67 1115.33 1936.91 1135.65 1813.29 1123.82C1756.06 1118.35 1699.04 1106.13 1643.84 1087.52C1589.91 1069.35 1538.97 1045.51 1492.43 1016.68C1419.09 971.257 1359.33 914.738 1319.59 853.223C1298.97 821.305 1283.76 788.107 1274.37 754.566C1264.59 719.63 1261.1 684.132 1263.98 649.051C1270.4 571.114 1307.61 495.945 1374.59 425.616C1449.02 347.46 1559.26 276.683 1702.25 215.241C1805 171.095 1868.5 109.643 1896.42 27.3765C1920.84 -44.6181 1915.27 -120.859 1909.89 -194.581C1906.63 -239.33 1903.53 -281.592 1907.7 -319.432C1912.36 -361.777 1925.48 -392.53 1948.95 -416.216C1988.51 -456.126 2059.93 -475.753 2167.3 -476.242C2179.89 -476.294 2192.31 -476.326 2204.48 -476.326H2204.47Z" fill="#00B687" fill-opacity="0.3"/>
<path d="M1877.9 1139.03C1978.61 1139.03 2073.94 1117.33 2156.8 1075.17C2178.82 1063.96 2200.19 1053.13 2220.9 1042.62C2481.83 910.252 2639.32 830.348 2719.65 723.699C2759.85 670.322 2780.66 609.983 2785.15 533.805C2789.43 461.321 2779.54 372.416 2753.11 245.556C2717.07 72.5527 2776.83 -66.9511 2824.85 -179.043C2863.14 -268.407 2893.38 -338.997 2856.42 -390.417C2829.51 -427.83 2768.61 -453.097 2664.75 -469.925C2555.94 -487.554 2393.11 -496.359 2166.95 -496.858C2056.8 -496.723 1983.56 -476.721 1943.06 -435.728C1918.91 -411.293 1905.57 -379.563 1901.07 -335.885C1897.07 -297.088 1900.53 -253.827 1904.21 -208.026C1910.27 -132.462 1916.53 -54.3173 1891.81 19.228C1863.61 103.118 1798.55 165.632 1692.91 210.35C1545.75 272.635 1432.41 344.369 1356.04 423.545C1287.23 494.884 1249.11 571.228 1242.74 650.466C1239.84 686.567 1243.67 723.127 1254.14 759.124C1264.16 793.602 1280.3 827.726 1302.1 860.57C1343.97 923.615 1406.59 981.518 1483.19 1028.01C1531.18 1057.13 1583.48 1081.18 1638.64 1099.5C1695.05 1118.23 1753.03 1130.47 1810.95 1135.87C1833.47 1137.97 1855.83 1139.03 1877.9 1139.03ZM2155.75 1073.34C2055.11 1124.54 1935.96 1145.46 1811.17 1133.81C1753.41 1128.42 1695.61 1116.22 1639.38 1097.54C1584.39 1079.28 1532.25 1055.3 1484.4 1026.27C1408.07 979.947 1345.69 922.262 1303.99 859.477C1282.29 826.81 1266.24 792.863 1256.28 758.583C1245.88 722.804 1242.06 686.484 1244.95 650.622C1251.27 571.853 1289.21 495.924 1357.68 424.939C1433.85 345.972 1546.94 274.414 1693.82 212.244C1800.07 167.265 1865.52 104.335 1893.92 19.8524C1918.77 -54.0779 1912.49 -132.421 1906.42 -208.183C1902.75 -253.889 1899.29 -297.067 1903.27 -335.677C1907.72 -378.876 1920.89 -410.221 1944.68 -434.303C1984.74 -474.848 2057.44 -494.631 2166.94 -494.766C2392.97 -494.267 2555.67 -485.473 2664.36 -467.865C2767.59 -451.141 2828.03 -426.164 2854.56 -389.251C2890.88 -338.757 2860.82 -268.615 2822.79 -179.824C2799 -124.303 2772.05 -61.3835 2755.5 9.48715C2736.35 91.4619 2734.86 168.806 2750.93 245.941C2777.32 372.624 2787.2 461.363 2782.93 533.67C2778.47 609.442 2757.79 669.438 2717.84 722.481C2637.81 828.735 2480.48 908.545 2219.84 1040.77C2199.13 1051.29 2177.77 1062.12 2155.75 1073.33V1073.34Z" fill="#00B687" fill-opacity="0.3"/>
<path d="M1874.32 1148.85C1976.18 1148.85 2071.47 1126.61 2152.97 1083.45C2200.75 1058.15 2244.87 1035.13 2287.53 1012.87C2524.23 889.366 2667.11 814.822 2741.17 711.211C2778.46 659.041 2797.47 600.045 2800.99 525.563C2804.35 454.37 2793.54 364.631 2766.96 243.163C2749.71 164.279 2750.78 85.2075 2770.25 1.44269C2787.1 -71.041 2814.89 -135.376 2839.4 -192.146C2878.5 -282.685 2909.39 -354.201 2871.98 -406.412C2844.64 -444.564 2782.46 -470.352 2676.27 -487.575C2564.98 -505.621 2398.26 -514.716 2166.61 -515.382C2054.31 -515.382 1979.8 -495.079 1938.79 -453.358C1914.33 -428.475 1900.94 -396.141 1896.66 -351.61C1892.85 -312.053 1896.69 -267.918 1900.77 -221.191C1907.51 -143.67 1914.49 -63.5169 1889.35 11.8599C1860.66 97.8622 1793.66 161.802 1684.51 207.353C1533.41 270.397 1417.19 342.944 1339.06 422.962C1268.72 495.008 1229.89 572.144 1223.63 652.246C1220.74 689.148 1224.93 726.54 1236.05 763.391C1246.68 798.618 1263.69 833.502 1286.61 867.085C1330.53 931.42 1395.85 990.458 1475.54 1037.81C1575.19 1097.03 1693.62 1135.4 1808.99 1145.85C1831 1147.85 1852.81 1148.85 1874.31 1148.85H1874.32ZM2166.6 -513.301C2398.12 -512.635 2564.71 -503.55 2675.88 -485.525C2781.42 -468.406 2843.15 -442.899 2870.12 -405.257C2906.87 -353.962 2876.18 -282.893 2837.33 -192.926C2812.78 -136.084 2784.95 -71.655 2768.06 1.00562C2748.52 85.0618 2747.44 164.404 2764.77 243.579C2866.47 708.411 2755.11 766.513 2286.43 1011.06C2243.77 1033.32 2199.65 1056.34 2151.86 1081.64C2053.56 1133.71 1935.06 1155.2 1809.19 1143.8C1694.15 1133.39 1576.08 1095.12 1476.71 1036.07C1397.3 988.876 1332.21 930.057 1288.47 865.982C1265.67 832.576 1248.74 797.869 1238.18 762.839C1227.12 726.218 1222.97 689.065 1225.84 652.412C1232.05 572.789 1270.7 496.07 1340.69 424.377C1418.61 344.567 1534.59 272.198 1685.39 209.268C1795.15 163.467 1862.55 99.1006 1891.44 12.4948C1916.71 -63.2775 1909.72 -143.639 1902.95 -221.347C1898.89 -267.98 1895.06 -312.022 1898.85 -351.402C1903.09 -395.454 1916.29 -427.403 1940.4 -451.932C1980.96 -493.205 2054.95 -513.27 2166.59 -513.301H2166.6Z" fill="#00B687" fill-opacity="0.3"/>
<path d="M1870.68 1158.67C1973.71 1158.67 2068.98 1135.9 2149.13 1091.75C2219.76 1052.84 2285.18 1018.03 2342.9 987.305C2770.58 759.696 2885.54 698.525 2780.8 240.769C2762.29 159.856 2762.95 78.7864 2782.81 -7.03888C2800 -81.2918 2828.65 -147.136 2853.93 -205.227C2893.85 -296.953 2925.37 -369.395 2887.54 -422.418C2859.78 -461.308 2796.31 -487.617 2687.8 -505.225C2574.01 -523.687 2403.42 -533.074 2166.28 -533.907C2165.96 -533.907 2165.64 -533.907 2165.32 -533.907C2051.4 -533.907 1975.9 -513.322 1934.5 -470.987C1909.73 -445.657 1896.29 -412.719 1892.22 -367.324C1888.6 -327.008 1892.82 -281.998 1897.28 -234.345C1904.73 -154.879 1912.42 -72.7165 1886.86 4.51276C1857.69 92.6276 1788.75 158.003 1676.09 204.376C1521.02 268.212 1401.89 341.601 1321.99 422.494C1250.12 495.279 1210.56 573.247 1204.44 654.244C1201.59 691.958 1206.14 730.203 1217.95 767.918C1229.22 803.905 1247.14 839.559 1271.23 873.891C1317.26 939.527 1385.4 999.689 1468.24 1047.88C1570.47 1107.34 1690.84 1145.7 1807.21 1155.89C1828.64 1157.76 1849.83 1158.7 1870.68 1158.7V1158.67ZM2165.3 -531.836C2165.63 -531.836 2165.94 -531.836 2166.27 -531.836C2403.28 -531.003 2573.75 -521.627 2687.41 -503.175C2795.29 -485.671 2858.29 -459.643 2885.68 -421.252C2922.86 -369.156 2891.53 -297.161 2851.87 -206.007C2826.55 -147.844 2797.86 -81.9058 2780.64 -7.47595C2760.7 78.6512 2760.05 160.001 2778.63 241.217C2805.7 359.522 2817.08 447.543 2814.48 518.247C2811.8 590.908 2794.35 648.416 2759.57 699.222C2727.21 746.511 2679.55 789.127 2605.06 837.394C2535.9 882.206 2450.24 927.788 2341.8 985.504C2284.08 1016.23 2218.65 1051.04 2148.01 1089.96C2052.04 1142.84 1934.26 1164.91 1807.41 1153.79C1691.39 1143.63 1571.35 1105.38 1469.41 1046.09C1386.83 998.065 1318.94 938.112 1273.07 872.725C1249.11 838.57 1231.27 803.103 1220.07 767.314C1208.32 729.839 1203.81 691.844 1206.65 654.379C1212.73 573.872 1252.08 496.32 1323.61 423.898C1403.3 343.204 1522.19 269.992 1676.98 206.27C1790.26 159.637 1859.6 93.8451 1888.98 5.11627C1914.67 -72.498 1906.96 -154.868 1899.49 -234.533C1895.04 -282.092 1890.82 -327.008 1894.43 -367.147C1898.46 -412.053 1911.71 -444.605 1936.14 -469.571C1977.09 -511.449 2052.07 -531.815 2165.3 -531.815V-531.836Z" fill="#00B687" fill-opacity="0.3"/>
<path d="M1866.97 1168.48C1971.22 1168.48 2066.47 1145.18 2145.29 1100.03C2236.31 1047.89 2317.86 1003.95 2389.81 965.169C2585.97 859.456 2715.56 789.616 2780.78 690.845C2845.14 593.395 2849.02 466.535 2794.63 238.375C2774.85 155.422 2775.1 72.3758 2795.35 -15.5309C2812.88 -91.5634 2842.4 -158.896 2868.45 -218.308C2909.19 -311.221 2941.36 -384.62 2903.08 -438.434C2874.91 -478.053 2810.16 -504.892 2699.31 -522.896C2583.03 -541.785 2408.56 -551.452 2165.93 -552.452C2165.26 -552.452 2164.57 -552.452 2163.91 -552.452C2048.43 -552.452 1971.97 -531.576 1930.19 -488.637C1905.09 -462.859 1891.61 -429.307 1887.76 -383.059C1884.33 -341.973 1888.92 -296.089 1893.79 -247.52C1901.93 -166.108 1910.36 -81.9266 1884.37 -2.87622C1854.72 87.3512 1783.83 154.153 1667.67 201.348C1284.93 356.857 1194.03 534.627 1185.15 656.367C1182.34 694.914 1187.27 734.023 1199.81 772.611C1211.75 809.368 1230.63 845.792 1255.92 880.884C1304.18 947.831 1375.21 1009.12 1461.33 1058.11C1566.08 1117.7 1688.32 1155.96 1805.55 1165.84C1826.32 1167.59 1846.82 1168.48 1866.97 1168.48ZM2144.14 1098.25C2050.49 1151.89 1933.49 1174.54 1805.76 1163.77C1688.86 1153.91 1566.95 1115.76 1462.5 1056.33C1376.64 1007.49 1305.85 946.416 1257.78 879.719C1232.62 844.804 1213.83 808.567 1201.95 772.008C1189.49 733.669 1184.6 694.81 1187.38 656.512C1196.2 535.345 1286.85 358.346 1668.57 203.252C1785.37 155.797 1856.66 88.5688 1886.52 -2.27258C1912.63 -81.7289 1904.18 -166.118 1896.02 -247.729C1891.17 -296.214 1886.58 -342.004 1890 -382.914C1893.82 -428.673 1907.11 -461.829 1931.85 -487.242C1973.19 -529.723 2049.13 -550.381 2163.93 -550.381C2164.61 -550.381 2165.26 -550.381 2165.94 -550.381C2408.45 -549.371 2582.79 -539.714 2698.94 -520.856C2809.15 -502.957 2873.44 -476.409 2901.25 -437.289C2938.88 -384.391 2906.9 -311.45 2866.42 -219.099C2840.33 -159.614 2810.77 -92.1774 2793.2 -15.968C2772.87 72.2301 2772.63 155.579 2792.48 238.823C2846.73 466.39 2842.92 592.812 2778.91 689.741C2713.97 788.065 2584.57 857.802 2388.71 963.358C2316.75 1002.14 2235.18 1046.1 2144.14 1098.25Z" fill="#00B687" fill-opacity="0.3"/>
<path d="M1863.2 1178.28C1968.69 1178.28 2063.96 1154.46 2141.45 1108.32C2250.71 1043.27 2346.1 991.53 2430.26 945.875C2615.14 845.594 2737.28 779.344 2799.38 682.519C2831.11 633.045 2846.53 577.014 2847.88 506.185C2849.22 435.856 2836.71 349.999 2808.48 235.982C2787.44 151 2787.26 65.9547 2807.92 -24.0125C2825.78 -101.814 2856.18 -170.645 2883 -231.369C2924.56 -325.489 2957.39 -399.825 2918.67 -454.461C2890.07 -494.818 2824.03 -522.178 2710.85 -540.567C2592.09 -559.872 2413.73 -569.821 2165.59 -571.001C2103.27 -571.174 2053.25 -565.669 2012.71 -554.117C1975.09 -543.398 1946.7 -527.746 1925.9 -506.287C1900.5 -480.062 1886.96 -445.906 1883.32 -398.805C1880.08 -356.949 1885.05 -310.201 1890.3 -260.696C1899.15 -177.337 1908.3 -91.1471 1881.9 -10.2546C1851.77 82.075 1778.94 150.313 1659.26 198.34C1267.01 355.744 1174.41 535.564 1165.81 658.698C1163.05 698.098 1168.39 738.092 1181.7 777.565C1194.35 815.102 1214.22 852.317 1240.76 888.169C1291.33 956.459 1365.35 1018.86 1454.85 1068.62C1562.05 1128.23 1686.08 1166.32 1804.08 1175.86C1824.09 1177.47 1843.82 1178.28 1863.2 1178.28ZM2162.53 -568.915C2163.55 -568.915 2164.56 -568.915 2165.58 -568.915C2413.58 -567.74 2591.82 -557.801 2710.46 -538.517C2823 -520.232 2888.57 -493.153 2916.81 -453.306C2954.88 -399.606 2922.25 -325.718 2880.93 -232.17C2854.07 -171.363 2823.64 -102.439 2805.73 -24.4496C2785 65.8195 2785.19 151.166 2806.31 236.45C2834.5 350.291 2846.99 435.991 2845.65 506.144C2844.3 576.598 2828.99 632.295 2797.47 681.437C2735.67 777.804 2613.72 843.94 2429.14 944.064C2344.96 989.729 2249.55 1041.48 2140.26 1106.55C2063.12 1152.46 1968.23 1176.19 1863.19 1176.19C1843.87 1176.19 1824.22 1175.39 1804.27 1173.77C1686.59 1164.26 1562.89 1126.28 1455.97 1066.82C1366.75 1017.2 1292.96 955.012 1242.57 886.972C1216.16 851.297 1196.38 814.27 1183.8 776.93C1170.58 737.706 1165.27 697.973 1168 658.823C1176.57 536.272 1268.91 357.232 1660.12 200.245C1780.45 151.957 1853.69 83.3029 1884.02 -9.65106C1910.54 -90.9494 1901.38 -177.347 1892.5 -260.914C1887.25 -310.326 1882.3 -356.99 1885.52 -398.67C1889.12 -445.282 1902.48 -479.042 1927.52 -504.903C1969.25 -547.977 2046.14 -568.936 2162.51 -568.936L2162.53 -568.915Z" fill="#00B687" fill-opacity="0.3"/>
<path d="M1859.35 1188.09C1966.1 1188.09 2061.44 1163.73 2137.63 1116.61C2263.26 1038.9 2370.8 980.498 2465.69 928.964C2641.59 833.439 2757.79 770.322 2817.39 675.193C2847.97 626.405 2862.58 571.082 2863.39 501.107C2864.2 430.985 2851.14 345.993 2822.33 233.599C2800.03 146.587 2799.41 59.5544 2820.47 -32.4733C2838.68 -112.044 2869.94 -182.363 2897.53 -244.409C2939.93 -339.736 2973.41 -415.04 2934.26 -470.466C2905.24 -511.553 2837.91 -539.443 2722.4 -558.217C2601.14 -577.938 2418.91 -588.168 2165.27 -589.528C2101.8 -589.76 2050.91 -584.214 2009.72 -572.506C1971.48 -561.631 1942.66 -545.739 1921.61 -523.916C1895.88 -497.243 1882.3 -462.474 1878.87 -414.519C1875.82 -371.903 1881.16 -324.271 1886.8 -273.839C1896.36 -188.534 1906.24 -100.336 1879.44 -17.6019C1848.84 76.8403 1774.07 146.493 1650.86 195.354C1248.98 354.703 1154.7 536.636 1146.38 661.206C1143.7 701.48 1149.48 742.379 1163.57 782.758C1176.96 821.107 1197.88 859.113 1225.73 895.735C1278.7 965.377 1355.84 1028.89 1448.81 1079.39C1558.41 1138.93 1684.12 1176.75 1802.77 1185.89C1821.94 1187.37 1840.81 1188.09 1859.34 1188.09H1859.35ZM2161.16 -587.461C2162.53 -587.461 2163.87 -587.461 2165.25 -587.461C2418.76 -586.108 2600.88 -575.878 2722.02 -556.178C2836.88 -537.497 2903.74 -509.898 2932.41 -469.322C2970.91 -414.811 2937.63 -339.965 2895.49 -245.21C2867.87 -183.092 2836.55 -112.679 2818.3 -32.9104C2797.17 59.4296 2797.79 146.764 2820.18 234.088C2848.95 346.305 2861.98 431.152 2861.18 501.086C2860.38 570.687 2845.86 625.677 2815.5 674.142C2756.19 768.802 2640.19 831.795 2464.59 927.163C2369.68 978.708 2262.09 1037.13 2136.42 1114.87C2060.6 1161.76 1965.67 1186.01 1859.36 1186.01C1840.89 1186.01 1822.09 1185.28 1802.97 1183.81C1684.63 1174.7 1559.26 1136.98 1449.94 1077.58C1357.24 1027.23 1280.34 963.92 1227.55 894.517C1199.82 858.062 1179.01 820.243 1165.69 782.102C1151.69 741.973 1145.94 701.345 1148.6 661.331C1156.88 537.354 1250.89 356.202 1651.72 197.268C1775.58 148.158 1850.76 78.0682 1881.57 -16.9984C1908.5 -100.128 1898.6 -188.555 1889.02 -274.058C1883.39 -324.396 1878.06 -371.945 1881.09 -414.384C1884.48 -461.86 1897.88 -496.223 1923.26 -522.532C1965.39 -566.21 2043.25 -587.461 2161.18 -587.461H2161.16Z" fill="#00B687" fill-opacity="0.3"/>
<path d="M1855.39 1197.92C1963.46 1197.92 2058.88 1173.01 2133.79 1124.89C2274.17 1034.72 2397.8 967.792 2497.14 914.019C2579.37 869.509 2650.38 831.077 2706.78 792.748C2767.54 751.464 2808.26 712.054 2834.91 668.72C2893.06 574.173 2893.43 447.418 2836.16 231.205C2812.58 142.154 2811.53 53.1335 2833 -40.9548C2851.54 -122.295 2883.7 -194.102 2912.06 -257.459C2955.29 -353.993 2989.43 -430.254 2949.83 -486.493C2920.39 -528.308 2851.79 -556.719 2733.94 -575.888C2610.19 -596.015 2424.06 -606.536 2164.92 -608.069C2100.31 -608.378 2048.56 -602.769 2006.7 -590.895C1967.84 -579.874 1938.6 -563.733 1917.29 -541.556C1891.24 -514.435 1877.62 -479.063 1874.4 -430.244C1871.53 -386.858 1877.25 -338.351 1883.29 -286.994C1893.55 -199.753 1904.17 -109.536 1876.95 -24.9699C1845.87 71.5848 1769.16 142.664 1642.43 192.346C1470.99 259.553 1339.88 336.606 1252.78 421.37C1174.62 497.433 1132.26 579.012 1126.87 663.849C1124.27 705.019 1130.51 746.844 1145.45 788.149C1159.61 827.32 1181.61 866.138 1210.83 903.55C1266.32 974.577 1346.69 1039.19 1443.24 1090.41C1555.16 1149.77 1682.43 1187.24 1801.63 1195.92C1819.85 1197.25 1837.79 1197.92 1855.37 1197.92H1855.39ZM2159.8 -605.995C2161.5 -605.995 2163.2 -605.995 2164.9 -605.995C2423.93 -604.476 2609.93 -593.965 2733.56 -573.848C2850.77 -554.783 2918.9 -526.663 2947.98 -485.359C2986.92 -430.046 2952.98 -354.232 2910.01 -258.26C2881.61 -194.82 2849.41 -122.919 2830.82 -41.392C2809.29 53.0086 2810.34 142.341 2834.01 231.705C2891.12 447.335 2890.82 573.643 2832.99 667.679C2775.69 760.841 2664.43 821.065 2496.03 912.219C2396.66 966.012 2272.98 1032.96 2132.53 1123.19C2045.85 1178.86 1931.5 1203.31 1801.8 1193.86C1682.93 1185.2 1555.98 1147.83 1444.34 1088.62C1348.05 1037.54 1267.93 973.13 1212.63 902.333C1183.54 865.097 1161.66 826.467 1147.56 787.493C1132.72 746.438 1126.51 704.883 1129.1 663.984C1143.52 436.699 1416.68 283.104 1643.3 194.271C1770.68 144.339 1847.81 72.8233 1879.08 -24.3559C1906.43 -109.328 1895.78 -199.763 1885.49 -287.212C1879.46 -338.476 1873.76 -386.899 1876.62 -430.109C1879.8 -478.438 1893.25 -513.405 1918.95 -540.161C1961.47 -584.443 2040.29 -605.995 2159.8 -605.995Z" fill="#00B687" fill-opacity="0.3"/>
<path d="M1851.7 1207.65C1960.99 1207.65 2056.41 1182.24 2129.96 1133.18C2283.65 1030.67 2417.71 958.623 2525.43 900.74C2604.6 858.197 2672.96 821.461 2727.6 784.329C2786.61 744.232 2826.15 705.674 2852.04 662.975C2880.95 615.312 2894.36 561.113 2894.24 492.427C2894.12 423.565 2879.66 337.334 2850.02 228.812C2825.15 137.731 2823.69 46.7229 2845.55 -49.426C2864.44 -132.535 2897.47 -205.82 2926.61 -270.488C2970.66 -368.25 3005.47 -445.48 2965.42 -502.53C2935.56 -545.083 2865.67 -574.004 2745.49 -593.569C2619.26 -614.112 2429.23 -624.914 2164.58 -626.6C2098.8 -626.985 2046.16 -621.334 2003.62 -609.304C1964.13 -598.138 1934.45 -581.747 1912.9 -559.216C1886.54 -531.669 1872.86 -495.724 1869.86 -446.083C1867.18 -401.969 1873.24 -352.619 1879.67 -300.377C1890.63 -211.232 1901.96 -119.048 1874.35 -32.619C1842.82 66.0692 1764.21 138.678 1634.04 189.349C1458.38 257.181 1324.19 335.003 1235.19 420.641C1155.37 497.444 1112.26 579.897 1107.03 665.702C1104.47 707.818 1111.18 750.621 1126.98 792.925C1141.96 832.971 1165.1 872.683 1195.76 910.939C1253.91 983.496 1337.71 1049.33 1438.07 1101.32C1552.27 1160.5 1681.03 1197.62 1800.65 1205.86C1817.97 1207.06 1835.01 1207.65 1851.7 1207.65ZM2158.45 -624.529C2160.49 -624.529 2162.51 -624.529 2164.57 -624.508C2429.1 -622.823 2619 -612.031 2745.11 -591.508C2864.64 -572.058 2934.06 -543.418 2963.57 -501.385C3002.96 -445.261 2968.36 -368.49 2924.56 -271.29C2895.38 -206.538 2862.31 -133.16 2843.36 -49.8527C2821.43 46.6188 2822.91 137.939 2847.86 229.332C2877.45 337.688 2891.89 423.753 2892.01 492.438C2892.13 560.749 2878.81 614.614 2850.1 661.955C2824.36 704.384 2785.02 742.733 2726.29 782.654C2671.74 819.723 2603.42 856.438 2524.32 898.95C2416.56 956.865 2282.45 1028.93 2128.67 1131.5C2055.51 1180.3 1960.51 1205.59 1851.7 1205.59C1835.04 1205.59 1818.08 1205 1800.8 1203.81C1681.51 1195.59 1553.06 1158.55 1439.13 1099.52C1339.05 1047.66 1255.5 982.028 1197.54 909.711C1167 871.622 1143.98 832.107 1129.08 792.259C1113.37 750.216 1106.7 707.693 1109.24 665.847C1120.32 483.904 1302.08 319.809 1634.87 191.295C1765.7 140.374 1844.72 67.3389 1876.46 -31.9946C1904.21 -118.829 1892.84 -211.232 1881.85 -300.585C1875.44 -352.734 1869.39 -402 1872.05 -445.938C1875.04 -495.079 1888.54 -530.618 1914.54 -557.801C1957.47 -602.675 2037.3 -624.529 2158.43 -624.529H2158.45Z" fill="#00B687" fill-opacity="0.3"/>
<path d="M1847.13 1217.63C1957.96 1217.63 2053.69 1191.61 2126.12 1141.47C2291.82 1026.75 2435.59 950.308 2551.11 888.887C2703.78 807.713 2814.09 749.071 2868.82 657.886C2897.16 610.691 2910.11 556.94 2909.59 488.733C2909.07 419.954 2894.11 334.15 2863.85 226.439C2837.7 133.329 2835.81 40.3226 2858.06 -57.8765C2877.29 -142.755 2911.21 -217.518 2941.13 -283.487C2986.03 -382.508 3021.5 -460.705 2981.02 -518.567C2950.73 -561.849 2879.56 -591.3 2757.04 -611.24C2628.31 -632.189 2434.4 -643.283 2164.24 -645.135C2097.37 -645.583 2043.88 -639.89 2000.68 -627.693C1960.59 -616.37 1930.49 -599.74 1908.68 -576.845C1881.99 -548.83 1868.25 -512.24 1865.45 -461.694C1862.97 -416.778 1869.41 -366.512 1876.25 -313.292C1887.95 -222.159 1900.04 -127.925 1872.01 -39.6853C1840 61.0842 1759.41 135.015 1625.61 186.341C1445.72 255.359 1308.46 334.399 1217.68 421.286C1136.31 499.161 1092.57 582.717 1087.67 669.635C1085.25 712.678 1092.51 756.428 1109.25 799.659C1125.08 840.537 1149.39 881.04 1181.52 920.045C1242.37 993.934 1329.54 1060.75 1433.6 1113.27C1549.89 1171.96 1679.96 1208.48 1799.84 1216.1C1815.88 1217.12 1831.64 1217.63 1847.11 1217.63H1847.13ZM2156.86 -643.074C2159.3 -643.074 2161.75 -643.074 2164.23 -643.054C2434.27 -641.201 2628.06 -630.128 2756.65 -609.19C2878.53 -589.344 2949.23 -560.184 2979.16 -517.422C3018.99 -460.497 2983.73 -382.747 2939.1 -284.319C2909.13 -218.267 2875.18 -143.39 2855.91 -58.324C2833.58 40.2081 2835.47 133.516 2861.72 226.959C2891.93 334.503 2906.86 420.131 2907.38 488.743C2907.89 556.575 2895.03 609.994 2866.89 656.866C2812.46 747.551 2702.38 806.08 2550.03 887.086C2434.46 948.529 2290.63 1025.01 2124.81 1139.81C2052.78 1189.68 1957.48 1215.55 1847.14 1215.55C1831.71 1215.55 1816.01 1215.05 1800.02 1214.03C1680.44 1206.43 1550.69 1170 1434.67 1111.44C1330.89 1059.06 1243.97 992.435 1183.31 918.775C1151.32 879.937 1127.12 839.621 1111.37 798.951C1094.73 755.981 1087.52 712.522 1089.92 669.75C1094.78 583.352 1138.3 500.253 1219.29 422.754C1309.86 336.075 1446.86 257.181 1626.47 188.277C1760.93 136.7 1841.95 62.3227 1874.16 -39.0817C1902.32 -127.738 1890.2 -222.19 1878.48 -313.531C1871.67 -366.658 1865.22 -416.83 1867.69 -461.579C1870.46 -511.626 1884.02 -547.81 1910.35 -575.451C1931.89 -598.054 1961.65 -614.487 2001.35 -625.695C2042.74 -637.382 2093.67 -643.074 2156.87 -643.074H2156.86Z" fill="#00B687" fill-opacity="0.3"/>
</g>
</g>
<defs>
<clipPath id="clip0_4_504">
<rect width="1920" height="972" fill="white" transform="matrix(-1 0 0 1 1920 -104)"/>
</clipPath>
</defs>
</svg>
